<?xml version="1.0" standalone="no"?>
<svg width="567.429" height="415.049" viewBox="0 0 567.429 415.049" xmlns="http://www.w3.org/2000/svg" shape-rendering="crispEdges">
<title>
HPGe_Run04-133Ba-50mm_900s-activity_bgrm_res.svg
</title>
<desc>
Creator: ROOT Version 6.26/04
CreationDate: Mon Nov  4 12:25:23 2024</desc>
<defs>
</defs>
<rect x="0.5" y="0" width="566.929" height="414.549" fill="white"/>
<rect x="57.1929" y="41.4549" width="453.543" height="331.639" fill="white"/>
<rect x="57.1929" y="41.4549" width="453.543" height="331.639" fill="none" stroke="black"/>
<rect x="57.1929" y="41.4549" width="453.543" height="331.639" fill="white"/>
<rect x="57.1929" y="41.4549" width="453.543" height="331.639" fill="none" stroke="black"/>
<path d="M57.1929,56.3499h 0.110728v 1.38338h 0.110728v 4.28716h 0.110728v 7.17519h 0.110728v 10.0716h 0.110728v 12.9028h 0.110728v 15.7225h 0.110728v 18.6436h 0.110728v 20.8426h 0.110728v 23.851h 0.110728v 23.6623h 0.110728v 22.9942h 0.110728v
 11.8064h 0.110728v 1.22161h 0.110728v 2.77131h 0.110728v 3.14587h 0.110728v -2.18462h 0.110728v 2.86816h 0.110728v 3.7552h 0.110728v 0.494159h 0.110728v 6.92803h 0.110728v -0.879613h 0.110728v 1.33219h 0.110728v -2.38698h 0.110728v -2.35228h
 0.110728v 6.39629h 0.110728v -7.48901h 0.110728v 6.29352h 0.110728v 5.79088h 0.110728v -5.32002h 0.110728v -2.90318h 0.110728v 4.88795h 0.110728v -1.98477h 0.110728v -2.90318h 0.110728v 1.29517h 0.110728v -3.49746h 0.110728v 1.37718h 0.110728v
 -3.21333h 0.110728v 1.64588h 0.110728v 1.97635h 0.110728v -1.2058h 0.110728v -2.76692h 0.110728v 1.62044h 0.110728v 0.375927h 0.110728v -2.34166h 0.110728v 3.50726h 0.221457v 2.52213h 0.110728v -2.52213h 0.110728v -0.97533h 0.110728v -4.97042h
 0.110728v -0.306675h 0.110728v 3.44095h 0.110728v -2.50855h 0.110728v 0.971264h 0.110728v -6.705h 0.110728v 2.90065h 0.110728v -6.02835h 0.110728v -5.90551h 0.110728v -5.11651h 0.110728v -6.60344h 0.110728v -4.26632h 0.110728v -6.9474h 0.110728v
 -6.10766h 0.110728v -2.32457h 0.110728v -0.196316h 0.110728v 4.30591h 0.110728v 5.48339h 0.110728v 7.00445h 0.110728v 12.2205h 0.110728v 8.45352h 0.110728v 11.5472h 0.110728v -2.52669h 0.110728v 4.1856h 0.110728v -4.97042h 0.110728v -3.83408h
 0.110728v -6.96541h 0.110728v -0.670062h 0.110728v -0.742915h 0.110728v 1.70615h 0.110728v 2.16246h 0.110728v 4.77314h 0.110728v 1.5042h 0.110728v -0.140828h 0.110728v 0.712807h 0.110728v -0.144316h 0.110728v -6.48819h 0.110728v -5.33113h 0.110728v
 -14.0246h 0.110728v -16.9943h 0.110728v -19.0878h 0.110728v -18.3958h 0.110728v -15.8692h 0.110728v -12.3908h 0.110728v -8.1183h 0.110728v -4.55789h 0.110728v -0.362086h 0.110728v 3.23803h 0.110728v 7.47397h 0.110728v 11.218h 0.110728v 15.2177h
 0.110728v 17.9779h 0.110728v 17.3031h 0.110728v 6.79232h 0.110728v -10.9339h 0.110728v -13.2774h 0.110728v -9.79165h 0.110728v -6.39239h 0.110728v -2.72821h 0.110728v -0.106116h 0.110728v 4.02266h 0.110728v 7.11349h 0.110728v 9.34737h 0.110728v
 10.6036h 0.110728v 14.6008h 0.110728v 14.5281h 0.110728v 16.3494h 0.110728v 11.487h 0.110728v 8.35867h 0.110728v 2.15294h 0.110728v -2.38033h 0.110728v 5.0317h 0.110728v -0.279129h 0.110728v 3.91876h 0.110728v -6.54028h 0.110728v 1.80365h 0.110728v
 -3.24578h 0.110728v 1.6914h 0.110728v 3.21987h 0.110728v 2.74517h 0.110728v -4.41066h 0.110728v -2.29434h 0.110728v 1.24666h 0.110728v 1.31713h 0.110728v -2.31973h 0.110728v 1.26014h 0.110728v -1.26014h 0.110728v -0.48558h 0.332185v 1.48818h
 0.110728v 2.42719h 0.110728v -2.16966h 0.110728v 4.87932h 0.110728v -4.08918h 0.110728v -0.266368h 0.110728v -3.44095h 0.110728v 1.41298h 0.110728v 1.76461h 0.110728v -1.52056h 0.110728v 4.00531h 0.110728v -1.95502h 0.110728v 3.45922h 0.110728v
 -7.84215h 0.110728v 4.65238h 0.110728v -4.20415h 0.110728v -1.95242h 0.110728v 0.209033h 0.110728v -3.13844h 0.110728v -2.76555h 0.110728v -6.74571h 0.110728v -8.32521h 0.110728v -9.53538h 0.110728v -9.0113h 0.110728v -5.43843h 0.110728v -0.779972h
 0.110728v 2.62012h 0.110728v 5.15133h 0.110728v 7.45825h 0.110728v 14.2504h 0.110728v 11.5257h 0.110728v 3.70732h 0.110728v 1.23783h 0.110728v -0.83248h 0.110728v 1.91672h 0.110728v 5.2008h 0.110728v -2.86816h 0.110728v 3.4298h 0.110728v 4.02308h
 0.110728v -5.66896h 0.110728v -2.2695h 0.110728v 4.20136h 0.110728v -5.6002h 0.110728v 6.47981h 0.110728v -5.08097h 0.110728v -6.46347h 0.110728v -1.24097h 0.110728v -11.2758h 0.110728v -10.1835h 0.110728v -5.75786h 0.110728v -7.47096h 0.110728v
 -3.23369h 0.110728v 1.43419h 0.110728v 3.28812h 0.110728v 9.45016h 0.110728v 7.33666h 0.110728v 10.7673h 0.110728v 3.50262h 0.110728v 3.56655h 0.110728v -1.42377h 0.110728v 0.523774h 0.110728v -10.1459h 0.110728v -4.07736h 0.110728v -5.82539h
 0.110728v -0.370548h 0.110728v -0.795044h 0.110728v 1.92484h 0.110728v 4.49764h 0.110728v 4.19327h 0.110728v 6.55607h 0.110728v 2.34046h 0.110728v 4.91532h 0.110728v 0.203556h 0.110728v 2.36495h 0.110728v -0.22519h 0.110728v -6.25242h 0.110728v
 1.41298h 0.110728v -0.717194h 0.110728v -3.28812h 0.110728v -1.771h 0.110728v 0.430295h 0.110728v 2.60085h 0.110728v 2.02797h 0.110728v -2.02797h 0.110728v 6.27734h 0.110728v 0.644474h 0.110728v 1.11538h 0.110728v -1.33219h 0.110728v -1.86555h
 0.110728v 6.11492h 0.110728v -4.03255h 0.110728v 0.218846h 0.110728v 1.59231h 0.110728v 1.45716h 0.110728v -2.60552h 0.110728v -7.58461h 0.110728v 9.20864h 0.110728v -6.46347h 0.110728v 3.32125h 0.110728v -2.58128h 0.110728v 3.00505h 0.110728v
 -4.10638h 0.110728v -8.9671h 0.110728v -9.4908h 0.110728v -13.8972h 0.110728v -14.3176h 0.110728v -13.1636h 0.110728v -13.5984h 0.110728v -12.8314h 0.110728v -9.63096h 0.110728v -5.6239h 0.110728v -2.66656h 0.110728v 2.71031h 0.110728v 7.35947h
 0.110728v 12.0347h 0.110728v 16.336h 0.110728v 20.4195h 0.110728v 23.4049h 0.110728v 14.9947h 0.110728v 9.98908h 0.110728v -3.59279h 0.110728v 3.38923h 0.110728v -1.75617h 0.110728v 2.16507h 0.110728v 4.53993h 0.110728v -4.74528h 0.110728v 4.24936h
 0.110728v 3.71578h 0.110728v -4.44041h 0.110728v 1.98477h 0.110728v -1.74572h 0.110728v -1.62403h 0.110728v 1.38498h 0.110728v 2.77491h 0.110728v -1.80365h 0.110728v 0.501245h 0.110728v 0.772678h 0.110728v -2.00614h 0.110728v 2.80531h 0.110728v
 1.97875h 0.110728v 0.296908h 0.110728v -4.83945h 0.110728v 1.76461h 0.221457v 0.529727h 0.110728v 0.269448h 0.110728v -3.04436h 0.110728v -0.702776h 0.110728v 9.91632h 0.110728v -9.68441h 0.110728v 3.24578h 0.110728v -1.55437h 0.110728v 5.32645h
 0.110728v -7.01785h 0.110728v 3.78782h 0.110728v 0.837466h 0.110728v 0.285979h 0.110728v -1.39604h 0.110728v -1.82382h 0.110728v 1.55437h 0.110728v -1.3024h 0.110728v -3.95191h 0.110728v 7.50252h 0.110728v -3.29588h 0.110728v 3.59279h 0.110728v
 -3.59279h 0.110728v -1.48818h 0.110728v 4.78406h 0.110728v -0.868683h 0.110728v -6.41902h 0.110728v 5.03951h 0.221457v -2.29434h 0.110728v -5.39422h 0.110728v 7.15883h 0.110728v -2.24519h 0.110728v 0.480573h 0.110728v -1.18335h 0.110728v 4.8572h
 0.110728v -1.11007h 0.110728v -1.31713h 0.110728v -2.43001h 0.110728v 5.72589h 0.110728v -0.582705h 0.110728v -0.285979h 0.110728v -1.11007h 0.110728v 2.5764h 0.110728v -7.44969h 0.110728v 4.07412h 0.110728v 1.90924h 0.110728v 0.868683h 0.110728v
 -5.72589h 0.110728v 1.18335h 0.110728v 4.54254h 0.110728v -0.293173h 0.110728v -3.25743h 0.110728v 0.254724h 0.110728v 1.86555h 0.110728v 3.59279h 0.110728v -9.66498h 0.110728v -5.158h 0.110728v -0.170748h 0.110728v -9.39339h 0.110728v -5.08683h
 0.110728v -8.03719h 0.110728v -5.0449h 0.110728v -1.41604h 0.110728v -3.66976h 0.110728v 3.81743h 0.110728v 6.24862h 0.110728v 11.8628h 0.110728v 10.2144h 0.110728v 6.705h 0.110728v 3.8532h 0.110728v -2.94796h 0.110728v -5.33885h 0.110728v 1.91148h
 0.110728v -3.678h 0.110728v -0.169506h 0.110728v -6.83132h 0.110728v 1.83408h 0.110728v -0.538914h 0.110728v 1.79906h 0.110728v 3.56882h 0.110728v 3.62075h 0.110728v 4.05433h 0.110728v 4.62529h 0.110728v -4.8572h 0.110728v 2.17529h 0.110728v
 3.25743h 0.110728v -7.42219h 0.110728v 4.67703h 0.110728v 5.52678h 0.110728v -6.29101h 0.110728v -1.92332h 0.110728v 9.22054h 0.110728v -1.33219h 0.110728v -8.79359h 0.110728v 2.33264h 0.110728v 2.31973h 0.110728v 0.548425h 0.110728v 0.84762h
 0.110728v 4.07736h 0.110728v -1.65367h 0.110728v -6.86409h 0.110728v 0.480573h 0.110728v 0.739966h 0.110728v 2.09642h 0.110728v -0.808415h 0.110728v 2.22139h 0.110728v -1.13715h 0.110728v -1.60802h 0.110728v 0.790143h 0.221457v 1.37951h 0.110728v
 -2.16966h 0.110728v 2.74517h 0.110728v -3.75867h 0.110728v 3.18316h 0.110728v 2.70966h 0.110728v -6.13946h 0.110728v 4.29848h 0.110728v -1.1512h 0.110728v 0.282512h 0.110728v -0.837466h 0.110728v -4.47675h 0.110728v 1.64036h 0.110728v 0.739966h
 0.110728v 1.28801h 0.110728v 1.36337h 0.110728v -0.554954h 0.110728v -0.808415h 0.110728v -5.2008h 0.110728v 0.427663h 0.110728v 2.02797h 0.110728v -1.59231h 0.110728v 2.55356h 0.110728v -3.41688h 0.110728v 1.75985h 0.110728v -1.97078h 0.110728v
 1.29517h 0.110728v -3.30563h 0.110728v 3.30563h 0.110728v 1.60802h 0.110728v -0.702776h 0.110728v 0.702776h 0.110728v 1.72723h 0.110728v -2.88702h 0.110728v 1.88442h 0.110728v 0.495912h 0.110728v 1.55437h 0.110728v -1.55437h 0.110728v -1.92332h
 0.110728v 0.466155h 0.110728v 4.39105h 0.110728v -7.88272h 0.110728v 5.97348h 0.110728v -2.00614h 0.110728v 1.23346h 0.110728v -3.30145h 0.110728v 2.8002h 0.110728v -3.01905h 0.110728v 0.887992h 0.110728v -2.1596h 0.110728v 3.08277h 0.221457v
 -2.45563h 0.110728v 2.69226h 0.110728v -0.236621h 0.110728v 6.16205h 0.110728v -7.97321h 0.110728v 6.77772h 0.110728v -2.48475h 0.221457v -3.40498h 0.110728v 2.38033h 0.110728v -3.48513h 0.110728v 3.48513h 0.110728v -5.35069h 0.110728v 8.00206h
 0.110728v -0.827553h 0.110728v 1.11007h 0.110728v -3.4298h 0.110728v -0.244054h 0.110728v -0.717194h 0.110728v -2.45563h 0.110728v 2.22139h 0.110728v 0.709912h 0.110728v -1.84706h 0.110728v 0.675612h 0.110728v 2.15294h 0.110728v -2.38033h 0.110728v
 -2.97036h 0.110728v 5.35069h 0.110728v -4.74528h 0.110728v 2.36495h 0.110728v 1.88442h 0.110728v 0.246637h 0.110728v 0.249275h 0.110728v -3.04948h 0.110728v -1.28328h 0.110728v 4.08348h 0.110728v -7.01289h 0.110728v 4.21269h 0.110728v -1.89936h
 0.110728v 1.68051h 0.110728v 0.439767h 0.110728v 1.60802h 0.110728v -4.13015h 0.110728v -2.63423h 0.110728v 4.7166h 0.110728v -3.05769h 0.110728v 2.2023h 0.110728v -1.62201h 0.110728v -3.45247h 0.110728v -6.06289h 0.110728v -4.91257h 0.110728v
 -3.96642h 0.110728v -4.36767h 0.110728v 3.1544h 0.110728v 6.03904h 0.110728v 5.67055h 0.110728v 6.01743h 0.110728v -0.535816h 0.110728v 5.55664h 0.110728v -1.09443h 0.221457v 0.87139h 0.110728v -0.87139h 0.110728v 1.77663h 0.110728v -3.02552h
 0.110728v 6.23684h 0.110728v 0.535816h 0.110728v 1.97875h 0.110728v -3.29588h 0.110728v -3.99183h 0.110728v 2.50364h 0.110728v 0.48558h 0.110728v -1.65703h 0.110728v 5.66234h 0.110728v -4.96656h 0.110728v -0.234243h 0.110728v 3.51523h 0.110728v
 0.827553h 0.110728v -1.36337h 0.110728v -1.78392h 0.110728v -2.33264h 0.110728v 10.8216h 0.110728v -3.59279h 0.110728v -1.18035h 0.110728v -1.93186h 0.110728v -3.44095h 0.110728v 4.52519h 0.110728v 0.279129h 0.110728v -3.39134h 0.110728v 4.83945h
 0.110728v -4.59539h 0.110728v -1.19549h 0.110728v 2.1981h 0.110728v -2.88702h 0.110728v 3.14456h 0.110728v 3.63599h 0.110728v -4.64949h 0.110728v -1.44213h 0.110728v 5.49397h 0.110728v 1.84098h 0.110728v -4.87932h 0.110728v -4.03255h 0.110728v
 2.52836h 0.110728v 4.54254h 0.110728v -7.71537h 0.110728v 3.17283h 0.110728v 2.29434h 0.110728v 3.77207h 0.110728v -2.10658h 0.110728v -0.285979h 0.110728v -0.837466h 0.110728v -4.24936h 0.110728v -4.55206h 0.110728v 7.993h 0.110728v -0.523774h
 0.110728v -2.91717h 0.110728v 5.66234h 0.110728v -4.96656h 0.110728v 2.74517h 0.110728v -0.263358h 0.110728v -0.772678h 0.110728v -0.991936h 0.110728v -5.77631h 0.110728v 5.05912h 0.110728v 3.55358h 0.110728v -2.09642h 0.110728v 1.55437h 0.110728v
 -3.9347h 0.110728v 0.923169h 0.110728v -1.59231h 0.110728v -1.28328h 0.110728v 2.40944h 0.110728v -0.682204h 0.110728v -0.662802h 0.110728v 1.34501h 0.110728v 0.231912h 0.110728v 2.97941h 0.110728v -2.74517h 0.110728v -2.24278h 0.110728v 1.77663h
 0.110728v -0.682204h 0.110728v 3.11221h 0.110728v -6.25242h 0.110728v 1.41298h 0.110728v 2.40944h 0.110728v -2.82196h 0.221457v -4.11267h 0.110728v -1.65367h 0.110728v 3.43369h 0.110728v 1.72723h 0.110728v 4.85477h 0.110728v -7.13043h 0.110728v
 3.71355h 0.110728v 2.69226h 0.110728v 0.971264h 0.110728v -10.8923h 0.110728v 8.09209h 0.110728v -0.218846h 0.110728v -2.28072h 0.110728v -4.47867h 0.110728v 11.0524h 0.110728v -9.36271h 0.110728v 1.26014h 0.110728v 0.561641h 0.110728v 3.68772h
 0.110728v -4.06365h 0.110728v 3.19226h 0.110728v 1.09443h 0.110728v -5.55664h 0.110728v 4.89384h 0.110728v -5.58962h 0.110728v 2.53193h 0.110728v -2.18663h 0.110728v 7.05549h 0.110728v -3.89353h 0.110728v -2.09428h 0.110728v -2.58275h 0.110728v
 6.32777h 0.110728v -2.62607h 0.110728v -2.35992h 0.110728v 1.98093h 0.110728v 3.21987h 0.110728v -2.64905h 0.110728v -1.85073h 0.110728v 1.46864h 0.110728v -0.745887h 0.110728v -0.722755h 0.110728v 0.358576h 0.110728v -0.886304h 0.110728v 3.16196h
 0.110728v -0.97533h 0.110728v 3.49746h 0.110728v -7.36158h 0.110728v 3.11221h 0.110728v 2.9542h 0.110728v -0.209033h 0.110728v 9.03764h 0.110728v -2.33264h 0.110728v 2.64135h 0.110728v 7.22877h 0.110728v -1.23783h 0.110728v -3.01153h 0.110728v
 4.24936h 0.110728v -0.419957h 0.110728v -0.817872h 0.110728v 2.10115h 0.110728v -0.86332h 0.110728v 0.427663h 0.110728v -2.84088h 0.110728v -1.83614h 0.110728v -1.03604h 0.110728v 7.04525h 0.110728v -2.99768h 0.110728v -0.39842h 0.110728v 1.63625h
 0.110728v 1.75985h 0.110728v -1.33219h 0.110728v -1.66549h 0.110728v 3.93009h 0.110728v -3.93009h 0.110728v -0.790143h 0.110728v -1.5042h 0.110728v 8.2092h 0.110728v -3.36975h 0.110728v 0.914116h 0.110728v -0.914116h 0.110728v 0.452577h 0.110728v
 -1.33219h 0.110728v -0.84762h 0.110728v -1.99326h 0.110728v 3.7205h 0.110728v 5.53941h 0.110728v -8.48293h 0.110728v -1.89592h 0.110728v 12.1499h 0.110728v -2.88107h 0.110728v -2.0731h 0.110728v -1.90367h 0.110728v 3.97676h 0.110728v 0.548425h
 0.110728v -10.1786h 0.110728v 0.361356h 0.110728v -3.38375h 0.110728v -8.81158h 0.110728v -5.37281h 0.110728v 2.53193h 0.110728v 1.58074h 0.110728v 1.26014h 0.110728v 3.99183h 0.110728v 5.13686h 0.110728v 14.021h 0.110728v -0.57551h 0.110728v
 -6.84668h 0.110728v -2.7922h 0.110728v 4.09948h 0.110728v -1.30728h 0.110728v 3.66352h 0.110728v 1.53728h 0.110728v 6.00922h 0.110728v -6.53299h 0.110728v -2.91717h 0.110728v 2.91717h 0.110728v 0.523774h 0.110728v -1.03604h 0.110728v 5.71306h
 0.110728v -4.14121h 0.110728v -4.8733h 0.110728v 7.14895h 0.110728v 10.3643h 0.110728v -10.3643h 0.110728v 0.60541h 0.110728v 1.91672h 0.110728v -4.24936h 0.110728v 2.9542h 0.110728v 11.0807h 0.110728v -10.4421h 0.110728v 1.33219h 0.110728v
 -1.97078h 0.110728v 4.88795h 0.110728v -6.11492h 0.110728v 1.86555h 0.110728v 1.33219h 0.110728v 5.37281h 0.110728v -3.95983h 0.110728v -4.00531h 0.110728v 9.75887h 0.110728v -2.64135h 0.110728v -2.37225h 0.110728v -5.35069h 0.110728v 6.90506h
 0.110728v 4.41066h 0.110728v -4.41066h 0.110728v 5.40259h 0.110728v 1.03604h 0.110728v -1.03604h 0.110728v -9.78552h 0.110728v 3.59279h 0.110728v -4.24936h 0.110728v 12.5624h 0.110728v 2.33264h 0.110728v -5.44486h 0.110728v 0.991936h 0.110728v
 -6.95697h 0.110728v 3.21987h 0.221457v -3.95983h 0.110728v 1.5042h 0.110728v -0.764232h 0.110728v 5.0136h 0.110728v -5.75356h 0.110728v 1.5042h 0.110728v 11.9058h 0.110728v -5.71306h 0.110728v -3.7371h 0.110728v 0.879613h 0.110728v 14.4279h
 0.110728v -1.60802h 0.110728v -8.92639h 0.221457v 3.41688h 0.110728v -6.39629h 0.110728v 0.951437h 0.110728v 6.705h 0.221457v -3.59279h 0.110728v -2.12028h 0.110728v -2.85749h 0.110728v -0.879613h 0.110728v 2.74517h 0.110728v 14.2896h 0.110728v
 -8.84476h 0.110728v 12.7383h 0.110728v -11.4781h 0.110728v -6.705h 0.110728v 4.24936h 0.110728v 3.78782h 0.110728v 1.41298h 0.110728v -7.42219h 0.110728v 2.22139h 0.110728v -10.2144h 0.110728v 7.993h 0.110728v -8.73297h 0.110728v 22.8602h 0.110728v
 -13.043h 0.110728v 3.59279h 0.110728v 7.58461h 0.110728v -12.2616h 0.110728v 6.00922h 0.110728v 8.11798h 0.221457v -6.705h 0.110728v 3.11221h 0.110728v -9.45016h 0.110728v 22.4931h 0.110728v -18.9003h 0.110728v 5.85738h 0.110728v -8.31301h 0.110728v
 11.9058h 0.110728v -13.043h 0.110728v 9.45016h 0.110728v -3.11221h 0.110728v 6.705h 0.110728v -5.2008h 0.110728v 14.651h 0.110728v -2.74517h 0.110728v -4.67703h 0.110728v -10.1459h 0.110728v 6.25242h 0.110728v -3.33525h 0.110728v 7.22877h 0.110728v
 -10.1459h 0.110728v 10.1459h 0.110728v -3.89353h 0.110728v -1.72723h 0.110728v 3.59279h 0.110728v 4.24936h 0.110728v -10.9544h 0.110728v -4.00531h 0.110728v 17.4153h 0.110728v 2.74517h 0.110728v -16.1552h 0.110728v 6.705h 0.221457v 12.5624h
 0.110728v 3.59279h 0.110728v -14.1272h 0.110728v -7.22877h 0.110728v 14.651h 0.110728v -5.2008h 0.110728v 8.31301h 0.110728v 13.043h 0.110728v -18.9003h 0.110728v -2.45563h 0.110728v -7.84215h 0.110728v 16.1552h 0.110728v -3.11221h 0.332185v
 3.11221h 0.110728v -10.5344h 0.110728v 7.42219h 0.110728v -18.9003h 0.110728v 2.74517h 0.110728v -2.74517h 0.110728v -11.9058h 0.110728v -18.727h 0.110728v -24.899h 0.110728v -18.8605h 0.110728v -12.4423h 0.110728v -7.6452h 0.110728v -0.708339h
 0.110728v 1.18517h 0.110728v 8.28681h 0.110728v 11.8622h 0.110728v 19.1742h 0.110728v 20.5039h 0.110728v 24.7257h 0.110728v 23.1497h 0.110728v -9.45016h 0.110728v -5.50951h 0.110728v 17.4153h 0.110728v 2.74517h 0.110728v -9.45016h 0.110728v 6.705h
 0.110728v -4.67703h 0.110728v 2.22139h 0.110728v -2.22139h 0.221457v 2.22139h 0.110728v 5.2008h 0.221457v -2.74517h 0.110728v -8.57055h 0.110728v 8.57055h 0.110728v 5.85738h 0.221457v 45.3533h 0.110728v -57.9157h 0.110728v 16.1552h 0.110728v
 -3.59279h 0.110728v -8.31301h 0.110728v 2.45563h 0.110728v 2.74517h 0.110728v 10.9544h 0.110728v 5.2008h 0.110728v -23.5774h 0.110728v 30.2824h 0.110728v -11.9058h 0.110728v 21.356h 0.110728v -29.1981h 0.110728v -10.5344h 0.110728v 7.42219h
 0.110728v 16.1552h 0.110728v -5.2008h 0.110728v 21.356h 0.110728v -32.3103h 0.110728v 6.705h 0.110728v 16.1552h 0.110728v -16.1552h 0.110728v -6.705h 0.110728v 10.9544h 0.110728v -4.24936h 0.221457v -3.59279h 0.110728v -3.11221h 0.110728v 10.9544h
 0.110728v -7.84215h 0.110728v 19.7479h 0.110728v -22.8602h 0.110728v 3.11221h 0.110728v 3.59279h 0.110728v -3.59279h 0.332185v 3.59279h 0.110728v 4.24936h 0.110728v -10.9544h 0.110728v 6.705h 0.110728v 16.1552h 0.110728v -16.1552h 0.221457v 4.24936h
 0.110728v 11.9058h 0.110728v -22.8602h 0.110728v -9.45016h 0.110728v -22.1202h 0.110728v -16.1552h 0.110728v -27.0625h 0.110728v -19.9988h 0.110728v -18.1165h 0.110728v -12.5929h 0.110728v -6.5508h 0.110728v -3.42789h 0.110728v 2.90905h 0.110728v
 6.89655h 0.110728v 12.766h 0.110728v 16.8065h 0.110728v 18.7475h 0.110728v 28.1667h 0.110728v 29.0222h 0.110728v 5.50951h 0.110728v 5.2008h 0.110728v -25.6053h 0.110728v -11.5141h 0.110728v -5.90123h 0.110728v -2.33264h 0.110728v -1.86555h 0.110728v
 4.81975h 0.110728v 6.49597h 0.110728v 10.2978h 0.110728v 11.4781h 0.110728v 16.1552h 0.110728v 18.3766h 0.110728v -7.84215h 0.110728v -12.5624h 0.110728v 16.1552h 0.110728v -22.8602h 0.110728v -4.00531h 0.110728v -1.19549h 0.221457v 16.1552h
 0.110728v 2.45563h 0.110728v -4.67703h 0.110728v 55.8877h 0.110728v -32.3103h 0.110728v -13.043h 0.110728v 29.1981h 0.110728v -16.1552h 0.110728v 6.705h 0.221457v -6.705h 0.110728v -13.043h 0.110728v 61.5084h 0.110728v -41.7605h 0.110728v -11.9058h
 0.110728v 21.356h 0.110728v -35.0555h 0.110728v 25.6053h 0.221457v 41.7605h 0.110728v -41.7605h 0.110728v -6.705h 0.110728v 6.705h 0.110728v 25.6053h 0.110728v -25.6053h 0.221457v -6.705h 0.221457v 6.705h 0.110728v 25.6053h 0.110728v -25.6053h
 0.110728v -6.705h 0.110728v -9.45016h 0.110728v -6.705h 0.110728v 10.9544h 0.332185v -10.9544h 0.110728v 6.705h 0.442913v 9.45016h 0.332185v -5.2008h 0.110728v 53.6663h 0.110728v -32.3103h 0.110728v 16.1552h 0.221457v -25.6053h 0.332185v -11.9058h
 0.110728v 5.2008h 0.110728v 16.1552h 0.110728v -21.356h 0.110728v -4.24936h 0.110728v 16.1552h 0.110728v 9.45016h 0.221457v -39.7325h 0.110728v -5.62076h 0.110728v -13.5138h 0.110728v -24.6539h 0.110728v -9.23335h 0.110728v -4.89384h 0.110728v
 -8.61126h 0.110728v -0.121708h 0.110728v 2.97389h 0.110728v 5.58318h 0.110728v 21.8877h 0.110728v 10.5985h 0.110728v 9.45016h 0.110728v 16.1552h 0.110728v 23.5774h 0.110728v -33.7233h 0.110728v 6.25242h 0.110728v -26.1954h 0.110728v -0.57551h
 0.110728v -5.53941h 0.110728v 2.35624h 0.110728v 4.95416h 0.110728v 7.96514h 0.110728v 12.1953h 0.110728v 3.11221h 0.110728v 7.84215h 0.110728v 21.356h 0.110728v 6.705h 0.110728v -6.705h 0.110728v 6.705h 0.332185v -6.705h 0.110728v 16.1552h
 0.110728v 16.1552h 0.110728v -37.5111h 0.110728v 21.356h 0.110728v -9.45016h 0.110728v -22.8602h 0.110728v 32.3103h 0.332185v -9.45016h 0.110728v -28.061h 0.110728v 28.061h 0.110728v 9.45016h 0.110728v -39.7325h 0.110728v 55.8877h 0.110728v
 -37.5111h 0.110728v 37.5111h 0.110728v -25.6053h 0.110728v -11.9058h 0.110728v 11.9058h 0.110728v 41.7605h 0.221457v -41.7605h 0.110728v -6.705h 0.221457v 48.4655h 0.110728v -41.7605h 0.110728v 9.45016h 0.221457v 16.1552h 0.110728v -16.1552h
 0.110728v 32.3103h 0.110728v -16.1552h 0.221457v -25.6053h 0.110728v -35.9031h 0.110728v -28.2269h 0.110728v -35.3294h 0.110728v -27.2182h 0.110728v -19.6266h 0.110728v -15.5939h 0.110728v -11.1553h 0.110728v -7.22939h 0.110728v -2.13415h 0.110728v
 2.31829h 0.110728v 6.83316h 0.110728v 10.9378h 0.110728v 16.406h 0.110728v 20.2832h 0.110728v 22.0024h 0.110728v 27.6996h 0.110728v 26.5194h 0.110728v 29.669h 0.110728v 13.043h 0.110728v 32.3103h 0.110728v -16.1552h 0.221457v 16.1552h 0.110728v
 -37.5111h 0.110728v 11.9058h 0.110728v 9.45016h 0.110728v 32.3103h 0.110728v -16.1552h 0.332185v -41.7605h 0.110728v 41.7605h 0.110728v -16.1552h 0.110728v -29.1981h 0.110728v 3.59279h 0.110728v -6.705h 0.110728v 48.4655h 0.110728v -16.1552h
 0.110728v -16.1552h 0.110728v 48.4655h 0.110728v -41.7605h 0.110728v 9.45016h 0.332185v -9.45016h 0.110728v 9.45016h 0.110728v -9.45016h 0.110728v 9.45016h 0.110728v 16.1552h 0.110728v -16.1552h 0.110728v 16.1552h 0.110728v 16.1552h 0.110728v
 -16.1552h 0.110728v -37.5111h 0.110728v 37.5111h 0.110728v 16.1552h 0.110728v -32.3103h 0.221457v -9.45016h 0.110728v 9.45016h 0.110728v 16.1552h 0.110728v -48.4655h 0.110728v 32.3103h 0.110728v 16.1552h 0.221457v -37.5111h 0.110728v 21.356h
 0.110728v -16.1552h 0.110728v -5.2008h 0.110728v -10.9544h 0.110728v 16.1552h 0.110728v -33.7233h 0.110728v -4.92498h 0.110728v 9.45016h 0.110728v 5.62076h 0.110728v -8.73297h 0.110728v 27.1095h 0.110728v 11.9058h 0.110728v 9.45016h 0.110728v
 16.1552h 0.332185v 16.1552h 0.332185v -48.4655h 0.221457v -32.3103h 0.110728v -18.9003h 0.110728v -26.6601h 0.110728v -17.0653h 0.110728v -13.1983h 0.110728v -13.41h 0.110728v -7.07415h 0.110728v -3.2259h 0.110728v 3.2727h 0.110728v 5.79389h
 0.110728v 14.4194h 0.110728v 9.4223h 0.110728v 10.0853h 0.110728v 3.16746h 0.110728v -6.74185h 0.110728v -9.48696h 0.110728v -4.83025h 0.110728v -2.4377h 0.110728v 2.85983h 0.110728v 9.20801h 0.110728v 12.3312h 0.110728v 18.0719h 0.110728v 23.9973h
 0.110728v 17.1066h 0.221457v -16.1552h 0.110728v -11.9058h 0.110728v -9.83541h 0.110728v -7.4569h 0.110728v 0.279129h 0.110728v -1.36337h 0.110728v 4.03844h 0.110728v 8.67578h 0.110728v 10.8631h 0.110728v 16.1552h 0.110728v 8.73297h 0.110728v
 39.7325h 0.221457v 16.1552h 0.110728v 16.1552h 1.66093v -16.1552h 0.110728v -16.1552h 0.110728v 32.3103h 0.332185v -16.1552h 0.110728v 16.1552h 0.332185v -16.1552h 0.221457v 16.1552h 0.110728v -16.1552h 0.110728v -25.6053h 0.110728v 41.7605h
 0.110728v -16.1552h 0.221457v -16.1552h 0.221457v 16.1552h 0.221457v 16.1552h 0.110728v -41.7605h 0.110728v 41.7605h 0.110728v -16.1552h 0.110728v 16.1552h 0.221457v -16.1552h 0.332185v 16.1552h 0.442913v -16.1552h 0.221457v 16.1552h 0.110728v
 -32.3103h 0.110728v 32.3103h 0.221457v -16.1552h 0.110728v -16.1552h 0.221457v -9.45016h 0.110728v -22.8602h 0.110728v -17.5681h 0.110728v -15.4594h 0.110728v -5.62076h 0.110728v -10.1786h 0.110728v 6.58578h 0.110728v 5.92543h 0.110728v 3.28812h
 0.110728v 10.5344h 0.110728v 11.1774h 0.110728v 3.89353h 0.110728v 23.5774h 0.221457v -16.1552h 0.110728v -16.1552h 0.110728v 3.11221h 0.221457v -5.85738h 0.110728v 1.33219h 0.110728v 6.25242h 0.110728v 11.3157h 0.110728v -7.42219h 0.110728v
 39.7325h 0.110728v -9.45016h 0.110728v -11.9058h 0.110728v 21.356h 0.221457v 16.1552h 0.110728v -37.5111h 0.110728v 21.356h 0.110728v 32.3103h 0.110728v -32.3103h 0.110728v 32.3103h 0.110728v -16.1552h 0.110728v 16.1552h 0.110728v -16.1552h
 0.221457v 16.1552h 0.221457v -16.1552h 0.110728v 16.1552h 0.110728v -32.3103h 0.110728v 16.1552h 0.110728v -16.1552h 0.110728v 32.3103h 0.332185v -16.1552h 0.110728v 16.1552h 0.110728v -16.1552h 0.110728v 16.1552h 0.66437v -16.1552h 0.110728v
 16.1552h 0.110728v -16.1552h 0.221457v 16.1552h 0.442913v -16.1552h 0.110728v 16.1552h 0.110728v -16.1552h 0.110728v -37.5111h 0.110728v -16.1552h 0.110728v -6.11492h 0.110728v -27.3326h 0.110728v -19.9846h 0.110728v -4.28857h 0.110728v -7.75806h
 0.110728v -2.14468h 0.110728v 2.85749h 0.110728v 8.45823h 0.110728v 8.43223h 0.110728v 12.3077h 0.110728v 20.6081h 0.110728v 43.0206h 0.110728v 25.6053h 0.221457v 16.1552h 0.66437v -16.1552h 0.110728v 16.1552h 1.10728v -16.1552h 0.110728v 16.1552h
 1.43947v -16.1552h 0.110728v 16.1552h 3.10039v -16.1552h 0.110728v 16.1552h 1.10728v -16.1552h 0.110728v 16.1552h 0.332185v -16.1552h 0.110728v 16.1552h 0.553642v -16.1552h 0.110728v 16.1552h 0.221457v -41.7605h 0.332185v -16.1552h 0.110728v
 9.45016h 0.110728v -13.043h 0.110728v 45.3533h 0.110728v -25.6053h 0.110728v 41.7605h 0.442913v -16.1552h 0.110728v 16.1552h 0.110728v -16.1552h 0.110728v 16.1552h 0.110728v -32.3103h 0.221457v 32.3103h 0.110728v -32.3103h 0.110728v 32.3103h
 0.110728v -16.1552h 0.110728v 16.1552h 290.773" fill="none" stroke="#0000ff"/>
<path d="M57.1929,373.094h 453.543" fill="none" stroke="black"/>
<path d="M57.2441,363.145v 9.94918" fill="none" stroke="black"/>
<path d="M74.4093,368.12v 4.97459" fill="none" stroke="black"/>
<path d="M91.5746,368.12v 4.97459" fill="none" stroke="black"/>
<path d="M108.74,368.12v 4.97459" fill="none" stroke="black"/>
<path d="M125.905,363.145v 9.94918" fill="none" stroke="black"/>
<path d="M143.07,368.12v 4.97459" fill="none" stroke="black"/>
<path d="M160.236,368.12v 4.97459" fill="none" stroke="black"/>
<path d="M177.401,368.12v 4.97459" fill="none" stroke="black"/>
<path d="M194.566,363.145v 9.94918" fill="none" stroke="black"/>
<path d="M211.731,368.12v 4.97459" fill="none" stroke="black"/>
<path d="M228.897,368.12v 4.97459" fill="none" stroke="black"/>
<path d="M246.062,368.12v 4.97459" fill="none" stroke="black"/>
<path d="M263.227,363.145v 9.94918" fill="none" stroke="black"/>
<path d="M280.392,368.12v 4.97459" fill="none" stroke="black"/>
<path d="M297.558,368.12v 4.97459" fill="none" stroke="black"/>
<path d="M314.723,368.12v 4.97459" fill="none" stroke="black"/>
<path d="M331.888,363.145v 9.94918" fill="none" stroke="black"/>
<path d="M349.053,368.12v 4.97459" fill="none" stroke="black"/>
<path d="M366.219,368.12v 4.97459" fill="none" stroke="black"/>
<path d="M383.384,368.12v 4.97459" fill="none" stroke="black"/>
<path d="M400.549,363.145v 9.94918" fill="none" stroke="black"/>
<path d="M417.714,368.12v 4.97459" fill="none" stroke="black"/>
<path d="M434.88,368.12v 4.97459" fill="none" stroke="black"/>
<path d="M452.045,368.12v 4.97459" fill="none" stroke="black"/>
<path d="M469.21,363.145v 9.94918" fill="none" stroke="black"/>
<path d="M57.2441,363.145v 9.94918" fill="none" stroke="black"/>
<path d="M469.21,363.145v 9.94918" fill="none" stroke="black"/>
<path d="M486.375,368.12v 4.97459" fill="none" stroke="black"/>
<path d="M503.541,368.12v 4.97459" fill="none" stroke="black"/>
<text xml:space="preserve" x="53.0285" y="386.629" fill="black" font-size="13.8112" font-family="Helvetica">0</text>
<text xml:space="preserve" x="115.968" y="386.629" fill="black" font-size="13.8112" font-family="Helvetica">0.2</text>
<text xml:space="preserve" x="185.06" y="386.629" fill="black" font-size="13.8112" font-family="Helvetica">0.4</text>
<text xml:space="preserve" x="253.678" y="386.629" fill="black" font-size="13.8112" font-family="Helvetica">0.6</text>
<text xml:space="preserve" x="322.296" y="386.629" fill="black" font-size="13.8112" font-family="Helvetica">0.8</text>
<text xml:space="preserve" x="397.54" y="386.629" fill="black" font-size="13.8112" font-family="Helvetica">1</text>
<text xml:space="preserve" x="459.533" y="386.629" fill="black" font-size="13.8112" font-family="Helvetica">1.2</text>
<text xml:space="preserve" x="426.88" y="399.879" fill="black" font-size="13.8112" font-family="Helvetica">Energy (MeV)</text>
<path d="M57.1929,373.094v -331.639" fill="none" stroke="black"/>
<path d="M63.9961,373.094h -6.80315" fill="none" stroke="black"/>
<path d="M63.9961,368.845h -6.80315" fill="none" stroke="black"/>
<path d="M63.9961,365.252h -6.80315" fill="none" stroke="black"/>
<path d="M63.9961,362.14h -6.80315" fill="none" stroke="black"/>
<path d="M63.9961,359.395h -6.80315" fill="none" stroke="black"/>
<path d="M70.7992,356.939h -13.6063" fill="none" stroke="black"/>
<text xml:space="preserve" x="47.3497" y="362.021" fill="black" font-size="13.8112" font-family="Helvetica">1</text>
<path d="M63.9961,340.784h -6.80315" fill="none" stroke="black"/>
<path d="M63.9961,331.334h -6.80315" fill="none" stroke="black"/>
<path d="M63.9961,324.629h -6.80315" fill="none" stroke="black"/>
<path d="M63.9961,319.428h -6.80315" fill="none" stroke="black"/>
<path d="M63.9961,315.179h -6.80315" fill="none" stroke="black"/>
<path d="M63.9961,311.586h -6.80315" fill="none" stroke="black"/>
<path d="M63.9961,308.474h -6.80315" fill="none" stroke="black"/>
<path d="M63.9961,305.728h -6.80315" fill="none" stroke="black"/>
<path d="M70.7992,303.273h -13.6063" fill="none" stroke="black"/>
<text xml:space="preserve" x="37.8851" y="308.073" fill="black" font-size="13.8112" font-family="Helvetica">10</text>
<path d="M63.9961,287.118h -6.80315" fill="none" stroke="black"/>
<path d="M63.9961,277.667h -6.80315" fill="none" stroke="black"/>
<path d="M63.9961,270.962h -6.80315" fill="none" stroke="black"/>
<path d="M63.9961,265.762h -6.80315" fill="none" stroke="black"/>
<path d="M63.9961,261.512h -6.80315" fill="none" stroke="black"/>
<path d="M63.9961,257.919h -6.80315" fill="none" stroke="black"/>
<path d="M63.9961,254.807h -6.80315" fill="none" stroke="black"/>
<path d="M63.9961,252.062h -6.80315" fill="none" stroke="black"/>
<path d="M70.7992,249.606h -13.6063" fill="none" stroke="black"/>
<text xml:space="preserve" x="47.823" y="249.865" fill="black" font-size="9.37414" font-family="Helvetica">2</text>
<text xml:space="preserve" x="33.1528" y="255.544" fill="black" font-size="13.8112" font-family="Helvetica">10</text>
<path d="M63.9961,233.451h -6.80315" fill="none" stroke="black"/>
<path d="M63.9961,224.001h -6.80315" fill="none" stroke="black"/>
<path d="M63.9961,217.296h -6.80315" fill="none" stroke="black"/>
<path d="M63.9961,212.095h -6.80315" fill="none" stroke="black"/>
<path d="M63.9961,207.846h -6.80315" fill="none" stroke="black"/>
<path d="M63.9961,204.253h -6.80315" fill="none" stroke="black"/>
<path d="M63.9961,201.141h -6.80315" fill="none" stroke="black"/>
<path d="M63.9961,198.396h -6.80315" fill="none" stroke="black"/>
<path d="M70.7992,195.94h -13.6063" fill="none" stroke="black"/>
<text xml:space="preserve" x="47.823" y="195.917" fill="black" font-size="9.37414" font-family="Helvetica">3</text>
<text xml:space="preserve" x="33.1528" y="202.069" fill="black" font-size="13.8112" font-family="Helvetica">10</text>
<path d="M63.9961,179.785h -6.80315" fill="none" stroke="black"/>
<path d="M63.9961,170.335h -6.80315" fill="none" stroke="black"/>
<path d="M63.9961,163.63h -6.80315" fill="none" stroke="black"/>
<path d="M63.9961,158.429h -6.80315" fill="none" stroke="black"/>
<path d="M63.9961,154.18h -6.80315" fill="none" stroke="black"/>
<path d="M63.9961,150.587h -6.80315" fill="none" stroke="black"/>
<path d="M63.9961,147.475h -6.80315" fill="none" stroke="black"/>
<path d="M63.9961,144.73h -6.80315" fill="none" stroke="black"/>
<path d="M70.7992,142.274h -13.6063" fill="none" stroke="black"/>
<text xml:space="preserve" x="47.823" y="142.442" fill="black" font-size="9.37414" font-family="Helvetica">4</text>
<text xml:space="preserve" x="33.1528" y="148.121" fill="black" font-size="13.8112" font-family="Helvetica">10</text>
<path d="M63.9961,126.119h -6.80315" fill="none" stroke="black"/>
<path d="M63.9961,116.669h -6.80315" fill="none" stroke="black"/>
<path d="M63.9961,109.964h -6.80315" fill="none" stroke="black"/>
<path d="M63.9961,104.763h -6.80315" fill="none" stroke="black"/>
<path d="M63.9961,100.513h -6.80315" fill="none" stroke="black"/>
<path d="M63.9961,96.9207h -6.80315" fill="none" stroke="black"/>
<path d="M63.9961,93.8084h -6.80315" fill="none" stroke="black"/>
<path d="M63.9961,91.0633h -6.80315" fill="none" stroke="black"/>
<path d="M70.7992,88.6076h -13.6063" fill="none" stroke="black"/>
<text xml:space="preserve" x="47.823" y="88.4939" fill="black" font-size="9.37414" font-family="Helvetica">5</text>
<text xml:space="preserve" x="33.1528" y="94.6459" fill="black" font-size="13.8112" font-family="Helvetica">10</text>
<path d="M63.9961,72.4525h -6.80315" fill="none" stroke="black"/>
<path d="M63.9961,63.0023h -6.80315" fill="none" stroke="black"/>
<path d="M63.9961,56.2973h -6.80315" fill="none" stroke="black"/>
<path d="M63.9961,51.0965h -6.80315" fill="none" stroke="black"/>
<path d="M63.9961,46.8472h -6.80315" fill="none" stroke="black"/>
<path d="M63.9961,43.2544h -6.80315" fill="none" stroke="black"/>
<g transform="rotate(-90,22.7418,70.9845)">
<text xml:space="preserve" x="22.7418" y="70.9845" fill="black" font-size="13.8112" font-family="Helvetica">Yield</text>
</g>
<path d="M57.2441,356.939v 16.1552h 3.65362v -98.344h 0.110716v -12.0425h 0.110716v -0.405349h 0.110716v -7.78467h 0.110716v -2.71317h 0.110716v 2.14468h 0.110716v -5.2569h 0.110716v 1.86555h 0.110716v -4.00531h 0.110716v 7.11752h 0.110716v -8.11798h
 0.110716v 4.28857h 0.110716v -3.49167h 0.110716v 4.69956h 0.110716v 1.27392h 0.110716v -7.54092h 0.110716v -3.83515h 0.110716v 3.64643h 0.110716v -2.15294h 0.110716v 6.25242h 0.110716v -5.90713h 0.110716v 1.80765h 0.110716v -4.43657h 0.110716v
 -2.91717h 0.110716v 4.03103h 0.110716v -1.42256h 0.110716v -2.74517h 0.110716v -4.78828h 0.110716v -6.62161h 0.110716v -8.80075h 0.110716v -5.21225h 0.110716v -9.64775h 0.110716v -7.71206h 0.110716v -1.83878h 0.110716v 9.67223h 0.110716v 16.5232h
 0.110716v 16.0934h 0.110716v 11.3775h 0.110716v -1.17539h 0.110716v -0.190262h 0.110716v -2.8502h 0.110716v -2.38847h 0.110716v -5.01848h 0.110716v -6.45966h 0.110716v -9.26445h 0.110716v -7.84215h 0.110716v -1.91672h 0.110716v 8.19648h 0.110716v
 8.4546h 0.110716v 2.46492h 0.110716v 0.280248h 0.110716v -2.57749h 0.110716v -4.43096h 0.110716v -9.88668h 0.110716v -5.41829h 0.110716v -2.88107h 0.110716v -5.93519h 0.110716v -1.78366h 0.110716v -1.74195h 0.110716v -6.0642h 0.110716v -20.0109h
 0.110716v -24.4651h 0.110716v -18.6907h 0.110716v -8.31639h 0.110716v 1.34112h 0.110716v 14.281h 0.110716v 24.4863h 0.110716v 30.0843h 0.110716v 21.3792h 0.110716v 6.84763h 0.110716v 1.11895h 0.110716v 1.17539h 0.110716v -3.41166h 0.110716v
 -13.2545h 0.110716v -24.1373h 0.110716v -17.7446h 0.110716v -8.03622h 0.110716v 4.14341h 0.110716v 10.5761h 0.110716v 12.4475h 0.110716v 13.0959h 0.110716v 19.4163h 0.110716v 24.4804h 0.110716v 9.32846h 0.110716v 7.19569h 0.110716v -0.246637h
 0.110716v -3.62781h 0.110716v 5.67809h 0.110716v -3.24578h 0.110716v -0.461539h 0.110716v 1.65703h 0.110716v 4.59539h 0.110716v -5.08097h 0.110716v -0.941824h 0.110716v 7.24976h 0.110716v 1.63052h 0.110716v -5.93232h 0.110716v -0.260416h 0.110716v
 0.790143h 0.110716v 4.41066h 0.110716v -5.96503h 0.110716v -1.45716h 0.110716v 1.20789h 0.110716v 0.755968h 0.110716v -1.72723h 0.110716v 0.480573h 0.110716v -3.17283h 0.110716v 2.69226h 0.110716v 2.50855h 0.110716v -2.50855h 0.110716v -1.15979h
 0.110716v 1.64036h 0.110716v 1.24666h 0.110716v -6.44746h 0.110716v 4.48361h 0.110716v -1.37139h 0.110716v 3.59279h 0.110716v -7.46923h 0.110716v 7.21169h 0.110716v -3.77501h 0.110716v 3.52029h 0.110716v 1.3024h 0.110716v -6.0943h 0.110716v 2.61661h
 0.110716v 2.43001h 0.110716v -3.11221h 0.110716v -3.91076h 0.110716v -0.188721h 0.110716v -0.37292h 0.110716v 0.561641h 0.110716v -18.0644h 0.110716v -14.7613h 0.110716v -13.352h 0.110716v 0.905756h 0.110716v 12.1241h 0.110716v 20.2406h 0.110716v
 11.2613h 0.110716v 8.16216h 0.110716v -3.69994h 0.110716v -0.632807h 0.110716v -1.41298h 0.110716v 0.196684h 0.110716v 0.803768h 0.110716v 0.621556h 0.110716v -4.56221h 0.110716v -0.172008h 0.110716v 2.72375h 0.110716v -2.72375h 0.110716v -0.841498h
 0.110716v -3.52184h 0.110716v -1.77793h 0.110716v 4.3285h 0.110716v -0.77957h 0.110716v -3.94066h 0.110716v -1.01351h 0.110716v -1.20789h 0.110716v -4.09188h 0.110716v -10.4174h 0.110716v -6.03217h 0.110716v -3.31248h 0.110716v 2.03182h 0.110716v
 9.56583h 0.110716v 6.0871h 0.110716v 1.97875h 0.110716v 2.37927h 0.110716v 3.26832h 0.110716v -5.04995h 0.110716v 0.304671h 0.110716v 1.3683h 0.110716v -0.955773h 0.110716v -5.36669h 0.110716v -2.50517h 0.110716v -2.99128h 0.110716v 2.69625h
 0.110716v 4.42593h 0.110716v 4.16091h 0.110716v 2.33822h 0.110716v 0.354037h 0.110716v 0.239048h 0.110716v 2.4023h 0.110716v 3.28408h 0.110716v -6.04404h 0.110716v 1.97426h 0.110716v 2.01627h 0.110716v -3.63287h 0.110716v 2.2695h 0.110716v -6.23684h
 0.110716v 1.57185h 0.110716v 2.39549h 0.110716v 1.74572h 0.110716v 0.924477h 0.110716v -0.400703h 0.110716v 0.535816h 0.110716v 9.18072h 0.110716v -6.14581h 0.110716v 1.59699h 0.110716v 0.332962h 0.110716v 3.42571h 0.110716v 5.94077h 0.110716v
 -9.02869h 0.110716v -2.42159h 0.110716v 5.90123h 0.110716v -4.64109h 0.110716v 3.48513h 0.110716v -0.557165h 0.110716v -2.60199h 0.110716v -1.27741h 0.110716v 10.4016h 0.110716v -6.15224h 0.110716v 2.55945h 0.110716v -2.92941h 0.110716v -6.52075h
 0.110716v -11.4858h 0.110716v -18.4918h 0.110716v -11.6204h 0.110716v -5.76665h 0.110716v -11.1445h 0.110716v -22.2319h 0.110716v -15.869h 0.110716v -2.95593h 0.110716v 8.59207h 0.110716v 21.3966h 0.110716v 29.9713h 0.110716v 30.9078h 0.110716v
 6.45166h 0.110716v 6.49597h 0.110716v -0.817872h 0.110716v -0.634243h 0.110716v 5.43662h 0.110716v -1.89592h 0.110716v 2.90504h 0.110716v 6.91217h 0.110716v -1.60802h 0.110716v 1.05959h 0.110716v -2.0731h 0.110716v 6.21431h 0.110716v -4.94039h
 0.110716v -3.40498h 0.110716v 10.7292h 0.110716v -7.06084h 0.110716v 1.08424h 0.110716v -5.85738h 0.110716v 6.13651h 0.110716v 2.99218h 0.110716v 2.34945h 0.110716v -1.03604h 0.110716v -0.335358h 0.110716v -9.88993h 0.110716v 4.03255h 0.221432v
 6.87829h 0.110716v -9.33392h 0.110716v 5.2008h 0.110716v 8.31301h 0.110716v -11.8224h 0.110716v 6.29101h 0.110716v -2.19153h 0.110716v -0.296908h 0.110716v -6.63113h 0.110716v 5.47993h 0.110716v 2.99218h 0.110716v -3.54713h 0.110716v 2.91717h
 0.110716v -3.18977h 0.110716v 3.50262h 0.110716v -5.32645h 0.110716v 0.506693h 0.110716v 6.45027h 0.110716v 1.03604h 0.110716v -7.993h 0.110716v 6.95697h 0.110716v -4.58472h 0.110716v -3.35374h 0.110716v 3.63287h 0.110716v -0.827553h 0.110716v
 -0.535816h 0.110716v 6.00922h 0.110716v -1.00621h 0.110716v -6.78692h 0.110716v 1.78392h 0.110716v 5.3336h 0.110716v -3.68772h 0.110716v -3.91538h 0.110716v -2.9313h 0.110716v 7.71537h 0.110716v -3.29588h 0.110716v -1.72723h 0.110716v 1.22054h
 0.110716v -1.92332h 0.110716v 11.7525h 0.110716v -9.06492h 0.110716v 1.33219h 0.110716v -6.22014h 0.110716v 5.41173h 0.110716v 6.00922h 0.110716v -6.27257h 0.110716v 0.799175h 0.110716v -0.799175h 0.110716v 9.58147h 0.110716v -7.67223h 0.110716v
 -3.67385h 0.110716v 4.83945h 0.110716v -4.09948h 0.110716v -1.92332h 0.221432v 1.18335h 0.110716v -2.52836h 0.110716v 5.09214h 0.110716v -3.51523h 0.110716v -3.65928h 0.110716v -0.198358h 0.110716v -6.9506h 0.110716v -4.51656h 0.110716v -6.94528h
 0.110716v -6.92803h 0.110716v 3.98451h 0.110716v 5.10225h 0.110716v 11.9386h 0.110716v 9.12419h 0.110716v -1.64036h 0.110716v 7.70677h 0.110716v -5.57572h 0.110716v -3.87444h 0.110716v -0.416207h 0.110716v 2.1596h 0.110716v 1.39884h 0.110716v
 -5.53479h 0.110716v -3.99533h 0.110716v 4.76588h 0.110716v 1.62201h 0.110716v -1.22697h 0.110716v 2.52213h 0.110716v 9.78552h 0.110716v 1.75323h 0.110716v -10.4016h 0.110716v -1.35807h 0.110716v 19.4566h 0.110716v -8.76462h 0.110716v -8.86306h
 0.110716v 7.18557h 0.110716v 1.33219h 0.110716v -1.33219h 0.110716v -3.59279h 0.110716v -1.3476h 0.110716v -2.48181h 0.110716v 10.5344h 0.110716v -6.14336h 0.110716v 2.70966h 0.110716v 0.978059h 0.110716v -6.36964h 0.110716v 4.14825h 0.110716v
 -4.14825h 0.110716v 2.39941h 0.110716v -4.34278h 0.110716v 4.34278h 0.110716v 1.4481h 0.110716v -5.32002h 0.110716v 4.44041h 0.110716v 6.2303h 0.110716v -6.2303h 0.110716v -4.67703h 0.110716v -0.695782h 0.110716v 8.44395h 0.110716v 2.78624h
 0.110716v -3.43369h 0.110716v -5.13686h 0.110716v -3.77501h 0.110716v 7.3678h 0.110716v -3.84751h 0.110716v -1.23346h 0.110716v 6.30794h 0.110716v -8.81158h 0.110716v 10.7824h 0.110716v -7.29722h 0.110716v -1.92332h 0.110716v 5.43271h 0.110716v
 -4.72994h 0.110716v 2.24519h 0.110716v -0.260416h 0.110716v 3.33525h 0.110716v -4.34875h 0.110716v -1.20789h 0.110716v -1.81116h 0.110716v 2.28683h 0.110716v -6.28067h 0.110716v 1.3214h 0.110716v 9.16063h 0.110716v -1.93186h 0.110716v 0.808415h
 0.110716v -4.47675h 0.110716v -3.16871h 0.110716v 4.3285h 0.110716v 4.15443h 0.110716v -3.67385h 0.110716v 5.44486h 0.110716v -5.2008h 0.110716v 6.13946h 0.110716v -10.1835h 0.110716v 1.49045h 0.110716v 1.82894h 0.110716v -1.15979h 0.110716v
 -2.1596h 0.110716v 3.55844h 0.110716v -7.35657h 0.110716v 5.28859h 0.110716v -0.435657h 0.110716v 5.58155h 0.110716v -2.83639h 0.110716v -2.52836h 0.110716v 2.28683h 0.110716v -0.941824h 0.110716v 5.72589h 0.110716v -4.05185h 0.110716v -0.732216h
 0.110716v 1.48818h 0.110716v -3.55617h 0.110716v 3.04948h 0.110716v -6.51628h 0.110716v -1.99637h 0.110716v 4.38893h 0.110716v -1.62201h 0.110716v 1.00045h 0.110716v 2.82196h 0.110716v 0.702776h 0.110716v -2.26459h 0.110716v 0.216811h 0.110716v
 -2.47741h 0.110716v -0.580287h 0.110716v 1.58074h 0.110716v -0.803768h 0.221432v 2.49957h 0.110716v -8.09209h 0.110716v 1.27741h 0.110716v 2.23781h 0.110716v -1.90721h 0.110716v -0.978059h 0.110716v -1.0915h 0.110716v 2.91717h 0.110716v 0.701014h
 0.110716v -1.54863h 0.110716v 4.58472h 0.110716v 0.825112h 0.110716v -6.06641h 0.110716v 4.4444h 0.110716v -3.11221h 0.110716v 2.53193h 0.110716v 3.7205h 0.110716v -1.72723h 0.110716v -4.86544h 0.110716v 1.03604h 0.110716v 3.62223h 0.110716v 1.2716h
 0.110716v -3.05769h 0.110716v 1.17539h 0.110716v -1.55437h 0.110716v -0.187206h 0.110716v -0.185714h 0.110716v 4.02844h 0.110716v -4.02844h 0.110716v 2.12909h 0.110716v 0.203556h 0.110716v -0.203556h 0.110716v -5.56278h 0.110716v -10.0801h 0.110716v
 -6.705h 0.110716v 3.42506h 0.110716v 6.49597h 0.110716v 5.62076h 0.110716v 7.21502h 0.110716v -2.72224h 0.110716v 5.33885h 0.110716v -2.2004h 0.110716v 5.41173h 0.110716v -4.11656h 0.110716v -1.91672h 0.110716v 4.99725h 0.110716v -2.85749h 0.110716v
 -1.5182h 0.110716v -0.825112h 0.110716v -0.401854h 0.110716v 6.90506h 0.110716v -0.790143h 0.110716v -1.26014h 0.110716v -4.45292h 0.110716v 0.408905h 0.221432v -1.59426h 0.110716v 4.44278h 0.110716v 2.71605h 0.110716v 0.799175h 0.110716v -2.80531h
 0.110716v -0.709912h 0.110716v 3.51523h 0.110716v -1.05959h 0.110716v -0.764232h 0.110716v 4.70489h 0.110716v -2.33264h 0.110716v -3.35374h 0.110716v 0.241525h 0.110716v -2.95998h 0.110716v 1.31962h 0.110716v -0.887992h 0.110716v 9.55933h 0.110716v
 -8.21432h 0.110716v -1.56182h 0.110716v 5.85738h 0.110716v -6.49597h 0.110716v 4.63041h 0.110716v 7.13582h 0.110716v -8.86306h 0.110716v 2.77491h 0.110716v -1.55437h 0.110716v -3.26832h 0.110716v -0.216811h 0.110716v 0.216811h 0.110716v 0.887992h
 0.110716v 4.20415h 0.221432v -3.04436h 0.110716v -6.4058h 0.110716v 3.08642h 0.110716v 1.93441h 0.110716v 2.10961h 0.110716v -6.02037h 0.110716v 0.190262h 0.110716v 5.8301h 0.110716v -1.19549h 0.110716v -1.13715h 0.110716v 2.57928h 0.110716v
 0.249275h 0.110716v -0.495912h 0.110716v -1.65703h 0.110716v -3.3961h 0.110716v 1.42532h 0.110716v 1.5182h 0.110716v -3.91076h 0.110716v 1.36565h 0.221432v 5.40259h 0.110716v -1.23346h 0.110716v -3.76378h 0.110716v -1.00045h 0.110716v 4.28857h
 0.110716v 11.6716h 0.110716v -12.8199h 0.110716v -0.223035h 0.110716v -2.52213h 0.110716v 3.19774h 0.110716v -1.547h 0.110716v 4.46418h 0.110716v -4.46418h 0.110716v 0.214812h 0.110716v -0.427663h 0.110716v 0.427663h 0.110716v 2.26459h 0.110716v
 -4.91365h 0.110716v 5.88491h 0.110716v -4.29065h 0.110716v 2.84852h 0.110716v -2.43232h 0.110716v 0.210924h 0.110716v 0.644474h 0.110716v 3.01905h 0.110716v 1.53728h 0.110716v -6.43863h 0.110716v 3.22731h 0.110716v -0.229627h 0.110716v -1.11538h
 0.110716v 4.8227h 0.110716v -5.03951h 0.110716v 3.7371h 0.110716v -1.94337h 0.110716v 2.97941h 0.110716v -2.97941h 0.110716v -1.13715h 0.110716v 2.08859h 0.110716v -2.30951h 0.110716v -1.6958h 0.110716v 0.83248h 0.110716v 1.30728h 0.110716v
 -4.09948h 0.110716v 2.58128h 0.110716v -3.32125h 0.110716v 4.83945h 0.110716v -2.74517h 0.110716v -1.54152h 0.110716v 11.5971h 0.110716v -10.8391h 0.110716v 5.1527h 0.110716v 4.49089h 0.110716v -10.2144h 0.110716v -0.739966h 0.110716v 6.94905h
 0.110716v -4.04401h 0.110716v 5.82793h 0.110716v -1.78392h 0.110716v -2.55356h 0.110716v -0.650469h 0.110716v -2.24082h 0.110716v 3.33525h 0.110716v -3.91076h 0.110716v 8.07065h 0.110716v 2.2482h 0.110716v -5.02311h 0.110716v 1.98477h 0.110716v
 -2.45563h 0.110716v 2.45563h 0.110716v 3.33525h 0.110716v -4.59539h 0.110716v 2.86816h 0.110716v 7.84215h 0.110716v -1.86555h 0.110716v -1.39187h 0.110716v 0.685549h 0.110716v -0.685549h 0.110716v -0.665959h 0.110716v 4.71353h 0.110716v -5.03951h
 0.110716v -1.86555h 0.110716v 4.61072h 0.110716v -0.717194h 0.110716v -4.19043h 0.110716v 8.01984h 0.110716v -8.01984h 0.110716v 8.4398h 0.110716v -3.53217h 0.110716v -1.06768h 0.110716v 5.02751h 0.110716v -3.21987h 0.110716v -3.80661h 0.110716v
 3.06665h 0.110716v -2.08859h 0.110716v -0.656578h 0.110716v 0.656578h 0.110716v 5.62076h 0.110716v -8.14289h 0.110716v -0.590082h 0.110716v 9.59629h 0.110716v 3.30145h 0.110716v -2.40491h 0.110716v -0.452577h 0.110716v -1.72723h 0.110716v -2.37225h
 0.110716v -0.739966h 0.110716v 6.22443h 0.110716v -5.48446h 0.110716v -0.37292h 0.221432v -1.43473h 0.110716v 1.80765h 0.110716v 2.37225h 0.110716v 0.84762h 0.110716v -0.84762h 0.110716v -4.52519h 0.110716v 4.11267h 0.110716v -0.405349h 0.110716v
 -5.03951h 0.110716v -6.46094h 0.110716v -4.04401h 0.110716v -4.48876h 0.110716v 4.28341h 0.110716v 10.3888h 0.110716v 6.59882h 0.110716v 1.75985h 0.110716v 7.47939h 0.110716v -10.0717h 0.110716v 3.52474h 0.110716v 5.92543h 0.110716v -3.94066h
 0.110716v -8.2092h 0.110716v 8.2092h 0.110716v 2.16966h 0.110716v -6.41902h 0.110716v -1.66549h 0.110716v -0.790143h 0.110716v 10.0402h 0.110716v -7.14895h 0.110716v -3.65552h 0.110716v 24.1482h 0.110716v -15.0709h 0.110716v -4.52519h 0.110716v
 13.1575h 0.110716v -11.2538h 0.110716v -0.490691h 0.221432v -0.480573h 0.110716v 19.7479h 0.110716v -18.2754h 0.110716v 9.96243h 0.110716v -6.11492h 0.110716v -3.84751h 0.110716v -1.47251h 0.110716v 6.54698h 0.110716v -7.47939h 0.110716v 10.8631h
 0.110716v -6.33795h 0.110716v 2.33264h 0.110716v -2.33264h 0.110716v 0.561641h 0.110716v 3.03114h 0.110716v 5.85738h 0.110716v -14.4279h 0.110716v 16.1552h 0.110716v -8.2232h 0.110716v 1.29517h 0.110716v -3.11221h 0.110716v 9.16063h 0.110716v
 -7.34359h 0.110716v -4.56221h 0.110716v 5.2008h 0.110716v 0.656578h 0.110716v -6.87089h 0.110716v 8.24228h 0.110716v -2.02797h 0.110716v -2.45563h 0.110716v -1.13715h 0.110716v 3.59279h 0.110716v 11.4781h 0.110716v -5.62076h 0.110716v 1.72723h
 0.110716v -3.33525h 0.110716v -6.11492h 0.110716v 1.22697h 0.110716v 0.638587h 0.110716v 9.45016h 0.110716v -10.0888h 0.110716v -2.39256h 0.110716v 11.5299h 0.110716v -2.64135h 0.110716v 1.72723h 0.110716v -1.72723h 0.110716v -7.72293h 0.110716v
 8.57055h 0.110716v -1.66549h 0.110716v 0.817872h 0.110716v -1.60802h 0.110716v 0.790143h 0.110716v -2.29434h 0.110716v -4.61072h 0.110716v 10.3643h 0.110716v 4.06365h 0.110716v -4.97777h 0.110716v -0.879613h 0.110716v 12.1953h 0.110716v 3.11221h
 0.110716v -13.5138h 0.110716v 7.65644h 0.110716v 2.74517h 0.110716v 3.11221h 0.110716v -18.5274h 0.110716v 2.37225h 0.221432v 4.58472h 0.110716v -6.19274h 0.110716v -5.50951h 0.110716v 5.50951h 0.110716v 9.45016h 0.110716v -8.66002h 0.110716v
 7.52287h 0.221432v -7.52287h 0.110716v 3.45922h 0.110716v 1.94337h 0.110716v 4.45292h 0.110716v -3.41688h 0.110716v -10.1459h 0.110716v 12.3673h 0.110716v 2.45563h 0.110716v -2.45563h 0.110716v -6.11492h 0.110716v 0.914116h 0.110716v -3.45922h
 0.110716v 4.41066h 0.110716v -3.59279h 0.110716v 2.64135h 0.221432v 10.4016h 0.110716v -8.45823h 0.110716v 13.2977h 0.110716v -10.0402h 0.110716v 2.45563h 0.110716v -4.67703h 0.110716v -2.02797h 0.110716v 6.705h 0.110716v -2.45563h 0.110716v
 -7.84215h 0.110716v 7.84215h 0.110716v 6.705h 0.221432v -10.9544h 0.110716v -1.86555h 0.110716v 6.11492h 0.110716v -6.11492h 0.110716v 6.11492h 0.110716v -6.99453h 0.110716v 5.85738h 0.110716v 7.84215h 0.221432v -9.96243h 0.110716v -0.991936h
 0.110716v -2.74517h 0.110716v 3.7371h 0.110716v 4.45292h 0.110716v -10.6457h 0.110716v 3.33525h 0.110716v 11.3157h 0.110716v -5.2008h 0.110716v -4.24936h 0.110716v 4.24936h 0.110716v -1.13715h 0.110716v 6.33795h 0.110716v -1.41298h 0.110716v
 10.1459h 0.110716v -16.1552h 0.221432v -4.77314h 0.110716v -3.95983h 0.110716v 3.95983h 0.110716v 3.7371h 0.110716v -13.4732h 0.110716v -30.9949h 0.110716v -19.6403h 0.110716v -15.4986h 0.110716v -7.96076h 0.110716v -0.60723h 0.110716v 10.1522h
 0.110716v 20.9672h 0.110716v 31.1148h 0.110716v 8.79359h 0.110716v 14.2896h 0.110716v 0.914116h 0.110716v 1.94337h 0.110716v 4.45292h 0.110716v 8.84476h 0.110716v -6.25242h 0.110716v 14.823h 0.110716v -20.8322h 0.110716v -2.02797h 0.221432v 22.8602h
 0.110716v -6.705h 0.110716v -15.1632h 0.110716v 4.45292h 0.110716v 4.00531h 0.110716v 1.5042h 0.110716v -4.24936h 0.110716v 41.7605h 0.110716v -46.4375h 0.110716v 1.08424h 0.110716v -4.97777h 0.110716v 30.5831h 0.110716v 3.59279h 0.110716v -29.1981h
 0.110716v 15.0709h 0.110716v 10.5344h 0.110716v -10.5344h 0.110716v -8.73297h 0.110716v -2.74517h 0.110716v 2.74517h 0.110716v 6.705h 0.110716v 20.4045h 0.110716v -20.4045h 0.110716v -19.7479h 0.110716v 23.9973h 0.110716v -2.22139h 0.110716v
 -8.73297h 0.110716v 1.5042h 0.110716v -8.92639h 0.110716v 12.2616h 0.110716v -8.84476h 0.110716v 12.7383h 0.110716v -3.89353h 0.110716v 1.86555h 0.221432v 9.45016h 0.110716v -13.043h 0.110716v 16.1552h 0.110716v -31.4627h 0.110716v 6.99453h
 0.221432v 16.1552h 0.221432v 69.8215h 0.110716v -90.226h 0.110716v 14.2896h 0.110716v -8.84476h 0.221432v 31.1148h 0.110716v -40.1525h 0.110716v 19.7479h 0.110716v -3.59279h 0.110716v -8.31301h 0.110716v 8.31301h 0.221432v -3.11221h 0.110716v
 8.73297h 0.110716v -8.73297h 0.110716v 16.1552h 0.110716v -21.356h 0.110716v -6.11492h 0.110716v -8.84476h 0.110716v -26.2107h 0.110716v -24.0258h 0.110716v -22.9488h 0.110716v -14.704h 0.110716v -8.33137h 0.110716v 0.814344h 0.110716v 10.5929h
 0.110716v 19.9259h 0.110716v 22.8223h 0.110716v 32.2096h 0.110716v 19.6144h 0.110716v -0.914116h 0.110716v -2.5451h 0.110716v 3.45922h 0.110716v -8.49873h 0.110716v 9.45016h 0.110716v -17.5681h 0.110716v -0.452577h 0.110716v -3.7205h 0.110716v
 4.63461h 0.110716v 12.6959h 0.110716v 5.40259h 0.110716v 7.04525h 0.110716v 10.1459h 0.110716v -7.22877h 0.110716v 11.9058h 0.221432v -14.823h 0.221432v 1.41298h 0.110716v 4.83945h 0.110716v -17.0348h 0.110716v 9.45016h 0.221432v 1.33219h 0.110716v
 24.2731h 0.110716v -31.3184h 0.110716v 7.04525h 0.110716v 49.8785h 0.110716v -32.3103h 0.110716v -11.3157h 0.110716v 18.0207h 0.221432v -9.45016h 0.110716v -8.57055h 0.110716v -6.25242h 0.110716v 20.6804h 0.110716v 3.59279h 0.110716v -21.356h
 0.110716v 11.9058h 0.110716v -18.6108h 0.221432v 18.6108h 0.110716v 5.85738h 0.110716v -19.2674h 0.110716v 10.9544h 0.110716v -20.4045h 0.110716v 12.5624h 0.110716v 16.1552h 0.110716v -5.85738h 0.110716v 67.3658h 0.110716v -64.6207h 0.110716v
 -17.5681h 0.110716v 49.8785h 0.110716v -45.3533h 0.110716v 7.84215h 0.110716v -4.24936h 0.110716v -8.11798h 0.110716v 17.5681h 0.110716v -22.4931h 0.110716v 19.7479h 0.110716v -11.9058h 0.110716v 17.7632h 0.110716v 3.59279h 0.110716v -31.3184h
 0.110716v 11.5704h 0.110716v 16.1552h 0.110716v 3.59279h 0.110716v -21.356h 0.221432v 25.6053h 0.110716v -4.24936h 0.110716v -3.59279h 0.110716v 7.84215h 0.110716v -20.4045h 0.221432v 2.02797h 0.110716v -7.22877h 0.110716v 3.33525h 0.110716v
 14.4279h 0.110716v -8.31301h 0.110716v -9.45016h 0.110716v -5.50951h 0.221432v 5.50951h 0.110716v -9.96243h 0.110716v 4.45292h 0.110716v -20.6081h 0.110716v -9.10991h 0.110716v -11.63h 0.110716v 1.5042h 0.110716v 2.82855h 0.110716v 7.64252h
 0.110716v 17.2228h 0.110716v 13.41h 0.110716v 4.24936h 0.110716v 1.60802h 0.110716v 3.59279h 0.110716v -1.86555h 0.110716v -4.83945h 0.110716v 6.705h 0.110716v -14.1272h 0.221432v -2.02797h 0.110716v -7.42219h 0.110716v 11.6716h 0.110716v 1.19549h
 0.110716v 5.50951h 0.110716v 37.5111h 0.110716v -6.705h 0.110716v -13.043h 0.110716v 29.1981h 0.110716v -32.3103h 0.110716v 64.6207h 0.110716v -80.7758h 0.110716v 4.83945h 0.221432v 6.11492h 0.110716v -10.9544h 0.110716v -5.2008h 0.110716v 16.1552h
 0.110716v 8.31301h 0.110716v 19.7479h 0.110716v -19.7479h 0.110716v 13.043h 0.110716v -25.6053h 0.110716v 9.45016h 0.110716v 6.705h 0.110716v -11.9058h 0.221432v -10.9544h 0.110716v 22.8602h 0.110716v -9.45016h 0.110716v 13.6995h 0.110716v -20.4045h
 0.110716v 57.9157h 0.110716v -53.6663h 0.110716v 69.8215h 0.110716v -80.7758h 0.110716v 22.8602h 0.110716v -3.59279h 0.110716v 29.1981h 0.110716v -16.1552h 0.110716v -27.4709h 0.110716v -11.1774h 0.110716v 87.1138h 0.110716v -61.5084h 0.332148v
 -14.4279h 0.110716v 18.0207h 0.110716v -33.2618h 0.110716v -9.13731h 0.110716v -13.1328h 0.110716v -19.952h 0.110716v -23.7567h 0.110716v -25.049h 0.110716v -18.4328h 0.110716v -14.0318h 0.110716v -6.30664h 0.110716v 1.6347h 0.110716v 9.37591h
 0.110716v 18.1236h 0.110716v 23.7799h 0.110716v 27.7305h 0.110716v 21.7554h 0.110716v 15.8692h 0.110716v 7.28051h 0.110716v 4.24936h 0.110716v 8.98863h 0.110716v 40.4283h 0.110716v -44.2161h 0.110716v -1.13715h 0.110716v 17.2923h 0.110716v 8.31301h
 0.110716v 7.84215h 0.110716v -4.24936h 0.110716v 9.45016h 0.110716v -9.45016h 0.110716v -3.59279h 0.110716v 7.84215h 0.110716v 11.9058h 0.110716v -40.4283h 0.110716v 40.4283h 0.110716v -22.8602h 0.110716v -9.45016h 0.110716v 12.5624h 0.110716v
 -20.6804h 0.110716v 20.6804h 0.110716v -3.11221h 0.110716v 16.1552h 0.110716v 6.705h 0.110716v -6.705h 0.110716v 6.705h 0.110716v -28.061h 0.110716v 8.31301h 0.110716v -3.11221h 0.110716v 3.11221h 0.110716v -10.5344h 0.110716v 39.7325h 0.110716v
 -29.1981h 0.332148v -8.31301h 0.110716v -2.22139h 0.110716v 23.5774h 0.110716v -25.6053h 0.110716v 16.1552h 0.110716v 9.45016h 0.110716v -13.043h 0.110716v 3.59279h 0.110716v 9.45016h 0.110716v -9.45016h 0.110716v -22.8602h 0.110716v 22.8602h
 0.110716v 4.24936h 0.110716v -4.24936h 0.110716v 57.9157h 0.110716v -53.6663h 0.110716v 53.6663h 0.110716v -67.3658h 0.110716v 51.2107h 0.110716v -45.3533h 0.110716v -16.1552h 0.110716v 5.62076h 0.110716v -5.62076h 0.110716v -3.11221h 0.110716v
 16.1552h 0.110716v 6.705h 0.110716v -11.9058h 0.110716v 8.31301h 0.110716v 7.84215h 0.110716v -13.6995h 0.221432v 25.6053h 0.110716v -22.8602h 0.110716v 10.9544h 0.110716v -7.84215h 0.110716v -8.31301h 0.110716v -7.84215h 0.110716v -11.5704h
 0.110716v -15.1191h 0.110716v -27.4709h 0.110716v -20.1175h 0.110716v -15.1004h 0.110716v -7.55262h 0.110716v 0.104282h 0.110716v 6.63543h 0.110716v 15.4369h 0.110716v 19.3252h 0.110716v 28.7396h 0.110716v -4.33748h 0.110716v -8.70547h 0.110716v
 -13.2582h 0.110716v -11.3157h 0.110716v 0.533364h 0.110716v 2.62409h 0.110716v 11.2705h 0.110716v 12.3673h 0.110716v 26.9767h 0.110716v 26.6896h 0.110716v -3.11221h 0.110716v 3.11221h 0.221432v -20.6804h 0.110716v -2.59233h 0.110716v -14.2384h
 0.110716v -7.36158h 0.110716v 4.24936h 0.110716v 2.45563h 0.110716v -1.26014h 0.110716v 14.9597h 0.110716v 37.5111h 0.110716v -5.2008h 0.110716v 37.5111h 0.110716v -25.6053h 0.110716v 41.7605h 0.221432v -41.7605h 0.110716v 41.7605h 0.332148v
 -41.7605h 0.110716v 41.7605h 0.110716v -41.7605h 0.110716v 41.7605h 0.110716v -41.7605h 0.110716v -16.1552h 0.110716v 57.9157h 0.110716v -16.1552h 0.332148v 16.1552h 0.221432v -32.3103h 0.110716v 32.3103h 0.221432v -32.3103h 0.110716v 32.3103h
 0.221432v -67.3658h 0.110716v 67.3658h 0.110716v -16.1552h 0.110716v 16.1552h 0.110716v -48.4655h 0.110716v 48.4655h 0.110716v -16.1552h 0.110716v 16.1552h 0.110716v -48.4655h 0.110716v 32.3103h 0.110716v 16.1552h 0.221432v -67.3658h 0.110716v
 13.6995h 0.221432v 21.356h 0.221432v -9.45016h 0.221432v -11.9058h 0.110716v 37.5111h 0.110716v 16.1552h 0.221432v -57.9157h 0.110716v 9.45016h 0.110716v 48.4655h 0.221432v -16.1552h 0.110716v -41.7605h 0.110716v 57.9157h 0.110716v -48.4655h
 0.110716v 48.4655h 0.110716v -57.9157h 0.110716v 4.24936h 0.110716v 21.356h 0.110716v 16.1552h 0.221432v -61.5084h 0.110716v 1.72723h 0.110716v 11.3157h 0.110716v -26.5568h 0.110716v -0.914116h 0.110716v -9.45016h 0.110716v 22.2701h 0.110716v
 9.45016h 0.110716v 53.6663h 0.110716v -16.1552h 0.221432v 32.3103h 0.110716v -53.6663h 0.110716v -4.24936h 0.110716v -6.705h 0.110716v -13.043h 0.110716v 3.59279h 0.110716v -9.45016h 0.110716v 11.4781h 0.110716v 30.2824h 0.221432v 25.6053h 0.110716v
 -25.6053h 0.110716v 25.6053h 0.110716v -16.1552h 0.332148v -21.356h 0.110716v 53.6663h 0.110716v -53.6663h 0.110716v 21.356h 0.110716v -16.1552h 0.110716v 6.705h 0.110716v 9.45016h 0.110716v -21.356h 0.110716v 53.6663h 0.110716v -32.3103h 0.110716v
 32.3103h 0.110716v -16.1552h 0.110716v 16.1552h 0.110716v -32.3103h 0.442863v 32.3103h 0.332148v -48.4655h 0.110716v 48.4655h 0.110716v -16.1552h 0.221432v -37.5111h 0.110716v 21.356h 0.110716v -16.1552h 0.110716v 16.1552h 0.221432v 16.1552h
 0.110716v 16.1552h 0.110716v -57.9157h 0.110716v 9.45016h 0.110716v 48.4655h 0.110716v -16.1552h 0.110716v 16.1552h 0.221432v -41.7605h 0.110716v -11.9058h 0.110716v 37.5111h 0.110716v -41.7605h 0.110716v 25.6053h 0.110716v -35.0555h 0.110716v
 -13.41h 0.110716v -26.0859h 0.110716v -12.8382h 0.110716v -7.64547h 0.110716v 1.00912h 0.110716v 7.47381h 0.110716v 12.4813h 0.110716v 24.1924h 0.110716v 40.4283h 0.110716v -11.9058h 0.110716v 11.9058h 0.110716v 41.7605h 0.110716v -41.7605h
 0.110716v 9.45016h 0.110716v 16.1552h 0.332148v 16.1552h 0.221432v -32.3103h 0.110716v 32.3103h 0.221432v -16.1552h 0.110716v 16.1552h 0.221432v -53.6663h 0.110716v 53.6663h 0.221432v -16.1552h 0.110716v 16.1552h 1.21787v -16.1552h 0.110716v
 16.1552h 0.332148v -32.3103h 0.110716v 32.3103h 0.221432v -32.3103h 0.110716v 16.1552h 0.110716v 16.1552h 0.110716v -41.7605h 0.110716v 41.7605h 0.442863v -64.6207h 0.110716v 32.3103h 0.221432v 32.3103h 0.110716v -16.1552h 0.110716v 16.1552h
 0.221432v -32.3103h 0.110716v 32.3103h 0.110716v -16.1552h 0.110716v 16.1552h 0.553579v -32.3103h 0.110716v 32.3103h 0.110716v -57.9157h 0.110716v 57.9157h 0.442863v -16.1552h 0.110716v 16.1552h 0.332148v -32.3103h 0.110716v -21.356h 0.110716v
 53.6663h 0.885727v -53.6663h 0.110716v 53.6663h 0.332148v -32.3103h 0.110716v 32.3103h 0.110716v -16.1552h 0.110716v -25.6053h 0.110716v 25.6053h 0.110716v -16.1552h 0.332148v 32.3103h 0.885727v -53.6663h 0.110716v 53.6663h 0.221432v -41.7605h
 0.110716v 41.7605h 0.110716v -16.1552h 0.110716v -37.5111h 0.110716v 53.6663h 0.332148v -41.7605h 0.110716v 25.6053h 0.110716v 16.1552h 0.332148v -32.3103h 0.110716v -29.1981h 0.110716v 61.5084h 0.110716v -32.3103h 0.221432v 32.3103h 1.21787v
 -32.3103h 0.110716v 32.3103h 0.332148v -16.1552h 0.110716v 16.1552h 0.110716v -32.3103h 0.110716v 32.3103h 0.110716v -41.7605h 0.110716v 41.7605h 1.10716v -57.9157h 0.110716v 57.9157h 0.110716v -32.3103h 0.221432v 16.1552h 0.110716v 16.1552h
 0.110716v -41.7605h 0.110716v 41.7605h 0.221432v -16.1552h 0.110716v 16.1552h 0.332148v -16.1552h 0.110716v 16.1552h 0.221432v -32.3103h 0.110716v 32.3103h 0.664295v -16.1552h 0.110716v 16.1552h 0.332148v -53.6663h 0.110716v 11.9058h 0.221432v
 25.6053h 0.110716v 16.1552h 0.996443v -48.4655h 0.221432v 16.1552h 0.221432v 32.3103h 0.110716v -32.3103h 0.110716v 16.1552h 0.110716v 16.1552h 0.110716v -16.1552h 0.110716v 16.1552h 0.553579v -16.1552h 0.221432v 16.1552h 0.553579v -32.3103h
 0.110716v 32.3103h 0.332148v -16.1552h 0.110716v 16.1552h 0.442863v -16.1552h 0.110716v -32.3103h 0.110716v 32.3103h 0.221432v 16.1552h 0.442863v -16.1552h 0.110716v 16.1552h 0.553579v -16.1552h 0.110716v 16.1552h 0.221432v -53.6663h 0.110716v
 53.6663h 0.110716v -48.4655h 0.110716v 6.705h 0.110716v 41.7605h 0.442863v -16.1552h 0.110716v 16.1552h 0.110716v -16.1552h 0.110716v 16.1552h 0.221432v -53.6663h 0.110716v 5.2008h 0.110716v 48.4655h 0.110716v -16.1552h 0.110716v 16.1552h 0.553579v
 -48.4655h 0.110716v -5.2008h 0.110716v 53.6663h 0.221432v -16.1552h 0.110716v -32.3103h 0.110716v 48.4655h 0.110716v -32.3103h 0.110716v 32.3103h 0.221432v -48.4655h 0.110716v 48.4655h 0.775011v -53.6663h 0.110716v 53.6663h 0.221432v -16.1552h
 0.110716v 16.1552h 0.553579v -32.3103h 0.110716v 32.3103h 0.664295v -16.1552h 0.110716v -25.6053h 0.110716v 41.7605h 0.885727v -32.3103h 0.110716v 32.3103h 1.43931v -16.1552h 0.110716v 16.1552h 0.664295v -16.1552h 0.110716v -25.6053h 0.110716v
 41.7605h 0.553579v -16.1552h 0.110716v -32.3103h 0.110716v 16.1552h 0.110716v 32.3103h 0.442863v -16.1552h 0.221432v 16.1552h 0.553579v -41.7605h 0.110716v 41.7605h 0.110716v -32.3103h 0.110716v 32.3103h 0.221432v -16.1552h 0.110716v -16.1552h
 0.110716v 16.1552h 0.110716v 16.1552h 0.110716v -53.6663h 0.110716v 53.6663h 0.221432v -32.3103h 0.110716v 16.1552h 0.332148v 16.1552h 0.110716v -32.3103h 0.110716v 16.1552h 0.110716v 16.1552h 0.110716v -32.3103h 0.110716v 32.3103h 0.442863v
 -16.1552h 0.110716v 16.1552h 0.110716v -16.1552h 0.110716v 16.1552h 0.221432v -53.6663h 0.110716v 53.6663h 0.553579v -32.3103h 0.110716v 32.3103h 0.221432v -32.3103h 0.110716v 32.3103h 0.110716v -16.1552h 0.110716v 16.1552h 0.332148v -16.1552h
 0.110716v 16.1552h 0.110716v -16.1552h 0.221432v 16.1552h 0.221432v -16.1552h 0.110716v 16.1552h 0.110716v -16.1552h 0.110716v 16.1552h 0.221432v -32.3103h 0.110716v 32.3103h 0.442863v -32.3103h 0.221432v 32.3103h 0.885727v -48.4655h 0.110716v
 16.1552h 0.110716v 32.3103h 0.221432v -41.7605h 0.110716v 41.7605h 0.221432v -32.3103h 0.110716v -9.45016h 0.110716v 25.6053h 0.110716v -16.1552h 0.110716v 32.3103h 0.221432v -69.8215h 0.110716v 69.8215h 0.110716v -16.1552h 0.110716v 16.1552h
 0.332148v -32.3103h 0.110716v 16.1552h 0.110716v 16.1552h 0.110716v -41.7605h 0.110716v 25.6053h 0.110716v -16.1552h 0.110716v 32.3103h 0.110716v -16.1552h 0.110716v 16.1552h 0.110716v -41.7605h 0.110716v 41.7605h 0.110716v -32.3103h 0.110716v
 32.3103h 0.332148v -16.1552h 0.110716v -25.6053h 0.110716v 41.7605h 0.110716v -16.1552h 0.110716v 16.1552h 0.110716v -32.3103h 0.110716v 32.3103h 0.110716v -16.1552h 0.110716v -37.5111h 0.110716v 53.6663h 0.442863v -41.7605h 0.110716v 41.7605h
 0.775011v -32.3103h 0.110716v 32.3103h 0.221432v -16.1552h 0.332148v -41.7605h 0.110716v 57.9157h 0.332148v -32.3103h 0.110716v 32.3103h 0.553579v -16.1552h 0.110716v 16.1552h 0.221432v -16.1552h 0.110716v -16.1552h 0.110716v 32.3103h 0.553579v
 -32.3103h 0.110716v 32.3103h 0.110716v -48.4655h 0.110716v 32.3103h 0.110716v 16.1552h 0.110716v -48.4655h 0.110716v 48.4655h 0.332148v -41.7605h 0.110716v 41.7605h 0.332148v -16.1552h 0.110716v 16.1552h 0.996443v -16.1552h 0.110716v 16.1552h
 0.442863v -48.4655h 0.110716v 48.4655h 0.442863v -53.6663h 0.110716v 53.6663h 0.553579v -16.1552h 0.110716v 16.1552h 0.110716v -48.4655h 0.110716v 48.4655h 0.885727v -41.7605h 0.110716v 9.45016h 0.110716v -21.356h 0.110716v 53.6663h 0.332148v
 -41.7605h 0.110716v 41.7605h 0.885727v -32.3103h 0.110716v 32.3103h 0.221432v -57.9157h 0.110716v 25.6053h 0.221432v -16.1552h 0.110716v 48.4655h 0.442863v -16.1552h 0.110716v -16.1552h 0.110716v 32.3103h 0.332148v -32.3103h 0.110716v 32.3103h
 0.221432v -32.3103h 0.110716v 32.3103h 1.21787v -32.3103h 0.110716v 32.3103h 0.664295v -16.1552h 0.110716v -25.6053h 0.110716v 41.7605h 0.664295v -16.1552h 0.110716v 16.1552h 0.332148v -32.3103h 0.221432v 32.3103h 0.110716v -16.1552h 0.110716v
 16.1552h 0.221432v -32.3103h 0.110716v 16.1552h 0.110716v 16.1552h 1.10716v -16.1552h 0.110716v 16.1552h 0.221432v -61.5084h 0.110716v 29.1981h 0.110716v 32.3103h 0.664295v -41.7605h 0.110716v 41.7605h 0.775011v -32.3103h 0.110716v 32.3103h
 0.221432v -16.1552h 0.110716v 16.1552h 1.55002v -32.3103h 0.110716v 32.3103h 0.110716v -16.1552h 0.110716v 16.1552h 0.442863v -32.3103h 0.110716v 32.3103h 0.110716v -16.1552h 0.110716v 16.1552h 0.221432v -16.1552h 0.332148v 16.1552h 0.332148v
 -16.1552h 0.221432v 16.1552h 0.553579v -16.1552h 0.110716v -16.1552h 0.221432v 32.3103h 0.221432v -16.1552h 0.110716v 16.1552h 0.110716v -32.3103h 0.110716v 32.3103h 3.54291v -48.4655h 0.110716v 48.4655h 0.110716v -16.1552h 0.110716v 16.1552h
 0.110716v -16.1552h 0.110716v 16.1552h 0.553579v -16.1552h 0.110716v 16.1552h 0.221432v -16.1552h 0.110716v 16.1552h 0.442863v -16.1552h 0.221432v 16.1552h 0.442863v -32.3103h 0.110716v 32.3103h 0.553579v -41.7605h 0.110716v 41.7605h 0.221432v
 -32.3103h 0.110716v 32.3103h 0.332148v -16.1552h 0.110716v 16.1552h 1.10716v -16.1552h 0.110716v 16.1552h 0.221432v -16.1552h 0.221432v -32.3103h 0.110716v 48.4655h 0.442863v -32.3103h 0.110716v 32.3103h 0.332148v -32.3103h 0.110716v 16.1552h
 0.110716v 16.1552h 0.221432v -16.1552h 0.110716v 16.1552h 0.110716v -32.3103h 0.110716v 32.3103h 0.775011v -32.3103h 0.110716v 16.1552h 0.110716v 16.1552h 0.442863v -32.3103h 0.110716v 32.3103h 0.110716v -41.7605h 0.110716v 41.7605h 0.332148v
 -16.1552h 0.221432v 16.1552h 0.332148v -32.3103h 0.110716v 32.3103h 0.775011v -32.3103h 0.110716v 16.1552h 0.110716v -25.6053h 0.110716v 41.7605h 0.664295v -16.1552h 0.110716v 16.1552h 0.110716v -16.1552h 0.110716v 16.1552h 0.221432v -16.1552h
 0.110716v 16.1552h 0.221432v -16.1552h 0.110716v 16.1552h 0.332148v -16.1552h 0.110716v 16.1552h 0.110716v -32.3103h 0.110716v 32.3103h 0.110716v -16.1552h 0.110716v 16.1552h 0.221432v -32.3103h 0.110716v 32.3103h 0.110716v -16.1552h 0.221432v
 -16.1552h 0.110716v 32.3103h 0.221432v -41.7605h 0.110716v 41.7605h 0.221432v -16.1552h 0.110716v 16.1552h 0.996443v -32.3103h 0.110716v 32.3103h 0.332148v -16.1552h 0.110716v 16.1552h 0.442863v -16.1552h 0.221432v 16.1552h 0.221432v -16.1552h
 0.110716v 16.1552h 0.221432v -16.1552h 0.110716v 16.1552h 0.221432v -16.1552h 0.110716v 16.1552h 1.43931v -16.1552h 0.110716v 16.1552h 0.664295v -16.1552h 0.110716v 16.1552h 0.110716v -41.7605h 0.110716v 41.7605h 0.442863v -32.3103h 0.110716v
 16.1552h 0.110716v 16.1552h 0.110716v -16.1552h 0.110716v -25.6053h 0.110716v 41.7605h 0.110716v -16.1552h 0.110716v 16.1552h 0.332148v -16.1552h 0.110716v 16.1552h 0.110716v -16.1552h 0.221432v 16.1552h 0.442863v -32.3103h 0.110716v 32.3103h
 0.110716v -41.7605h 0.110716v 41.7605h 0.221432v -16.1552h 0.221432v 16.1552h 0.110716v -16.1552h 0.110716v 16.1552h 1.66074v -32.3103h 0.110716v 16.1552h 0.110716v 16.1552h 0.442863v -41.7605h 0.110716v 41.7605h 0.332148v -16.1552h 0.110716v
 16.1552h 0.442863v -32.3103h 0.110716v 16.1552h 0.110716v 16.1552h 0.553579v -16.1552h 0.221432v 16.1552h 0.553579v -32.3103h 0.110716v 32.3103h 0.996443v -16.1552h 0.110716v 16.1552h 0.442863v -16.1552h 0.110716v 16.1552h 0.332148v -32.3103h
 0.110716v 32.3103h 0.110716v -48.4655h 0.110716v 48.4655h 0.221432v -32.3103h 0.110716v 32.3103h 0.664295v -32.3103h 0.110716v -9.45016h 0.110716v 9.45016h 0.110716v 32.3103h 0.221432v -32.3103h 0.110716v 32.3103h 0.110716v -32.3103h 0.110716v
 16.1552h 0.110716v 16.1552h 0.221432v -41.7605h 0.110716v 41.7605h 0.221432v -32.3103h 0.110716v 32.3103h 0.442863v -32.3103h 0.110716v 32.3103h 0.664295v -16.1552h 0.110716v 16.1552h 0.110716v -16.1552h 0.110716v 16.1552h 0.553579v -16.1552h
 0.110716v 16.1552h 0.110716v -16.1552h 0.110716v 16.1552h 0.110716v -16.1552h 0.110716v 16.1552h 0.442863v -32.3103h 0.110716v 32.3103h 0.221432v -32.3103h 0.110716v 16.1552h 0.110716v 16.1552h 1.88217v -16.1552h 0.110716v 16.1552h 0.110716v
 -16.1552h 0.110716v 16.1552h 0.553579v -48.4655h 0.110716v 48.4655h 0.110716v -16.1552h 0.110716v 16.1552h 0.442863v -32.3103h 0.110716v 32.3103h 0.221432v -16.1552h 0.110716v 16.1552h 0.442863v -53.6663h 0.110716v 53.6663h 0.221432v -16.1552h
 0.110716v 16.1552h 0.553579v -32.3103h 0.110716v 16.1552h 0.110716v 16.1552h 0.332148v -16.1552h 0.110716v 16.1552h 0.221432v -16.1552h 0.110716v 16.1552h 0.110716v -16.1552h 0.110716v 16.1552h 0.110716v -16.1552h 0.110716v 16.1552h 1.77145v
 -16.1552h 0.110716v 16.1552h 0.110716v -32.3103h 0.110716v 32.3103h 0.221432v -32.3103h 0.110716v 32.3103h 0.332148v -16.1552h 0.221432v 16.1552h 0.442863v -16.1552h 0.110716v 16.1552h 0.221432v -16.1552h 0.110716v 16.1552h 0.110716v -41.7605h
 0.110716v 41.7605h 1.21787v -32.3103h 0.110716v 32.3103h 0.332148v -16.1552h 0.110716v 16.1552h 0.775011v -32.3103h 0.110716v 32.3103h 0.775011v -32.3103h 0.110716v 32.3103h 0.221432v -16.1552h 0.110716v 16.1552h 0.110716v -32.3103h 0.110716v
 16.1552h 0.110716v -37.5111h 0.110716v 37.5111h 0.221432v 16.1552h 0.110716v -16.1552h 0.110716v 16.1552h 0.442863v -32.3103h 0.110716v 32.3103h 0.553579v -64.6207h 0.110716v 48.4655h 0.110716v 16.1552h 0.885727v -32.3103h 0.221432v 32.3103h
 0.221432v -32.3103h 0.110716v 32.3103h 1.32859v -16.1552h 0.110716v 16.1552h 0.221432v -48.4655h 0.110716v 16.1552h 0.110716v 32.3103h 0.664295v -16.1552h 0.110716v 16.1552h 0.110716v -32.3103h 0.110716v 32.3103h 0.110716v -32.3103h 0.221432v
 32.3103h 0.996443v -32.3103h 0.110716v 32.3103h 0.664295v -32.3103h 0.110716v 32.3103h 0.221432v -16.1552h 0.110716v 16.1552h 0.553579v -16.1552h 0.221432v 16.1552h 0.110716v -41.7605h 0.110716v 41.7605h 0.332148v -41.7605h 0.110716v 41.7605h
 0.553579v -32.3103h 0.110716v 32.3103h 0.221432v -16.1552h 0.110716v -32.3103h 0.110716v 6.705h 0.110716v 41.7605h 0.110716v -16.1552h 0.110716v 16.1552h 0.553579v -16.1552h 0.110716v 16.1552h 0.221432v -16.1552h 0.110716v 16.1552h 0.110716v
 -16.1552h 0.110716v 16.1552h 0.775011v -32.3103h 0.110716v 32.3103h 0.110716v -16.1552h 0.221432v 16.1552h 0.442863v -32.3103h 0.110716v 32.3103h 0.553579v -16.1552h 0.110716v 16.1552h 3.10004v -32.3103h 0.110716v 32.3103h 1.10716v -16.1552h
 0.110716v 16.1552h 0.221432v -32.3103h 0.110716v 16.1552h 0.110716v 16.1552h 0.110716v -16.1552h 0.110716v 16.1552h 0.442863v -16.1552h 0.110716v 16.1552h 0.110716v -16.1552h 0.221432v 16.1552h 0.110716v -32.3103h 0.110716v 16.1552h 0.110716v
 -16.1552h 0.110716v 32.3103h 0.442863v -32.3103h 0.110716v 16.1552h 0.110716v 16.1552h 0.110716v -16.1552h 0.110716v 16.1552h 0.221432v -41.7605h 0.110716v 41.7605h 0.332148v -41.7605h 0.110716v 41.7605h 0.332148v -32.3103h 0.110716v 32.3103h
 0.775011v -16.1552h 0.110716v 16.1552h 0.221432v -16.1552h 0.110716v 16.1552h 0.553579v -16.1552h 0.110716v 16.1552h 0.221432v -16.1552h 0.110716v 16.1552h 0.442863v -16.1552h 0.110716v 16.1552h 0.221432v -16.1552h 0.332148v 16.1552h 0.553579v
 -53.6663h 0.110716v 37.5111h 0.110716v 16.1552h 0.110716v -32.3103h 0.110716v 32.3103h 1.10716v -16.1552h 0.110716v 16.1552h 0.110716v -16.1552h 0.110716v 16.1552h 0.553579v -16.1552h 0.110716v 16.1552h 0.221432v -16.1552h 0.110716v 16.1552h
 0.110716v -16.1552h 0.110716v 16.1552h 0.553579v -16.1552h 0.553579v 16.1552h 0.553579v -48.4655h 0.110716v 48.4655h 0.110716v -32.3103h 0.110716v 32.3103h 0.664295v -32.3103h 0.110716v 32.3103h 1.32859v -16.1552h 0.110716v 16.1552h 0.885727v
 -16.1552h 0.110716v 16.1552h 0.110716v -16.1552h 0.110716v 16.1552h 1.10716v -16.1552h 0.110716v 16.1552h 0.110716v -16.1552h 0.110716v 16.1552h 0.221432v -16.1552h 0.110716v 16.1552h 1.32859v -53.6663h 0.110716v 53.6663h 0.553579v -32.3103h
 0.110716v 32.3103h 1.66074v -41.7605h 0.110716v 25.6053h 0.221432v 16.1552h 0.221432v -16.1552h 0.110716v 16.1552h 0.110716v -41.7605h 0.110716v 41.7605h 0.110716v -16.1552h 0.110716v 16.1552h 0.221432v -16.1552h 0.110716v 16.1552h 0.221432v
 -16.1552h 0.110716v 16.1552h 0.221432v -16.1552h 0.110716v -16.1552h 0.110716v 32.3103h 0.110716v -32.3103h 0.110716v 32.3103h 0.332148v -16.1552h 0.221432v 16.1552h 0.221432v -32.3103h 0.110716v 16.1552h 0.110716v 16.1552h 0.775011v -16.1552h
 0.110716v 16.1552h 0.553579v -16.1552h 0.221432v 16.1552h 0.110716v -16.1552h 0.110716v 16.1552h 0.221432v -32.3103h 0.110716v 32.3103h 0.221432v -16.1552h 0.110716v -37.5111h 0.110716v 53.6663h 0.110716v -16.1552h 0.110716v 16.1552h 0.332148v
 -16.1552h 0.221432v 16.1552h 0.553579v -16.1552h 0.110716v 16.1552h 0.332148v -32.3103h 0.110716v 32.3103h 0.332148v -41.7605h 0.110716v 9.45016h 0.110716v 32.3103h 0.110716v -16.1552h 0.110716v 16.1552h 0.332148v -16.1552h 0.110716v 16.1552h
 0.110716v -16.1552h 0.110716v 16.1552h 0.110716v -48.4655h 0.110716v 48.4655h 0.775011v -41.7605h 0.110716v 41.7605h 0.221432v -32.3103h 0.110716v 32.3103h 0.110716v -16.1552h 0.221432v 16.1552h 0.553579v -32.3103h 0.110716v 16.1552h 0.110716v
 -16.1552h 0.110716v 32.3103h 0.442863v -16.1552h 0.110716v 16.1552h 1.21787v -16.1552h 0.110716v -25.6053h 0.110716v 9.45016h 0.110716v 32.3103h 0.110716v -32.3103h 0.110716v 32.3103h 0.664295v -32.3103h 0.110716v 16.1552h 0.110716v 16.1552h
 0.221432v -16.1552h 0.110716v -16.1552h 0.110716v 16.1552h 0.110716v 16.1552h 0.332148v -16.1552h 0.110716v 16.1552h 0.332148v -32.3103h 0.110716v 32.3103h 0.110716v -32.3103h 0.110716v 32.3103h 0.221432v -16.1552h 0.110716v 16.1552h 0.221432v
 -32.3103h 0.110716v -9.45016h 0.110716v 41.7605h 0.332148v -32.3103h 0.110716v 32.3103h 0.110716v -32.3103h 0.110716v 32.3103h 0.885727v -16.1552h 0.221432v 16.1552h 1.32859v -32.3103h 0.110716v 32.3103h 0.221432v -16.1552h 0.110716v 16.1552h
 0.332148v -16.1552h 0.110716v -32.3103h 0.110716v 48.4655h 0.110716v -16.1552h 0.110716v 16.1552h 0.110716v -41.7605h 0.110716v 41.7605h 1.10716v -16.1552h 0.110716v 16.1552h 0.996443v -41.7605h 0.110716v 41.7605h 1.32859v -16.1552h 0.221432v
 -16.1552h 0.110716v 32.3103h 1.21787v -16.1552h 0.110716v 16.1552h 0.664295v -16.1552h 0.110716v 16.1552h 0.553579v -32.3103h 0.110716v 16.1552h 0.110716v 16.1552h 0.664295v -16.1552h 0.110716v 16.1552h 0.332148v -41.7605h 0.110716v 41.7605h
 0.110716v -16.1552h 0.110716v 16.1552h 0.221432v -41.7605h 0.110716v 41.7605h 0.110716v -16.1552h 0.221432v 16.1552h 0.664295v -41.7605h 0.110716v 41.7605h 0.332148v -32.3103h 0.110716v 32.3103h 0.996443v -32.3103h 0.110716v 32.3103h 0.110716v
 -41.7605h 0.110716v 25.6053h 0.110716v 16.1552h 0.110716v -32.3103h 0.110716v 32.3103h 0.664295v -16.1552h 0.110716v 16.1552h 0.885727v -16.1552h 0.110716v 16.1552h 0.664295v -41.7605h 0.110716v 41.7605h 0.442863v -32.3103h 0.110716v 32.3103h
 0.664295v -16.1552h 0.110716v 16.1552h 0.664295v -32.3103h 0.110716v 32.3103h 0.110716v -16.1552h 0.110716v 16.1552h 0.775011v -41.7605h 0.110716v 9.45016h 0.110716v 16.1552h 0.110716v 16.1552h 0.332148v -16.1552h 0.110716v -16.1552h 0.110716v
 16.1552h 0.110716v 16.1552h 1.66074v -16.1552h 0.110716v 16.1552h 0.332148v -32.3103h 0.110716v 16.1552h 0.110716v 16.1552h 0.221432v -32.3103h 0.110716v 16.1552h 0.110716v 16.1552h 0.664295v -16.1552h 0.110716v 16.1552h 0.110716v -16.1552h
 0.221432v 16.1552h 1.88217v -16.1552h 0.110716v 16.1552h 0.221432v -16.1552h 0.110716v 16.1552h 0.442863v -16.1552h 0.110716v 16.1552h 0.221432v -16.1552h 0.110716v 16.1552h 1.43931v -16.1552h 0.110716v -16.1552h 0.110716v 16.1552h 0.110716v
 16.1552h 0.885727v -41.7605h 0.110716v 41.7605h 0.664295v -16.1552h 0.110716v 16.1552h 0.110716v -32.3103h 0.110716v 32.3103h 0.221432v -32.3103h 0.110716v 32.3103h 0.553579v -16.1552h 0.110716v 16.1552h 0.553579v -16.1552h 0.110716v 16.1552h
 0.110716v -16.1552h 0.110716v 16.1552h 0.110716v -16.1552h 0.110716v -25.6053h 0.221432v 9.45016h 0.110716v 32.3103h 0.996443v -16.1552h 0.110716v 16.1552h 0.110716v -16.1552h 0.110716v -25.6053h 0.110716v 41.7605h 0.775011v -16.1552h 0.110716v
 16.1552h 0.885727v -32.3103h 0.110716v -9.45016h 0.110716v 41.7605h 0.221432v -61.5084h 0.110716v 19.7479h 0.110716v 41.7605h 1.10716v -16.1552h 0.110716v 16.1552h 0.110716v -16.1552h 0.110716v 16.1552h 1.99289v -16.1552h 0.110716v 16.1552h
 0.110716v -41.7605h 0.110716v 41.7605h 0.442863v -41.7605h 0.110716v 9.45016h 0.110716v 32.3103h 1.99289v -41.7605h 0.110716v 41.7605h 0.553579v -16.1552h 0.110716v 16.1552h 0.664295v -16.1552h 0.110716v 16.1552h 0.553579v -48.4655h 0.110716v
 48.4655h 0.110716v -16.1552h 0.110716v 16.1552h 0.221432v -16.1552h 0.110716v 16.1552h 0.221432v -16.1552h 0.110716v 16.1552h 0.332148v -16.1552h 0.110716v 16.1552h 0.221432v -16.1552h 0.110716v 16.1552h 0.110716v -16.1552h 0.110716v 16.1552h
 0.553579v -32.3103h 0.110716v 32.3103h 0.110716v -16.1552h 0.110716v -37.5111h 0.110716v 37.5111h 0.110716v 16.1552h 0.332148v -41.7605h 0.110716v 41.7605h 2.43575v -16.1552h 0.110716v 16.1552h 0.221432v -32.3103h 0.110716v 32.3103h 0.110716v
 -16.1552h 0.110716v 16.1552h 0.110716v -41.7605h 0.110716v 25.6053h 0.110716v 16.1552h 0.332148v -32.3103h 0.110716v 32.3103h 0.110716v -16.1552h 0.110716v 16.1552h 0.332148v -16.1552h 0.110716v 16.1552h 0.885727v -16.1552h 0.110716v 16.1552h
 0.110716v -16.1552h 0.110716v 16.1552h 1.21787v -32.3103h 0.110716v 32.3103h 2.21432v -16.1552h 0.110716v 16.1552h 0.442863v -16.1552h 0.221432v 16.1552h 0.110716v -32.3103h 0.221432v 32.3103h 0.553579v -16.1552h 0.110716v 16.1552h 0.332148v
 -32.3103h 0.110716v 32.3103h 0.332148v -41.7605h 0.110716v 41.7605h 1.10716v -32.3103h 0.110716v 32.3103h 0.221432v -16.1552h 0.110716v 16.1552h 0.110716v -32.3103h 0.110716v 32.3103h 0.221432v -16.1552h 0.110716v 16.1552h 1.32859v -16.1552h
 0.110716v 16.1552h 0.110716v -41.7605h 0.110716v 9.45016h 0.110716v 32.3103h 1.21787v -32.3103h 0.110716v 32.3103h 0.332148v -32.3103h 0.110716v 32.3103h 0.110716v -32.3103h 0.110716v 32.3103h 0.996443v -16.1552h 0.110716v 16.1552h 0.110716v
 -16.1552h 0.110716v 16.1552h 0.885727v -41.7605h 0.110716v 41.7605h 0.332148v -16.1552h 0.110716v 16.1552h 0.332148v -16.1552h 0.110716v 16.1552h 0.110716v -32.3103h 0.110716v 32.3103h 0.221432v -16.1552h 0.221432v 16.1552h 0.221432v -16.1552h
 0.110716v 16.1552h 0.885727v -16.1552h 0.110716v 16.1552h 0.110716v -16.1552h 0.110716v 16.1552h 0.332148v -16.1552h 0.221432v -16.1552h 0.110716v 32.3103h 0.442863v -16.1552h 0.110716v 16.1552h 0.332148v -16.1552h 0.221432v 16.1552h 0.110716v
 -16.1552h 0.110716v 16.1552h 0.110716v -16.1552h 0.332148v 16.1552h 0.221432v -16.1552h 0.110716v 16.1552h 0.664295v -16.1552h 0.110716v 16.1552h 0.775011v -16.1552h 0.110716v 16.1552h 0.442863v -32.3103h 0.110716v -9.45016h 0.110716v 41.7605h
 0.332148v -41.7605h 0.110716v 25.6053h 0.110716v 16.1552h 0.110716v -41.7605h 0.110716v 41.7605h 0.110716v -32.3103h 0.110716v 16.1552h 0.110716v 16.1552h 1.10716v -16.1552h 0.221432v 16.1552h 2.1036v -32.3103h 0.110716v 32.3103h 1.21787v -53.6663h
 0.110716v 21.356h 0.110716v 32.3103h 1.32859v -16.1552h 0.110716v 16.1552h 0.110716v -16.1552h 0.110716v 16.1552h 0.775011v -32.3103h 0.110716v 32.3103h 1.10716v -16.1552h 0.110716v 16.1552h 1.10716v -16.1552h 0.110716v 16.1552h 0.110716v -32.3103h
 0.110716v 32.3103h 0.110716v -16.1552h 0.110716v -16.1552h 0.110716v 32.3103h 1.10716v -16.1552h 0.110716v 16.1552h 0.332148v -16.1552h 0.110716v 16.1552h 0.553579v -41.7605h 0.110716v 41.7605h 0.110716v -16.1552h 0.110716v 16.1552h 0.442863v
 -32.3103h 0.110716v 32.3103h 0.885727v -32.3103h 0.110716v 32.3103h 0.996443v -32.3103h 0.110716v 16.1552h 0.110716v 16.1552h 0.221432v -16.1552h 0.110716v 16.1552h 0.332148v -16.1552h 0.110716v 16.1552h 3.10004v -16.1552h 0.221432v -25.6053h
 0.110716v 41.7605h 0.221432v -16.1552h 0.221432v 16.1552h 1.10716v -16.1552h 0.221432v 16.1552h 0.664295v -16.1552h 0.110716v 16.1552h 0.664295v -32.3103h 0.110716v 32.3103h 0.996443v -16.1552h 0.221432v -16.1552h 0.110716v 32.3103h 0.332148v
 -16.1552h 0.110716v 16.1552h 1.32859v -16.1552h 0.110716v 16.1552h 0.221432v -16.1552h 0.110716" fill="none" stroke="#ff0000"/>
<rect x="340.657" y="41.4549" width="170.079" height="82.9098" fill="white"/>
<path d="M340.657,124.365h 170.079" fill="none" stroke="black"/>
<path d="M510.736,124.365v -82.9098" fill="none" stroke="black"/>
<path d="M510.736,41.4549h -170.079" fill="none" stroke="black"/>
<path d="M340.657,41.4549v 82.9098" fill="none" stroke="black"/>
<text xml:space="preserve" x="382.87" y="65.3057" fill="black" font-size="8.61415" font-family="Helvetica">Simulated Resolution corrected</text>
<path d="M347.035,76.6916h 29.7638v -29.0184h -29.7638z" fill="white"/>
<path d="M347.035,62.1824h 29.7638" fill="none" stroke="#0000ff"/>
<g stroke="black" stroke-width="1" fill="none">
<line x1="360.917" y1="62.1824" x2="361.917" y2="62.1824"/>
</g>
<text xml:space="preserve" x="382.87" y="106.003" fill="black" font-size="8.61415" font-family="Helvetica">Experimental Bg removed</text>
<path d="M347.035,118.147h 29.7638v -29.0184h -29.7638z" fill="white"/>
<path d="M347.035,103.637h 29.7638" fill="none" stroke="#ff0000"/>
<g stroke="black" stroke-width="1" fill="none">
<line x1="360.917" y1="103.637" x2="361.917" y2="103.637"/>
</g>
<text xml:space="preserve" x="200.676" y="19.8756" fill="black" font-size="18.28" font-family="Helvetica">Run04-133Ba-50mm</text></svg>
