<?xml version="1.0" standalone="no"?>
<svg width="567.429" height="415.049" viewBox="0 0 567.429 415.049" xmlns="http://www.w3.org/2000/svg" shape-rendering="crispEdges">
<title>
HPGe_Run08-133Ba-100mm_900s-activity_bgrm_res.svg
</title>
<desc>
Creator: ROOT Version 6.26/04
CreationDate: Mon Nov  4 12:25:26 2024</desc>
<defs>
</defs>
<rect x="0.5" y="0" width="566.929" height="414.549" fill="white"/>
<rect x="57.1929" y="41.4549" width="453.543" height="331.639" fill="white"/>
<rect x="57.1929" y="41.4549" width="453.543" height="331.639" fill="none" stroke="black"/>
<rect x="57.1929" y="41.4549" width="453.543" height="331.639" fill="white"/>
<rect x="57.1929" y="41.4549" width="453.543" height="331.639" fill="none" stroke="black"/>
<path d="M57.1929,56.2351h 0.110728v 1.51089h 0.110728v 4.23928h 0.110728v 7.04357h 0.110728v 10.0565h 0.110728v 12.7779h 0.110728v 15.7861h 0.110728v 18.5627h 0.110728v 21.3646h 0.110728v 23.7655h 0.110728v 26.0102h 0.110728v 26.3781h 0.110728v
 18.0759h 0.110728v 19.0736h 0.110728v 7.63759h 0.110728v -3.70829h 0.110728v 2.24713h 0.110728v 1.96947h 0.110728v 3.30953h 0.110728v -2.7898h 0.110728v 8.09923h 0.110728v 7.93138h 0.110728v -10.0677h 0.110728v 10.0677h 0.110728v -7.17304h 0.110728v
 1.59562h 0.110728v -2.35396h 0.110728v 1.54239h 0.110728v 2.52548h 0.110728v -2.52548h 0.110728v -0.784051h 0.110728v 11.814h 0.110728v -13.3066h 0.110728v 7.63759h 0.110728v -1.92839h 0.110728v -5.7092h 0.110728v 8.66564h 0.110728v -6.38899h
 0.110728v -0.784051h 0.110728v -4.85026h 0.110728v 2.646h 0.110728v -5.02011h 0.110728v 19.0384h 0.110728v -17.8818h 0.110728v 3.86351h 0.110728v 5.5138h 0.110728v -12.6868h 0.110728v 6.48262h 0.110728v -7.48831h 0.110728v -3.21091h 0.110728v
 8.74364h 0.110728v -1.80304h 0.110728v -2.724h 0.110728v 2.724h 0.110728v -6.06777h 0.110728v -3.69181h 0.110728v -2.5124h 0.110728v 4.08096h 0.221457v -11.0719h 0.110728v -7.99616h 0.110728v -6.74208h 0.110728v -2.63522h 0.110728v -6.20422h
 0.110728v -4.51696h 0.110728v 1.46278h 0.110728v 2.51631h 0.110728v 4.59179h 0.110728v 6.87046h 0.110728v 10.2669h 0.110728v 6.50264h 0.110728v 6.95562h 0.110728v 10.6277h 0.110728v -4.64097h 0.110728v 3.39054h 0.110728v -6.80496h 0.110728v
 -3.75862h 0.110728v -8.32588h 0.110728v 2.25811h 0.110728v -0.294619h 0.110728v 5.98011h 0.110728v 3.25128h 0.110728v -1.68273h 0.110728v -3.03744h 0.110728v 5.1607h 0.110728v -3.69181h 0.110728v -1.46889h 0.110728v -12.3764h 0.110728v -6.49651h
 0.110728v -17.9904h 0.110728v -16.6017h 0.110728v -21.4298h 0.110728v -14.6207h 0.110728v -12.0413h 0.110728v -7.7117h 0.110728v -5.05374h 0.110728v -0.360053h 0.110728v 3.15362h 0.110728v 8.01652h 0.110728v 10.8594h 0.110728v 15.6389h 0.110728v
 17.3945h 0.110728v 18.2998h 0.110728v 3.46595h 0.110728v -9.51538h 0.110728v -11.4812h 0.110728v -10.1104h 0.110728v -7.95116h 0.110728v -2.16003h 0.110728v 0.0583286h 0.110728v 5.11694h 0.110728v 5.59465h 0.110728v 9.42375h 0.110728v 12.7825h
 0.110728v 10.4186h 0.110728v 17.121h 0.110728v 16.5141h 0.110728v 6.76214h 0.110728v 18.3223h 0.110728v -7.36497h 0.221457v 2.98832h 0.221457v 1.65265h 0.110728v -1.65265h 0.110728v 4.37665h 0.110728v -0.944102h 0.110728v -1.7799h 0.110728v 8.12688h
 0.110728v -11.3219h 0.110728v -8.09923h 0.110728v 11.2943h 0.110728v 1.7799h 0.110728v -6.42087h 0.221457v 9.3773h 0.110728v -8.66564h 0.110728v 2.27665h 0.110728v -0.784051h 0.110728v 5.1607h 0.110728v -3.56509h 0.110728v 2.62098h 0.110728v
 -1.7799h 0.110728v -6.6533h 0.110728v 6.6533h 0.110728v -4.64097h 0.110728v 5.5138h 0.110728v -5.5138h 0.110728v 3.79988h 0.110728v -0.811567h 0.110728v -2.98832h 0.110728v 10.4532h 0.110728v -10.4532h 0.110728v 7.36497h 0.110728v -0.944102h
 0.110728v -1.7799h 0.110728v -0.841085h 0.110728v -5.81222h 0.110728v 1.32192h 0.110728v 5.33138h 0.110728v -14.2507h 0.110728v -15.3262h 0.110728v -6.59362h 0.110728v -4.09677h 0.110728v -8.14356h 0.110728v -2.68877h 0.110728v 0.861986h 0.110728v
 9.52414h 0.110728v 6.80108h 0.110728v 15.0628h 0.110728v 8.6312h 0.110728v -3.56509h 0.110728v 7.13017h 0.110728v 7.52613h 0.110728v -3.30953h 0.110728v -0.758339h 0.110728v -0.734261h 0.110728v 5.7092h 0.110728v -10.2844h 0.110728v 7.66339h
 0.110728v -1.59562h 0.110728v -4.2166h 0.110728v 5.00065h 0.110728v 4.37665h 0.110728v 6.6533h 0.110728v -3.56509h 0.110728v -12.4655h 0.110728v -6.6533h 0.110728v -1.85117h 0.110728v -0.872831h 0.110728v -4.64097h 0.110728v -0.690418h 0.110728v
 -7.73305h 0.110728v 6.73459h 0.110728v 3.1348h 0.110728v 6.40595h 0.110728v -3.63527h 0.110728v 8.55124h 0.110728v 5.46703h 0.110728v -4.85026h 0.110728v -6.49651h 0.110728v 8.45209h 0.110728v -1.32192h 0.110728v -7.13017h 0.110728v -2.24713h
 0.110728v -6.00179h 0.110728v 6.87462h 0.110728v 3.86351h 0.110728v 1.07588h 0.110728v 1.12838h 0.221457v 4.44904h 0.110728v -4.44904h 0.110728v -1.67258h 0.110728v 4.10928h 0.110728v -3.56509h 0.110728v -1.59562h 0.110728v 3.30953h 0.110728v
 -5.279h 0.110728v 1.46116h 0.110728v 1.55973h 0.221457v -3.9461h 0.110728v 5.04761h 0.110728v 4.32969h 0.110728v -2.57235h 0.110728v 1.25043h 0.110728v 1.32192h 0.110728v -3.75862h 0.110728v -0.571073h 0.110728v -2.15293h 0.110728v 6.48262h
 0.110728v -4.32969h 0.110728v -3.15862h 0.110728v 4.31523h 0.110728v -3.30953h 0.110728v 1.59562h 0.110728v -4.93939h 0.110728v 11.2285h 0.110728v -5.73178h 0.110728v 2.37411h 0.110728v -2.37411h 0.110728v -6.79389h 0.110728v -18.0429h 0.110728v
 -7.22438h 0.110728v -14.5756h 0.110728v -11.5269h 0.110728v -15.0998h 0.110728v -11.7093h 0.110728v -9.69003h 0.110728v -6.83613h 0.110728v -1.11437h 0.110728v 2.55939h 0.110728v 6.46027h 0.110728v 12.7974h 0.110728v 14.7793h 0.110728v 20.2212h
 0.110728v 23.8279h 0.110728v 16.9202h 0.110728v 9.3773h 0.110728v 0.690418h 0.110728v 2.20426h 0.110728v -2.20426h 0.110728v 7.36497h 0.110728v -2.724h 0.110728v -3.9293h 0.221457v 6.6533h 0.110728v -1.85117h 0.110728v -0.872831h 0.110728v -7.90373h
 0.110728v 16.0306h 0.110728v -4.41859h 0.110728v -9.03967h 0.110728v 5.33138h 0.221457v -1.65265h 0.221457v 2.52548h 0.110728v -3.30953h 0.110728v -0.758339h 0.110728v 4.97494h 0.110728v 5.1607h 0.110728v -3.23231h 0.110728v -10.9953h 0.110728v
 10.9953h 0.110728v -2.83546h 0.110728v -5.5138h 0.110728v 8.34926h 0.110728v -3.70829h 0.110728v -4.64097h 0.110728v 5.5138h 0.110728v 0.907068h 0.110728v -4.97494h 0.221457v -0.734261h 0.110728v -0.711665h 0.110728v 12.7678h 0.110728v -10.5636h
 0.221457v -6.06777h 0.110728v 2.50269h 0.110728v 6.00179h 0.110728v -5.33138h 0.110728v 9.03967h 0.110728v 5.66901h 0.110728v -14.0183h 0.110728v 18.2349h 0.110728v -16.7889h 0.110728v 4.06787h 0.110728v -1.71392h 0.110728v 1.71392h 0.110728v
 0.907068h 0.110728v 1.92839h 0.221457v -3.70829h 0.110728v -1.65265h 0.110728v 1.65265h 0.110728v 0.872831h 0.110728v 1.85117h 0.110728v 2.01234h 0.110728v -6.38899h 0.110728v 12.3519h 0.110728v -11.5403h 0.110728v 3.56509h 0.221457v -5.91904h
 0.110728v 1.54239h 0.110728v 6.38899h 0.110728v -10.7381h 0.110728v 11.814h 0.110728v 7.78169h 0.110728v -15.2466h 0.110728v -5.00065h 0.110728v 2.01234h 0.221457v 4.64097h 0.110728v -3.19504h 0.110728v 1.54239h 0.110728v -5.00065h 0.110728v
 2.01234h 0.110728v 2.20426h 0.110728v -7.22438h 0.110728v -2.66124h 0.110728v 1.55973h 0.110728v -0.531685h 0.110728v -7.55532h 0.110728v -0.376062h 0.110728v 2.35396h 0.110728v 7.21061h 0.110728v 1.75735h 0.110728v 6.25108h 0.110728v 4.37665h
 0.110728v -6.6533h 0.110728v 3.08822h 0.110728v 2.62098h 0.110728v -0.907068h 0.110728v -8.1598h 0.110728v 7.28697h 0.110728v -6.6533h 0.110728v 4.2166h 0.110728v -1.4926h 0.110728v -3.97443h 0.110728v 1.25043h 0.110728v 2.724h 0.110728v -3.35766h
 0.110728v 9.06687h 0.110728v -4.97494h 0.221457v 2.35396h 0.110728v 4.54937h 0.110728v -2.83546h 0.110728v -5.5138h 0.110728v 3.79988h 0.110728v 1.71392h 0.110728v -4.06787h 0.110728v 10.1356h 0.110728v -8.59325h 0.110728v 4.37665h 0.110728v
 -8.05539h 0.110728v 2.89468h 0.110728v 3.30953h 0.110728v 8.50447h 0.110728v -11.814h 0.110728v 3.30953h 0.110728v -2.52548h 0.110728v 2.52548h 0.110728v -0.872831h 0.110728v -5.33138h 0.110728v -1.32192h 0.110728v 2.724h 0.110728v -0.711665h
 0.110728v 5.5138h 0.110728v -2.52548h 0.110728v 3.43255h 0.110728v -0.907068h 0.110728v -3.30953h 0.110728v 5.1607h 0.110728v -1.85117h 0.110728v 0.907068h 0.110728v -6.42087h 0.110728v 0.711665h 0.110728v -3.35766h 0.110728v 6.44588h 0.110728v
 -1.59562h 0.110728v -2.20426h 0.110728v -6.6533h 0.110728v 1.07588h 0.110728v 4.887h 0.110728v 0.690418h 0.110728v 0.711665h 0.110728v 3.08822h 0.221457v -4.4903h 0.110728v 0.690418h 0.110728v 0.711665h 0.110728v -3.97443h 0.110728v 10.6277h
 0.110728v 5.40288h 0.110728v -14.7802h 0.110728v 2.724h 0.110728v -2.07249h 0.221457v 1.36082h 0.110728v 12.7678h 0.110728v -6.34698h 0.110728v -4.2166h 0.110728v 6.14499h 0.110728v -7.63759h 0.110728v -1.40208h 0.110728v 5.33138h 0.110728v -9.09h
 0.110728v 16.0306h 0.110728v -16.0306h 0.110728v 6.6533h 0.110728v 4.2166h 0.110728v -9.68363h 0.110728v -1.18627h 0.110728v 1.80304h 0.110728v 2.646h 0.110728v 6.42087h 0.110728v -11.441h 0.110728v 3.00777h 0.110728v -2.4367h 0.110728v 3.08822h
 0.110728v -0.651516h 0.110728v 4.2166h 0.110728v 0.784051h 0.110728v 8.59325h 0.110728v -7.78169h 0.110728v -10.4532h 0.110728v 4.0073h 0.110728v 4.09193h 0.221457v 0.758339h 0.110728v -0.758339h 0.110728v 2.35396h 0.110728v -3.79988h 0.110728v
 4.64097h 0.110728v 0.872831h 0.110728v -4.80213h 0.110728v 3.9293h 0.110728v -3.19504h 0.110728v 3.19504h 0.221457v -3.9293h 0.110728v 3.08822h 0.221457v 2.62098h 0.110728v -6.42087h 0.110728v 0.711665h 0.110728v 3.08822h 0.110728v -1.59562h
 0.110728v -1.4926h 0.110728v -4.57517h 0.110728v 7.66339h 0.110728v -7.66339h 0.110728v 2.50269h 0.110728v 7.78169h 0.110728v -9.68363h 0.110728v 5.46703h 0.110728v -5.46703h 0.110728v 3.97443h 0.110728v 5.7092h 0.110728v -6.42087h 0.110728v -2.646h
 0.110728v 4.09193h 0.110728v -7.02335h 0.110728v 5.57742h 0.110728v -2.01234h 0.110728v -2.4367h 0.110728v 3.75862h 0.110728v 2.13634h 0.110728v -3.45826h 0.110728v -3.00777h 0.110728v -5.93723h 0.110728v -11.7266h 0.110728v -0.519736h 0.110728v
 -2.66683h 0.110728v 9.14945h 0.221457v 6.20422h 0.110728v -0.872831h 0.110728v 8.74364h 0.110728v 1.95558h 0.110728v 3.67873h 0.110728v -4.34914h 0.110728v -3.08822h 0.110728v 10.8699h 0.110728v -4.2166h 0.110728v -4.2166h 0.110728v 0.651516h
 0.110728v 7.78169h 0.110728v -7.78169h 0.110728v 3.56509h 0.110728v -1.4926h 0.110728v -1.40208h 0.110728v 5.33138h 0.110728v 2.724h 0.110728v -10.6277h 0.110728v 6.25108h 0.110728v -0.784051h 0.110728v 5.1607h 0.110728v -7.36497h 0.110728v
 0.711665h 0.110728v 3.9293h 0.110728v -5.33138h 0.110728v 5.33138h 0.110728v -3.9293h 0.110728v -1.40208h 0.110728v 2.89468h 0.110728v -0.758339h 0.110728v 3.19504h 0.110728v 0.872831h 0.110728v -8.1598h 0.110728v -0.616764h 0.110728v 11.612h
 0.110728v -7.63759h 0.110728v -0.711665h 0.110728v 8.34926h 0.110728v -3.70829h 0.110728v -2.4367h 0.110728v -1.4926h 0.110728v 3.9293h 0.110728v -0.841085h 0.110728v -2.35396h 0.110728v -4.70869h 0.110728v 3.26276h 0.110728v 6.42087h 0.110728v
 -7.78169h 0.110728v 6.87462h 0.110728v -8.77656h 0.110728v 7.90373h 0.110728v -3.9293h 0.110728v -3.35766h 0.110728v 3.35766h 0.110728v -7.8847h 0.110728v 3.30953h 0.110728v -2.7898h 0.110728v 6.6533h 0.221457v -3.86351h 0.110728v 6.85182h 0.110728v
 0.811567h 0.110728v -5.1607h 0.110728v -5.81222h 0.110728v 3.91027h 0.110728v 1.90194h 0.221457v 2.80675h 0.110728v -2.80675h 0.110728v 3.56509h 0.110728v -6.6533h 0.110728v 9.09h 0.110728v -2.4367h 0.110728v 7.17304h 0.110728v -2.95644h 0.110728v
 -7.11128h 0.110728v 6.20422h 0.110728v -8.1598h 0.110728v -1.21751h 0.110728v 15.4451h 0.110728v -14.2276h 0.110728v -1.80304h 0.110728v 4.44904h 0.110728v -5.02011h 0.110728v 7.22438h 0.110728v 5.1607h 0.110728v -9.3773h 0.221457v 2.724h 0.110728v
 -2.724h 0.110728v 2.724h 0.110728v 0.734261h 0.110728v -4.09193h 0.221457v 3.35766h 0.110728v -4.57517h 0.110728v 6.06777h 0.110728v -6.06777h 0.110728v 6.85182h 0.110728v -2.27665h 0.110728v -5.1607h 0.110728v -1.67258h 0.110728v 1.10151h 0.221457v
 3.65929h 0.110728v 4.34914h 0.110728v -2.98832h 0.110728v 1.44593h 0.110728v -1.44593h 0.110728v -7.68135h 0.110728v 2.10393h 0.221457v 6.28909h 0.110728v -2.07249h 0.110728v -4.2166h 0.110728v 7.78169h 0.110728v -9.3773h 0.110728v 8.61896h
 0.110728v -7.02335h 0.110728v 13.9267h 0.110728v -7.63759h 0.110728v -9.85417h 0.110728v 3.56509h 0.110728v 7.02335h 0.110728v -7.56754h 0.110728v -2.05711h 0.110728v -0.486908h 0.110728v 10.8699h 0.110728v -9.88562h 0.110728v 5.66901h 0.110728v
 -1.85117h 0.110728v -3.30953h 0.110728v 5.81222h 0.110728v -6.32053h 0.110728v 1.02805h 0.110728v 0.531685h 0.110728v -5.26802h 0.110728v 7.52613h 0.110728v 9.3773h 0.110728v -8.1598h 0.110728v 4.09193h 0.110728v -1.44593h 0.110728v 11.5816h
 0.110728v -3.23231h 0.110728v -0.984288h 0.110728v 7.97522h 0.110728v -3.75862h 0.110728v 6.6533h 0.110728v 7.17304h 0.110728v -13.8263h 0.110728v 9.96284h 0.110728v -9.96284h 0.110728v 8.24892h 0.110728v -4.4903h 0.110728v 1.40208h 0.110728v
 -1.40208h 0.110728v 8.05539h 0.110728v -1.85117h 0.110728v -9.96284h 0.110728v 6.6533h 0.110728v -1.4926h 0.110728v 8.66564h 0.110728v -10.0677h 0.110728v 1.40208h 0.110728v -1.40208h 0.110728v 1.40208h 0.110728v 3.08822h 0.221457v -3.08822h
 0.110728v 1.4926h 0.110728v 1.59562h 0.110728v -1.59562h 0.221457v 7.17304h 0.110728v -11.3896h 0.110728v 7.52613h 0.110728v -1.71392h 0.110728v -1.59562h 0.110728v 25.4079h 0.110728v -25.4079h 0.110728v 1.59562h 0.110728v -1.59562h 0.110728v
 11.814h 0.110728v 2.724h 0.110728v -25.4079h 0.110728v 2.01234h 0.110728v 1.07588h 0.110728v -7.46487h 0.110728v -5.00065h 0.110728v -3.56509h 0.110728v -4.4903h 0.110728v 3.41442h 0.110728v 3.39054h 0.110728v 1.90194h 0.110728v 4.34914h 0.110728v
 22.4196h 0.110728v -14.9547h 0.110728v 4.887h 0.110728v -4.887h 0.110728v 9.3773h 0.110728v 3.56509h 0.110728v -14.0183h 0.110728v 8.85757h 0.221457v 5.1607h 0.110728v -8.05539h 0.110728v 4.4903h 0.110728v 7.78169h 0.332185v -9.3773h 0.110728v
 7.17304h 0.110728v -2.01234h 0.110728v 4.2166h 0.221457v 2.4367h 0.221457v 5.81222h 0.110728v -21.8428h 0.110728v 9.3773h 0.110728v -1.85117h 0.110728v 11.2285h 0.110728v -5.1607h 0.110728v 8.24892h 0.110728v -3.08822h 0.110728v -7.36497h 0.110728v
 -3.86351h 0.110728v 1.85117h 0.110728v 20.2472h 0.110728v -23.8123h 0.110728v 3.56509h 0.110728v 6.6533h 0.110728v 13.5939h 0.110728v -4.2166h 0.110728v -3.56509h 0.110728v -10.4532h 0.110728v 4.64097h 0.110728v 34.7852h 0.110728v -25.4079h
 0.110728v -22.6839h 0.110728v 26.9005h 0.110728v 11.814h 0.110728v -19.5957h 0.110728v -5.81222h 0.110728v 25.4079h 0.110728v -30.0489h 0.110728v -11.3896h 0.110728v 9.3773h 0.110728v 20.2472h 0.221457v 11.814h 0.110728v -32.0612h 0.110728v 20.2472h
 0.110728v 5.1607h 0.110728v -16.0306h 0.110728v -5.1607h 0.110728v 21.1913h 0.110728v -18.7546h 0.110728v 2.724h 0.110728v 10.8699h 0.110728v -16.0306h 0.110728v -2.20426h 0.110728v 14.0183h 0.110728v 4.2166h 0.110728v -4.2166h 0.110728v 4.2166h
 0.110728v -4.2166h 0.110728v -3.56509h 0.110728v 12.9424h 0.110728v 6.6533h 0.110728v -19.5957h 0.110728v 7.78169h 0.110728v -4.2166h 0.110728v 9.3773h 0.110728v -5.1607h 0.110728v 11.814h 0.110728v -11.814h 0.110728v 5.1607h 0.110728v -5.1607h
 0.110728v 5.1607h 0.110728v -18.7546h 0.221457v 9.3773h 0.110728v 16.0306h 0.110728v -16.0306h 0.110728v -14.0183h 0.110728v 4.64097h 0.110728v 34.7852h 0.110728v 16.0306h 0.110728v -50.8158h 0.110728v 18.7546h 0.110728v -5.1607h 0.110728v -4.2166h
 0.110728v 4.2166h 0.110728v 21.1913h 0.110728v -9.3773h 0.110728v -27.8446h 0.110728v 16.0306h 0.110728v 21.1913h 0.110728v -16.0306h 0.110728v 16.0306h 0.110728v -32.0612h 0.110728v 22.6839h 0.110728v 9.3773h 0.110728v -16.0306h 0.221457v 6.6533h
 0.110728v 25.4079h 0.332185v -25.4079h 0.221457v -6.6533h 0.110728v 6.6533h 0.221457v 9.3773h 0.110728v 16.0306h 0.221457v -37.2219h 0.110728v 5.1607h 0.110728v 16.0306h 0.110728v -9.3773h 0.110728v -6.6533h 0.110728v 32.0612h 0.110728v -16.0306h
 0.110728v -21.1913h 0.110728v 5.1607h 0.221457v 6.6533h 0.221457v -6.6533h 0.110728v -5.1607h 0.110728v 11.814h 0.221457v 9.3773h 0.110728v 16.0306h 0.110728v -37.2219h 0.110728v 21.1913h 0.110728v 16.0306h 0.110728v -32.0612h 0.110728v 6.6533h
 0.221457v 9.3773h 0.110728v -25.4079h 0.110728v 41.4385h 0.221457v -25.4079h 0.110728v 41.4385h 0.110728v -41.4385h 0.110728v -6.6533h 0.110728v -43.2897h 0.110728v -22.2348h 0.110728v -17.0291h 0.110728v -12.5197h 0.110728v -9.05918h 0.110728v
 -2.77378h 0.110728v 4.22797h 0.110728v 7.8911h 0.110728v 9.04385h 0.110728v 16.7511h 0.110728v 16.926h 0.110728v 36.0356h 0.110728v 6.6533h 0.110728v 25.4079h 0.221457v -21.1913h 0.110728v 37.2219h 0.110728v -16.0306h 0.332185v 16.0306h 0.221457v
 -16.0306h 0.110728v -25.4079h 0.110728v 9.3773h 0.110728v 32.0612h 0.110728v -25.4079h 0.110728v 25.4079h 0.221457v -25.4079h 0.110728v 9.3773h 0.110728v 32.0612h 0.110728v -32.0612h 0.110728v 16.0306h 0.110728v -16.0306h 0.221457v 32.0612h
 0.110728v -48.0918h 0.110728v -5.1607h 0.110728v 11.814h 0.110728v 9.3773h 0.110728v -21.1913h 0.110728v 11.814h 0.110728v 9.3773h 0.110728v 16.0306h 0.110728v 16.0306h 0.110728v -16.0306h 0.110728v -16.0306h 0.110728v 16.0306h 0.442913v -16.0306h
 0.110728v 32.0612h 0.110728v -16.0306h 0.110728v -16.0306h 0.221457v 16.0306h 0.332185v 16.0306h 0.221457v -32.0612h 0.221457v 32.0612h 0.110728v -41.4385h 0.110728v 25.4079h 0.553642v -16.0306h 0.110728v 16.0306h 0.221457v -16.0306h 0.110728v
 -9.3773h 0.110728v 9.3773h 0.110728v 32.0612h 0.221457v -41.4385h 0.110728v -27.8446h 0.110728v -10.8699h 0.110728v -36.6364h 0.110728v -18.5561h 0.110728v -15.0116h 0.110728v -14.8553h 0.110728v -5.12414h 0.110728v -4.24098h 0.110728v 2.54799h
 0.110728v 8.09396h 0.110728v 11.2044h 0.110728v 19.4707h 0.110728v 19.9869h 0.110728v 23.7434h 0.110728v 28.4961h 0.110728v 7.78169h 0.110728v 37.2219h 0.110728v -16.0306h 0.110728v -16.0306h 0.110728v -5.1607h 0.110728v -13.5939h 0.110728v 2.724h
 0.110728v 10.8699h 0.110728v 21.1913h 0.110728v 16.0306h 0.110728v -32.0612h 0.110728v 32.0612h 0.110728v -16.0306h 0.110728v -9.3773h 0.221457v 25.4079h 0.110728v -37.2219h 0.110728v 11.814h 0.110728v 9.3773h 0.442913v -16.0306h 0.110728v 48.0918h
 0.110728v -32.0612h 0.221457v 32.0612h 0.332185v -16.0306h 0.332185v 16.0306h 0.110728v -16.0306h 0.110728v -32.0612h 0.110728v 16.0306h 0.110728v 16.0306h 0.332185v 16.0306h 0.110728v -32.0612h 0.110728v 16.0306h 0.221457v 16.0306h 0.110728v
 -32.0612h 0.110728v 32.0612h 0.110728v -32.0612h 0.110728v 32.0612h 0.110728v -32.0612h 0.110728v 16.0306h 0.110728v 16.0306h 0.221457v -16.0306h 0.110728v 16.0306h 0.221457v -16.0306h 0.110728v -16.0306h 0.110728v 32.0612h 0.221457v -32.0612h
 0.221457v 32.0612h 0.110728v -16.0306h 0.110728v -32.0612h 0.110728v 32.0612h 0.110728v -16.0306h 0.110728v 16.0306h 0.110728v 16.0306h 0.442913v -16.0306h 0.221457v -16.0306h 0.110728v 16.0306h 0.332185v 16.0306h 0.442913v -16.0306h 0.221457v
 -32.0612h 0.110728v 6.6533h 0.110728v -19.5957h 0.110728v -16.0306h 0.110728v -15.1895h 0.110728v 6.9406h 0.110728v 2.4367h 0.110728v 7.52613h 0.110728v 22.0984h 0.110728v -4.2166h 0.110728v 16.0306h 0.110728v -6.6533h 0.110728v 48.0918h 0.110728v
 -48.0918h 0.110728v 16.0306h 0.110728v 16.0306h 0.110728v -37.2219h 0.110728v -4.2166h 0.110728v 16.0306h 0.110728v -6.6533h 0.110728v 16.0306h 0.110728v 16.0306h 0.221457v 16.0306h 0.110728v -16.0306h 0.110728v 16.0306h 0.110728v -32.0612h
 0.110728v 32.0612h 0.110728v -16.0306h 0.110728v 16.0306h 0.110728v -16.0306h 0.221457v 16.0306h 0.110728v -16.0306h 0.332185v -16.0306h 0.110728v 32.0612h 0.332185v -16.0306h 0.221457v 16.0306h 0.110728v -16.0306h 0.221457v -25.4079h 0.110728v
 41.4385h 0.553642v -16.0306h 0.110728v 16.0306h 0.110728v -16.0306h 0.332185v 16.0306h 0.221457v -16.0306h 0.221457v 16.0306h 0.110728v -16.0306h 0.442913v 16.0306h 0.110728v -57.4691h 0.110728v -34.7852h 0.110728v -28.1002h 0.110728v -21.2421h
 0.110728v -20.8232h 0.110728v -15.0624h 0.110728v -11.3538h 0.110728v -7.0058h 0.110728v -2.34518h 0.110728v 2.31604h 0.110728v 6.28423h 0.110728v 10.486h 0.110728v 15.2813h 0.110728v 21.6221h 0.110728v 23.694h 0.110728v 30.9853h 0.110728v 16.0306h
 0.110728v 30.0489h 0.110728v 25.4079h 0.110728v 16.0306h 0.996555v -16.0306h 0.110728v 16.0306h 0.332185v -16.0306h 0.110728v 16.0306h 0.442913v -32.0612h 0.110728v 32.0612h 1.10728v -16.0306h 0.110728v 16.0306h 0.553642v -16.0306h 0.110728v
 16.0306h 0.66437v -16.0306h 0.110728v 16.0306h 0.332185v -16.0306h 0.442913v 16.0306h 0.221457v -16.0306h 0.332185v 16.0306h 0.110728v -16.0306h 0.110728v 16.0306h 0.553642v -16.0306h 0.110728v 16.0306h 0.332185v -16.0306h 0.221457v -48.0918h
 0.110728v -9.3773h 0.110728v -20.4073h 0.110728v -21.6649h 0.110728v -17.8336h 0.110728v -8.79177h 0.110728v -7.52613h 0.221457v -1.65265h 0.110728v 8.30595h 0.110728v 13.5939h 0.110728v 12.6868h 0.110728v 14.3167h 0.110728v 16.0306h 0.110728v
 1.12838h 0.110728v -12.272h 0.110728v -4.32969h 0.110728v -1.10151h 0.110728v 6.83328h 0.221457v 16.0306h 0.110728v 22.6839h 0.110728v 41.4385h 0.221457v 16.0306h 0.110728v -41.4385h 0.221457v -22.6839h 0.110728v 10.8699h 0.110728v -13.5939h
 0.110728v -8.50447h 0.110728v 11.2285h 0.110728v 6.6533h 0.110728v 16.0306h 0.110728v 25.4079h 0.110728v -16.0306h 0.110728v 16.0306h 0.110728v 16.0306h 0.553642v -16.0306h 0.221457v 16.0306h 3.98622v -16.0306h 0.110728v 16.0306h 0.442913v -16.0306h
 0.110728v 16.0306h 1.32874v -32.0612h 0.110728v 16.0306h 0.110728v -32.0612h 0.110728v -16.0306h 0.110728v 6.6533h 0.110728v -3.56509h 0.110728v 7.78169h 0.110728v 53.2525h 0.110728v -48.0918h 0.110728v 32.0612h 0.110728v 16.0306h 0.332185v
 -16.0306h 0.221457v 16.0306h 0.110728v -32.0612h 0.110728v 16.0306h 0.110728v 16.0306h 0.442913v -16.0306h 0.110728v 16.0306h 0.553642v -16.0306h 0.110728v 16.0306h 1.32874v -16.0306h 0.110728v 16.0306h 0.110728v -16.0306h 0.221457v 16.0306h
 2.65748v -32.0612h 0.110728v 16.0306h 0.110728v -53.2525h 0.110728v -10.8699h 0.332185v 6.6533h 0.110728v -1.85117h 0.110728v 8.50447h 0.110728v 13.5939h 0.110728v 37.2219h 0.221457v 16.0306h 9.63337v -16.0306h 0.110728v 16.0306h 0.221457v -32.0612h
 0.110728v 32.0612h 292.655" fill="none" stroke="#0000ff"/>
<path d="M57.1929,373.094h 453.543" fill="none" stroke="black"/>
<path d="M57.2441,363.145v 9.94918" fill="none" stroke="black"/>
<path d="M74.4093,368.12v 4.97459" fill="none" stroke="black"/>
<path d="M91.5746,368.12v 4.97459" fill="none" stroke="black"/>
<path d="M108.74,368.12v 4.97459" fill="none" stroke="black"/>
<path d="M125.905,363.145v 9.94918" fill="none" stroke="black"/>
<path d="M143.07,368.12v 4.97459" fill="none" stroke="black"/>
<path d="M160.236,368.12v 4.97459" fill="none" stroke="black"/>
<path d="M177.401,368.12v 4.97459" fill="none" stroke="black"/>
<path d="M194.566,363.145v 9.94918" fill="none" stroke="black"/>
<path d="M211.731,368.12v 4.97459" fill="none" stroke="black"/>
<path d="M228.897,368.12v 4.97459" fill="none" stroke="black"/>
<path d="M246.062,368.12v 4.97459" fill="none" stroke="black"/>
<path d="M263.227,363.145v 9.94918" fill="none" stroke="black"/>
<path d="M280.392,368.12v 4.97459" fill="none" stroke="black"/>
<path d="M297.558,368.12v 4.97459" fill="none" stroke="black"/>
<path d="M314.723,368.12v 4.97459" fill="none" stroke="black"/>
<path d="M331.888,363.145v 9.94918" fill="none" stroke="black"/>
<path d="M349.053,368.12v 4.97459" fill="none" stroke="black"/>
<path d="M366.219,368.12v 4.97459" fill="none" stroke="black"/>
<path d="M383.384,368.12v 4.97459" fill="none" stroke="black"/>
<path d="M400.549,363.145v 9.94918" fill="none" stroke="black"/>
<path d="M417.714,368.12v 4.97459" fill="none" stroke="black"/>
<path d="M434.88,368.12v 4.97459" fill="none" stroke="black"/>
<path d="M452.045,368.12v 4.97459" fill="none" stroke="black"/>
<path d="M469.21,363.145v 9.94918" fill="none" stroke="black"/>
<path d="M57.2441,363.145v 9.94918" fill="none" stroke="black"/>
<path d="M469.21,363.145v 9.94918" fill="none" stroke="black"/>
<path d="M486.375,368.12v 4.97459" fill="none" stroke="black"/>
<path d="M503.541,368.12v 4.97459" fill="none" stroke="black"/>
<text xml:space="preserve" x="53.0285" y="386.629" fill="black" font-size="13.8112" font-family="Helvetica">0</text>
<text xml:space="preserve" x="115.968" y="386.629" fill="black" font-size="13.8112" font-family="Helvetica">0.2</text>
<text xml:space="preserve" x="185.06" y="386.629" fill="black" font-size="13.8112" font-family="Helvetica">0.4</text>
<text xml:space="preserve" x="253.678" y="386.629" fill="black" font-size="13.8112" font-family="Helvetica">0.6</text>
<text xml:space="preserve" x="322.296" y="386.629" fill="black" font-size="13.8112" font-family="Helvetica">0.8</text>
<text xml:space="preserve" x="397.54" y="386.629" fill="black" font-size="13.8112" font-family="Helvetica">1</text>
<text xml:space="preserve" x="459.533" y="386.629" fill="black" font-size="13.8112" font-family="Helvetica">1.2</text>
<text xml:space="preserve" x="426.88" y="399.879" fill="black" font-size="13.8112" font-family="Helvetica">Energy (MeV)</text>
<path d="M57.1929,373.094v -331.639" fill="none" stroke="black"/>
<path d="M63.9961,373.094h -6.80315" fill="none" stroke="black"/>
<path d="M63.9961,368.878h -6.80315" fill="none" stroke="black"/>
<path d="M63.9961,365.313h -6.80315" fill="none" stroke="black"/>
<path d="M63.9961,362.224h -6.80315" fill="none" stroke="black"/>
<path d="M63.9961,359.5h -6.80315" fill="none" stroke="black"/>
<path d="M70.7992,357.064h -13.6063" fill="none" stroke="black"/>
<text xml:space="preserve" x="47.3497" y="362.021" fill="black" font-size="13.8112" font-family="Helvetica">1</text>
<path d="M63.9961,341.033h -6.80315" fill="none" stroke="black"/>
<path d="M63.9961,331.656h -6.80315" fill="none" stroke="black"/>
<path d="M63.9961,325.002h -6.80315" fill="none" stroke="black"/>
<path d="M63.9961,319.842h -6.80315" fill="none" stroke="black"/>
<path d="M63.9961,315.625h -6.80315" fill="none" stroke="black"/>
<path d="M63.9961,312.06h -6.80315" fill="none" stroke="black"/>
<path d="M63.9961,308.972h -6.80315" fill="none" stroke="black"/>
<path d="M63.9961,306.248h -6.80315" fill="none" stroke="black"/>
<path d="M70.7992,303.811h -13.6063" fill="none" stroke="black"/>
<text xml:space="preserve" x="37.8851" y="308.546" fill="black" font-size="13.8112" font-family="Helvetica">10</text>
<path d="M63.9961,287.78h -6.80315" fill="none" stroke="black"/>
<path d="M63.9961,278.403h -6.80315" fill="none" stroke="black"/>
<path d="M63.9961,271.75h -6.80315" fill="none" stroke="black"/>
<path d="M63.9961,266.589h -6.80315" fill="none" stroke="black"/>
<path d="M63.9961,262.373h -6.80315" fill="none" stroke="black"/>
<path d="M63.9961,258.807h -6.80315" fill="none" stroke="black"/>
<path d="M63.9961,255.719h -6.80315" fill="none" stroke="black"/>
<path d="M63.9961,252.995h -6.80315" fill="none" stroke="black"/>
<path d="M70.7992,250.559h -13.6063" fill="none" stroke="black"/>
<text xml:space="preserve" x="47.823" y="250.812" fill="black" font-size="9.37414" font-family="Helvetica">2</text>
<text xml:space="preserve" x="33.1528" y="256.49" fill="black" font-size="13.8112" font-family="Helvetica">10</text>
<path d="M63.9961,234.528h -6.80315" fill="none" stroke="black"/>
<path d="M63.9961,225.151h -6.80315" fill="none" stroke="black"/>
<path d="M63.9961,218.497h -6.80315" fill="none" stroke="black"/>
<path d="M63.9961,213.337h -6.80315" fill="none" stroke="black"/>
<path d="M63.9961,209.12h -6.80315" fill="none" stroke="black"/>
<path d="M63.9961,205.555h -6.80315" fill="none" stroke="black"/>
<path d="M63.9961,202.467h -6.80315" fill="none" stroke="black"/>
<path d="M63.9961,199.743h -6.80315" fill="none" stroke="black"/>
<path d="M70.7992,197.306h -13.6063" fill="none" stroke="black"/>
<text xml:space="preserve" x="47.823" y="196.864" fill="black" font-size="9.37414" font-family="Helvetica">3</text>
<text xml:space="preserve" x="33.1528" y="203.016" fill="black" font-size="13.8112" font-family="Helvetica">10</text>
<path d="M63.9961,181.275h -6.80315" fill="none" stroke="black"/>
<path d="M63.9961,171.898h -6.80315" fill="none" stroke="black"/>
<path d="M63.9961,165.245h -6.80315" fill="none" stroke="black"/>
<path d="M63.9961,160.084h -6.80315" fill="none" stroke="black"/>
<path d="M63.9961,155.868h -6.80315" fill="none" stroke="black"/>
<path d="M63.9961,152.302h -6.80315" fill="none" stroke="black"/>
<path d="M63.9961,149.214h -6.80315" fill="none" stroke="black"/>
<path d="M63.9961,146.49h -6.80315" fill="none" stroke="black"/>
<path d="M70.7992,144.054h -13.6063" fill="none" stroke="black"/>
<text xml:space="preserve" x="47.823" y="144.335" fill="black" font-size="9.37414" font-family="Helvetica">4</text>
<text xml:space="preserve" x="33.1528" y="150.014" fill="black" font-size="13.8112" font-family="Helvetica">10</text>
<path d="M63.9961,128.023h -6.80315" fill="none" stroke="black"/>
<path d="M63.9961,118.646h -6.80315" fill="none" stroke="black"/>
<path d="M63.9961,111.992h -6.80315" fill="none" stroke="black"/>
<path d="M63.9961,106.832h -6.80315" fill="none" stroke="black"/>
<path d="M63.9961,102.615h -6.80315" fill="none" stroke="black"/>
<path d="M63.9961,99.05h -6.80315" fill="none" stroke="black"/>
<path d="M63.9961,95.9618h -6.80315" fill="none" stroke="black"/>
<path d="M63.9961,93.2378h -6.80315" fill="none" stroke="black"/>
<path d="M70.7992,90.801h -13.6063" fill="none" stroke="black"/>
<text xml:space="preserve" x="47.823" y="90.3869" fill="black" font-size="9.37414" font-family="Helvetica">5</text>
<text xml:space="preserve" x="33.1528" y="96.5389" fill="black" font-size="13.8112" font-family="Helvetica">10</text>
<path d="M63.9961,74.7704h -6.80315" fill="none" stroke="black"/>
<path d="M63.9961,65.3931h -6.80315" fill="none" stroke="black"/>
<path d="M63.9961,58.7398h -6.80315" fill="none" stroke="black"/>
<path d="M63.9961,53.5791h -6.80315" fill="none" stroke="black"/>
<path d="M63.9961,49.3625h -6.80315" fill="none" stroke="black"/>
<path d="M63.9961,45.7975h -6.80315" fill="none" stroke="black"/>
<path d="M63.9961,42.7092h -6.80315" fill="none" stroke="black"/>
<g transform="rotate(-90,22.7418,70.9845)">
<text xml:space="preserve" x="22.7418" y="70.9845" fill="black" font-size="13.8112" font-family="Helvetica">Yield</text>
</g>
<path d="M57.2441,357.064v 16.0306h 3.65362v -81.5551h 0.110716v -13.8943h 0.110716v -9.12728h 0.110716v 10.6697h 0.110716v 3.43255h 0.110716v -4.97494h 0.110716v -4.70869h 0.110716v -0.600742h 0.110716v 6.85182h 0.110716v 1.65265h 0.110716v -2.4367h
 0.110716v 11.814h 0.110716v -4.64097h 0.110716v -13.2408h 0.110716v 2.50269h 0.110716v -3.65929h 0.110716v 3.65929h 0.110716v -6.32053h 0.110716v 1.55973h 0.110716v -8.83311h 0.110716v 9.93461h 0.110716v 1.1566h 0.110716v -4.80213h 0.110716v
 0.984288h 0.110716v -5.36094h 0.110716v -5.63432h 0.110716v 7.28697h 0.110716v -6.9723h 0.110716v -11.8773h 0.110716v -2.85004h 0.110716v -6.01615h 0.110716v -5.79786h 0.110716v -10.2327h 0.110716v -3.30523h 0.110716v 11.4253h 0.110716v 16.9671h
 0.110716v 17.4088h 0.110716v 0.409343h 0.110716v 16.0306h 0.110716v -11.9786h 0.110716v 1.52543h 0.221432v -16.0306h 0.110716v -5.37h 0.110716v -5.36812h 0.110716v -6.1945h 0.110716v -1.58719h 0.110716v 8.28266h 0.110716v 5.07645h 0.110716v 5.69239h
 0.110716v -5.05288h 0.110716v 1.10678h 0.110716v -10.121h 0.110716v -5.33569h 0.110716v -6.1837h 0.110716v -3.84297h 0.110716v -3.68316h 0.110716v -3.67495h 0.110716v -1.17531h 0.110716v -4.52704h 0.110716v -16.9953h 0.110716v -24.4647h 0.110716v
 -18.7649h 0.110716v -8.25874h 0.110716v 0.961842h 0.110716v 14.7583h 0.110716v 25.0606h 0.110716v 29.4827h 0.110716v 19.6265h 0.110716v 2.15029h 0.110716v 3.17309h 0.110716v 5.1607h 0.110716v -2.11132h 0.110716v -14.5069h 0.110716v -23.2974h
 0.110716v -19.2339h 0.110716v -7.3925h 0.110716v 4.11726h 0.110716v 10.9203h 0.110716v 12.1713h 0.110716v 10.7029h 0.110716v 23.0651h 0.110716v 26.0862h 0.110716v 1.71392h 0.110716v 1.85117h 0.110716v 24.0058h 0.110716v -23.5189h 0.110716v 2.05711h
 0.110716v 5.4312h 0.110716v 11.1436h 0.110716v -4.03232h 0.110716v 8.91932h 0.110716v 8.05539h 0.110716v -23.3956h 0.110716v 1.44593h 0.221432v 0.758339h 0.110716v 3.30953h 0.110716v -2.52548h 0.110716v -10.1614h 0.110716v 4.52704h 0.110716v
 -1.21751h 0.110716v 3.86351h 0.110716v -0.690418h 0.110716v 0.690418h 0.110716v -5.02011h 0.110716v -2.15293h 0.110716v 14.538h 0.110716v -9.3773h 0.110716v -6.16639h 0.110716v 8.17873h 0.110716v -8.66564h 0.110716v 15.0865h 0.110716v -7.78169h
 0.110716v 10.7381h 0.110716v -11.3896h 0.110716v 3.45826h 0.221432v -3.45826h 0.110716v -0.633664h 0.110716v -2.93142h 0.110716v -4.4903h 0.110716v 11.5136h 0.110716v 9.00726h 0.110716v -17.1065h 0.110716v -2.4892h 0.110716v 5.279h 0.110716v
 2.50269h 0.110716v 1.36082h 0.110716v -10.0677h 0.110716v -8.29422h 0.110716v -20.4836h 0.110716v -11.4187h 0.110716v 0.321217h 0.110716v 12.0307h 0.110716v 15.7601h 0.110716v 14.4709h 0.110716v 10.6697h 0.110716v -12.5981h 0.110716v 4.03232h
 0.110716v 9.3773h 0.110716v -11.9786h 0.110716v -5.25891h 0.110716v 6.2646h 0.110716v -1.96947h 0.110716v -1.81483h 0.110716v -6.10131h 0.110716v 7.44891h 0.110716v -4.2166h 0.110716v -0.758339h 0.110716v -3.1348h 0.110716v 16.3587h 0.110716v
 -11.6815h 0.110716v -2.98832h 0.110716v 7.85188h 0.110716v -6.40595h 0.110716v -5.60405h 0.110716v -1.4193h 0.110716v -8.6312h 0.110716v -2.68184h 0.110716v 4.86715h 0.110716v -4.0073h 0.110716v 4.85611h 0.110716v 1.33464h 0.110716v 0.934563h
 0.110716v -2.9087h 0.110716v 1.97414h 0.110716v 5.10353h 0.110716v -0.283774h 0.110716v -8.99816h 0.110716v 8.71782h 0.110716v 2.96911h 0.110716v -9.48267h 0.110716v 4.13265h 0.110716v -1.22395h 0.110716v -0.472002h 0.110716v 3.79988h 0.110716v
 2.62098h 0.110716v -1.4926h 0.110716v -1.67258h 0.110716v 1.10151h 0.110716v -4.35719h 0.110716v -0.690418h 0.110716v 6.80496h 0.110716v -6.5771h 0.110716v 8.81182h 0.110716v -6.90333h 0.221432v 3.48234h 0.110716v -1.40208h 0.110716v 1.98761h
 0.110716v 6.45647h 0.110716v -2.23987h 0.110716v 1.46889h 0.110716v -3.83432h 0.110716v 9.3773h 0.110716v -8.05539h 0.110716v 5.33138h 0.110716v 9.3773h 0.110716v -7.5974h 0.110716v -7.11128h 0.110716v 13.4583h 0.110716v -10.5636h 0.110716v 5.1607h
 0.110716v -5.54298h 0.110716v 8.087h 0.110716v -6.51845h 0.110716v 18.1539h 0.110716v -19.7224h 0.110716v 9.18851h 0.110716v -12.0385h 0.110716v 7.44891h 0.110716v -25.4079h 0.110716v -7.56037h 0.110716v -14.1191h 0.110716v -1.57548h 0.110716v
 -11.8027h 0.110716v -20.802h 0.110716v -17.8256h 0.110716v -3.0914h 0.110716v 8.6231h 0.110716v 23.2383h 0.110716v 31.4934h 0.110716v 36.6256h 0.110716v -0.416719h 0.110716v 11.5403h 0.110716v -6.48262h 0.110716v -0.508312h 0.110716v 6.99093h
 0.110716v 2.89468h 0.110716v -6.6533h 0.110716v -7.36497h 0.110716v 16.455h 0.110716v 9.3773h 0.110716v -14.0183h 0.110716v -7.17304h 0.110716v -3.34377h 0.110716v 20.97h 0.110716v -8.24892h 0.110716v -2.89468h 0.110716v 6.20422h 0.110716v -6.87462h
 0.110716v 24.7564h 0.110716v -9.3773h 0.110716v -8.50447h 0.110716v 30.3473h 0.110716v -24.2795h 0.110716v 1.18627h 0.110716v -2.31466h 0.110716v -4.93939h 0.110716v -10.5339h 0.110716v 24.8506h 0.110716v -21.8428h 0.110716v 16.0306h 0.110716v
 -21.1913h 0.110716v 2.15293h 0.110716v 32.6323h 0.110716v -29.6245h 0.110716v 3.45826h 0.110716v 4.97494h 0.110716v -11.9983h 0.110716v 2.93142h 0.110716v 16.6643h 0.110716v -9.3773h 0.110716v 76.2237h 0.110716v -75.3509h 0.110716v 6.06777h
 0.110716v -5.1607h 0.110716v -9.68363h 0.110716v -4.91597h 0.110716v 11.167h 0.110716v -12.5981h 0.110716v 4.03232h 0.110716v 6.28909h 0.110716v -4.57517h 0.110716v -2.7898h 0.110716v 5.96288h 0.110716v 12.272h 0.110716v 1.18627h 0.110716v -14.1287h
 0.110716v 6.87462h 0.110716v 16.0306h 0.110716v -29.2258h 0.110716v 13.1951h 0.110716v -2.52548h 0.110716v 4.37665h 0.110716v -14.538h 0.110716v 2.15293h 0.110716v 5.73178h 0.110716v 1.4926h 0.110716v -8.32588h 0.110716v 8.32588h 0.110716v 2.4367h
 0.110716v 12.1013h 0.110716v 6.6533h 0.110716v -36.0356h 0.110716v 23.0933h 0.110716v -18.1345h 0.110716v 27.5118h 0.110716v -17.6262h 0.110716v -2.20426h 0.110716v -6.12162h 0.110716v 5.4312h 0.110716v -0.670403h 0.110716v 3.56509h 0.110716v
 11.814h 0.110716v -16.0306h 0.110716v -3.00777h 0.110716v 11.441h 0.110716v -7.78169h 0.110716v -6.32053h 0.110716v 21.6996h 0.110716v -21.6996h 0.110716v 1.02805h 0.110716v -7.55532h 0.110716v 1.56855h 0.110716v 30.8749h 0.110716v -21.4976h
 0.110716v 7.06265h 0.110716v 11.5403h 0.110716v 2.89468h 0.110716v -18.2349h 0.110716v 12.7678h 0.110716v 10.6277h 0.110716v -32.0612h 0.110716v -1.40208h 0.110716v 1.40208h 0.110716v 4.2166h 0.110716v 1.18627h 0.110716v 3.26276h 0.110716v -9.60974h
 0.110716v 5.74623h 0.110716v 6.85182h 0.110716v -11.654h 0.110716v 9.3773h 0.110716v 7.63759h 0.110716v -7.63759h 0.221432v -5.1607h 0.110716v -8.19103h 0.110716v 20.005h 0.110716v -0.944102h 0.110716v -7.11128h 0.110716v -11.9496h 0.110716v
 8.77656h 0.110716v 13.2408h 0.110716v -16.0306h 0.110716v 8.09923h 0.110716v -3.45826h 0.110716v -3.00777h 0.110716v 4.32969h 0.110716v -10.2669h 0.110716v 10.9573h 0.110716v 0.711665h 0.110716v -2.07249h 0.110716v -8.24892h 0.110716v 24.9499h
 0.110716v -13.8943h 0.110716v -2.13634h 0.110716v -3.75862h 0.110716v 1.18627h 0.110716v -4.41859h 0.110716v 3.23231h 0.110716v 6.6533h 0.110716v -3.56509h 0.110716v 5.1607h 0.110716v 6.6533h 0.221432v -7.46487h 0.110716v 0.811567h 0.110716v
 -21.1913h 0.110716v 25.7407h 0.110716v -15.5223h 0.110716v 14.538h 0.110716v -7.36497h 0.110716v -4.44904h 0.110716v 29.8569h 0.110716v -31.5295h 0.110716v -0.531685h 0.110716v 4.0073h 0.110716v -8.74364h 0.110716v 12.8356h 0.110716v 5.91904h
 0.110716v -15.5437h 0.110716v 4.31523h 0.110716v -1.71392h 0.110716v 14.9547h 0.110716v -25.4079h 0.110716v 4.64097h 0.110716v 10.0288h 0.110716v 2.07249h 0.110716v -1.40208h 0.110716v -7.48831h 0.110716v -11.417h 0.110716v 13.4741h 0.110716v
 -3.02089h 0.110716v -3.08822h 0.110716v -4.4903h 0.110716v 10.0677h 0.110716v -2.4892h 0.110716v 5.279h 0.110716v -5.279h 0.110716v 8.45209h 0.110716v -14.9871h 0.110716v 7.49878h 0.110716v 6.16639h 0.110716v -5.66901h 0.110716v 1.02805h 0.110716v
 -1.02805h 0.110716v -8.69704h 0.110716v 8.19966h 0.110716v 2.60131h 0.110716v 11.0912h 0.110716v -9.96284h 0.110716v -8.9886h 0.110716v 2.92083h 0.110716v 3.34377h 0.110716v 19.9409h 0.110716v -25.4079h 0.110716v 7.61996h 0.110716v 1.75735h
 0.110716v -8.55124h 0.110716v -7.47936h 0.110716v 7.47936h 0.110716v 14.0183h 0.110716v -16.4129h 0.110716v 6.02989h 0.110716v -7.14021h 0.110716v 1.8813h 0.110716v -5.85573h 0.110716v 6.6533h 0.110716v 2.57235h 0.110716v -1.74628h 0.110716v
 -2.39461h 0.110716v 6.52727h 0.110716v -1.46116h 0.110716v 4.69347h 0.110716v -5.1607h 0.110716v 1.43101h 0.110716v -0.486908h 0.110716v 0.984288h 0.110716v -10.6806h 0.110716v 1.30329h 0.110716v 10.937h 0.110716v -5.26802h 0.110716v 8.12688h
 0.110716v -1.75735h 0.110716v -2.15293h 0.110716v -3.7843h 0.110716v -1.68273h 0.110716v 6.51845h 0.110716v -3.02089h 0.110716v 3.02089h 0.110716v -3.02089h 0.110716v 9.14251h 0.110716v -1.36082h 0.110716v -6.81791h 0.110716v 4.31523h 0.110716v
 -0.585532h 0.110716v 1.80304h 0.110716v -11.1803h 0.110716v 1.18627h 0.110716v 3.03033h 0.110716v 2.4367h 0.110716v -16.2862h 0.110716v -7.15609h 0.110716v 5.91904h 0.110716v 0.984288h 0.110716v 2.94501h 0.110716v 6.55832h 0.110716v 9.18851h
 0.110716v 2.37411h 0.110716v -6.49651h 0.110716v 11.3468h 0.110716v -10.383h 0.110716v 5.53273h 0.110716v -3.47562h 0.110716v -0.531685h 0.110716v 1.63319h 0.110716v 8.00843h 0.110716v -10.1614h 0.110716v 1.05142h 0.110716v 7.56754h 0.110716v
 -6.46604h 0.110716v -0.557311h 0.110716v 0.557311h 0.110716v 3.00777h 0.110716v -10.2184h 0.110716v 12.2307h 0.110716v -7.68135h 0.110716v 12.3223h 0.110716v -8.50447h 0.110716v 8.50447h 0.110716v -2.4367h 0.110716v -7.22438h 0.110716v 1.1566h
 0.110716v 6.06777h 0.110716v -7.22438h 0.110716v 8.00843h 0.110716v -11.654h 0.110716v 3.08822h 0.110716v -7.06265h 0.110716v 4.95872h 0.221432v 2.10393h 0.110716v -7.46487h 0.110716v 10.3963h 0.110716v 6.44588h 0.110716v 1.71392h 0.110716v
 -11.0912h 0.110716v 0.557311h 0.110716v -5.93723h 0.110716v 4.30404h 0.110716v 5.29248h 0.110716v -5.81222h 0.110716v 0.519736h 0.110716v 8.85757h 0.110716v 5.1607h 0.110716v -2.724h 0.110716v -8.50447h 0.110716v -3.81785h 0.110716v 6.32053h
 0.110716v 1.36082h 0.110716v -4.44904h 0.110716v 11.814h 0.110716v -15.0463h 0.110716v 9.88562h 0.110716v -10.383h 0.110716v 1.00569h 0.110716v -3.34377h 0.110716v 13.5051h 0.110716v -5.63432h 0.110716v 7.28697h 0.110716v -6.00179h 0.110716v
 15.3791h 0.110716v -16.6643h 0.110716v 5.63432h 0.110716v -8.00843h 0.110716v 5.73178h 0.110716v -3.35766h 0.110716v 4.85026h 0.110716v -1.4926h 0.110716v 0.734261h 0.110716v -8.61896h 0.110716v 2.15293h 0.110716v -5.04761h 0.110716v 12.272h
 0.110716v -6.06777h 0.110716v -5.74623h 0.110716v 4.58963h 0.110716v -4.1224h 0.110716v 0.476868h 0.110716v 3.64553h 0.110716v 2.37411h 0.221432v -5.03535h 0.110716v -5.36094h 0.110716v 9.17879h 0.110716v 6.06777h 0.110716v -7.78169h 0.110716v
 -1.07588h 0.110716v 8.85757h 0.110716v -12.272h 0.110716v -2.97457h 0.110716v 7.46487h 0.110716v 3.56509h 0.110716v -5.1607h 0.221432v -1.00569h 0.110716v 9.62466h 0.110716v 4.06787h 0.110716v -9.3773h 0.110716v 5.30943h 0.110716v -13.2599h
 0.110716v 6.23658h 0.110716v 8.56574h 0.110716v -5.63432h 0.110716v 6.44588h 0.110716v -2.35396h 0.110716v -7.02335h 0.110716v 8.56574h 0.110716v -9.64162h 0.110716v 12.1671h 0.110716v -11.0912h 0.110716v 5.57742h 0.110716v -8.66564h 0.110716v
 0.984288h 0.110716v 9.12728h 0.110716v -5.89496h 0.110716v -2.20426h 0.110716v 4.64097h 0.110716v -3.56509h 0.110716v 11.0912h 0.110716v -0.872831h 0.110716v 1.7799h 0.110716v -2.62098h 0.110716v -9.3773h 0.110716v 5.57742h 0.110716v 4.64097h
 0.110716v -6.00179h 0.110716v 2.07249h 0.110716v -2.724h 0.110716v 6.6533h 0.110716v -11.814h 0.110716v 11.814h 0.110716v -2.4367h 0.110716v 3.30953h 0.110716v -6.20422h 0.110716v 2.89468h 0.110716v 2.4367h 0.110716v -3.9293h 0.110716v -5.1607h
 0.110716v 12.7983h 0.110716v 2.10393h 0.110716v -3.08822h 0.110716v -2.724h 0.110716v 3.70829h 0.110716v -7.63759h 0.221432v 20.8327h 0.110716v -15.1235h 0.110716v -5.7092h 0.110716v 4.80213h 0.110716v -1.71392h 0.110716v -1.59562h 0.110716v
 16.0306h 0.110716v -5.46703h 0.110716v 3.97443h 0.110716v -6.28909h 0.110716v -4.93939h 0.110716v -0.872831h 0.110716v -0.841085h 0.110716v -2.35396h 0.110716v 0.758339h 0.110716v 8.24892h 0.110716v 2.31466h 0.110716v -8.96796h 0.110716v -1.59562h
 0.110716v 8.24892h 0.110716v 7.78169h 0.110716v -1.4926h 0.110716v -2.724h 0.110716v -2.4367h 0.110716v -3.23231h 0.110716v 3.23231h 0.110716v -2.20426h 0.110716v -9.3773h 0.110716v 15.3402h 0.110716v -15.3402h 0.110716v 12.7678h 0.110716v -10.5636h
 0.110716v 16.0306h 0.110716v 3.30953h 0.110716v -16.9034h 0.110716v 6.9406h 0.110716v -5.1607h 0.110716v -7.11128h 0.110716v -0.670403h 0.110716v -1.28518h 0.110716v 1.28518h 0.110716v -3.65929h 0.110716v 8.81999h 0.221432v -3.08822h 0.110716v
 4.80213h 0.221432v -1.71392h 0.110716v 14.435h 0.110716v -16.0306h 0.110716v 25.4079h 0.110716v 21.1913h 0.110716v -33.4633h 0.110716v -8.91932h 0.110716v 23.628h 0.110716v -8.50447h 0.110716v 3.86351h 0.110716v 7.36497h 0.221432v -14.538h 0.332148v
 37.2219h 0.110716v -46.0795h 0.110716v 30.0489h 0.110716v 41.4385h 0.110716v -68.0969h 0.110716v 7.06265h 0.110716v -4.4903h 0.110716v 8.05539h 0.110716v -6.6533h 0.110716v -6.28909h 0.110716v 3.56509h 0.110716v -5.66901h 0.110716v 47.1075h
 0.110716v -27.8446h 0.110716v -26.9005h 0.110716v 35.1494h 0.110716v 61.0342h 0.110716v -73.4997h 0.110716v -16.0306h 0.110716v 36.2778h 0.110716v -4.2166h 0.110716v -11.814h 0.110716v 2.4367h 0.110716v -17.281h 0.110716v 26.6583h 0.110716v -9.3773h
 0.110716v -2.4367h 0.110716v -13.5939h 0.110716v 4.2166h 0.110716v 11.814h 0.110716v -13.3066h 0.110716v 80.153h 0.110716v -41.4385h 0.110716v -27.8446h 0.110716v 8.24892h 0.221432v -8.24892h 0.110716v -12.272h 0.110716v 1.40208h 0.110716v 64.1224h
 0.110716v -45.0036h 0.110716v -21.8428h 0.110716v 16.0306h 0.110716v 18.7546h 0.110716v -23.3956h 0.221432v -5.57742h 0.110716v 1.71392h 0.110716v 3.86351h 0.110716v 39.4262h 0.110716v -32.0612h 0.110716v 64.1224h 0.221432v -75.3509h 0.221432v
 17.8818h 0.110716v -14.0183h 0.110716v -5.57742h 0.110716v 28.973h 0.110716v 6.6533h 0.110716v -19.5957h 0.110716v -5.81222h 0.110716v 5.81222h 0.221432v -8.24892h 0.110716v -2.20426h 0.110716v -3.86351h 0.110716v -1.71392h 0.110716v 77.0648h
 0.110716v -53.2525h 0.110716v -20.2472h 0.110716v 9.3773h 0.110716v 10.8699h 0.221432v -13.5939h 0.110716v 5.81222h 0.110716v -5.81222h 0.110716v 34.7852h 0.221432v -32.0612h 0.110716v -18.7546h 0.110716v 2.724h 0.110716v 13.3066h 0.332148v
 -4.64097h 0.110716v 55.4568h 0.110716v -45.0036h 0.110716v 61.0342h 0.110716v -48.0918h 0.110716v -21.1913h 0.110716v -2.20426h 0.110716v -8.66564h 0.110716v -1.40208h 0.110716v 14.7087h 0.110716v 66.8464h 0.110716v -66.8464h 0.110716v -8.50447h
 0.110716v 11.2285h 0.110716v -5.1607h 0.110716v -4.2166h 0.110716v -1.85117h 0.110716v -8.77656h 0.110716v 26.6583h 0.221432v -11.814h 0.110716v 27.8446h 0.110716v -27.8446h 0.110716v 53.2525h 0.110716v 16.0306h 0.110716v -61.0342h 0.110716v
 -14.3167h 0.110716v -1.71392h 0.110716v -5.81222h 0.110716v 41.4385h 0.110716v 41.4385h 0.110716v -71.4874h 0.110716v 39.4262h 0.110716v 32.0612h 0.110716v -41.4385h 0.110716v -16.0306h 0.110716v -11.814h 0.110716v 16.0306h 0.110716v 53.2525h
 0.110716v -53.2525h 0.110716v -22.0984h 0.110716v 33.9124h 0.110716v -25.4079h 0.110716v 66.8464h 0.110716v -41.4385h 0.110716v 25.4079h 0.110716v -55.4568h 0.110716v 18.2349h 0.110716v -18.2349h 0.221432v 10.4532h 0.110716v -16.0306h 0.110716v
 10.2184h 0.110716v 18.7546h 0.110716v -39.4262h 0.110716v -18.987h 0.110716v -22.7993h 0.110716v -15.1511h 0.110716v -8.58707h 0.110716v 1.14075h 0.110716v 7.99051h 0.110716v 20.4685h 0.110716v 48.0918h 0.110716v -8.77656h 0.110716v 7.06265h
 0.110716v 77.0648h 0.110716v -69.2831h 0.110716v 5.1607h 0.221432v 32.0612h 0.110716v -43.2897h 0.110716v 75.3509h 0.110716v -48.0918h 0.110716v 48.0918h 0.110716v -48.0918h 0.110716v -9.3773h 0.110716v -11.814h 0.110716v -2.20426h 0.110716v
 7.36497h 0.110716v 32.0612h 0.110716v -28.973h 0.110716v -14.3167h 0.110716v 17.8818h 0.110716v -25.4079h 0.110716v 66.8464h 0.110716v -48.0918h 0.110716v 32.0612h 0.110716v -21.1913h 0.110716v 53.2525h 0.332148v -53.2525h 0.110716v 11.814h
 0.110716v -22.6839h 0.110716v 22.6839h 0.110716v -19.5957h 0.110716v -3.08822h 0.110716v 10.8699h 0.110716v 11.814h 0.110716v -16.0306h 0.110716v -19.5957h 0.110716v 45.0036h 0.110716v -41.4385h 0.110716v 2.01234h 0.110716v 23.3956h 0.110716v
 -12.9424h 0.110716v 19.5957h 0.110716v -6.6533h 0.110716v -12.9424h 0.110716v -14.3167h 0.110716v 1.85117h 0.110716v 41.4385h 0.110716v -34.7852h 0.110716v 50.8158h 0.110716v -37.2219h 0.110716v -4.2166h 0.110716v -16.0306h 0.110716v 9.3773h
 0.110716v 64.1224h 0.110716v -57.4691h 0.110716v 25.4079h 0.221432v 32.0612h 0.110716v -71.4874h 0.110716v 71.4874h 0.110716v -32.0612h 0.110716v -21.1913h 0.110716v 37.2219h 0.110716v 16.0306h 0.221432v -41.4385h 0.110716v -22.6839h 0.110716v
 64.1224h 0.110716v -16.0306h 0.110716v -25.4079h 0.110716v -32.0612h 0.110716v -18.7546h 0.110716v -38.5533h 0.110716v -20.4351h 0.110716v -13.415h 0.110716v -8.71937h 0.110716v 2.20683h 0.110716v 10.3726h 0.110716v 17.8229h 0.110716v 29.7011h
 0.110716v 30.3967h 0.110716v 18.7546h 0.110716v -5.1607h 0.221432v 16.0306h 0.221432v 11.814h 0.110716v -6.6533h 0.110716v -25.4079h 0.110716v 2.01234h 0.110716v -5.57742h 0.110716v -1.59562h 0.110716v 46.5992h 0.110716v -28.973h 0.110716v 28.973h
 0.110716v -21.1913h 0.110716v 21.1913h 0.110716v -28.973h 0.110716v 61.0342h 0.110716v -57.4691h 0.110716v 16.0306h 0.110716v -25.4079h 0.110716v 66.8464h 0.221432v -41.4385h 0.110716v -11.814h 0.110716v -20.2472h 0.110716v 73.4997h 0.110716v
 -41.4385h 0.110716v 25.4079h 0.110716v 16.0306h 0.110716v -16.0306h 0.110716v 16.0306h 0.110716v -16.0306h 0.110716v -55.4568h 0.110716v -2.01234h 0.110716v 12.4655h 0.110716v 12.9424h 0.110716v 16.0306h 0.110716v -34.7852h 0.110716v 50.8158h
 0.110716v -16.0306h 0.110716v -9.3773h 0.110716v -19.5957h 0.110716v 3.56509h 0.110716v -14.0183h 0.110716v 71.4874h 0.110716v -53.2525h 0.110716v 53.2525h 0.332148v -16.0306h 0.110716v -53.2525h 0.110716v 21.1913h 0.110716v -27.2591h 0.110716v
 17.8818h 0.221432v -16.0306h 0.110716v 20.2472h 0.110716v 5.1607h 0.110716v 6.6533h 0.110716v 41.4385h 0.110716v -41.4385h 0.110716v 9.3773h 0.110716v 32.0612h 0.110716v -64.1224h 0.110716v 32.0612h 0.110716v -28.973h 0.110716v -12.4655h 0.110716v
 12.4655h 0.110716v 28.973h 0.110716v -28.973h 0.110716v 19.5957h 0.110716v 41.4385h 0.110716v -64.1224h 0.110716v 48.0918h 0.110716v 16.0306h 0.110716v -71.4874h 0.110716v -5.57742h 0.110716v 19.5957h 0.110716v -6.6533h 0.110716v -9.3773h 0.110716v
 25.4079h 0.110716v 48.0918h 0.110716v -16.0306h 0.110716v -32.0612h 0.110716v -16.0306h 0.221432v -11.2285h 0.110716v 1.85117h 0.110716v -10.6277h 0.110716v 10.6277h 0.110716v 6.6533h 0.110716v 9.3773h 0.110716v -6.6533h 0.110716v 16.0306h 0.110716v
 48.0918h 0.221432v -16.0306h 0.110716v 16.0306h 0.221432v -41.4385h 0.110716v -11.814h 0.110716v 53.2525h 0.110716v -57.4691h 0.110716v 4.2166h 0.110716v -10.8699h 0.110716v 10.8699h 0.110716v 53.2525h 0.110716v -61.0342h 0.110716v 19.5957h
 0.110716v 9.3773h 0.110716v -9.3773h 0.110716v -6.6533h 0.110716v -9.3773h 0.110716v 25.4079h 0.110716v -28.973h 0.110716v 61.0342h 0.110716v -77.0648h 0.110716v 28.973h 0.110716v -9.3773h 0.110716v 57.4691h 0.110716v -66.8464h 0.110716v 9.3773h
 0.110716v 25.4079h 0.110716v -28.973h 0.110716v 61.0342h 0.332148v -32.0612h 0.110716v 32.0612h 0.110716v -32.0612h 0.110716v -28.973h 0.110716v -3.08822h 0.110716v 32.0612h 0.110716v -25.4079h 0.110716v 16.0306h 0.110716v -16.0306h 0.110716v
 57.4691h 0.110716v -16.0306h 0.110716v -25.4079h 0.110716v 41.4385h 0.110716v -64.1224h 0.110716v 48.0918h 0.110716v -50.8158h 0.110716v 2.724h 0.110716v 32.0612h 0.110716v -25.4079h 0.110716v -14.0183h 0.110716v 71.4874h 0.221432v -61.0342h
 0.110716v 12.9424h 0.110716v -36.0356h 0.110716v -5.40288h 0.110716v -20.4073h 0.110716v -24.5963h 0.110716v -23.3455h 0.110716v -18.9931h 0.110716v -13.3796h 0.110716v -5.97526h 0.110716v 1.50025h 0.110716v 10.0918h 0.110716v 18.527h 0.110716v
 23.7141h 0.110716v 34.1092h 0.110716v 28.1319h 0.110716v 26.9005h 0.110716v -10.8699h 0.110716v 16.0306h 0.110716v 48.0918h 0.332148v -48.0918h 0.110716v 48.0918h 0.110716v -48.0918h 0.110716v 48.0918h 0.110716v -32.0612h 0.110716v 32.0612h
 0.110716v -48.0918h 0.110716v 48.0918h 0.221432v -66.8464h 0.110716v 66.8464h 0.110716v -53.2525h 0.110716v 53.2525h 0.221432v -61.0342h 0.110716v 7.78169h 0.110716v 5.1607h 0.110716v -5.1607h 0.110716v 5.1607h 0.110716v 6.6533h 0.110716v 41.4385h
 0.110716v -48.0918h 0.110716v 48.0918h 0.221432v -48.0918h 0.221432v 48.0918h 0.110716v -16.0306h 0.110716v 16.0306h 0.110716v -32.0612h 0.221432v 32.0612h 0.221432v -41.4385h 0.221432v 41.4385h 0.110716v -41.4385h 0.221432v -6.6533h 0.110716v
 48.0918h 0.110716v -53.2525h 0.110716v 53.2525h 0.221432v -53.2525h 0.110716v 53.2525h 0.221432v -48.0918h 0.110716v 48.0918h 0.110716v -41.4385h 0.110716v 41.4385h 0.110716v -61.0342h 0.110716v 61.0342h 0.221432v -32.0612h 0.110716v 32.0612h
 0.442863v -16.0306h 0.110716v 16.0306h 0.110716v -41.4385h 0.110716v 9.3773h 0.110716v 32.0612h 0.110716v -41.4385h 0.110716v 41.4385h 0.221432v -48.0918h 0.221432v -12.9424h 0.110716v -19.1188h 0.110716v -21.1913h 0.110716v -22.9712h 0.110716v
 -16.6643h 0.110716v -8.16543h 0.110716v -1.07255h 0.110716v 9.23798h 0.110716v 10.8283h 0.110716v 27.1346h 0.110716v 29.5172h 0.110716v 6.6533h 0.110716v 5.81222h 0.110716v -17.6262h 0.110716v -5.46703h 0.110716v -7.25405h 0.110716v -1.71392h
 0.110716v 11.5403h 0.110716v 33.4633h 0.110716v -18.7546h 0.110716v 66.8464h 0.110716v -61.0342h 0.110716v 28.973h 0.110716v 32.0612h 0.332148v -57.4691h 0.110716v -6.6533h 0.110716v 16.0306h 0.110716v 32.0612h 0.110716v -45.0036h 0.110716v 45.0036h
 0.110716v 16.0306h 0.553579v -32.0612h 0.110716v -21.1913h 0.110716v 53.2525h 0.110716v -16.0306h 0.110716v 16.0306h 0.110716v -16.0306h 0.110716v -37.2219h 0.110716v 5.1607h 0.110716v 48.0918h 0.221432v -16.0306h 0.110716v 16.0306h 0.221432v
 -32.0612h 0.221432v 32.0612h 0.110716v -61.0342h 0.110716v 61.0342h 0.332148v -32.0612h 0.110716v 32.0612h 0.332148v -16.0306h 0.110716v -16.0306h 0.110716v 32.0612h 0.332148v -16.0306h 0.110716v -32.0612h 0.110716v -16.0306h 0.110716v 64.1224h
 0.221432v -41.4385h 0.110716v 41.4385h 0.775011v -32.0612h 0.110716v 32.0612h 1.21787v -57.4691h 0.110716v 25.4079h 0.110716v 32.0612h 0.221432v -16.0306h 0.110716v -37.2219h 0.110716v 21.1913h 0.110716v 32.0612h 0.332148v -41.4385h 0.110716v
 -6.6533h 0.221432v 48.0918h 0.110716v -16.0306h 0.110716v 16.0306h 0.442863v -16.0306h 0.110716v -25.4079h 0.110716v 41.4385h 0.110716v -53.2525h 0.110716v 37.2219h 0.110716v -16.0306h 0.110716v 32.0612h 0.332148v -69.2831h 0.110716v 69.2831h
 0.110716v -41.4385h 0.110716v 41.4385h 0.221432v -48.0918h 0.110716v 48.0918h 0.221432v -32.0612h 0.110716v -16.0306h 0.110716v 48.0918h 0.110716v -41.4385h 0.110716v 41.4385h 0.221432v -53.2525h 0.110716v 53.2525h 0.442863v -32.0612h 0.110716v
 32.0612h 0.110716v -41.4385h 0.110716v 25.4079h 0.221432v -16.0306h 0.221432v -21.1913h 0.110716v 11.814h 0.110716v 41.4385h 0.442863v -32.0612h 0.110716v -16.0306h 0.110716v 48.0918h 0.221432v -53.2525h 0.110716v 37.2219h 0.110716v -32.0612h
 0.110716v 48.0918h 0.221432v -32.0612h 0.110716v 32.0612h 0.110716v -16.0306h 0.110716v 16.0306h 0.221432v -32.0612h 0.110716v -16.0306h 0.110716v -9.3773h 0.110716v -6.6533h 0.110716v 22.6839h 0.110716v -37.2219h 0.110716v 1.59562h 0.110716v
 35.6263h 0.110716v 41.4385h 0.442863v -16.0306h 0.110716v -16.0306h 0.110716v -9.3773h 0.110716v 41.4385h 0.110716v -48.0918h 0.110716v 48.0918h 0.110716v -32.0612h 0.110716v 32.0612h 0.221432v -61.0342h 0.110716v 45.0036h 0.110716v 16.0306h
 0.221432v -41.4385h 0.110716v 41.4385h 0.332148v -48.0918h 0.110716v 16.0306h 0.110716v 32.0612h 0.221432v -32.0612h 0.110716v 32.0612h 0.442863v -41.4385h 0.110716v 41.4385h 0.553579v -57.4691h 0.110716v 57.4691h 0.332148v -41.4385h 0.110716v
 25.4079h 0.110716v -32.0612h 0.110716v 48.0918h 0.221432v -16.0306h 0.110716v 16.0306h 0.442863v -53.2525h 0.110716v 53.2525h 0.221432v -53.2525h 0.110716v 53.2525h 0.442863v -16.0306h 0.110716v 16.0306h 0.775011v -53.2525h 0.110716v 53.2525h
 0.110716v -32.0612h 0.110716v 32.0612h 0.442863v -48.0918h 0.110716v 48.0918h 0.110716v -16.0306h 0.221432v -32.0612h 0.110716v 32.0612h 0.110716v 16.0306h 0.221432v -16.0306h 0.332148v 16.0306h 0.332148v -48.0918h 0.110716v 32.0612h 0.110716v
 16.0306h 0.110716v -32.0612h 0.110716v 32.0612h 0.221432v -53.2525h 0.110716v 37.2219h 0.110716v 16.0306h 1.10716v -16.0306h 0.110716v 16.0306h 0.110716v -41.4385h 0.110716v 9.3773h 0.110716v 32.0612h 0.885727v -69.2831h 0.110716v 69.2831h 0.775011v
 -16.0306h 0.110716v 16.0306h 0.332148v -16.0306h 0.110716v 16.0306h 0.221432v -16.0306h 0.110716v 16.0306h 0.442863v -32.0612h 0.110716v 32.0612h 0.110716v -61.0342h 0.110716v 19.5957h 0.110716v 41.4385h 0.332148v -41.4385h 0.110716v 25.4079h
 0.221432v -32.0612h 0.110716v 48.0918h 0.332148v -16.0306h 0.221432v -37.2219h 0.110716v 53.2525h 0.110716v -48.0918h 0.110716v 48.0918h 0.221432v -41.4385h 0.110716v -6.6533h 0.110716v 48.0918h 0.332148v -16.0306h 0.110716v 16.0306h 0.110716v
 -41.4385h 0.110716v 41.4385h 0.553579v -32.0612h 0.110716v 32.0612h 0.110716v -16.0306h 0.110716v -32.0612h 0.110716v 48.0918h 0.553579v -16.0306h 0.221432v 16.0306h 0.110716v -16.0306h 0.110716v 16.0306h 0.332148v -53.2525h 0.110716v 53.2525h
 0.221432v -41.4385h 0.110716v 41.4385h 0.332148v -32.0612h 0.110716v -16.0306h 0.110716v 48.0918h 0.110716v -16.0306h 0.110716v 16.0306h 0.221432v -32.0612h 0.110716v 32.0612h 0.664295v -41.4385h 0.110716v 41.4385h 0.221432v -16.0306h 0.110716v
 16.0306h 0.775011v -41.4385h 0.110716v 41.4385h 0.332148v -41.4385h 0.110716v 41.4385h 0.221432v -57.4691h 0.110716v 57.4691h 0.221432v -16.0306h 0.110716v -32.0612h 0.110716v 16.0306h 0.110716v -9.3773h 0.110716v 25.4079h 0.110716v 16.0306h
 1.32859v -16.0306h 0.110716v -32.0612h 0.110716v 32.0612h 0.110716v 16.0306h 0.553579v -16.0306h 0.110716v 16.0306h 0.664295v -32.0612h 0.442863v 32.0612h 0.110716v -16.0306h 0.110716v 16.0306h 0.110716v -32.0612h 0.110716v 32.0612h 0.332148v
 -16.0306h 0.221432v 16.0306h 0.221432v -16.0306h 0.110716v 16.0306h 0.221432v -32.0612h 0.221432v -9.3773h 0.110716v 41.4385h 0.442863v -48.0918h 0.110716v 48.0918h 0.775011v -41.4385h 0.110716v 41.4385h 0.332148v -32.0612h 0.110716v 32.0612h
 0.221432v -53.2525h 0.110716v 53.2525h 0.664295v -16.0306h 0.110716v -16.0306h 0.110716v 32.0612h 0.110716v -41.4385h 0.110716v 25.4079h 0.221432v 16.0306h 0.221432v -16.0306h 0.110716v -16.0306h 0.110716v 32.0612h 0.664295v -16.0306h 0.110716v
 -16.0306h 0.110716v 16.0306h 0.110716v 16.0306h 0.110716v -53.2525h 0.110716v 53.2525h 0.332148v -32.0612h 0.110716v 32.0612h 0.332148v -16.0306h 0.110716v -16.0306h 0.110716v 32.0612h 0.221432v -32.0612h 0.110716v 32.0612h 0.221432v -16.0306h
 0.110716v 16.0306h 0.221432v -64.1224h 0.110716v 32.0612h 0.110716v 32.0612h 0.332148v -16.0306h 0.110716v 16.0306h 0.332148v -41.4385h 0.110716v 25.4079h 0.110716v 16.0306h 0.332148v -32.0612h 0.110716v 32.0612h 0.221432v -48.0918h 0.110716v
 48.0918h 0.664295v -32.0612h 0.110716v 32.0612h 0.110716v -16.0306h 0.110716v 16.0306h 0.110716v -16.0306h 0.110716v 16.0306h 1.21787v -16.0306h 0.110716v 16.0306h 0.442863v -32.0612h 0.110716v 32.0612h 0.442863v -16.0306h 0.110716v -25.4079h
 0.110716v 41.4385h 0.110716v -32.0612h 0.110716v 16.0306h 0.221432v 16.0306h 0.332148v -32.0612h 0.110716v 32.0612h 0.442863v -16.0306h 0.110716v -16.0306h 0.110716v 32.0612h 0.110716v -16.0306h 0.110716v 16.0306h 0.332148v -57.4691h 0.110716v
 57.4691h 0.332148v -16.0306h 0.110716v 16.0306h 0.110716v -16.0306h 0.110716v 16.0306h 0.110716v -32.0612h 0.110716v 16.0306h 0.110716v 16.0306h 0.110716v -16.0306h 0.110716v 16.0306h 0.332148v -41.4385h 0.221432v 41.4385h 0.221432v -41.4385h
 0.110716v 9.3773h 0.110716v 32.0612h 0.221432v -16.0306h 0.110716v 16.0306h 0.332148v -16.0306h 0.110716v -16.0306h 0.110716v 32.0612h 0.221432v -32.0612h 0.110716v 32.0612h 0.332148v -41.4385h 0.110716v 41.4385h 0.110716v -32.0612h 0.110716v
 32.0612h 0.110716v -16.0306h 0.110716v 16.0306h 0.332148v -41.4385h 0.110716v 41.4385h 0.110716v -16.0306h 0.221432v 16.0306h 0.221432v -57.4691h 0.110716v 57.4691h 0.442863v -48.0918h 0.110716v 32.0612h 0.110716v 16.0306h 0.664295v -53.2525h
 0.110716v 53.2525h 0.110716v -16.0306h 0.110716v 16.0306h 0.110716v -16.0306h 0.332148v 16.0306h 0.110716v -16.0306h 0.110716v -16.0306h 0.110716v 16.0306h 0.110716v 16.0306h 0.553579v -16.0306h 0.332148v 16.0306h 1.10716v -41.4385h 0.110716v
 41.4385h 0.442863v -16.0306h 0.110716v -25.4079h 0.110716v 41.4385h 0.110716v -32.0612h 0.110716v 32.0612h 0.221432v -32.0612h 0.110716v -9.3773h 0.110716v 41.4385h 0.332148v -48.0918h 0.110716v 48.0918h 0.110716v -32.0612h 0.110716v 16.0306h
 0.110716v 16.0306h 0.221432v -53.2525h 0.110716v 21.1913h 0.110716v 32.0612h 0.221432v -57.4691h 0.110716v 57.4691h 0.442863v -32.0612h 0.110716v 16.0306h 0.110716v 16.0306h 0.221432v -32.0612h 0.110716v 32.0612h 0.664295v -16.0306h 0.110716v
 -16.0306h 0.110716v 32.0612h 0.110716v -16.0306h 0.110716v 16.0306h 0.553579v -32.0612h 0.110716v -9.3773h 0.110716v 41.4385h 0.110716v -41.4385h 0.110716v 41.4385h 0.221432v -32.0612h 0.110716v 32.0612h 0.885727v -41.4385h 0.110716v 41.4385h
 0.332148v -16.0306h 0.110716v 16.0306h 1.55002v -16.0306h 0.221432v 16.0306h 0.664295v -16.0306h 0.110716v 16.0306h 0.110716v -16.0306h 0.110716v -16.0306h 0.110716v 32.0612h 0.110716v -16.0306h 0.110716v 16.0306h 0.553579v -41.4385h 0.110716v
 41.4385h 0.110716v -16.0306h 0.110716v 16.0306h 0.110716v -16.0306h 0.110716v 16.0306h 0.664295v -32.0612h 0.110716v 32.0612h 0.775011v -16.0306h 0.110716v 16.0306h 0.221432v -32.0612h 0.110716v 32.0612h 0.110716v -16.0306h 0.110716v -16.0306h
 0.110716v 32.0612h 0.775011v -16.0306h 0.110716v 16.0306h 0.332148v -48.0918h 0.110716v 48.0918h 0.110716v -32.0612h 0.110716v -9.3773h 0.110716v 25.4079h 0.110716v -16.0306h 0.110716v 32.0612h 0.332148v -16.0306h 0.221432v 16.0306h 0.110716v
 -32.0612h 0.110716v 16.0306h 0.110716v 16.0306h 0.221432v -32.0612h 0.110716v 32.0612h 0.664295v -32.0612h 0.221432v 16.0306h 0.110716v 16.0306h 0.442863v -32.0612h 0.110716v 16.0306h 0.110716v 16.0306h 0.110716v -41.4385h 0.110716v 41.4385h
 0.332148v -32.0612h 0.110716v 32.0612h 0.885727v -16.0306h 0.110716v 16.0306h 0.110716v -32.0612h 0.110716v 32.0612h 0.332148v -16.0306h 0.110716v 16.0306h 0.553579v -32.0612h 0.110716v -16.0306h 0.110716v 32.0612h 0.110716v -25.4079h 0.110716v
 41.4385h 0.885727v -16.0306h 0.110716v -16.0306h 0.110716v 16.0306h 0.110716v -16.0306h 0.110716v 32.0612h 0.442863v -32.0612h 0.110716v 16.0306h 0.110716v 16.0306h 0.442863v -32.0612h 0.110716v 32.0612h 0.664295v -16.0306h 0.110716v 16.0306h
 0.996443v -16.0306h 0.110716v 16.0306h 0.442863v -41.4385h 0.110716v 9.3773h 0.110716v 16.0306h 0.110716v 16.0306h 0.442863v -41.4385h 0.110716v 41.4385h 0.442863v -41.4385h 0.110716v 41.4385h 0.442863v -32.0612h 0.110716v 32.0612h 0.332148v
 -16.0306h 0.110716v -37.2219h 0.110716v 53.2525h 0.110716v -41.4385h 0.110716v 41.4385h 0.110716v -16.0306h 0.110716v -16.0306h 0.110716v 32.0612h 0.221432v -48.0918h 0.110716v 32.0612h 0.110716v 16.0306h 0.332148v -16.0306h 0.110716v 16.0306h
 0.332148v -16.0306h 0.110716v 16.0306h 0.221432v -16.0306h 0.110716v 16.0306h 0.442863v -32.0612h 0.110716v 32.0612h 0.553579v -32.0612h 0.110716v 32.0612h 0.221432v -16.0306h 0.110716v 16.0306h 0.110716v -16.0306h 0.110716v 16.0306h 0.110716v
 -16.0306h 0.110716v -25.4079h 0.110716v 41.4385h 0.110716v -16.0306h 0.110716v 16.0306h 0.442863v -53.2525h 0.110716v 53.2525h 0.442863v -16.0306h 0.221432v 16.0306h 0.110716v -16.0306h 0.110716v 16.0306h 0.221432v -16.0306h 0.110716v -25.4079h
 0.110716v 41.4385h 0.442863v -16.0306h 0.110716v -25.4079h 0.110716v 41.4385h 0.110716v -32.0612h 0.110716v 32.0612h 0.110716v -48.0918h 0.110716v 48.0918h 0.664295v -16.0306h 0.221432v 16.0306h 0.110716v -16.0306h 0.110716v 16.0306h 1.21787v
 -16.0306h 0.110716v 16.0306h 0.221432v -48.0918h 0.110716v 48.0918h 0.221432v -32.0612h 0.110716v 32.0612h 0.664295v -41.4385h 0.110716v 41.4385h 0.110716v -32.0612h 0.110716v -9.3773h 0.110716v 41.4385h 0.332148v -16.0306h 0.110716v 16.0306h
 0.221432v -32.0612h 0.110716v 32.0612h 0.110716v -16.0306h 0.110716v 16.0306h 0.221432v -16.0306h 0.110716v 16.0306h 0.221432v -16.0306h 0.110716v 16.0306h 0.442863v -16.0306h 0.110716v 16.0306h 0.996443v -16.0306h 0.110716v 16.0306h 0.553579v
 -41.4385h 0.110716v 41.4385h 0.332148v -48.0918h 0.110716v 32.0612h 0.221432v 16.0306h 1.32859v -16.0306h 0.110716v -32.0612h 0.110716v 48.0918h 0.110716v -16.0306h 0.110716v 16.0306h 0.110716v -41.4385h 0.110716v 41.4385h 0.775011v -16.0306h
 0.110716v 16.0306h 0.110716v -41.4385h 0.110716v 41.4385h 0.775011v -32.0612h 0.110716v 32.0612h 0.553579v -32.0612h 0.110716v 32.0612h 0.664295v -16.0306h 0.332148v 16.0306h 0.775011v -16.0306h 0.110716v 16.0306h 0.775011v -32.0612h 0.110716v
 32.0612h 1.10716v -32.0612h 0.110716v 16.0306h 0.110716v 16.0306h 0.110716v -16.0306h 0.110716v 16.0306h 0.553579v -16.0306h 0.110716v 16.0306h 0.221432v -16.0306h 0.110716v -16.0306h 0.110716v 32.0612h 0.553579v -48.0918h 0.110716v 32.0612h
 0.110716v 16.0306h 0.442863v -48.0918h 0.110716v 6.6533h 0.110716v 41.4385h 0.332148v -32.0612h 0.110716v 32.0612h 0.221432v -57.4691h 0.110716v 57.4691h 0.664295v -16.0306h 0.110716v 16.0306h 0.442863v -16.0306h 0.110716v -16.0306h 0.110716v
 32.0612h 0.332148v -41.4385h 0.110716v 41.4385h 0.553579v -16.0306h 0.110716v 16.0306h 0.332148v -32.0612h 0.110716v 32.0612h 0.221432v -32.0612h 0.110716v 32.0612h 0.110716v -32.0612h 0.110716v 32.0612h 0.664295v -16.0306h 0.110716v 16.0306h
 2.1036v -32.0612h 0.110716v 32.0612h 0.885727v -16.0306h 0.110716v 16.0306h 0.664295v -41.4385h 0.110716v 41.4385h 0.221432v -16.0306h 0.110716v 16.0306h 0.553579v -16.0306h 0.110716v 16.0306h 0.110716v -16.0306h 0.110716v -16.0306h 0.110716v
 32.0612h 0.664295v -32.0612h 0.110716v 32.0612h 0.110716v -16.0306h 0.110716v -16.0306h 0.110716v 32.0612h 0.221432v -32.0612h 0.110716v -25.4079h 0.110716v 41.4385h 0.110716v 16.0306h 0.110716v -32.0612h 0.110716v 32.0612h 0.110716v -16.0306h
 0.221432v 16.0306h 0.110716v -41.4385h 0.110716v 41.4385h 0.664295v -41.4385h 0.110716v 41.4385h 0.442863v -41.4385h 0.110716v 41.4385h 0.553579v -32.0612h 0.110716v -21.1913h 0.110716v 11.814h 0.110716v 41.4385h 0.553579v -16.0306h 0.110716v
 16.0306h 0.885727v -16.0306h 0.110716v 16.0306h 0.221432v -16.0306h 0.110716v 16.0306h 0.332148v -41.4385h 0.110716v 25.4079h 0.332148v 16.0306h 0.442863v -16.0306h 0.110716v 16.0306h 0.110716v -16.0306h 0.110716v 16.0306h 0.553579v -16.0306h
 0.332148v 16.0306h 0.110716v -32.0612h 0.110716v 32.0612h 0.110716v -41.4385h 0.110716v 41.4385h 0.553579v -16.0306h 0.110716v 16.0306h 0.221432v -48.0918h 0.110716v 48.0918h 0.996443v -16.0306h 0.110716v 16.0306h 0.110716v -16.0306h 0.110716v
 -16.0306h 0.110716v 32.0612h 0.110716v -16.0306h 0.221432v 16.0306h 0.110716v -32.0612h 0.110716v 32.0612h 0.664295v -16.0306h 0.110716v 16.0306h 0.221432v -16.0306h 0.110716v 16.0306h 0.332148v -32.0612h 0.110716v 32.0612h 0.221432v -32.0612h
 0.110716v 32.0612h 1.10716v -16.0306h 0.110716v 16.0306h 0.221432v -16.0306h 0.110716v 16.0306h 0.221432v -16.0306h 0.221432v 16.0306h 0.775011v -32.0612h 0.110716v 32.0612h 0.332148v -16.0306h 0.110716v 16.0306h 0.221432v -16.0306h 0.110716v
 16.0306h 0.221432v -32.0612h 0.110716v 16.0306h 0.110716v 16.0306h 0.885727v -16.0306h 0.110716v 16.0306h 0.885727v -32.0612h 0.110716v 32.0612h 0.110716v -16.0306h 0.110716v -16.0306h 0.110716v -16.0306h 0.110716v 48.0918h 1.55002v -16.0306h
 0.110716v -16.0306h 0.110716v 32.0612h 0.332148v -16.0306h 0.110716v 16.0306h 0.332148v -16.0306h 0.221432v 16.0306h 0.332148v -32.0612h 0.110716v 32.0612h 0.553579v -16.0306h 0.110716v 16.0306h 0.110716v -16.0306h 0.110716v 16.0306h 0.221432v
 -48.0918h 0.110716v 16.0306h 0.110716v 32.0612h 1.55002v -16.0306h 0.221432v 16.0306h 0.221432v -32.0612h 0.110716v 32.0612h 0.442863v -16.0306h 0.110716v 16.0306h 0.442863v -32.0612h 0.110716v -9.3773h 0.110716v 41.4385h 0.553579v -32.0612h
 0.110716v 32.0612h 0.885727v -16.0306h 0.110716v 16.0306h 0.332148v -16.0306h 0.110716v 16.0306h 1.21787v -41.4385h 0.110716v 9.3773h 0.110716v 32.0612h 1.10716v -16.0306h 0.110716v 16.0306h 0.332148v -32.0612h 0.110716v 16.0306h 0.221432v -16.0306h
 0.110716v -9.3773h 0.110716v 41.4385h 0.442863v -32.0612h 0.110716v 32.0612h 0.775011v -32.0612h 0.110716v 16.0306h 0.110716v 16.0306h 0.110716v -32.0612h 0.110716v 32.0612h 0.110716v -16.0306h 0.110716v 16.0306h 1.10716v -16.0306h 0.110716v
 16.0306h 0.332148v -32.0612h 0.110716v 32.0612h 0.332148v -41.4385h 0.110716v 41.4385h 0.775011v -32.0612h 0.110716v 32.0612h 0.110716v -32.0612h 0.110716v -9.3773h 0.110716v 41.4385h 1.32859v -32.0612h 0.110716v 16.0306h 0.110716v 16.0306h 1.21787v
 -16.0306h 0.110716v -16.0306h 0.110716v 32.0612h 0.996443v -16.0306h 0.221432v 16.0306h 0.221432v -32.0612h 0.110716v 32.0612h 0.332148v -16.0306h 0.221432v 16.0306h 0.221432v -32.0612h 0.110716v 32.0612h 0.442863v -32.0612h 0.110716v 32.0612h
 0.332148v -32.0612h 0.110716v 32.0612h 0.332148v -16.0306h 0.110716v 16.0306h 1.32859v -16.0306h 0.110716v 16.0306h 0.553579v -16.0306h 0.221432v 16.0306h 0.110716v -16.0306h 0.110716v 16.0306h 0.110716v -16.0306h 0.110716v 16.0306h 0.110716v
 -16.0306h 0.332148v -25.4079h 0.110716v 41.4385h 1.66074v -16.0306h 0.110716v 16.0306h 0.221432v -32.0612h 0.110716v 32.0612h 0.553579v -16.0306h 0.110716v 16.0306h 0.553579v -16.0306h 0.110716v 16.0306h 0.996443v -16.0306h 0.110716v 16.0306h
 1.21787v -16.0306h 0.332148v 16.0306h 0.885727v -16.0306h 0.110716v 16.0306h 0.885727v -16.0306h 0.110716v 16.0306h 0.110716v -48.0918h 0.110716v 48.0918h 0.110716v -48.0918h 0.110716v 16.0306h 0.110716v 32.0612h 0.775011v -16.0306h 0.110716v
 16.0306h 0.221432v -16.0306h 0.110716v -16.0306h 0.110716v 16.0306h 0.110716v -16.0306h 0.110716v 32.0612h 0.110716v -16.0306h 0.221432v 16.0306h 0.221432v -32.0612h 0.110716v 32.0612h 0.110716v -32.0612h 0.110716v 32.0612h 0.110716v -32.0612h
 0.110716v 32.0612h 0.553579v -32.0612h 0.221432v 32.0612h 0.110716v -16.0306h 0.110716v -32.0612h 0.110716v 48.0918h 0.221432v -16.0306h 0.110716v 16.0306h 0.553579v -16.0306h 0.110716v 16.0306h 0.332148v -48.0918h 0.110716v 48.0918h 0.221432v
 -16.0306h 0.110716v 16.0306h 1.10716v -16.0306h 0.110716v 16.0306h 0.775011v -32.0612h 0.110716v 32.0612h 1.10716v -48.0918h 0.110716v 48.0918h 0.332148v -16.0306h 0.110716v 16.0306h 0.221432v -16.0306h 0.110716v 16.0306h 0.332148v -32.0612h
 0.110716v 32.0612h 0.553579v -16.0306h 0.110716v -16.0306h 0.110716v 32.0612h 0.442863v -16.0306h 0.221432v 16.0306h 0.442863v -16.0306h 0.110716v 16.0306h 0.110716v -16.0306h 0.110716v 16.0306h 0.110716v -32.0612h 0.110716v 32.0612h 0.664295v
 -32.0612h 0.110716v 32.0612h 0.332148v -32.0612h 0.110716v 32.0612h 0.221432v -16.0306h 0.332148v 16.0306h 0.110716v -32.0612h 0.110716v 32.0612h 0.110716v -41.4385h 0.110716v 41.4385h 0.110716v -16.0306h 0.110716v 16.0306h 0.221432v -16.0306h
 0.110716v 16.0306h 0.110716v -48.0918h 0.110716v 16.0306h 0.110716v 32.0612h 0.996443v -16.0306h 0.110716v 16.0306h 2.54646v -16.0306h 0.110716v 16.0306h 0.553579v -16.0306h 0.110716v -32.0612h 0.110716v 48.0918h 0.442863v -16.0306h 0.221432v
 16.0306h 0.110716v -16.0306h 0.110716v -16.0306h 0.110716v 32.0612h 0.553579v -41.4385h 0.110716v 41.4385h 0.110716v -32.0612h 0.110716v 32.0612h 0.885727v -16.0306h 0.110716v 16.0306h 1.99289v -16.0306h 0.110716v 16.0306h 0.664295v -16.0306h
 0.110716v 16.0306h 0.332148v -16.0306h 0.332148v 16.0306h 0.221432v -16.0306h 0.110716v 16.0306h 0.221432v -32.0612h 0.110716v 32.0612h 0.221432v -16.0306h 0.110716v -25.4079h 0.110716v 41.4385h 0.110716v -32.0612h 0.110716v 32.0612h 0.553579v
 -16.0306h 0.110716v 16.0306h 0.775011v -32.0612h 0.110716v 32.0612h 0.553579v -32.0612h 0.110716v 32.0612h 0.110716v -16.0306h 0.110716v 16.0306h 0.775011v -16.0306h 0.110716v 16.0306h 0.664295v -16.0306h 0.110716v 16.0306h 0.332148v -32.0612h
 0.110716v 32.0612h 0.110716v -16.0306h 0.110716v 16.0306h 0.664295v -16.0306h 0.221432v 16.0306h 0.110716v -32.0612h 0.110716v 16.0306h 0.110716v 16.0306h 0.110716v -16.0306h 0.110716v 16.0306h 0.996443v -16.0306h 0.110716v 16.0306h 0.885727v
 -16.0306h 0.110716v 16.0306h 0.885727v -32.0612h 0.110716v 16.0306h 0.110716v 16.0306h 0.553579v -41.4385h 0.110716v 9.3773h 0.110716v 32.0612h 0.221432v -16.0306h 0.110716v 16.0306h 0.110716v -32.0612h 0.221432v 32.0612h 1.10716v -16.0306h
 0.110716v 16.0306h 0.664295v -16.0306h 0.110716v 16.0306h 0.332148v -16.0306h 0.110716v 16.0306h 1.99289v -41.4385h 0.110716v 25.4079h 0.221432v -25.4079h 0.110716v 41.4385h 1.10716v -41.4385h 0.110716v 41.4385h 0.442863v -16.0306h 0.110716v
 16.0306h 0.110716v -32.0612h 0.110716v 32.0612h 0.775011v -32.0612h 0.110716v 16.0306h 0.110716v 16.0306h 0.664295v -41.4385h 0.110716v 41.4385h 0.221432v -16.0306h 0.110716v 16.0306h 0.332148v -32.0612h 0.110716v 32.0612h 0.110716v -16.0306h
 0.110716v 16.0306h 0.553579v -32.0612h 0.110716v 16.0306h 0.110716v 16.0306h 0.110716v -16.0306h 0.110716v -16.0306h 0.110716v 32.0612h 0.110716v -16.0306h 0.221432v 16.0306h 0.110716v -16.0306h 0.110716v 16.0306h 0.110716v -16.0306h 0.110716v
 16.0306h 0.221432v -16.0306h 0.110716v -16.0306h 0.110716v -21.1913h 0.110716v 37.2219h 0.110716v 16.0306h 0.221432v -16.0306h 0.110716v -16.0306h 0.332148v -9.3773h 0.110716v 9.3773h 0.110716v 32.0612h 0.553579v -16.0306h 0.110716v -16.0306h
 0.110716v 32.0612h 0.110716v -41.4385h 0.110716v 41.4385h 0.442863v -16.0306h 0.110716v 16.0306h 0.110716v -16.0306h 0.110716v 16.0306h 0.442863v -16.0306h 0.110716v 16.0306h 0.332148v -16.0306h 0.110716v 16.0306h 1.43931v -32.0612h 0.110716v
 32.0612h 0.110716v -41.4385h 0.110716v 41.4385h 0.996443v -16.0306h 0.110716v 16.0306h 0.442863v -41.4385h 0.110716v 41.4385h 0.110716v -41.4385h 0.110716v 25.4079h 0.221432v 16.0306h 0.221432v -32.0612h 0.110716v 32.0612h 0.553579v -32.0612h
 0.110716v 32.0612h 2.1036v -32.0612h 0.110716v 32.0612h 0.221432v -16.0306h 0.110716v 16.0306h 0.221432v -16.0306h 0.110716v 16.0306h 0.442863v -16.0306h 0.110716v 16.0306h 0.553579v -32.0612h 0.221432v 32.0612h 0.442863v -57.4691h 0.110716v
 57.4691h 0.332148v -16.0306h 0.221432v 16.0306h 0.332148v -16.0306h 0.110716v 16.0306h 1.10716v -16.0306h 0.221432v 16.0306h 0.775011v -16.0306h 0.110716v -16.0306h 0.110716v 32.0612h 1.32859v -16.0306h 0.110716v 16.0306h 0.110716v -16.0306h
 0.221432v 16.0306h 0.221432v -16.0306h 0.110716v 16.0306h 0.221432v -32.0612h 0.221432v -9.3773h 0.110716v 41.4385h 0.110716v -16.0306h 0.110716v 16.0306h 1.99289v -16.0306h 0.221432v 16.0306h 0.221432v -16.0306h 0.110716v 16.0306h 0.110716v
 -32.0612h 0.110716v 32.0612h 1.66074v -32.0612h 0.110716v 32.0612h 0.221432v -16.0306h 0.110716v 16.0306h 0.332148v -16.0306h 0.110716v 16.0306h 0.553579v -41.4385h 0.110716v 41.4385h 1.32859v -16.0306h 0.110716v -16.0306h 0.110716v 32.0612h
 0.221432v -16.0306h 0.110716v 16.0306h 0.442863v -16.0306h 0.110716v 16.0306h 0.221432v -32.0612h 0.110716v 16.0306h 0.110716v 16.0306h 0.221432v -16.0306h 0.221432v 16.0306h 0.442863v -32.0612h 0.110716v 32.0612h 0.110716v -32.0612h 0.110716v
 32.0612h 0.221432v -16.0306h 0.221432v -16.0306h 0.110716v 32.0612h 0.110716v -16.0306h 0.110716v 16.0306h 0.332148v -16.0306h 0.110716v 16.0306h 0.775011v -16.0306h 0.110716v 16.0306h 0.110716v -16.0306h 0.110716v 16.0306h 0.775011v -16.0306h
 0.221432v 16.0306h 0.664295v -16.0306h 0.110716v 16.0306h 1.10716v -16.0306h 0.110716v 16.0306h 0.442863v -32.0612h 0.110716v 32.0612h 0.110716v -41.4385h 0.221432v 41.4385h 0.996443v -16.0306h 0.110716v 16.0306h 0.332148v -16.0306h 0.110716v
 16.0306h 0.775011v -16.0306h 0.110716v 16.0306h 0.664295v -16.0306h 0.110716v 16.0306h 0.110716v -16.0306h 0.110716v 16.0306h 0.442863v -16.0306h 0.110716v 16.0306h 0.221432v -32.0612h 0.221432v -9.3773h 0.110716v 41.4385h 0.996443v -16.0306h
 0.110716v -16.0306h 0.110716v 32.0612h 0.996443v -16.0306h 0.110716v 16.0306h 0.110716v -16.0306h 0.221432v 16.0306h 0.221432v -32.0612h 0.110716v 32.0612h 0.996443v -16.0306h 0.110716v -16.0306h 0.221432v 32.0612h 0.775011v -16.0306h 0.110716v
 -25.4079h 0.110716v 41.4385h 0.221432v -16.0306h 0.110716v 16.0306h 0.442863v -32.0612h 0.110716v 32.0612h 0.442863v -16.0306h 0.110716v 16.0306h 0.996443v -16.0306h 0.110716v 16.0306h 0.332148v -16.0306h 0.110716v 16.0306h 1.10716v -16.0306h
 0.110716v 16.0306h 0.221432v -16.0306h 0.110716v 16.0306h 1.43931v -16.0306h 0.110716v 16.0306h 0.110716v -16.0306h 0.110716v 16.0306h 0.664295v -16.0306h 0.110716v 16.0306h 0.221432v -32.0612h 0.110716v 32.0612h 1.99289v -16.0306h 0.221432v
 16.0306h 0.332148v -32.0612h 0.221432v 32.0612h 0.332148v -32.0612h 0.110716v 16.0306h 0.221432v 16.0306h 1.66074v -16.0306h 0.110716v 16.0306h 0.775011v -16.0306h 0.110716v 16.0306h 0.996443v -32.0612h 0.110716v 32.0612h 2.21432v -32.0612h
 0.221432v 32.0612h 0.221432v -32.0612h 0.110716v 32.0612h 0.553579v -32.0612h 0.110716v 16.0306h 0.110716v 16.0306h 0.110716v -16.0306h 0.110716v 16.0306h 0.110716v -16.0306h 0.221432v 16.0306h 0.553579v -16.0306h 0.110716v 16.0306h 0.442863v
 -16.0306h 0.110716v 16.0306h 0.664295v -16.0306h 0.110716v 16.0306h 0.442863v -32.0612h 0.110716v 32.0612h 0.442863v -16.0306h 0.110716v 16.0306h 0.110716v -16.0306h 0.110716v 16.0306h 0.775011v -16.0306h 0.110716v 16.0306h 0.885727" fill="none"
 stroke="#ff0000"/>
<rect x="340.657" y="41.4549" width="170.079" height="82.9098" fill="white"/>
<path d="M340.657,124.365h 170.079" fill="none" stroke="black"/>
<path d="M510.736,124.365v -82.9098" fill="none" stroke="black"/>
<path d="M510.736,41.4549h -170.079" fill="none" stroke="black"/>
<path d="M340.657,41.4549v 82.9098" fill="none" stroke="black"/>
<text xml:space="preserve" x="382.87" y="65.3057" fill="black" font-size="8.61415" font-family="Helvetica">Simulated Resolution corrected</text>
<path d="M347.035,76.6916h 29.7638v -29.0184h -29.7638z" fill="white"/>
<path d="M347.035,62.1824h 29.7638" fill="none" stroke="#0000ff"/>
<g stroke="black" stroke-width="1" fill="none">
<line x1="360.917" y1="62.1824" x2="361.917" y2="62.1824"/>
</g>
<text xml:space="preserve" x="382.87" y="106.003" fill="black" font-size="8.61415" font-family="Helvetica">Experimental Bg removed</text>
<path d="M347.035,118.147h 29.7638v -29.0184h -29.7638z" fill="white"/>
<path d="M347.035,103.637h 29.7638" fill="none" stroke="#ff0000"/>
<g stroke="black" stroke-width="1" fill="none">
<line x1="360.917" y1="103.637" x2="361.917" y2="103.637"/>
</g>
<text xml:space="preserve" x="195.944" y="19.8756" fill="black" font-size="18.28" font-family="Helvetica">Run08-133Ba-100mm</text></svg>
