<?xml version="1.0" standalone="no"?>
<svg width="567.429" height="409.712" viewBox="0 0 567.429 409.712" xmlns="http://www.w3.org/2000/svg" shape-rendering="crispEdges">
<title>
HPGe_152Eu_8mm_900s-activity_bgrm_res.svg
</title>
<desc>
Creator: ROOT Version 6.26/04
CreationDate: Mon Nov  4 12:09:06 2024</desc>
<defs>
</defs>
<rect x="0.5" y="0" width="566.929" height="409.212" fill="white"/>
<rect x="57.1929" y="40.9212" width="453.543" height="327.37" fill="white"/>
<rect x="57.1929" y="40.9212" width="453.543" height="327.37" fill="none" stroke="black"/>
<rect x="57.1929" y="40.9212" width="453.543" height="327.37" fill="white"/>
<rect x="57.1929" y="40.9212" width="453.543" height="327.37" fill="none" stroke="black"/>
<path d="M57.1929,55.6245h 0.110728v 1.3963h 0.110728v 4.23053h 0.110728v 7.10102h 0.110728v 9.86636h 0.110728v 12.7382h 0.110728v 15.3762h 0.110728v 18.4945h 0.110728v 21.0059h 0.110728v 23.5047h 0.110728v 25.2111h 0.110728v 18.8268h 0.110728v
 12.875h 0.110728v 2.10668h 0.110728v 0.965466h 0.110728v -1.17462h 0.110728v 6.44582h 0.110728v 3.24996h 0.110728v -2.12056h 0.110728v 3.93566h 0.110728v 3.71887h 0.110728v -2.66493h 0.110728v 2.2648h 0.110728v 3.64591h 0.110728v -0.231227h
 0.110728v -1.55662h 0.110728v 1.55662h 0.110728v -0.455597h 0.110728v -2.95909h 0.110728v 4.35387h 0.110728v 0.730439h 0.110728v -7.52816h 0.110728v 4.73602h 0.110728v 1.58731h 0.110728v -3.68029h 0.110728v -1.91835h 0.110728v 2.32199h 0.110728v
 -0.996126h 0.110728v 0.592485h 0.110728v 0.200935h 0.110728v 2.11221h 0.110728v -0.654269h 0.110728v -3.76055h 0.110728v 0.931581h 0.110728v 0.19093h 0.110728v -1.84154h 0.110728v 0.17766h 0.110728v 0.724687h 0.221457v -4.04076h 0.110728v 0.310909h
 0.110728v 0.315168h 0.110728v -1.38545h 0.110728v 3.54653h 0.110728v -5.13384h 0.110728v 1.7372h 0.110728v -3.22203h 0.110728v -2.12138h 0.110728v -5.39461h 0.110728v -7.90226h 0.110728v -5.66276h 0.110728v -5.17564h 0.110728v -5.5066h 0.110728v
 -7.02589h 0.110728v -2.54238h 0.110728v -0.172823h 0.110728v 3.37856h 0.110728v 5.17751h 0.110728v 8.56102h 0.110728v 9.03599h 0.110728v 9.19474h 0.110728v 10.456h 0.110728v 3.57281h 0.110728v 0.371087h 0.110728v -5.46809h 0.110728v -3.79797h
 0.110728v -5.43199h 0.110728v 1.32085h 0.110728v -2.00186h 0.221457v 3.07214h 0.110728v 1.94218h 0.221457v 6.26381h 0.110728v -0.464802h 0.110728v -2.74388h 0.110728v -5.85747h 0.110728v -3.60676h 0.110728v -14.3115h 0.110728v -16.8262h 0.110728v
 -19.5137h 0.110728v -18.1445h 0.110728v -15.6963h 0.110728v -11.9493h 0.110728v -8.3272h 0.110728v -4.33385h 0.110728v -0.710345h 0.110728v 3.2137h 0.110728v 7.22031h 0.110728v 11.4512h 0.110728v 15.1133h 0.110728v 18.7123h 0.110728v 17.6033h
 0.110728v 3.8065h 0.110728v -9.16817h 0.110728v -12.743h 0.110728v -10.2754h 0.110728v -6.27325h 0.110728v -3.58335h 0.110728v 0.984345h 0.110728v 3.46257h 0.110728v 6.68111h 0.110728v 9.53976h 0.110728v 12.6056h 0.110728v 11.447h 0.110728v 15.6553h
 0.110728v 14.6321h 0.110728v 12.0897h 0.110728v 7.40397h 0.110728v 5.78197h 0.110728v -1.07028h 0.110728v -2.47625h 0.110728v 5.54839h 0.110728v -5.31242h 0.110728v 2.7692h 0.110728v -0.788886h 0.110728v 2.74216h 0.110728v -1.41191h 0.110728v
 -1.58731h 0.110728v -0.505667h 0.110728v 1.82071h 0.110728v -0.535069h 0.110728v 2.80921h 0.110728v -6.24212h 0.110728v 2.14728h 0.110728v 3.50489h 0.110728v -6.76383h 0.110728v -1.47126h 0.110728v 8.52818h 0.110728v -2.24636h 0.110728v 0.816899h
 0.110728v -3.34768h 0.110728v 3.90885h 0.110728v -1.10898h 0.110728v -3.03829h 0.110728v 0.72279h 0.221457v 4.58963h 0.110728v -4.09484h 0.110728v -0.979165h 0.110728v -0.474386h 0.110728v 4.66904h 0.110728v 0.289399h 0.221457v -3.99968h 0.110728v
 -2.32591h 0.110728v -2.11221h 0.110728v 2.11221h 0.110728v -5.65874h 0.110728v -1.82822h 0.110728v -6.37776h 0.110728v -8.83897h 0.110728v -9.7911h 0.110728v -6.56473h 0.110728v -6.66925h 0.110728v -0.598393h 0.110728v 1.97235h 0.110728v 4.53829h
 0.110728v 9.3481h 0.110728v 13.1265h 0.110728v 7.43098h 0.110728v 4.60084h 0.110728v 3.60515h 0.110728v 1.705h 0.110728v 6.61868h 0.110728v -1.15059h 0.110728v -4.10094h 0.110728v -0.920399h 0.110728v 2.12522h 0.110728v -0.730439h 0.110728v
 0.730439h 0.110728v 2.89612h 0.110728v 3.3139h 0.110728v -1.26097h 0.110728v -5.43858h 0.110728v -5.75504h 0.110728v -2.15848h 0.110728v -9.21375h 0.110728v -11.5909h 0.110728v -8.78934h 0.110728v -4.15509h 0.110728v -3.45016h 0.110728v 1.26097h
 0.110728v 2.91325h 0.110728v 7.74936h 0.110728v 6.65686h 0.110728v 12.7417h 0.110728v 5.53631h 0.110728v 4.67327h 0.110728v -4.67327h 0.110728v -5.40293h 0.110728v -2.7692h 0.110728v -4.21441h 0.110728v -6.27046h 0.110728v -2.62613h 0.110728v
 1.74114h 0.110728v 3.67955h 0.110728v 0.428446h 0.110728v 5.76962h 0.110728v 7.41015h 0.110728v 2.08568h 0.110728v 2.48007h 0.110728v 2.15541h 0.110728v -1.00483h 0.110728v 1.41938h 0.110728v -0.41455h 0.110728v -1.58731h 0.110728v -5.88824h
 0.110728v -1.85295h 0.110728v 6.4368h 0.110728v 0.181874h 0.110728v -4.01133h 0.110728v 0.77997h 0.110728v 2.69h 0.110728v 0.909482h 0.110728v -0.909482h 0.110728v 6.79772h 0.110728v -2.92187h 0.110728v 1.52709h 0.110728v 1.39479h 0.110728v
 -2.70982h 0.110728v 3.1942h 0.110728v -5.42569h 0.110728v 4.7029h 0.110728v -5.08636h 0.110728v 0.383457h 0.110728v 2.66154h 0.110728v -4.51794h 0.110728v 3.25119h 0.110728v 1.26676h 0.110728v -4.6956h 0.110728v 0.537151h 0.110728v -6.02225h
 0.110728v -12.0021h 0.110728v -15.2327h 0.110728v -13.3995h 0.110728v -13.4036h 0.110728v -13.3121h 0.110728v -11.6777h 0.110728v -9.95498h 0.110728v -6.30018h 0.110728v -1.99687h 0.110728v 2.50116h 0.110728v 7.54578h 0.110728v 11.9706h 0.110728v
 15.9525h 0.110728v 20.4853h 0.110728v 21.7882h 0.110728v 15.5516h 0.110728v 6.96993h 0.110728v -1.705h 0.110728v -0.326345h 0.110728v 6.51091h 0.110728v -1.45794h 0.110728v 3.71533h 0.110728v 5.01556h 0.110728v -3.03524h 0.110728v -4.2377h 0.110728v
 3.72641h 0.110728v -2.84985h 0.110728v 3.88405h 0.110728v 2.21925h 0.110728v -1.95327h 0.110728v -5.45265h 0.110728v 3.40624h 0.110728v -2.10362h 0.110728v -2.3345h 0.110728v 8.1484h 0.110728v -3.95374h 0.110728v 2.83123h 0.110728v -1.33025h
 0.110728v 3.03524h 0.110728v -2.24636h 0.110728v 1.66387h 0.110728v -3.95374h 0.110728v 0.243462h 0.110728v 1.51749h 0.110728v -0.771254h 0.110728v -1.46903h 0.110728v 3.5861h 0.110728v -4.96692h 0.110728v 5.2458h 0.110728v -1.09577h 0.110728v
 -1.30017h 0.110728v 4.14415h 0.110728v -6.08272h 0.110728v 4.05564h 0.110728v 4.92688h 0.110728v -8.98252h 0.110728v 4.05564h 0.110728v -5.62746h 0.110728v 4.54458h 0.110728v 1.08288h 0.110728v 1.13637h 0.110728v -2.48219h 0.110728v 3.98645h
 0.110728v -8.48411h 0.110728v 9.43626h 0.110728v -6.94046h 0.110728v 1.48483h 0.110728v -0.254223h 0.110728v -2.39872h 0.110728v 1.65249h 0.110728v -0.72279h 0.110728v 4.43307h 0.110728v -8.74601h 0.110728v 5.03573h 0.221457v -2.10362h 0.110728v
 4.41912h 0.110728v -0.535069h 0.110728v 1.64405h 0.110728v -1.37807h 0.110728v -4.81056h 0.110728v 2.27978h 0.110728v 5.98831h 0.110728v -1.50426h 0.110728v -2.21925h 0.110728v -2.02389h 0.110728v 0.989697h 0.110728v 0.771254h 0.110728v -1.51749h
 0.110728v 5.19511h 0.110728v -1.77064h 0.221457v -4.14727h 0.110728v 2.7692h 0.221457v -2.53078h 0.110728v -4.15468h 0.110728v 1.65887h 0.110728v -5.68621h 0.110728v -9.38441h 0.110728v -4.45379h 0.110728v -7.67536h 0.110728v -6.60219h 0.110728v
 -5.12395h 0.110728v 3.31669h 0.110728v 2.97434h 0.110728v 6.51481h 0.110728v 9.8526h 0.110728v 7.30015h 0.110728v 12.1936h 0.110728v -1.4384h 0.110728v -1.57181h 0.110728v -1.26676h 0.110728v 1.48483h 0.110728v -3.45243h 0.110728v -7.49744h
 0.110728v -1.06409h 0.110728v -3.49076h 0.110728v 5.10594h 0.110728v -0.139015h 0.110728v 5.62412h 0.110728v 4.05351h 0.221457v 4.66377h 0.110728v 3.33211h 0.110728v -4.09484h 0.110728v 2.92969h 0.110728v -3.90885h 0.110728v 0.484374h 0.110728v
 1.51749h 0.110728v 1.62469h 0.221457v 0.568101h 0.110728v -2.96405h 0.110728v -1.705h 0.110728v -0.233575h 0.110728v 3.50783h 0.110728v -3.50783h 0.110728v 4.05564h 0.110728v 5.27286h 0.110728v -8.62054h 0.110728v 5.37476h 0.110728v -3.88992h
 0.110728v 2.42402h 0.110728v -1.10898h 0.110728v -2.79987h 0.110728v 1.23061h 0.110728v 0.511286h 0.110728v 3.93759h 0.110728v -3.14871h 0.110728v 5.06706h 0.110728v -6.11301h 0.110728v 1.31504h 0.110728v -4.86157h 0.110728v 4.3265h 0.110728v
 1.92985h 0.110728v 0.879352h 0.110728v -1.72633h 0.110728v 0.561172h 0.221457v -4.38324h 0.110728v 6.15387h 0.110728v -2.33181h 0.110728v -1.08288h 0.110728v -3.43292h 0.110728v 1.16811h 0.110728v 1.23061h 0.110728v 1.03419h 0.110728v -4.3265h
 0.110728v 3.54653h 0.110728v 1.31504h 0.110728v -3.73906h 0.110728v -1.34059h 0.110728v -1.8749h 0.110728v -0.979165h 0.110728v 3.29231h 0.110728v -0.220163h 0.110728v -2.87962h 0.110728v 3.32207h 0.110728v 0.911284h 0.221457v -2.63223h 0.110728v
 5.87097h 0.110728v -3.69889h 0.110728v -2.98656h 0.110728v 6.41948h 0.110728v 0.807343h 0.110728v 0.275535h 0.110728v -5.84348h 0.110728v 4.49767h 0.110728v -3.62111h 0.110728v 0.45113h 0.110728v 1.16811h 0.110728v 2.79987h 0.110728v -5.72174h
 0.110728v -1.03187h 0.110728v 2.78563h 0.221457v 7.15642h 0.110728v -6.69627h 0.110728v 1.19233h 0.110728v 1.25752h 0.110728v -6.48906h 0.110728v 3.57905h 0.110728v -0.45113h 0.110728v -1.72094h 0.110728v 4.5708h 0.110728v -2.1698h 0.110728v
 0.939188h 0.110728v 3.07214h 0.110728v -2.34171h 0.110728v 0.50017h 0.110728v -1.705h 0.110728v -5.03975h 0.110728v 8.04491h 0.110728v 5.40293h 0.110728v -8.4081h 0.110728v -1.80539h 0.110728v 3.76461h 0.110728v 3.29231h 0.110728v -6.83884h
 0.110728v -1.48483h 0.110728v 1.92729h 0.110728v 0.224459h 0.110728v 3.13668h 0.110728v -0.76273h 0.110728v -3.04086h 0.110728v 3.54653h 0.110728v -2.87962h 0.110728v 0.686824h 0.110728v -6.79231h 0.110728v 5.43858h 0.110728v 2.0617h 0.110728v
 -2.27978h 0.110728v 1.57181h 0.110728v -1.13357h 0.110728v 1.36715h 0.221457v -2.02142h 0.110728v -0.214019h 0.110728v -0.836707h 0.110728v 3.07214h 0.110728v -2.65759h 0.110728v -2.75626h 0.110728v 0.563463h 0.110728v 0.383457h 0.110728v 1.39479h
 0.110728v 4.0309h 0.110728v 1.00046h 0.110728v -3.98064h 0.110728v -1.85807h 0.110728v -3.82814h 0.110728v -5.23438h 0.110728v -7.66462h 0.110728v -3.46422h 0.110728v -1.59281h 0.110728v 2.86423h 0.110728v 3.88304h 0.110728v 5.0566h 0.110728v
 4.84645h 0.110728v 1.64405h 0.110728v 4.50348h 0.110728v 4.82502h 0.110728v -6.80961h 0.110728v 1.17009h 0.221457v 2.31314h 0.110728v 4.91368h 0.110728v -5.78197h 0.110728v 4.97463h 0.110728v -2.73919h 0.110728v 1.20483h 0.110728v 2.34171h 0.221457v
 -3.78011h 0.110728v 0.469545h 0.110728v 4.14727h 0.110728v -5.75039h 0.110728v 2.57197h 0.110728v 0.754392h 0.110728v -2.19279h 0.110728v 4.05564h 0.110728v -5.18922h 0.110728v 4.91368h 0.221457v 1.41191h 0.110728v -0.8575h 0.110728v -2.14172h
 0.110728v -1.00046h 0.110728v 6.78243h 0.110728v -4.73602h 0.110728v 0.541364h 0.110728v -2.34171h 0.110728v -1.89855h 0.110728v 0.460154h 0.221457v 5.4851h 0.110728v -0.582484h 0.110728v -5.36277h 0.110728v 3.43292h 0.110728v -4.54458h 0.110728v
 3.01021h 0.110728v 7.20327h 0.110728v -2.85971h 0.110728v -2.80921h 0.110728v -1.53436h 0.110728v -1.4384h 0.110728v 1.68713h 0.110728v 2.09298h 0.110728v 2.30261h 0.110728v -3.63286h 0.110728v -3.36114h 0.110728v -0.442454h 0.110728v 3.54653h
 0.221457v -2.65295h 0.110728v -0.893584h 0.110728v 4.3265h 0.110728v -7.77893h 0.110728v 6.74474h 0.110728v 1.30017h 0.110728v -1.80034h 0.110728v 1.80034h 0.110728v -1.55162h 0.110728v -3.90104h 0.110728v 8.29663h 0.110728v -8.50674h 0.110728v
 7.32664h 0.110728v -5.36277h 0.110728v 0.693728h 0.110728v 0.474386h 0.110728v -2.92187h 0.110728v 2.44748h 0.110728v -1.14486h 0.110728v 4.41912h 0.110728v -6.55091h 0.110728v 0.829168h 0.221457v 0.212047h 0.110728v 4.45172h 0.110728v -2.44986h
 0.110728v -2.83857h 0.110728v 2.15175h 0.110728v -3.73906h 0.110728v 3.96573h 0.110728v 0.929699h 0.110728v 1.98031h 0.110728v -4.02167h 0.110728v -1.06041h 0.110728v -3.27849h 0.110728v -1.05394h 0.110728v 4.54063h 0.110728v 0.422157h 0.110728v
 -2.23149h 0.110728v -1.8564h 0.110728v 2.05055h 0.110728v -2.40451h 0.110728v 2.997h 0.110728v 1.44485h 0.110728v -3.17841h 0.110728v 4.26899h 0.110728v -2.53543h 0.110728v -2.464h 0.110728v 3.07214h 0.110728v -0.204507h 0.110728v -0.602836h
 0.110728v -1.53436h 0.110728v 1.93449h 0.110728v 0.613554h 0.110728v 2.17208h 0.110728v -3.7732h 0.110728v 2.23149h 0.110728v -7.09306h 0.110728v 5.25153h 0.110728v -0.773414h 0.110728v -1.2939h 0.110728v 0.180447h 0.110728v 5.04344h 0.110728v
 -6.61868h 0.110728v 3.4621h 0.110728v -0.195805h 0.110728v 0.39329h 0.110728v -3.65959h 0.110728v 0.340849h 0.110728v 1.97067h 0.110728v 1.95091h 0.110728v -4.09263h 0.110728v 2.14172h 0.110728v 1.34807h 0.110728v -4.16158h 0.110728v 3.38161h
 0.110728v -2.87962h 0.110728v 2.87962h 0.110728v -0.568101h 0.110728v -0.55441h 0.221457v -0.719024h 0.110728v 2.62151h 0.110728v 1.85807h 0.110728v -1.25523h 0.110728v 6.01584h 0.110728v 1.08288h 0.110728v 7.08536h 0.110728v -1.46125h 0.110728v
 2.62151h 0.110728v 1.22189h 0.110728v -3.48669h 0.110728v 8.10351h 0.110728v -6.61868h 0.110728v -3.54653h 0.110728v 7.74119h 0.110728v -4.57494h 0.110728v 2.38215h 0.110728v 0.852205h 0.110728v -4.3389h 0.110728v 1.87151h 0.110728v 4.74716h
 0.110728v -6.97538h 0.110728v 3.02164h 0.110728v -4.05972h 0.110728v 7.53907h 0.110728v -3.07214h 0.110728v 7.74119h 0.110728v -11.17h 0.110728v 9.50616h 0.110728v -3.46997h 0.110728v -9.63323h 0.110728v 10.098h 0.110728v -2.23544h 0.110728v
 -0.836707h 0.110728v 0.836707h 0.110728v -0.836707h 0.110728v -2.70982h 0.110728v 3.54653h 0.110728v 9.3285h 0.110728v -10.9725h 0.110728v 5.83871h 0.221457v 1.58731h 0.110728v -7.42602h 0.110728v 6.35574h 0.110728v -5.13384h 0.110728v 7.90912h
 0.110728v -9.5243h 0.110728v 0.79342h 0.110728v -0.79342h 0.110728v -4.89868h 0.110728v -7.24052h 0.110728v -7.41015h 0.110728v 3.79797h 0.110728v -1.33688h 0.110728v 1.14107h 0.110728v 4.50875h 0.110728v 9.21021h 0.110728v 7.45975h 0.110728v
 2.04641h 0.110728v -1.55162h 0.110728v -2.37395h 0.110728v -1.7372h 0.110728v 3.61635h 0.110728v 1.00046h 0.110728v -5.03136h 0.110728v 5.03136h 0.110728v -7.74119h 0.110728v 7.23552h 0.110728v 5.00914h 0.110728v 1.27849h 0.110728v -4.19466h
 0.110728v 2.30261h 0.110728v -0.597616h 0.110728v 1.84154h 0.110728v -6.1343h 0.110728v 3.14218h 0.110728v -2.64739h 0.110728v 7.64137h 0.110728v 2.97276h 0.110728v 1.64405h 0.110728v -7.86259h 0.110728v 1.24392h 0.110728v -2.99212h 0.110728v
 4.30716h 0.110728v -1.31504h 0.110728v 6.61868h 0.110728v -5.30364h 0.110728v 1.39479h 0.110728v 1.48483h 0.110728v -7.74119h 0.110728v 6.25635h 0.110728v -2.70982h 0.110728v -0.630366h 0.110728v 9.01968h 0.110728v -0.902347h 0.110728v -2.51234h
 0.110728v -7.96675h 0.110728v 8.77409h 0.110728v 5.54839h 0.110728v 2.19279h 0.110728v -3.21549h 0.110728v -9.65954h 0.110728v 10.6822h 0.110728v -8.62054h 0.110728v 4.77714h 0.110728v 0.902347h 0.110728v -2.60734h 0.221457v -0.807343h 0.110728v
 2.51234h 0.110728v -4.0467h 0.110728v 2.34171h 0.110728v -4.46693h 0.110728v 11.0856h 0.110728v -5.78197h 0.110728v -4.61681h 0.110728v 12.7014h 0.110728v -4.39559h 0.110728v -6.11301h 0.221457v 9.3285h 0.110728v 1.1801h 0.110728v 1.24392h 0.110728v
 2.70982h 0.110728v -3.95374h 0.110728v -5.37476h 0.110728v 5.37476h 0.221457v -4.39559h 0.110728v -1.91835h 0.110728v 13.3398h 0.110728v -4.46693h 0.110728v -4.86157h 0.110728v -10.3988h 0.110728v 4.61681h 0.110728v 9.3285h 0.221457v 2.70982h
 0.110728v -3.95374h 0.110728v -5.37476h 0.110728v 14.1056h 0.110728v -17.6522h 0.110728v 12.875h 0.110728v -6.25635h 0.110728v 1.12251h 0.110728v 1.1801h 0.110728v -1.1801h 0.110728v -8.54853h 0.110728v 4.35387h 0.110728v 9.3285h 0.110728v -1.39479h
 0.110728v -3.73906h 0.110728v -4.19466h 0.110728v 6.61868h 0.110728v 7.48696h 0.110728v -3.29231h 0.110728v -2.87962h 0.221457v 8.01346h 0.332185v 2.00186h 0.110728v -8.62054h 0.110728v 6.61868h 0.110728v -5.13384h 0.110728v 1.58731h 0.110728v
 -8.20599h 0.110728v 2.42402h 0.110728v 2.70982h 0.110728v -2.70982h 0.110728v 11.3304h 0.110728v 10.3988h 0.110728v -5.78197h 0.110728v -8.46021h 0.332185v -6.17193h 0.110728v 2.87962h 0.110728v -2.87962h 0.110728v 6.17193h 0.110728v -3.29231h
 0.110728v 11.7525h 0.110728v -6.61868h 0.110728v 4.19466h 0.110728v -6.03619h 0.110728v -3.29231h 0.110728v -4.19466h 0.110728v 13.5232h 0.110728v -6.03619h 0.110728v 1.84154h 0.110728v -1.84154h 0.110728v 3.8434h 0.110728v 13.9453h 0.110728v
 -17.7887h 0.110728v 17.7887h 0.110728v -9.3285h 0.110728v 5.78197h 0.110728v -5.78197h 0.110728v 5.78197h 0.110728v -5.78197h 0.110728v 13.5232h 0.110728v -18.14h 0.110728v 7.32664h 0.110728v -12.875h 0.110728v -3.07214h 0.110728v 22.5658h 0.110728v
 -3.54653h 0.110728v 3.54653h 0.110728v -11.7525h 0.110728v -10.8133h 0.110728v 3.07214h 0.110728v -22.3595h 0.110728v -19.4047h 0.110728v -21.3998h 0.110728v -13.6751h 0.110728v -14.1299h 0.110728v -7.1252h 0.110728v -2.49559h 0.110728v 3.12852h
 0.110728v 5.99345h 0.110728v 13.2168h 0.110728v 16.6141h 0.110728v 16.4028h 0.110728v 26.2149h 0.110728v 8.62054h 0.110728v 20.564h 0.110728v 2.70982h 0.110728v -9.3285h 0.110728v 6.61868h 0.110728v 2.70982h 0.110728v 3.07214h 0.110728v 7.74119h
 0.110728v -21.9834h 0.332185v 14.2422h 0.110728v -12.4006h 0.110728v 4.19466h 0.110728v -2.19279h 0.110728v 7.32664h 0.110728v -7.32664h 0.110728v 7.32664h 0.110728v 10.8133h 0.110728v -15.9472h 0.221457v 11.7525h 0.110728v -6.61868h 0.110728v
 -5.13384h 0.110728v 15.9472h 0.110728v -4.19466h 0.110728v 15.9472h 0.110728v -6.61868h 0.110728v -21.081h 0.110728v 21.081h 0.221457v -18.657h 0.221457v 13.5232h 0.110728v -7.74119h 0.110728v 3.54653h 0.110728v 4.19466h 0.110728v -10.8133h
 0.110728v 3.07214h 0.110728v 19.4937h 0.221457v -22.5658h 0.110728v 6.61868h 0.110728v -6.61868h 0.110728v 47.8415h 0.110728v -47.8415h 0.110728v 3.07214h 0.110728v -3.07214h 0.110728v 15.9472h 0.221457v -9.3285h 0.110728v -3.54653h 0.110728v
 3.54653h 0.110728v -9.3285h 0.110728v 13.5232h 0.110728v -13.5232h 0.110728v 2.70982h 0.110728v 15.9472h 0.332185v -12.875h 0.110728v 3.54653h 0.110728v 9.3285h 0.110728v -12.875h 0.110728v 12.875h 0.110728v -18.657h 0.110728v 9.3285h 0.110728v
 -9.3285h 0.110728v -29.8925h 0.110728v -20.6589h 0.110728v -20.4475h 0.110728v -21.4287h 0.110728v -19.1627h 0.110728v -8.583h 0.110728v -8.30497h 0.110728v -2.46527h 0.110728v 3.42608h 0.110728v 7.27538h 0.110728v 11.3666h 0.110728v 17.1486h
 0.110728v 21.4396h 0.110728v 30.3794h 0.110728v 21.5366h 0.110728v 21.081h 0.110728v -23.2738h 0.110728v -2.94105h 0.110728v -15.4824h 0.110728v -10.6956h 0.110728v -0.582484h 0.110728v -4.19466h 0.110728v 1.23061h 0.110728v 9.20243h 0.110728v
 9.14069h 0.110728v 20.2543h 0.110728v 12.2081h 0.110728v 37.0282h 0.110728v -15.9472h 0.110728v -18.657h 0.332185v -14.6321h 0.110728v -6.95455h 0.110728v 4.39559h 0.110728v 1.24392h 0.110728v 7.48696h 0.110728v 8.46021h 0.110728v 5.78197h 0.221457v
 44.7694h 0.221457v -25.2757h 0.110728v 9.3285h 0.110728v -28.8222h 0.110728v 12.875h 0.110728v 6.61868h 0.110728v 41.2228h 0.110728v -47.8415h 0.221457v 6.61868h 0.110728v -15.9472h 0.110728v 15.9472h 0.110728v -6.61868h 0.221457v 31.8943h 0.110728v
 -44.7694h 0.110728v 28.8222h 0.110728v 15.9472h 0.110728v -37.0282h 0.110728v 37.0282h 0.110728v -15.9472h 0.110728v -15.9472h 0.110728v 6.61868h 0.221457v 25.2757h 0.332185v -41.2228h 0.110728v -6.61868h 0.221457v -9.3285h 0.110728v 9.3285h
 0.110728v 6.61868h 0.110728v -6.61868h 0.110728v 22.5658h 0.110728v 9.3285h 0.110728v -15.9472h 0.221457v 6.61868h 0.110728v -6.61868h 0.110728v 15.9472h 0.221457v -9.3285h 0.110728v 9.3285h 0.110728v -9.3285h 0.110728v 25.2757h 0.110728v -15.9472h
 0.110728v -28.8222h 0.110728v 7.74119h 0.110728v 21.081h 0.110728v -34.6042h 0.110728v 50.5513h 0.110728v -25.2757h 0.110728v -6.61868h 0.110728v 6.61868h 0.110728v -15.9472h 0.110728v -9.3285h 0.110728v -29.8925h 0.110728v -17.949h 0.110728v
 -12.3206h 0.110728v -3.62655h 0.110728v -4.22127h 0.110728v -4.34929h 0.110728v 7.17577h 0.110728v 6.97225h 0.110728v 11.6848h 0.110728v 15.2803h 0.110728v 24.6275h 0.110728v 20.1418h 0.110728v -18.14h 0.110728v -7.13571h 0.110728v 1.58731h
 0.110728v -21.081h 0.110728v -1.27849h 0.110728v -5.98831h 0.110728v -1.39479h 0.110728v 10.7233h 0.110728v -3.34019h 0.110728v 13.031h 0.110728v 2.30261h 0.110728v 35.8481h 0.221457v 6.61868h 0.110728v -6.61868h 0.110728v 15.9472h 0.221457v
 -21.081h 0.110728v 11.7525h 0.110728v -15.9472h 0.110728v 4.19466h 0.110728v 21.081h 0.221457v -9.3285h 0.221457v 25.2757h 0.110728v -31.8943h 0.110728v 31.8943h 0.110728v -25.2757h 0.110728v 9.3285h 0.110728v -31.8943h 0.110728v 15.9472h 0.110728v
 -5.13384h 0.221457v 5.13384h 0.110728v -5.13384h 0.110728v -7.74119h 0.110728v 60.7166h 0.110728v -41.2228h 0.110728v 41.2228h 0.110728v -31.8943h 0.110728v 31.8943h 0.110728v -15.9472h 0.332185v -37.0282h 0.110728v 11.7525h 0.110728v -6.61868h
 0.110728v 31.8943h 0.110728v -25.2757h 0.110728v 9.3285h 0.110728v 15.9472h 0.110728v -15.9472h 0.110728v -9.3285h 0.110728v -39.9078h 0.110728v -23.3965h 0.110728v -36.4332h 0.110728v -24.002h 0.110728v -21.2503h 0.110728v -14.7427h 0.110728v
 -11.1752h 0.110728v -6.63803h 0.110728v -2.53505h 0.110728v 2.44986h 0.110728v 6.42898h 0.110728v 10.7191h 0.110728v 14.8964h 0.110728v 21.7409h 0.110728v 23.9078h 0.110728v 30.6347h 0.110728v 15.5731h 0.110728v 28.4541h 0.110728v 34.6042h 0.221457v
 -9.3285h 0.110728v 25.2757h 0.332185v -25.2757h 0.110728v 9.3285h 0.110728v 31.8943h 0.332185v -31.8943h 0.110728v -15.9472h 0.110728v 6.61868h 0.110728v -25.2757h 0.110728v 34.6042h 0.110728v -25.2757h 0.110728v 4.19466h 0.110728v 5.13384h
 0.110728v 6.61868h 0.110728v -6.61868h 0.110728v 6.61868h 0.110728v 41.2228h 0.110728v -41.2228h 0.110728v 41.2228h 0.110728v -31.8943h 0.110728v 15.9472h 0.110728v -15.9472h 0.221457v -21.081h 0.110728v 11.7525h 0.110728v 41.2228h 0.110728v
 -15.9472h 0.110728v 15.9472h 0.110728v -15.9472h 0.110728v -15.9472h 0.110728v 15.9472h 0.110728v -15.9472h 0.110728v 15.9472h 0.110728v -15.9472h 0.110728v -9.3285h 0.110728v -11.7525h 0.110728v 37.0282h 0.110728v -15.9472h 0.110728v -15.9472h
 0.110728v 31.8943h 0.110728v -37.0282h 0.110728v 11.7525h 0.221457v 9.3285h 0.110728v -15.9472h 0.110728v -23.2738h 0.110728v 4.61681h 0.110728v -2.42402h 0.110728v -14.7671h 0.110728v 2.55896h 0.110728v 6.17193h 0.110728v 14.2422h 0.110728v
 -12.4006h 0.110728v 41.2228h 0.110728v 15.9472h 0.221457v -15.9472h 0.110728v 31.8943h 0.110728v -31.8943h 0.110728v 31.8943h 0.110728v -31.8943h 0.110728v -15.9472h 0.110728v -12.875h 0.110728v -26.346h 0.110728v -10.0153h 0.110728v -26.3767h
 0.110728v -17.4051h 0.110728v -15.3336h 0.110728v -12.1837h 0.110728v -6.47328h 0.110728v -1.3853h 0.110728v 2.08678h 0.110728v 4.58254h 0.110728v 11.8687h 0.110728v 13.205h 0.110728v 7.70674h 0.110728v 1.88172h 0.110728v -4.06356h 0.110728v
 -11.7525h 0.110728v -2.60734h 0.221457v 2.281h 0.110728v 8.43862h 0.110728v 11.6903h 0.110728v 13.031h 0.110728v 17.6522h 0.110728v 23.5707h 0.110728v 5.54839h 0.110728v -12.5743h 0.110728v -14.0551h 0.110728v -10.3988h 0.110728v -8.03805h 0.110728v
 -5.71633h 0.110728v 8.8729h 0.110728v -4.02486h 0.110728v 10.6435h 0.110728v 9.3285h 0.110728v 8.99263h 0.110728v 19.1627h 0.110728v 27.6997h 0.110728v -11.7525h 0.110728v 21.081h 0.110728v 15.9472h 0.110728v 15.9472h 1.32874v -15.9472h 0.110728v
 15.9472h 0.221457v -15.9472h 0.110728v 15.9472h 0.332185v -15.9472h 0.110728v 15.9472h 0.332185v -15.9472h 0.110728v -25.2757h 0.110728v 41.2228h 0.221457v -31.8943h 0.221457v 31.8943h 0.110728v -15.9472h 0.110728v -15.9472h 0.110728v 15.9472h
 0.221457v -25.2757h 0.110728v 9.3285h 0.110728v 15.9472h 0.110728v 15.9472h 0.221457v -15.9472h 0.110728v 15.9472h 0.332185v -31.8943h 0.110728v 31.8943h 0.332185v -15.9472h 0.110728v 15.9472h 0.221457v -15.9472h 0.110728v 15.9472h 0.332185v
 -15.9472h 0.110728v -25.2757h 0.110728v 9.3285h 0.221457v -21.081h 0.110728v -25.2757h 0.110728v -16.7016h 0.110728v -8.05708h 0.110728v -4.71169h 0.110728v 0.868288h 0.110728v -2.90563h 0.110728v 11.3658h 0.110728v 11.3304h 0.110728v 34.0871h
 0.110728v -4.19466h 0.110728v 4.19466h 0.221457v -7.74119h 0.110728v -5.78197h 0.110728v -11.7525h 0.110728v -4.19466h 0.110728v -7.55786h 0.110728v 16.8864h 0.110728v -9.3285h 0.110728v 15.9472h 0.110728v 2.70982h 0.110728v 31.8943h 0.110728v
 -9.3285h 0.221457v 25.2757h 0.110728v -15.9472h 0.110728v -15.9472h 0.110728v 15.9472h 0.442913v 15.9472h 0.110728v 15.9472h 0.332185v -15.9472h 0.110728v 15.9472h 0.110728v -47.8415h 0.110728v 47.8415h 0.221457v -15.9472h 0.110728v 15.9472h
 0.110728v -15.9472h 0.110728v 15.9472h 0.110728v -15.9472h 0.110728v 15.9472h 0.221457v -15.9472h 0.110728v 15.9472h 0.221457v -15.9472h 0.110728v 15.9472h 0.66437v -31.8943h 0.110728v 31.8943h 0.110728v -15.9472h 0.110728v 15.9472h 0.332185v
 -15.9472h 0.221457v 15.9472h 0.110728v -31.8943h 0.110728v -43.0644h 0.110728v -7.48696h 0.110728v -28.08h 0.110728v -5.6559h 0.110728v -8.73088h 0.110728v -9.3285h 0.110728v 0.961623h 0.110728v 0.8575h 0.110728v 8.33114h 0.110728v 7.32664h
 0.110728v 8.20599h 0.110728v 23.6884h 0.110728v 27.6997h 0.110728v 9.3285h 0.110728v 15.9472h 0.110728v 31.8943h 0.442913v -15.9472h 0.110728v 15.9472h 1.10728v -15.9472h 0.110728v 15.9472h 1.99311v -15.9472h 0.110728v 15.9472h 1.77165v -15.9472h
 0.110728v 15.9472h 2.3253v -31.8943h 0.110728v 31.8943h 0.996555v -31.8943h 0.110728v 15.9472h 0.110728v -31.8943h 0.110728v -5.13384h 0.110728v -4.19466h 0.221457v 15.9472h 0.221457v 41.2228h 0.221457v -15.9472h 0.110728v 15.9472h 0.332185v
 -15.9472h 0.110728v 15.9472h 0.110728v -41.2228h 0.110728v 9.3285h 0.110728v 31.8943h 0.110728v -41.2228h 0.110728v 41.2228h 291.105" fill="none" stroke="#0000ff"/>
<path d="M57.1929,368.291h 453.543" fill="none" stroke="black"/>
<path d="M57.2441,358.47v 9.82109" fill="none" stroke="black"/>
<path d="M74.4093,363.38v 4.91054" fill="none" stroke="black"/>
<path d="M91.5746,363.38v 4.91054" fill="none" stroke="black"/>
<path d="M108.74,363.38v 4.91054" fill="none" stroke="black"/>
<path d="M125.905,358.47v 9.82109" fill="none" stroke="black"/>
<path d="M143.07,363.38v 4.91054" fill="none" stroke="black"/>
<path d="M160.236,363.38v 4.91054" fill="none" stroke="black"/>
<path d="M177.401,363.38v 4.91054" fill="none" stroke="black"/>
<path d="M194.566,358.47v 9.82109" fill="none" stroke="black"/>
<path d="M211.731,363.38v 4.91054" fill="none" stroke="black"/>
<path d="M228.897,363.38v 4.91054" fill="none" stroke="black"/>
<path d="M246.062,363.38v 4.91054" fill="none" stroke="black"/>
<path d="M263.227,358.47v 9.82109" fill="none" stroke="black"/>
<path d="M280.392,363.38v 4.91054" fill="none" stroke="black"/>
<path d="M297.558,363.38v 4.91054" fill="none" stroke="black"/>
<path d="M314.723,363.38v 4.91054" fill="none" stroke="black"/>
<path d="M331.888,358.47v 9.82109" fill="none" stroke="black"/>
<path d="M349.053,363.38v 4.91054" fill="none" stroke="black"/>
<path d="M366.219,363.38v 4.91054" fill="none" stroke="black"/>
<path d="M383.384,363.38v 4.91054" fill="none" stroke="black"/>
<path d="M400.549,358.47v 9.82109" fill="none" stroke="black"/>
<path d="M417.714,363.38v 4.91054" fill="none" stroke="black"/>
<path d="M434.88,363.38v 4.91054" fill="none" stroke="black"/>
<path d="M452.045,363.38v 4.91054" fill="none" stroke="black"/>
<path d="M469.21,358.47v 9.82109" fill="none" stroke="black"/>
<path d="M57.2441,358.47v 9.82109" fill="none" stroke="black"/>
<path d="M469.21,358.47v 9.82109" fill="none" stroke="black"/>
<path d="M486.375,363.38v 4.91054" fill="none" stroke="black"/>
<path d="M503.541,363.38v 4.91054" fill="none" stroke="black"/>
<text xml:space="preserve" x="53.0724" y="381.505" fill="black" font-size="13.6398" font-family="Helvetica">0</text>
<text xml:space="preserve" x="116.301" y="381.505" fill="black" font-size="13.6398" font-family="Helvetica">0.2</text>
<text xml:space="preserve" x="185.214" y="381.505" fill="black" font-size="13.6398" font-family="Helvetica">0.4</text>
<text xml:space="preserve" x="253.416" y="381.505" fill="black" font-size="13.6398" font-family="Helvetica">0.6</text>
<text xml:space="preserve" x="322.328" y="381.505" fill="black" font-size="13.6398" font-family="Helvetica">0.8</text>
<text xml:space="preserve" x="397.635" y="381.505" fill="black" font-size="13.6398" font-family="Helvetica">1</text>
<text xml:space="preserve" x="459.443" y="381.505" fill="black" font-size="13.6398" font-family="Helvetica">1.2</text>
<text xml:space="preserve" x="428.183" y="394.293" fill="black" font-size="13.6398" font-family="Helvetica">Energy (MeV)</text>
<path d="M57.1929,368.291v -327.37" fill="none" stroke="black"/>
<path d="M63.9961,368.291h -6.80315" fill="none" stroke="black"/>
<path d="M63.9961,364.096h -6.80315" fill="none" stroke="black"/>
<path d="M63.9961,360.55h -6.80315" fill="none" stroke="black"/>
<path d="M63.9961,357.477h -6.80315" fill="none" stroke="black"/>
<path d="M63.9961,354.768h -6.80315" fill="none" stroke="black"/>
<path d="M70.7992,352.344h -13.6063" fill="none" stroke="black"/>
<text xml:space="preserve" x="47.3889" y="357.35" fill="black" font-size="13.6398" font-family="Helvetica">1</text>
<path d="M63.9961,336.396h -6.80315" fill="none" stroke="black"/>
<path d="M63.9961,327.068h -6.80315" fill="none" stroke="black"/>
<path d="M63.9961,320.449h -6.80315" fill="none" stroke="black"/>
<path d="M63.9961,315.315h -6.80315" fill="none" stroke="black"/>
<path d="M63.9961,311.121h -6.80315" fill="none" stroke="black"/>
<path d="M63.9961,307.574h -6.80315" fill="none" stroke="black"/>
<path d="M63.9961,304.502h -6.80315" fill="none" stroke="black"/>
<path d="M63.9961,301.792h -6.80315" fill="none" stroke="black"/>
<path d="M70.7992,299.368h -13.6063" fill="none" stroke="black"/>
<text xml:space="preserve" x="37.4427" y="304.067" fill="black" font-size="13.6398" font-family="Helvetica">10</text>
<path d="M63.9961,283.421h -6.80315" fill="none" stroke="black"/>
<path d="M63.9961,274.093h -6.80315" fill="none" stroke="black"/>
<path d="M63.9961,267.474h -6.80315" fill="none" stroke="black"/>
<path d="M63.9961,262.34h -6.80315" fill="none" stroke="black"/>
<path d="M63.9961,258.145h -6.80315" fill="none" stroke="black"/>
<path d="M63.9961,254.599h -6.80315" fill="none" stroke="black"/>
<path d="M63.9961,251.527h -6.80315" fill="none" stroke="black"/>
<path d="M63.9961,248.817h -6.80315" fill="none" stroke="black"/>
<path d="M70.7992,246.393h -13.6063" fill="none" stroke="black"/>
<text xml:space="preserve" x="47.3889" y="246.522" fill="black" font-size="9.25989" font-family="Helvetica">2</text>
<text xml:space="preserve" x="32.4697" y="252.205" fill="black" font-size="13.6398" font-family="Helvetica">10</text>
<path d="M63.9961,230.446h -6.80315" fill="none" stroke="black"/>
<path d="M63.9961,221.117h -6.80315" fill="none" stroke="black"/>
<path d="M63.9961,214.499h -6.80315" fill="none" stroke="black"/>
<path d="M63.9961,209.365h -6.80315" fill="none" stroke="black"/>
<path d="M63.9961,205.17h -6.80315" fill="none" stroke="black"/>
<path d="M63.9961,201.624h -6.80315" fill="none" stroke="black"/>
<path d="M63.9961,198.551h -6.80315" fill="none" stroke="black"/>
<path d="M63.9961,195.842h -6.80315" fill="none" stroke="black"/>
<path d="M70.7992,193.418h -13.6063" fill="none" stroke="black"/>
<text xml:space="preserve" x="47.3889" y="193.239" fill="black" font-size="9.25989" font-family="Helvetica">3</text>
<text xml:space="preserve" x="32.4697" y="199.633" fill="black" font-size="13.6398" font-family="Helvetica">10</text>
<path d="M63.9961,177.47h -6.80315" fill="none" stroke="black"/>
<path d="M63.9961,168.142h -6.80315" fill="none" stroke="black"/>
<path d="M63.9961,161.523h -6.80315" fill="none" stroke="black"/>
<path d="M63.9961,156.389h -6.80315" fill="none" stroke="black"/>
<path d="M63.9961,152.195h -6.80315" fill="none" stroke="black"/>
<path d="M63.9961,148.648h -6.80315" fill="none" stroke="black"/>
<path d="M63.9961,145.576h -6.80315" fill="none" stroke="black"/>
<path d="M63.9961,142.866h -6.80315" fill="none" stroke="black"/>
<path d="M70.7992,140.442h -13.6063" fill="none" stroke="black"/>
<text xml:space="preserve" x="47.3889" y="140.667" fill="black" font-size="9.25989" font-family="Helvetica">4</text>
<text xml:space="preserve" x="32.4697" y="146.35" fill="black" font-size="13.6398" font-family="Helvetica">10</text>
<path d="M63.9961,124.495h -6.80315" fill="none" stroke="black"/>
<path d="M63.9961,115.166h -6.80315" fill="none" stroke="black"/>
<path d="M63.9961,108.548h -6.80315" fill="none" stroke="black"/>
<path d="M63.9961,103.414h -6.80315" fill="none" stroke="black"/>
<path d="M63.9961,99.2193h -6.80315" fill="none" stroke="black"/>
<path d="M63.9961,95.6728h -6.80315" fill="none" stroke="black"/>
<path d="M63.9961,92.6006h -6.80315" fill="none" stroke="black"/>
<path d="M63.9961,89.8908h -6.80315" fill="none" stroke="black"/>
<path d="M70.7992,87.4668h -13.6063" fill="none" stroke="black"/>
<text xml:space="preserve" x="47.3889" y="87.3838" fill="black" font-size="9.25989" font-family="Helvetica">5</text>
<text xml:space="preserve" x="32.4697" y="93.7778" fill="black" font-size="13.6398" font-family="Helvetica">10</text>
<path d="M63.9961,71.5196h -6.80315" fill="none" stroke="black"/>
<path d="M63.9961,62.1911h -6.80315" fill="none" stroke="black"/>
<path d="M63.9961,55.5725h -6.80315" fill="none" stroke="black"/>
<path d="M63.9961,50.4386h -6.80315" fill="none" stroke="black"/>
<path d="M63.9961,46.244h -6.80315" fill="none" stroke="black"/>
<path d="M63.9961,42.6974h -6.80315" fill="none" stroke="black"/>
<g transform="rotate(-90,21.8131,70.3333)">
<text xml:space="preserve" x="21.8131" y="70.3333" fill="black" font-size="13.6398" font-family="Helvetica">Yield</text>
</g>
<path d="M57.2441,352.344v 15.9472h 3.65362v -97.0778h 0.110716v -11.8875h 0.110716v -0.40013h 0.110716v -7.68445h 0.110716v -2.67824h 0.110716v 2.11707h 0.110716v -5.18922h 0.110716v 1.84154h 0.110716v -3.95374h 0.110716v 7.02589h 0.110716v
 -8.01346h 0.110716v 4.23336h 0.110716v -3.44672h 0.110716v 4.63905h 0.110716v 1.25752h 0.110716v -7.44384h 0.110716v -3.78577h 0.110716v 3.59948h 0.110716v -2.12522h 0.110716v 6.17193h 0.110716v -5.83108h 0.110716v 1.78438h 0.110716v -4.37945h
 0.110716v -2.87962h 0.110716v 3.97913h 0.110716v -1.40425h 0.110716v -2.70982h 0.110716v -4.72663h 0.110716v -6.53636h 0.110716v -8.68744h 0.110716v -5.14515h 0.110716v -9.52354h 0.110716v -7.61277h 0.110716v -1.81511h 0.110716v 9.54771h 0.110716v
 16.3104h 0.110716v 15.8862h 0.110716v 11.231h 0.110716v -1.16026h 0.110716v -0.187813h 0.110716v -2.81351h 0.110716v -2.35772h 0.110716v -4.95387h 0.110716v -6.37649h 0.110716v -9.14518h 0.110716v -7.74119h 0.110716v -1.89204h 0.110716v 8.09095h
 0.110716v 8.34575h 0.110716v 2.43318h 0.110716v 0.27664h 0.110716v -2.54431h 0.110716v -4.37391h 0.110716v -9.75939h 0.110716v -5.34853h 0.110716v -2.84398h 0.110716v -5.85877h 0.110716v -1.76069h 0.110716v -1.71952h 0.110716v -5.98612h 0.110716v
 -19.7532h 0.110716v -24.1501h 0.110716v -18.4501h 0.110716v -8.20932h 0.110716v 1.32385h 0.110716v 14.0972h 0.110716v 24.171h 0.110716v 29.697h 0.110716v 21.104h 0.110716v 6.75947h 0.110716v 1.10454h 0.110716v 1.16026h 0.110716v -3.36774h 0.110716v
 -13.0839h 0.110716v -23.8265h 0.110716v -17.5161h 0.110716v -7.93276h 0.110716v 4.09007h 0.110716v 10.4399h 0.110716v 12.2872h 0.110716v 12.9273h 0.110716v 19.1663h 0.110716v 24.1652h 0.110716v 9.20836h 0.110716v 7.10305h 0.110716v -0.243462h
 0.110716v -3.5811h 0.110716v 5.60499h 0.110716v -3.20399h 0.110716v -0.455597h 0.110716v 1.6357h 0.110716v 4.53623h 0.110716v -5.01556h 0.110716v -0.929699h 0.110716v 7.15642h 0.110716v 1.60953h 0.110716v -5.85595h 0.110716v -0.257063h 0.110716v
 0.77997h 0.110716v 4.35387h 0.110716v -5.88824h 0.110716v -1.4384h 0.110716v 1.19233h 0.110716v 0.746235h 0.110716v -1.705h 0.110716v 0.474386h 0.110716v -3.13198h 0.110716v 2.65759h 0.110716v 2.47625h 0.110716v -2.47625h 0.110716v -1.14486h
 0.110716v 1.61924h 0.110716v 1.23061h 0.110716v -6.36445h 0.110716v 4.42588h 0.110716v -1.35374h 0.110716v 3.54653h 0.110716v -7.37307h 0.110716v 7.11884h 0.110716v -3.72641h 0.110716v 3.47497h 0.110716v 1.28564h 0.110716v -6.01584h 0.110716v
 2.58292h 0.110716v 2.39872h 0.110716v -3.07214h 0.110716v -3.86041h 0.110716v -0.186292h 0.110716v -0.368118h 0.110716v 0.55441h 0.110716v -17.8318h 0.110716v -14.5712h 0.110716v -13.1801h 0.110716v 0.894095h 0.110716v 11.968h 0.110716v 19.98h
 0.110716v 11.1163h 0.110716v 8.05708h 0.110716v -3.65231h 0.110716v -0.62466h 0.110716v -1.39479h 0.110716v 0.194152h 0.110716v 0.79342h 0.110716v 0.613554h 0.110716v -4.50348h 0.110716v -0.169793h 0.110716v 2.68869h 0.110716v -2.68869h 0.110716v
 -0.830665h 0.110716v -3.47649h 0.110716v -1.75504h 0.110716v 4.27278h 0.110716v -0.769534h 0.110716v -3.88992h 0.110716v -1.00046h 0.110716v -1.19233h 0.110716v -4.0392h 0.110716v -10.2833h 0.110716v -5.95451h 0.110716v -3.26984h 0.110716v 2.00566h
 0.110716v 9.44268h 0.110716v 6.00874h 0.110716v 1.95327h 0.110716v 2.34864h 0.110716v 3.22624h 0.110716v -4.98493h 0.110716v 0.300748h 0.110716v 1.35068h 0.110716v -0.943468h 0.110716v -5.29759h 0.110716v -2.47292h 0.110716v -2.95277h 0.110716v
 2.66154h 0.110716v 4.36895h 0.110716v 4.10734h 0.110716v 2.30812h 0.110716v 0.349479h 0.110716v 0.23597h 0.110716v 2.37137h 0.110716v 3.2418h 0.110716v -5.96623h 0.110716v 1.94884h 0.110716v 1.99031h 0.110716v -3.5861h 0.110716v 2.24028h 0.110716v
 -6.15654h 0.110716v 1.55162h 0.110716v 2.36465h 0.110716v 1.72325h 0.110716v 0.912575h 0.110716v -0.395544h 0.110716v 0.528918h 0.110716v 9.06252h 0.110716v -6.06668h 0.110716v 1.57643h 0.110716v 0.328676h 0.110716v 3.38161h 0.110716v 5.86428h
 0.110716v -8.91245h 0.110716v -2.39041h 0.110716v 5.82525h 0.110716v -4.58134h 0.110716v 3.44026h 0.110716v -0.549992h 0.110716v -2.56849h 0.110716v -1.26097h 0.110716v 10.2677h 0.110716v -6.07303h 0.110716v 2.5265h 0.110716v -2.8917h 0.110716v
 -6.4368h 0.110716v -11.338h 0.110716v -18.2538h 0.110716v -11.4708h 0.110716v -5.69241h 0.110716v -11.001h 0.110716v -21.9457h 0.110716v -15.6647h 0.110716v -2.91787h 0.110716v 8.48145h 0.110716v 21.1211h 0.110716v 29.5855h 0.110716v 30.5099h
 0.110716v 6.3686h 0.110716v 6.41233h 0.110716v -0.807343h 0.110716v -0.626077h 0.110716v 5.36663h 0.110716v -1.87151h 0.110716v 2.86764h 0.110716v 6.82318h 0.110716v -1.58731h 0.110716v 1.04595h 0.110716v -2.04641h 0.110716v 6.1343h 0.110716v
 -4.87678h 0.110716v -3.36114h 0.110716v 10.591h 0.110716v -6.96993h 0.110716v 1.07028h 0.110716v -5.78197h 0.110716v 6.0575h 0.110716v 2.95365h 0.110716v 2.3192h 0.110716v -1.0227h 0.110716v -0.33104h 0.110716v -9.7626h 0.110716v 3.98064h 0.221432v
 6.78973h 0.110716v -9.21375h 0.110716v 5.13384h 0.110716v 8.20599h 0.110716v -11.6702h 0.110716v 6.21002h 0.110716v -2.16332h 0.110716v -0.293086h 0.110716v -6.54575h 0.110716v 5.40938h 0.110716v 2.95365h 0.110716v -3.50146h 0.110716v 2.87962h
 0.110716v -3.14871h 0.110716v 3.45753h 0.110716v -5.25787h 0.110716v 0.50017h 0.110716v 6.36723h 0.110716v 1.0227h 0.110716v -7.8901h 0.110716v 6.8674h 0.110716v -4.5257h 0.110716v -3.31056h 0.110716v 3.5861h 0.110716v -0.816899h 0.110716v
 -0.528918h 0.110716v 5.93185h 0.110716v -0.993258h 0.110716v -6.69954h 0.110716v 1.76095h 0.110716v 5.26494h 0.110716v -3.64025h 0.110716v -3.86497h 0.110716v -2.89356h 0.110716v 7.61603h 0.110716v -3.25345h 0.110716v -1.705h 0.110716v 1.20483h
 0.110716v -1.89855h 0.110716v 11.6012h 0.110716v -8.94821h 0.110716v 1.31504h 0.110716v -6.14006h 0.110716v 5.34205h 0.110716v 5.93185h 0.110716v -6.19182h 0.110716v 0.788886h 0.110716v -0.788886h 0.110716v 9.45812h 0.110716v -7.57346h 0.110716v
 -3.62655h 0.110716v 4.77714h 0.110716v -4.0467h 0.110716v -1.89855h 0.221432v 1.16811h 0.110716v -2.4958h 0.110716v 5.02658h 0.110716v -3.46997h 0.110716v -3.61217h 0.110716v -0.195805h 0.110716v -6.86111h 0.110716v -4.45842h 0.110716v -6.85586h
 0.110716v -6.83884h 0.110716v 3.93321h 0.110716v 5.03656h 0.110716v 11.7849h 0.110716v 9.00672h 0.110716v -1.61924h 0.110716v 7.60755h 0.110716v -5.50394h 0.110716v -3.82456h 0.110716v -0.410849h 0.110716v 2.13179h 0.110716v 1.38083h 0.110716v
 -5.46353h 0.110716v -3.9439h 0.110716v 4.70452h 0.110716v 1.60113h 0.110716v -1.21117h 0.110716v 2.48966h 0.110716v 9.65954h 0.110716v 1.73066h 0.110716v -10.2677h 0.110716v -1.34059h 0.110716v 19.2061h 0.110716v -8.65178h 0.110716v -8.74895h
 0.110716v 7.09306h 0.110716v 1.31504h 0.110716v -1.31504h 0.110716v -3.54653h 0.110716v -1.33025h 0.110716v -2.44986h 0.110716v 10.3988h 0.110716v -6.06427h 0.110716v 2.67478h 0.110716v 0.965466h 0.110716v -6.28763h 0.110716v 4.09484h 0.110716v
 -4.09484h 0.110716v 2.36851h 0.110716v -4.28687h 0.110716v 4.28687h 0.110716v 1.42946h 0.110716v -5.25153h 0.110716v 4.38324h 0.110716v 6.15009h 0.110716v -6.15009h 0.110716v -4.61681h 0.110716v -0.686824h 0.110716v 8.33524h 0.110716v 2.75036h
 0.110716v -3.38949h 0.110716v -5.07072h 0.110716v -3.72641h 0.110716v 7.27294h 0.110716v -3.79797h 0.110716v -1.21758h 0.110716v 6.22673h 0.110716v -8.69813h 0.110716v 10.6435h 0.110716v -7.20327h 0.110716v -1.89855h 0.110716v 5.36277h 0.110716v
 -4.66904h 0.110716v 2.21628h 0.110716v -0.257063h 0.110716v 3.29231h 0.110716v -4.29277h 0.110716v -1.19233h 0.110716v -1.78784h 0.110716v 2.25739h 0.110716v -6.19981h 0.110716v 1.30438h 0.110716v 9.0427h 0.110716v -1.90699h 0.110716v 0.798007h
 0.110716v -4.41912h 0.110716v -3.12792h 0.110716v 4.27278h 0.110716v 4.10094h 0.110716v -3.62655h 0.110716v 5.37476h 0.110716v -5.13384h 0.110716v 6.06042h 0.110716v -10.0524h 0.110716v 1.47126h 0.110716v 1.80539h 0.110716v -1.14486h 0.110716v
 -2.13179h 0.110716v 3.51262h 0.110716v -7.26186h 0.110716v 5.2205h 0.110716v -0.430048h 0.110716v 5.50969h 0.110716v -2.79987h 0.110716v -2.4958h 0.110716v 2.25739h 0.110716v -0.929699h 0.110716v 5.65217h 0.110716v -3.99968h 0.110716v -0.72279h
 0.110716v 1.46903h 0.110716v -3.51038h 0.110716v 3.01021h 0.110716v -6.43238h 0.110716v -1.97067h 0.110716v 4.33242h 0.110716v -1.60113h 0.110716v 0.987573h 0.110716v 2.78563h 0.110716v 0.693728h 0.110716v -2.23544h 0.110716v 0.214019h 0.110716v
 -2.44551h 0.110716v -0.572816h 0.110716v 1.56039h 0.110716v -0.79342h 0.221432v 2.46739h 0.110716v -7.98791h 0.110716v 1.26097h 0.110716v 2.209h 0.110716v -1.88266h 0.110716v -0.965466h 0.110716v -1.07744h 0.110716v 2.87962h 0.110716v 0.691989h
 0.110716v -1.5287h 0.110716v 4.5257h 0.110716v 0.814489h 0.110716v -5.98831h 0.110716v 4.38718h 0.110716v -3.07214h 0.110716v 2.49933h 0.110716v 3.6726h 0.110716v -1.705h 0.110716v -4.8028h 0.110716v 1.0227h 0.110716v 3.5756h 0.110716v 1.25523h
 0.110716v -3.01833h 0.110716v 1.16026h 0.110716v -1.53436h 0.110716v -0.184795h 0.110716v -0.183323h 0.110716v 3.97658h 0.110716v -3.97658h 0.110716v 2.10168h 0.110716v 0.200935h 0.110716v -0.200935h 0.110716v -5.49116h 0.110716v -9.95035h 0.110716v
 -6.61868h 0.110716v 3.38097h 0.110716v 6.41233h 0.110716v 5.54839h 0.110716v 7.12213h 0.110716v -2.68719h 0.110716v 5.27011h 0.110716v -2.17208h 0.110716v 5.34205h 0.110716v -4.06356h 0.110716v -1.89204h 0.110716v 4.93291h 0.110716v -2.8207h
 0.110716v -1.49865h 0.110716v -0.814489h 0.110716v -0.396681h 0.110716v 6.81616h 0.110716v -0.77997h 0.110716v -1.24392h 0.110716v -4.39559h 0.110716v 0.40364h 0.221432v -1.57374h 0.110716v 4.38559h 0.110716v 2.68108h 0.110716v 0.788886h 0.110716v
 -2.7692h 0.110716v -0.700772h 0.110716v 3.46997h 0.110716v -1.04595h 0.110716v -0.754392h 0.110716v 4.64432h 0.110716v -2.30261h 0.110716v -3.31056h 0.110716v 0.238416h 0.110716v -2.92187h 0.110716v 1.30263h 0.110716v -0.87656h 0.110716v 9.43626h
 0.110716v -8.10857h 0.110716v -1.54171h 0.110716v 5.78197h 0.110716v -6.41233h 0.110716v 4.5708h 0.110716v 7.04395h 0.110716v -8.74895h 0.110716v 2.73919h 0.110716v -1.53436h 0.110716v -3.22624h 0.110716v -0.214019h 0.110716v 0.214019h 0.110716v
 0.87656h 0.110716v 4.15003h 0.221432v -3.00517h 0.110716v -6.32333h 0.110716v 3.04668h 0.110716v 1.9095h 0.110716v 2.08245h 0.110716v -5.94286h 0.110716v 0.187813h 0.110716v 5.75504h 0.110716v -1.1801h 0.110716v -1.12251h 0.110716v 2.54607h
 0.110716v 0.246066h 0.110716v -0.489527h 0.110716v -1.6357h 0.110716v -3.35238h 0.110716v 1.40697h 0.110716v 1.49865h 0.110716v -3.86041h 0.110716v 1.34807h 0.221432v 5.33304h 0.110716v -1.21758h 0.110716v -3.71533h 0.110716v -0.987573h 0.110716v
 4.23336h 0.110716v 11.5213h 0.110716v -12.6549h 0.110716v -0.220163h 0.110716v -2.48966h 0.110716v 3.15657h 0.110716v -1.52709h 0.110716v 4.4067h 0.110716v -4.4067h 0.110716v 0.212047h 0.110716v -0.422157h 0.110716v 0.422157h 0.110716v 2.23544h
 0.110716v -4.85039h 0.110716v 5.80915h 0.110716v -4.23541h 0.110716v 2.81185h 0.110716v -2.401h 0.110716v 0.208209h 0.110716v 0.636176h 0.110716v 2.98018h 0.110716v 1.51749h 0.110716v -6.35574h 0.110716v 3.18576h 0.110716v -0.226671h 0.110716v
 -1.10102h 0.110716v 4.76061h 0.110716v -4.97463h 0.110716v 3.68899h 0.110716v -1.91835h 0.110716v 2.94105h 0.110716v -2.94105h 0.110716v -1.12251h 0.110716v 2.0617h 0.110716v -2.27978h 0.110716v -1.67397h 0.110716v 0.821763h 0.110716v 1.29045h
 0.110716v -4.0467h 0.110716v 2.54805h 0.110716v -3.27849h 0.110716v 4.77714h 0.110716v -2.70982h 0.110716v -1.52167h 0.110716v 11.4478h 0.110716v -10.6995h 0.110716v 5.08636h 0.110716v 4.43307h 0.110716v -10.0829h 0.110716v -0.730439h 0.110716v
 6.85959h 0.110716v -3.99195h 0.110716v 5.7529h 0.110716v -1.76095h 0.110716v -2.52069h 0.110716v -0.642095h 0.110716v -2.21197h 0.110716v 3.29231h 0.110716v -3.86041h 0.110716v 7.96675h 0.110716v 2.21925h 0.110716v -4.95844h 0.110716v 1.95922h
 0.110716v -2.42402h 0.110716v 2.42402h 0.110716v 3.29231h 0.110716v -4.53623h 0.110716v 2.83123h 0.110716v 7.74119h 0.110716v -1.84154h 0.110716v -1.37396h 0.110716v 0.676723h 0.110716v -0.676723h 0.110716v -0.657385h 0.110716v 4.65285h 0.110716v
 -4.97463h 0.110716v -1.84154h 0.110716v 4.55136h 0.110716v -0.707961h 0.110716v -4.13648h 0.110716v 7.91659h 0.110716v -7.91659h 0.110716v 8.33114h 0.110716v -3.48669h 0.110716v -1.05394h 0.110716v 4.96279h 0.110716v -3.17841h 0.110716v -3.7576h
 0.110716v 3.02717h 0.110716v -2.0617h 0.110716v -0.648125h 0.110716v 0.648125h 0.110716v 5.54839h 0.110716v -8.03805h 0.110716v -0.582484h 0.110716v 9.47274h 0.110716v 3.25894h 0.110716v -2.37395h 0.110716v -0.44675h 0.110716v -1.705h 0.110716v
 -2.34171h 0.110716v -0.730439h 0.110716v 6.14429h 0.110716v -5.41385h 0.110716v -0.368118h 0.221432v -1.41626h 0.110716v 1.78438h 0.110716v 2.34171h 0.110716v 0.836707h 0.110716v -0.836707h 0.110716v -4.46693h 0.110716v 4.05972h 0.110716v -0.40013h
 0.110716v -4.97463h 0.110716v -6.37776h 0.110716v -3.99195h 0.110716v -4.43097h 0.110716v 4.22827h 0.110716v 10.2551h 0.110716v 6.51386h 0.110716v 1.7372h 0.110716v 7.38309h 0.110716v -9.94205h 0.110716v 3.47936h 0.110716v 5.84914h 0.110716v
 -3.88992h 0.110716v -8.10351h 0.110716v 8.10351h 0.110716v 2.14172h 0.110716v -6.33638h 0.110716v -1.64405h 0.110716v -0.77997h 0.110716v 9.91098h 0.110716v -7.05692h 0.110716v -3.60846h 0.110716v 23.8373h 0.110716v -14.8769h 0.110716v -4.46693h
 0.110716v 12.9881h 0.110716v -11.1089h 0.110716v -0.484374h 0.221432v -0.474386h 0.110716v 19.4937h 0.110716v -18.0402h 0.110716v 9.83417h 0.110716v -6.03619h 0.110716v -3.79797h 0.110716v -1.45355h 0.110716v 6.4627h 0.110716v -7.38309h 0.110716v
 10.7233h 0.110716v -6.25635h 0.110716v 2.30261h 0.110716v -2.30261h 0.110716v 0.55441h 0.110716v 2.99212h 0.110716v 5.78197h 0.110716v -14.2422h 0.110716v 15.9472h 0.110716v -8.11733h 0.110716v 1.27849h 0.110716v -3.07214h 0.110716v 9.0427h
 0.110716v -7.24904h 0.110716v -4.50348h 0.110716v 5.13384h 0.110716v 0.648125h 0.110716v -6.78243h 0.110716v 8.13616h 0.110716v -2.00186h 0.110716v -2.42402h 0.110716v -1.12251h 0.110716v 3.54653h 0.110716v 11.3304h 0.110716v -5.54839h 0.110716v
 1.705h 0.110716v -3.29231h 0.110716v -6.03619h 0.110716v 1.21117h 0.110716v 0.630366h 0.110716v 9.3285h 0.110716v -9.95886h 0.110716v -2.36175h 0.110716v 11.3814h 0.110716v -2.60734h 0.110716v 1.705h 0.110716v -1.705h 0.110716v -7.6235h 0.110716v
 8.46021h 0.110716v -1.64405h 0.110716v 0.807343h 0.110716v -1.58731h 0.110716v 0.77997h 0.110716v -2.2648h 0.110716v -4.55136h 0.110716v 10.2308h 0.110716v 4.01133h 0.110716v -4.91368h 0.110716v -0.868288h 0.110716v 12.0383h 0.110716v 3.07214h
 0.110716v -13.3398h 0.110716v 7.55786h 0.110716v 2.70982h 0.110716v 3.07214h 0.110716v -18.2889h 0.110716v 2.34171h 0.221432v 4.5257h 0.110716v -6.11301h 0.110716v -5.43858h 0.110716v 5.43858h 0.110716v 9.3285h 0.110716v -8.54853h 0.110716v 7.42602h
 0.221432v -7.42602h 0.110716v 3.41469h 0.110716v 1.91835h 0.110716v 4.39559h 0.110716v -3.37289h 0.110716v -10.0153h 0.110716v 12.2081h 0.110716v 2.42402h 0.110716v -2.42402h 0.110716v -6.03619h 0.110716v 0.902347h 0.110716v -3.41469h 0.110716v
 4.35387h 0.110716v -3.54653h 0.110716v 2.60734h 0.221432v 10.2677h 0.110716v -8.34933h 0.110716v 13.1265h 0.110716v -9.91098h 0.110716v 2.42402h 0.110716v -4.61681h 0.110716v -2.00186h 0.110716v 6.61868h 0.110716v -2.42402h 0.110716v -7.74119h
 0.110716v 7.74119h 0.110716v 6.61868h 0.221432v -10.8133h 0.110716v -1.84154h 0.110716v 6.03619h 0.110716v -6.03619h 0.110716v 6.03619h 0.110716v -6.90448h 0.110716v 5.78197h 0.110716v 7.74119h 0.221432v -9.83417h 0.110716v -0.979165h 0.110716v
 -2.70982h 0.110716v 3.68899h 0.110716v 4.39559h 0.110716v -10.5086h 0.110716v 3.29231h 0.110716v 11.17h 0.110716v -5.13384h 0.110716v -4.19466h 0.110716v 4.19466h 0.110716v -1.12251h 0.110716v 6.25635h 0.110716v -1.39479h 0.110716v 10.0153h
 0.110716v -15.9472h 0.221432v -4.71169h 0.110716v -3.90885h 0.110716v 3.90885h 0.110716v 3.68899h 0.110716v -13.2998h 0.110716v -30.5958h 0.110716v -19.3874h 0.110716v -15.299h 0.110716v -7.85827h 0.110716v -0.599412h 0.110716v 10.0215h 0.110716v
 20.6973h 0.110716v 30.7142h 0.110716v 8.68037h 0.110716v 14.1056h 0.110716v 0.902347h 0.110716v 1.91835h 0.110716v 4.39559h 0.110716v 8.73088h 0.110716v -6.17193h 0.110716v 14.6321h 0.110716v -20.564h 0.110716v -2.00186h 0.221432v 22.5658h 0.110716v
 -6.61868h 0.110716v -14.968h 0.110716v 4.39559h 0.110716v 3.95374h 0.110716v 1.48483h 0.110716v -4.19466h 0.110716v 41.2228h 0.110716v -45.8397h 0.110716v 1.07028h 0.110716v -4.91368h 0.110716v 30.1894h 0.110716v 3.54653h 0.110716v -28.8222h
 0.110716v 14.8769h 0.110716v 10.3988h 0.110716v -10.3988h 0.110716v -8.62054h 0.110716v -2.70982h 0.110716v 2.70982h 0.110716v 6.61868h 0.110716v 20.1418h 0.110716v -20.1418h 0.110716v -19.4937h 0.110716v 23.6884h 0.110716v -2.19279h 0.110716v
 -8.62054h 0.110716v 1.48483h 0.110716v -8.81147h 0.110716v 12.1038h 0.110716v -8.73088h 0.110716v 12.5743h 0.110716v -3.8434h 0.110716v 1.84154h 0.221432v 9.3285h 0.110716v -12.875h 0.110716v 15.9472h 0.110716v -31.0576h 0.110716v 6.90448h 0.221432v
 15.9472h 0.221432v 68.9225h 0.110716v -89.0644h 0.110716v 14.1056h 0.110716v -8.73088h 0.221432v 30.7142h 0.110716v -39.6355h 0.110716v 19.4937h 0.110716v -3.54653h 0.110716v -8.20599h 0.110716v 8.20599h 0.221432v -3.07214h 0.110716v 8.62054h
 0.110716v -8.62054h 0.110716v 15.9472h 0.110716v -21.081h 0.110716v -6.03619h 0.110716v -8.73088h 0.110716v -25.8733h 0.110716v -23.7164h 0.110716v -22.6534h 0.110716v -14.5147h 0.110716v -8.22411h 0.110716v 0.80386h 0.110716v 10.4566h 0.110716v
 19.6694h 0.110716v 22.5285h 0.110716v 31.795h 0.110716v 19.3619h 0.110716v -0.902347h 0.110716v -2.51234h 0.110716v 3.41469h 0.110716v -8.38931h 0.110716v 9.3285h 0.110716v -17.342h 0.110716v -0.44675h 0.110716v -3.6726h 0.110716v 4.57494h 0.110716v
 12.5325h 0.110716v 5.33304h 0.110716v 6.95455h 0.110716v 10.0153h 0.110716v -7.13571h 0.110716v 11.7525h 0.221432v -14.6321h 0.221432v 1.39479h 0.110716v 4.77714h 0.110716v -16.8155h 0.110716v 9.3285h 0.221432v 1.31504h 0.110716v 23.9606h 0.110716v
 -30.9152h 0.110716v 6.95455h 0.110716v 49.2363h 0.110716v -31.8943h 0.110716v -11.17h 0.110716v 17.7887h 0.221432v -9.3285h 0.110716v -8.46021h 0.110716v -6.17193h 0.110716v 20.4141h 0.110716v 3.54653h 0.110716v -21.081h 0.110716v 11.7525h 0.110716v
 -18.3712h 0.221432v 18.3712h 0.110716v 5.78197h 0.110716v -19.0193h 0.110716v 10.8133h 0.110716v -20.1418h 0.110716v 12.4006h 0.110716v 15.9472h 0.110716v -5.78197h 0.110716v 66.4985h 0.110716v -63.7887h 0.110716v -17.342h 0.110716v 49.2363h
 0.110716v -44.7694h 0.110716v 7.74119h 0.110716v -4.19466h 0.110716v -8.01346h 0.110716v 17.342h 0.110716v -22.2035h 0.110716v 19.4937h 0.110716v -11.7525h 0.110716v 17.5345h 0.110716v 3.54653h 0.110716v -30.9152h 0.110716v 11.4215h 0.110716v
 15.9472h 0.110716v 3.54653h 0.110716v -21.081h 0.221432v 25.2757h 0.110716v -4.19466h 0.110716v -3.54653h 0.110716v 7.74119h 0.110716v -20.1418h 0.221432v 2.00186h 0.110716v -7.13571h 0.110716v 3.29231h 0.110716v 14.2422h 0.110716v -8.20599h
 0.110716v -9.3285h 0.110716v -5.43858h 0.221432v 5.43858h 0.110716v -9.83417h 0.110716v 4.39559h 0.110716v -20.3428h 0.110716v -8.99263h 0.110716v -11.4802h 0.110716v 1.48483h 0.110716v 2.79214h 0.110716v 7.54412h 0.110716v 17.0011h 0.110716v
 13.2374h 0.110716v 4.19466h 0.110716v 1.58731h 0.110716v 3.54653h 0.110716v -1.84154h 0.110716v -4.77714h 0.110716v 6.61868h 0.110716v -13.9453h 0.221432v -2.00186h 0.110716v -7.32664h 0.110716v 11.5213h 0.110716v 1.1801h 0.110716v 5.43858h
 0.110716v 37.0282h 0.110716v -6.61868h 0.110716v -12.875h 0.110716v 28.8222h 0.110716v -31.8943h 0.110716v 63.7887h 0.110716v -79.7359h 0.110716v 4.77714h 0.221432v 6.03619h 0.110716v -10.8133h 0.110716v -5.13384h 0.110716v 15.9472h 0.110716v
 8.20599h 0.110716v 19.4937h 0.110716v -19.4937h 0.110716v 12.875h 0.110716v -25.2757h 0.110716v 9.3285h 0.110716v 6.61868h 0.110716v -11.7525h 0.221432v -10.8133h 0.110716v 22.5658h 0.110716v -9.3285h 0.110716v 13.5232h 0.110716v -20.1418h 0.110716v
 57.17h 0.110716v -52.9754h 0.110716v 68.9225h 0.110716v -79.7359h 0.110716v 22.5658h 0.110716v -3.54653h 0.110716v 28.8222h 0.110716v -15.9472h 0.110716v -27.1172h 0.110716v -11.0335h 0.110716v 85.9922h 0.110716v -60.7166h 0.332148v -14.2422h
 0.110716v 17.7887h 0.110716v -32.8335h 0.110716v -9.01968h 0.110716v -12.9637h 0.110716v -19.6951h 0.110716v -23.4508h 0.110716v -24.7266h 0.110716v -18.1955h 0.110716v -13.8512h 0.110716v -6.22544h 0.110716v 1.61365h 0.110716v 9.2552h 0.110716v
 17.8903h 0.110716v 23.4738h 0.110716v 27.3735h 0.110716v 21.4753h 0.110716v 15.6649h 0.110716v 7.18678h 0.110716v 4.19466h 0.110716v 8.8729h 0.110716v 39.9078h 0.110716v -43.6469h 0.110716v -1.12251h 0.110716v 17.0697h 0.110716v 8.20599h 0.110716v
 7.74119h 0.110716v -4.19466h 0.110716v 9.3285h 0.110716v -9.3285h 0.110716v -3.54653h 0.110716v 7.74119h 0.110716v 11.7525h 0.110716v -39.9078h 0.110716v 39.9078h 0.110716v -22.5658h 0.110716v -9.3285h 0.110716v 12.4006h 0.110716v -20.4141h
 0.110716v 20.4141h 0.110716v -3.07214h 0.110716v 15.9472h 0.110716v 6.61868h 0.110716v -6.61868h 0.110716v 6.61868h 0.110716v -27.6997h 0.110716v 8.20599h 0.110716v -3.07214h 0.110716v 3.07214h 0.110716v -10.3988h 0.110716v 39.221h 0.110716v
 -28.8222h 0.332148v -8.20599h 0.110716v -2.19279h 0.110716v 23.2738h 0.110716v -25.2757h 0.110716v 15.9472h 0.110716v 9.3285h 0.110716v -12.875h 0.110716v 3.54653h 0.110716v 9.3285h 0.110716v -9.3285h 0.110716v -22.5658h 0.110716v 22.5658h 0.110716v
 4.19466h 0.110716v -4.19466h 0.110716v 57.17h 0.110716v -52.9754h 0.110716v 52.9754h 0.110716v -66.4985h 0.110716v 50.5513h 0.110716v -44.7694h 0.110716v -15.9472h 0.110716v 5.54839h 0.110716v -5.54839h 0.110716v -3.07214h 0.110716v 15.9472h
 0.110716v 6.61868h 0.110716v -11.7525h 0.110716v 8.20599h 0.110716v 7.74119h 0.110716v -13.5232h 0.221432v 25.2757h 0.110716v -22.5658h 0.110716v 10.8133h 0.110716v -7.74119h 0.110716v -8.20599h 0.110716v -7.74119h 0.110716v -11.4215h 0.110716v
 -14.9245h 0.110716v -27.1172h 0.110716v -19.8585h 0.110716v -14.906h 0.110716v -7.45538h 0.110716v 0.102939h 0.110716v 6.55h 0.110716v 15.2382h 0.110716v 19.0764h 0.110716v 28.3696h 0.110716v -4.28164h 0.110716v -8.59339h 0.110716v -13.0875h
 0.110716v -11.17h 0.110716v 0.526497h 0.110716v 2.59031h 0.110716v 11.1254h 0.110716v 12.2081h 0.110716v 26.6294h 0.110716v 26.346h 0.110716v -3.07214h 0.110716v 3.07214h 0.221432v -20.4141h 0.110716v -2.55896h 0.110716v -14.0551h 0.110716v -7.2668h
 0.110716v 4.19466h 0.110716v 2.42402h 0.110716v -1.24392h 0.110716v 14.7671h 0.110716v 37.0282h 0.110716v -5.13384h 0.110716v 37.0282h 0.110716v -25.2757h 0.110716v 41.2228h 0.221432v -41.2228h 0.110716v 41.2228h 0.332148v -41.2228h 0.110716v
 41.2228h 0.110716v -41.2228h 0.110716v 41.2228h 0.110716v -41.2228h 0.110716v -15.9472h 0.110716v 57.17h 0.110716v -15.9472h 0.332148v 15.9472h 0.221432v -31.8943h 0.110716v 31.8943h 0.221432v -31.8943h 0.110716v 31.8943h 0.221432v -66.4985h
 0.110716v 66.4985h 0.110716v -15.9472h 0.110716v 15.9472h 0.110716v -47.8415h 0.110716v 47.8415h 0.110716v -15.9472h 0.110716v 15.9472h 0.110716v -47.8415h 0.110716v 31.8943h 0.110716v 15.9472h 0.221432v -66.4985h 0.110716v 13.5232h 0.221432v
 21.081h 0.221432v -9.3285h 0.221432v -11.7525h 0.110716v 37.0282h 0.110716v 15.9472h 0.221432v -57.17h 0.110716v 9.3285h 0.110716v 47.8415h 0.221432v -15.9472h 0.110716v -41.2228h 0.110716v 57.17h 0.110716v -47.8415h 0.110716v 47.8415h 0.110716v
 -57.17h 0.110716v 4.19466h 0.110716v 21.081h 0.110716v 15.9472h 0.221432v -60.7166h 0.110716v 1.705h 0.110716v 11.17h 0.110716v -26.2149h 0.110716v -0.902347h 0.110716v -9.3285h 0.110716v 21.9834h 0.110716v 9.3285h 0.110716v 52.9754h 0.110716v
 -15.9472h 0.221432v 31.8943h 0.110716v -52.9754h 0.110716v -4.19466h 0.110716v -6.61868h 0.110716v -12.875h 0.110716v 3.54653h 0.110716v -9.3285h 0.110716v 11.3304h 0.110716v 29.8925h 0.221432v 25.2757h 0.110716v -25.2757h 0.110716v 25.2757h
 0.110716v -15.9472h 0.332148v -21.081h 0.110716v 52.9754h 0.110716v -52.9754h 0.110716v 21.081h 0.110716v -15.9472h 0.110716v 6.61868h 0.110716v 9.3285h 0.110716v -21.081h 0.110716v 52.9754h 0.110716v -31.8943h 0.110716v 31.8943h 0.110716v -15.9472h
 0.110716v 15.9472h 0.110716v -31.8943h 0.442863v 31.8943h 0.332148v -47.8415h 0.110716v 47.8415h 0.110716v -15.9472h 0.221432v -37.0282h 0.110716v 21.081h 0.110716v -15.9472h 0.110716v 15.9472h 0.221432v 15.9472h 0.110716v 15.9472h 0.110716v -57.17h
 0.110716v 9.3285h 0.110716v 47.8415h 0.110716v -15.9472h 0.110716v 15.9472h 0.221432v -41.2228h 0.110716v -11.7525h 0.110716v 37.0282h 0.110716v -41.2228h 0.110716v 25.2757h 0.110716v -34.6042h 0.110716v -13.2374h 0.110716v -25.7501h 0.110716v
 -12.6729h 0.110716v -7.54703h 0.110716v 0.996126h 0.110716v 7.37759h 0.110716v 12.3206h 0.110716v 23.8809h 0.110716v 39.9078h 0.110716v -11.7525h 0.110716v 11.7525h 0.110716v 41.2228h 0.110716v -41.2228h 0.110716v 9.3285h 0.110716v 15.9472h
 0.332148v 15.9472h 0.221432v -31.8943h 0.110716v 31.8943h 0.221432v -15.9472h 0.110716v 15.9472h 0.221432v -52.9754h 0.110716v 52.9754h 0.221432v -15.9472h 0.110716v 15.9472h 1.21787v -15.9472h 0.110716v 15.9472h 0.332148v -31.8943h 0.110716v
 31.8943h 0.221432v -31.8943h 0.110716v 15.9472h 0.110716v 15.9472h 0.110716v -41.2228h 0.110716v 41.2228h 0.442863v -63.7887h 0.110716v 31.8943h 0.221432v 31.8943h 0.110716v -15.9472h 0.110716v 15.9472h 0.221432v -31.8943h 0.110716v 31.8943h
 0.110716v -15.9472h 0.110716v 15.9472h 0.553579v -31.8943h 0.110716v 31.8943h 0.110716v -57.17h 0.110716v 57.17h 0.442863v -15.9472h 0.110716v 15.9472h 0.332148v -31.8943h 0.110716v -21.081h 0.110716v 52.9754h 0.885727v -52.9754h 0.110716v 52.9754h
 0.332148v -31.8943h 0.110716v 31.8943h 0.110716v -15.9472h 0.110716v -25.2757h 0.110716v 25.2757h 0.110716v -15.9472h 0.332148v 31.8943h 0.885727v -52.9754h 0.110716v 52.9754h 0.221432v -41.2228h 0.110716v 41.2228h 0.110716v -15.9472h 0.110716v
 -37.0282h 0.110716v 52.9754h 0.332148v -41.2228h 0.110716v 25.2757h 0.110716v 15.9472h 0.332148v -31.8943h 0.110716v -28.8222h 0.110716v 60.7166h 0.110716v -31.8943h 0.221432v 31.8943h 1.21787v -31.8943h 0.110716v 31.8943h 0.332148v -15.9472h
 0.110716v 15.9472h 0.110716v -31.8943h 0.110716v 31.8943h 0.110716v -41.2228h 0.110716v 41.2228h 1.10716v -57.17h 0.110716v 57.17h 0.110716v -31.8943h 0.221432v 15.9472h 0.110716v 15.9472h 0.110716v -41.2228h 0.110716v 41.2228h 0.221432v -15.9472h
 0.110716v 15.9472h 0.332148v -15.9472h 0.110716v 15.9472h 0.221432v -31.8943h 0.110716v 31.8943h 0.664295v -15.9472h 0.110716v 15.9472h 0.332148v -52.9754h 0.110716v 11.7525h 0.221432v 25.2757h 0.110716v 15.9472h 0.996443v -47.8415h 0.221432v
 15.9472h 0.221432v 31.8943h 0.110716v -31.8943h 0.110716v 15.9472h 0.110716v 15.9472h 0.110716v -15.9472h 0.110716v 15.9472h 0.553579v -15.9472h 0.221432v 15.9472h 0.553579v -31.8943h 0.110716v 31.8943h 0.332148v -15.9472h 0.110716v 15.9472h
 0.442863v -15.9472h 0.110716v -31.8943h 0.110716v 31.8943h 0.221432v 15.9472h 0.442863v -15.9472h 0.110716v 15.9472h 0.553579v -15.9472h 0.110716v 15.9472h 0.221432v -52.9754h 0.110716v 52.9754h 0.110716v -47.8415h 0.110716v 6.61868h 0.110716v
 41.2228h 0.442863v -15.9472h 0.110716v 15.9472h 0.110716v -15.9472h 0.110716v 15.9472h 0.221432v -52.9754h 0.110716v 5.13384h 0.110716v 47.8415h 0.110716v -15.9472h 0.110716v 15.9472h 0.553579v -47.8415h 0.110716v -5.13384h 0.110716v 52.9754h
 0.221432v -15.9472h 0.110716v -31.8943h 0.110716v 47.8415h 0.110716v -31.8943h 0.110716v 31.8943h 0.221432v -47.8415h 0.110716v 47.8415h 0.775011v -52.9754h 0.110716v 52.9754h 0.221432v -15.9472h 0.110716v 15.9472h 0.553579v -31.8943h 0.110716v
 31.8943h 0.664295v -15.9472h 0.110716v -25.2757h 0.110716v 41.2228h 0.885727v -31.8943h 0.110716v 31.8943h 1.43931v -15.9472h 0.110716v 15.9472h 0.664295v -15.9472h 0.110716v -25.2757h 0.110716v 41.2228h 0.553579v -15.9472h 0.110716v -31.8943h
 0.110716v 15.9472h 0.110716v 31.8943h 0.442863v -15.9472h 0.221432v 15.9472h 0.553579v -41.2228h 0.110716v 41.2228h 0.110716v -31.8943h 0.110716v 31.8943h 0.221432v -15.9472h 0.110716v -15.9472h 0.110716v 15.9472h 0.110716v 15.9472h 0.110716v
 -52.9754h 0.110716v 52.9754h 0.221432v -31.8943h 0.110716v 15.9472h 0.332148v 15.9472h 0.110716v -31.8943h 0.110716v 15.9472h 0.110716v 15.9472h 0.110716v -31.8943h 0.110716v 31.8943h 0.442863v -15.9472h 0.110716v 15.9472h 0.110716v -15.9472h
 0.110716v 15.9472h 0.221432v -52.9754h 0.110716v 52.9754h 0.553579v -31.8943h 0.110716v 31.8943h 0.221432v -31.8943h 0.110716v 31.8943h 0.110716v -15.9472h 0.110716v 15.9472h 0.332148v -15.9472h 0.110716v 15.9472h 0.110716v -15.9472h 0.221432v
 15.9472h 0.221432v -15.9472h 0.110716v 15.9472h 0.110716v -15.9472h 0.110716v 15.9472h 0.221432v -31.8943h 0.110716v 31.8943h 0.442863v -31.8943h 0.221432v 31.8943h 0.885727v -47.8415h 0.110716v 15.9472h 0.110716v 31.8943h 0.221432v -41.2228h
 0.110716v 41.2228h 0.221432v -31.8943h 0.110716v -9.3285h 0.110716v 25.2757h 0.110716v -15.9472h 0.110716v 31.8943h 0.221432v -68.9225h 0.110716v 68.9225h 0.110716v -15.9472h 0.110716v 15.9472h 0.332148v -31.8943h 0.110716v 15.9472h 0.110716v
 15.9472h 0.110716v -41.2228h 0.110716v 25.2757h 0.110716v -15.9472h 0.110716v 31.8943h 0.110716v -15.9472h 0.110716v 15.9472h 0.110716v -41.2228h 0.110716v 41.2228h 0.110716v -31.8943h 0.110716v 31.8943h 0.332148v -15.9472h 0.110716v -25.2757h
 0.110716v 41.2228h 0.110716v -15.9472h 0.110716v 15.9472h 0.110716v -31.8943h 0.110716v 31.8943h 0.110716v -15.9472h 0.110716v -37.0282h 0.110716v 52.9754h 0.442863v -41.2228h 0.110716v 41.2228h 0.775011v -31.8943h 0.110716v 31.8943h 0.221432v
 -15.9472h 0.332148v -41.2228h 0.110716v 57.17h 0.332148v -31.8943h 0.110716v 31.8943h 0.553579v -15.9472h 0.110716v 15.9472h 0.221432v -15.9472h 0.110716v -15.9472h 0.110716v 31.8943h 0.553579v -31.8943h 0.110716v 31.8943h 0.110716v -47.8415h
 0.110716v 31.8943h 0.110716v 15.9472h 0.110716v -47.8415h 0.110716v 47.8415h 0.332148v -41.2228h 0.110716v 41.2228h 0.332148v -15.9472h 0.110716v 15.9472h 0.996443v -15.9472h 0.110716v 15.9472h 0.442863v -47.8415h 0.110716v 47.8415h 0.442863v
 -52.9754h 0.110716v 52.9754h 0.553579v -15.9472h 0.110716v 15.9472h 0.110716v -47.8415h 0.110716v 47.8415h 0.885727v -41.2228h 0.110716v 9.3285h 0.110716v -21.081h 0.110716v 52.9754h 0.332148v -41.2228h 0.110716v 41.2228h 0.885727v -31.8943h
 0.110716v 31.8943h 0.221432v -57.17h 0.110716v 25.2757h 0.221432v -15.9472h 0.110716v 47.8415h 0.442863v -15.9472h 0.110716v -15.9472h 0.110716v 31.8943h 0.332148v -31.8943h 0.110716v 31.8943h 0.221432v -31.8943h 0.110716v 31.8943h 1.21787v
 -31.8943h 0.110716v 31.8943h 0.664295v -15.9472h 0.110716v -25.2757h 0.110716v 41.2228h 0.664295v -15.9472h 0.110716v 15.9472h 0.332148v -31.8943h 0.221432v 31.8943h 0.110716v -15.9472h 0.110716v 15.9472h 0.221432v -31.8943h 0.110716v 15.9472h
 0.110716v 15.9472h 1.10716v -15.9472h 0.110716v 15.9472h 0.221432v -60.7166h 0.110716v 28.8222h 0.110716v 31.8943h 0.664295v -41.2228h 0.110716v 41.2228h 0.775011v -31.8943h 0.110716v 31.8943h 0.221432v -15.9472h 0.110716v 15.9472h 1.55002v
 -31.8943h 0.110716v 31.8943h 0.110716v -15.9472h 0.110716v 15.9472h 0.442863v -31.8943h 0.110716v 31.8943h 0.110716v -15.9472h 0.110716v 15.9472h 0.221432v -15.9472h 0.332148v 15.9472h 0.332148v -15.9472h 0.221432v 15.9472h 0.553579v -15.9472h
 0.110716v -15.9472h 0.221432v 31.8943h 0.221432v -15.9472h 0.110716v 15.9472h 0.110716v -31.8943h 0.110716v 31.8943h 3.54291v -47.8415h 0.110716v 47.8415h 0.110716v -15.9472h 0.110716v 15.9472h 0.110716v -15.9472h 0.110716v 15.9472h 0.553579v
 -15.9472h 0.110716v 15.9472h 0.221432v -15.9472h 0.110716v 15.9472h 0.442863v -15.9472h 0.221432v 15.9472h 0.442863v -31.8943h 0.110716v 31.8943h 0.553579v -41.2228h 0.110716v 41.2228h 0.221432v -31.8943h 0.110716v 31.8943h 0.332148v -15.9472h
 0.110716v 15.9472h 1.10716v -15.9472h 0.110716v 15.9472h 0.221432v -15.9472h 0.221432v -31.8943h 0.110716v 47.8415h 0.442863v -31.8943h 0.110716v 31.8943h 0.332148v -31.8943h 0.110716v 15.9472h 0.110716v 15.9472h 0.221432v -15.9472h 0.110716v
 15.9472h 0.110716v -31.8943h 0.110716v 31.8943h 0.775011v -31.8943h 0.110716v 15.9472h 0.110716v 15.9472h 0.442863v -31.8943h 0.110716v 31.8943h 0.110716v -41.2228h 0.110716v 41.2228h 0.332148v -15.9472h 0.221432v 15.9472h 0.332148v -31.8943h
 0.110716v 31.8943h 0.775011v -31.8943h 0.110716v 15.9472h 0.110716v -25.2757h 0.110716v 41.2228h 0.664295v -15.9472h 0.110716v 15.9472h 0.110716v -15.9472h 0.110716v 15.9472h 0.221432v -15.9472h 0.110716v 15.9472h 0.221432v -15.9472h 0.110716v
 15.9472h 0.332148v -15.9472h 0.110716v 15.9472h 0.110716v -31.8943h 0.110716v 31.8943h 0.110716v -15.9472h 0.110716v 15.9472h 0.221432v -31.8943h 0.110716v 31.8943h 0.110716v -15.9472h 0.221432v -15.9472h 0.110716v 31.8943h 0.221432v -41.2228h
 0.110716v 41.2228h 0.221432v -15.9472h 0.110716v 15.9472h 0.996443v -31.8943h 0.110716v 31.8943h 0.332148v -15.9472h 0.110716v 15.9472h 0.442863v -15.9472h 0.221432v 15.9472h 0.221432v -15.9472h 0.110716v 15.9472h 0.221432v -15.9472h 0.110716v
 15.9472h 0.221432v -15.9472h 0.110716v 15.9472h 1.43931v -15.9472h 0.110716v 15.9472h 0.664295v -15.9472h 0.110716v 15.9472h 0.110716v -41.2228h 0.110716v 41.2228h 0.442863v -31.8943h 0.110716v 15.9472h 0.110716v 15.9472h 0.110716v -15.9472h
 0.110716v -25.2757h 0.110716v 41.2228h 0.110716v -15.9472h 0.110716v 15.9472h 0.332148v -15.9472h 0.110716v 15.9472h 0.110716v -15.9472h 0.221432v 15.9472h 0.442863v -31.8943h 0.110716v 31.8943h 0.110716v -41.2228h 0.110716v 41.2228h 0.221432v
 -15.9472h 0.221432v 15.9472h 0.110716v -15.9472h 0.110716v 15.9472h 1.66074v -31.8943h 0.110716v 15.9472h 0.110716v 15.9472h 0.442863v -41.2228h 0.110716v 41.2228h 0.332148v -15.9472h 0.110716v 15.9472h 0.442863v -31.8943h 0.110716v 15.9472h
 0.110716v 15.9472h 0.553579v -15.9472h 0.221432v 15.9472h 0.553579v -31.8943h 0.110716v 31.8943h 0.996443v -15.9472h 0.110716v 15.9472h 0.442863v -15.9472h 0.110716v 15.9472h 0.332148v -31.8943h 0.110716v 31.8943h 0.110716v -47.8415h 0.110716v
 47.8415h 0.221432v -31.8943h 0.110716v 31.8943h 0.664295v -31.8943h 0.110716v -9.3285h 0.110716v 9.3285h 0.110716v 31.8943h 0.221432v -31.8943h 0.110716v 31.8943h 0.110716v -31.8943h 0.110716v 15.9472h 0.110716v 15.9472h 0.221432v -41.2228h
 0.110716v 41.2228h 0.221432v -31.8943h 0.110716v 31.8943h 0.442863v -31.8943h 0.110716v 31.8943h 0.664295v -15.9472h 0.110716v 15.9472h 0.110716v -15.9472h 0.110716v 15.9472h 0.553579v -15.9472h 0.110716v 15.9472h 0.110716v -15.9472h 0.110716v
 15.9472h 0.110716v -15.9472h 0.110716v 15.9472h 0.442863v -31.8943h 0.110716v 31.8943h 0.221432v -31.8943h 0.110716v 15.9472h 0.110716v 15.9472h 1.88217v -15.9472h 0.110716v 15.9472h 0.110716v -15.9472h 0.110716v 15.9472h 0.553579v -47.8415h
 0.110716v 47.8415h 0.110716v -15.9472h 0.110716v 15.9472h 0.442863v -31.8943h 0.110716v 31.8943h 0.221432v -15.9472h 0.110716v 15.9472h 0.442863v -52.9754h 0.110716v 52.9754h 0.221432v -15.9472h 0.110716v 15.9472h 0.553579v -31.8943h 0.110716v
 15.9472h 0.110716v 15.9472h 0.332148v -15.9472h 0.110716v 15.9472h 0.221432v -15.9472h 0.110716v 15.9472h 0.110716v -15.9472h 0.110716v 15.9472h 0.110716v -15.9472h 0.110716v 15.9472h 1.77145v -15.9472h 0.110716v 15.9472h 0.110716v -31.8943h
 0.110716v 31.8943h 0.221432v -31.8943h 0.110716v 31.8943h 0.332148v -15.9472h 0.221432v 15.9472h 0.442863v -15.9472h 0.110716v 15.9472h 0.221432v -15.9472h 0.110716v 15.9472h 0.110716v -41.2228h 0.110716v 41.2228h 1.21787v -31.8943h 0.110716v
 31.8943h 0.332148v -15.9472h 0.110716v 15.9472h 0.775011v -31.8943h 0.110716v 31.8943h 0.775011v -31.8943h 0.110716v 31.8943h 0.221432v -15.9472h 0.110716v 15.9472h 0.110716v -31.8943h 0.110716v 15.9472h 0.110716v -37.0282h 0.110716v 37.0282h
 0.221432v 15.9472h 0.110716v -15.9472h 0.110716v 15.9472h 0.442863v -31.8943h 0.110716v 31.8943h 0.553579v -63.7887h 0.110716v 47.8415h 0.110716v 15.9472h 0.885727v -31.8943h 0.221432v 31.8943h 0.221432v -31.8943h 0.110716v 31.8943h 1.32859v
 -15.9472h 0.110716v 15.9472h 0.221432v -47.8415h 0.110716v 15.9472h 0.110716v 31.8943h 0.664295v -15.9472h 0.110716v 15.9472h 0.110716v -31.8943h 0.110716v 31.8943h 0.110716v -31.8943h 0.221432v 31.8943h 0.996443v -31.8943h 0.110716v 31.8943h
 0.664295v -31.8943h 0.110716v 31.8943h 0.221432v -15.9472h 0.110716v 15.9472h 0.553579v -15.9472h 0.221432v 15.9472h 0.110716v -41.2228h 0.110716v 41.2228h 0.332148v -41.2228h 0.110716v 41.2228h 0.553579v -31.8943h 0.110716v 31.8943h 0.221432v
 -15.9472h 0.110716v -31.8943h 0.110716v 6.61868h 0.110716v 41.2228h 0.110716v -15.9472h 0.110716v 15.9472h 0.553579v -15.9472h 0.110716v 15.9472h 0.221432v -15.9472h 0.110716v 15.9472h 0.110716v -15.9472h 0.110716v 15.9472h 0.775011v -31.8943h
 0.110716v 31.8943h 0.110716v -15.9472h 0.221432v 15.9472h 0.442863v -31.8943h 0.110716v 31.8943h 0.553579v -15.9472h 0.110716v 15.9472h 3.10004v -31.8943h 0.110716v 31.8943h 1.10716v -15.9472h 0.110716v 15.9472h 0.221432v -31.8943h 0.110716v
 15.9472h 0.110716v 15.9472h 0.110716v -15.9472h 0.110716v 15.9472h 0.442863v -15.9472h 0.110716v 15.9472h 0.110716v -15.9472h 0.221432v 15.9472h 0.110716v -31.8943h 0.110716v 15.9472h 0.110716v -15.9472h 0.110716v 31.8943h 0.442863v -31.8943h
 0.110716v 15.9472h 0.110716v 15.9472h 0.110716v -15.9472h 0.110716v 15.9472h 0.221432v -41.2228h 0.110716v 41.2228h 0.332148v -41.2228h 0.110716v 41.2228h 0.332148v -31.8943h 0.110716v 31.8943h 0.775011v -15.9472h 0.110716v 15.9472h 0.221432v
 -15.9472h 0.110716v 15.9472h 0.553579v -15.9472h 0.110716v 15.9472h 0.221432v -15.9472h 0.110716v 15.9472h 0.442863v -15.9472h 0.110716v 15.9472h 0.221432v -15.9472h 0.332148v 15.9472h 0.553579v -52.9754h 0.110716v 37.0282h 0.110716v 15.9472h
 0.110716v -31.8943h 0.110716v 31.8943h 1.10716v -15.9472h 0.110716v 15.9472h 0.110716v -15.9472h 0.110716v 15.9472h 0.553579v -15.9472h 0.110716v 15.9472h 0.221432v -15.9472h 0.110716v 15.9472h 0.110716v -15.9472h 0.110716v 15.9472h 0.553579v
 -15.9472h 0.553579v 15.9472h 0.553579v -47.8415h 0.110716v 47.8415h 0.110716v -31.8943h 0.110716v 31.8943h 0.664295v -31.8943h 0.110716v 31.8943h 1.32859v -15.9472h 0.110716v 15.9472h 0.885727v -15.9472h 0.110716v 15.9472h 0.110716v -15.9472h
 0.110716v 15.9472h 1.10716v -15.9472h 0.110716v 15.9472h 0.110716v -15.9472h 0.110716v 15.9472h 0.221432v -15.9472h 0.110716v 15.9472h 1.32859v -52.9754h 0.110716v 52.9754h 0.553579v -31.8943h 0.110716v 31.8943h 1.66074v -41.2228h 0.110716v 25.2757h
 0.221432v 15.9472h 0.221432v -15.9472h 0.110716v 15.9472h 0.110716v -41.2228h 0.110716v 41.2228h 0.110716v -15.9472h 0.110716v 15.9472h 0.221432v -15.9472h 0.110716v 15.9472h 0.221432v -15.9472h 0.110716v 15.9472h 0.221432v -15.9472h 0.110716v
 -15.9472h 0.110716v 31.8943h 0.110716v -31.8943h 0.110716v 31.8943h 0.332148v -15.9472h 0.221432v 15.9472h 0.221432v -31.8943h 0.110716v 15.9472h 0.110716v 15.9472h 0.775011v -15.9472h 0.110716v 15.9472h 0.553579v -15.9472h 0.221432v 15.9472h
 0.110716v -15.9472h 0.110716v 15.9472h 0.221432v -31.8943h 0.110716v 31.8943h 0.221432v -15.9472h 0.110716v -37.0282h 0.110716v 52.9754h 0.110716v -15.9472h 0.110716v 15.9472h 0.332148v -15.9472h 0.221432v 15.9472h 0.553579v -15.9472h 0.110716v
 15.9472h 0.332148v -31.8943h 0.110716v 31.8943h 0.332148v -41.2228h 0.110716v 9.3285h 0.110716v 31.8943h 0.110716v -15.9472h 0.110716v 15.9472h 0.332148v -15.9472h 0.110716v 15.9472h 0.110716v -15.9472h 0.110716v 15.9472h 0.110716v -47.8415h
 0.110716v 47.8415h 0.775011v -41.2228h 0.110716v 41.2228h 0.221432v -31.8943h 0.110716v 31.8943h 0.110716v -15.9472h 0.221432v 15.9472h 0.553579v -31.8943h 0.110716v 15.9472h 0.110716v -15.9472h 0.110716v 31.8943h 0.442863v -15.9472h 0.110716v
 15.9472h 1.21787v -15.9472h 0.110716v -25.2757h 0.110716v 9.3285h 0.110716v 31.8943h 0.110716v -31.8943h 0.110716v 31.8943h 0.664295v -31.8943h 0.110716v 15.9472h 0.110716v 15.9472h 0.221432v -15.9472h 0.110716v -15.9472h 0.110716v 15.9472h
 0.110716v 15.9472h 0.332148v -15.9472h 0.110716v 15.9472h 0.332148v -31.8943h 0.110716v 31.8943h 0.110716v -31.8943h 0.110716v 31.8943h 0.221432v -15.9472h 0.110716v 15.9472h 0.221432v -31.8943h 0.110716v -9.3285h 0.110716v 41.2228h 0.332148v
 -31.8943h 0.110716v 31.8943h 0.110716v -31.8943h 0.110716v 31.8943h 0.885727v -15.9472h 0.221432v 15.9472h 1.32859v -31.8943h 0.110716v 31.8943h 0.221432v -15.9472h 0.110716v 15.9472h 0.332148v -15.9472h 0.110716v -31.8943h 0.110716v 47.8415h
 0.110716v -15.9472h 0.110716v 15.9472h 0.110716v -41.2228h 0.110716v 41.2228h 1.10716v -15.9472h 0.110716v 15.9472h 0.996443v -41.2228h 0.110716v 41.2228h 1.32859v -15.9472h 0.221432v -15.9472h 0.110716v 31.8943h 1.21787v -15.9472h 0.110716v
 15.9472h 0.664295v -15.9472h 0.110716v 15.9472h 0.553579v -31.8943h 0.110716v 15.9472h 0.110716v 15.9472h 0.664295v -15.9472h 0.110716v 15.9472h 0.332148v -41.2228h 0.110716v 41.2228h 0.110716v -15.9472h 0.110716v 15.9472h 0.221432v -41.2228h
 0.110716v 41.2228h 0.110716v -15.9472h 0.221432v 15.9472h 0.664295v -41.2228h 0.110716v 41.2228h 0.332148v -31.8943h 0.110716v 31.8943h 0.996443v -31.8943h 0.110716v 31.8943h 0.110716v -41.2228h 0.110716v 25.2757h 0.110716v 15.9472h 0.110716v
 -31.8943h 0.110716v 31.8943h 0.664295v -15.9472h 0.110716v 15.9472h 0.885727v -15.9472h 0.110716v 15.9472h 0.664295v -41.2228h 0.110716v 41.2228h 0.442863v -31.8943h 0.110716v 31.8943h 0.664295v -15.9472h 0.110716v 15.9472h 0.664295v -31.8943h
 0.110716v 31.8943h 0.110716v -15.9472h 0.110716v 15.9472h 0.775011v -41.2228h 0.110716v 9.3285h 0.110716v 15.9472h 0.110716v 15.9472h 0.332148v -15.9472h 0.110716v -15.9472h 0.110716v 15.9472h 0.110716v 15.9472h 1.66074v -15.9472h 0.110716v 15.9472h
 0.332148v -31.8943h 0.110716v 15.9472h 0.110716v 15.9472h 0.221432v -31.8943h 0.110716v 15.9472h 0.110716v 15.9472h 0.664295v -15.9472h 0.110716v 15.9472h 0.110716v -15.9472h 0.221432v 15.9472h 1.88217v -15.9472h 0.110716v 15.9472h 0.221432v
 -15.9472h 0.110716v 15.9472h 0.442863v -15.9472h 0.110716v 15.9472h 0.221432v -15.9472h 0.110716v 15.9472h 1.43931v -15.9472h 0.110716v -15.9472h 0.110716v 15.9472h 0.110716v 15.9472h 0.885727v -41.2228h 0.110716v 41.2228h 0.664295v -15.9472h
 0.110716v 15.9472h 0.110716v -31.8943h 0.110716v 31.8943h 0.221432v -31.8943h 0.110716v 31.8943h 0.553579v -15.9472h 0.110716v 15.9472h 0.553579v -15.9472h 0.110716v 15.9472h 0.110716v -15.9472h 0.110716v 15.9472h 0.110716v -15.9472h 0.110716v
 -25.2757h 0.221432v 9.3285h 0.110716v 31.8943h 0.996443v -15.9472h 0.110716v 15.9472h 0.110716v -15.9472h 0.110716v -25.2757h 0.110716v 41.2228h 0.775011v -15.9472h 0.110716v 15.9472h 0.885727v -31.8943h 0.110716v -9.3285h 0.110716v 41.2228h
 0.221432v -60.7166h 0.110716v 19.4937h 0.110716v 41.2228h 1.10716v -15.9472h 0.110716v 15.9472h 0.110716v -15.9472h 0.110716v 15.9472h 1.99289v -15.9472h 0.110716v 15.9472h 0.110716v -41.2228h 0.110716v 41.2228h 0.442863v -41.2228h 0.110716v 9.3285h
 0.110716v 31.8943h 1.99289v -41.2228h 0.110716v 41.2228h 0.553579v -15.9472h 0.110716v 15.9472h 0.664295v -15.9472h 0.110716v 15.9472h 0.553579v -47.8415h 0.110716v 47.8415h 0.110716v -15.9472h 0.110716v 15.9472h 0.221432v -15.9472h 0.110716v
 15.9472h 0.221432v -15.9472h 0.110716v 15.9472h 0.332148v -15.9472h 0.110716v 15.9472h 0.221432v -15.9472h 0.110716v 15.9472h 0.110716v -15.9472h 0.110716v 15.9472h 0.553579v -31.8943h 0.110716v 31.8943h 0.110716v -15.9472h 0.110716v -37.0282h
 0.110716v 37.0282h 0.110716v 15.9472h 0.332148v -41.2228h 0.110716v 41.2228h 2.43575v -15.9472h 0.110716v 15.9472h 0.221432v -31.8943h 0.110716v 31.8943h 0.110716v -15.9472h 0.110716v 15.9472h 0.110716v -41.2228h 0.110716v 25.2757h 0.110716v
 15.9472h 0.332148v -31.8943h 0.110716v 31.8943h 0.110716v -15.9472h 0.110716v 15.9472h 0.332148v -15.9472h 0.110716v 15.9472h 0.885727v -15.9472h 0.110716v 15.9472h 0.110716v -15.9472h 0.110716v 15.9472h 1.21787v -31.8943h 0.110716v 31.8943h
 2.21432v -15.9472h 0.110716v 15.9472h 0.442863v -15.9472h 0.221432v 15.9472h 0.110716v -31.8943h 0.221432v 31.8943h 0.553579v -15.9472h 0.110716v 15.9472h 0.332148v -31.8943h 0.110716v 31.8943h 0.332148v -41.2228h 0.110716v 41.2228h 1.10716v
 -31.8943h 0.110716v 31.8943h 0.221432v -15.9472h 0.110716v 15.9472h 0.110716v -31.8943h 0.110716v 31.8943h 0.221432v -15.9472h 0.110716v 15.9472h 1.32859v -15.9472h 0.110716v 15.9472h 0.110716v -41.2228h 0.110716v 9.3285h 0.110716v 31.8943h 1.21787v
 -31.8943h 0.110716v 31.8943h 0.332148v -31.8943h 0.110716v 31.8943h 0.110716v -31.8943h 0.110716v 31.8943h 0.996443v -15.9472h 0.110716v 15.9472h 0.110716v -15.9472h 0.110716v 15.9472h 0.885727v -41.2228h 0.110716v 41.2228h 0.332148v -15.9472h
 0.110716v 15.9472h 0.332148v -15.9472h 0.110716v 15.9472h 0.110716v -31.8943h 0.110716v 31.8943h 0.221432v -15.9472h 0.221432v 15.9472h 0.221432v -15.9472h 0.110716v 15.9472h 0.885727v -15.9472h 0.110716v 15.9472h 0.110716v -15.9472h 0.110716v
 15.9472h 0.332148v -15.9472h 0.221432v -15.9472h 0.110716v 31.8943h 0.442863v -15.9472h 0.110716v 15.9472h 0.332148v -15.9472h 0.221432v 15.9472h 0.110716v -15.9472h 0.110716v 15.9472h 0.110716v -15.9472h 0.332148v 15.9472h 0.221432v -15.9472h
 0.110716v 15.9472h 0.664295v -15.9472h 0.110716v 15.9472h 0.775011v -15.9472h 0.110716v 15.9472h 0.442863v -31.8943h 0.110716v -9.3285h 0.110716v 41.2228h 0.332148v -41.2228h 0.110716v 25.2757h 0.110716v 15.9472h 0.110716v -41.2228h 0.110716v
 41.2228h 0.110716v -31.8943h 0.110716v 15.9472h 0.110716v 15.9472h 1.10716v -15.9472h 0.221432v 15.9472h 2.1036v -31.8943h 0.110716v 31.8943h 1.21787v -52.9754h 0.110716v 21.081h 0.110716v 31.8943h 1.32859v -15.9472h 0.110716v 15.9472h 0.110716v
 -15.9472h 0.110716v 15.9472h 0.775011v -31.8943h 0.110716v 31.8943h 1.10716v -15.9472h 0.110716v 15.9472h 1.10716v -15.9472h 0.110716v 15.9472h 0.110716v -31.8943h 0.110716v 31.8943h 0.110716v -15.9472h 0.110716v -15.9472h 0.110716v 31.8943h
 1.10716v -15.9472h 0.110716v 15.9472h 0.332148v -15.9472h 0.110716v 15.9472h 0.553579v -41.2228h 0.110716v 41.2228h 0.110716v -15.9472h 0.110716v 15.9472h 0.442863v -31.8943h 0.110716v 31.8943h 0.885727v -31.8943h 0.110716v 31.8943h 0.996443v
 -31.8943h 0.110716v 15.9472h 0.110716v 15.9472h 0.221432v -15.9472h 0.110716v 15.9472h 0.332148v -15.9472h 0.110716v 15.9472h 3.10004v -15.9472h 0.221432v -25.2757h 0.110716v 41.2228h 0.221432v -15.9472h 0.221432v 15.9472h 1.10716v -15.9472h
 0.221432v 15.9472h 0.664295v -15.9472h 0.110716v 15.9472h 0.664295v -31.8943h 0.110716v 31.8943h 0.996443v -15.9472h 0.221432v -15.9472h 0.110716v 31.8943h 0.332148v -15.9472h 0.110716v 15.9472h 1.32859v -15.9472h 0.110716v 15.9472h 0.221432v
 -15.9472h 0.110716" fill="none" stroke="#ff0000"/>
<rect x="340.657" y="40.9212" width="170.079" height="81.8424" fill="white"/>
<path d="M340.657,122.764h 170.079" fill="none" stroke="black"/>
<path d="M510.736,122.764v -81.8424" fill="none" stroke="black"/>
<path d="M510.736,40.9212h -170.079" fill="none" stroke="black"/>
<path d="M340.657,40.9212v 81.8424" fill="none" stroke="black"/>
<text xml:space="preserve" x="382.715" y="64.6498" fill="black" font-size="8.59508" font-family="Helvetica">Simulated Resolution corrected</text>
<path d="M347.035,75.7042h 29.7638v -28.6448h -29.7638z" fill="white"/>
<path d="M347.035,61.3818h 29.7638" fill="none" stroke="#0000ff"/>
<g stroke="black" stroke-width="1" fill="none">
<line x1="360.917" y1="61.3818" x2="361.917" y2="61.3818"/>
</g>
<text xml:space="preserve" x="382.715" y="105.145" fill="black" font-size="8.59508" font-family="Helvetica">Experimental Bg removed</text>
<path d="M347.035,116.625h 29.7638v -28.6448h -29.7638z" fill="white"/>
<path d="M347.035,102.303h 29.7638" fill="none" stroke="#ff0000"/>
<g stroke="black" stroke-width="1" fill="none">
<line x1="360.917" y1="102.303" x2="361.917" y2="102.303"/>
</g>
<text xml:space="preserve" x="101.382" y="19.8923" fill="black" font-size="18.3845" font-family="Helvetica">../data-files/output_Run04-133Ba-50mm.root</text></svg>
