<?xml version="1.0" standalone="no"?>
<svg width="567.429" height="415.049" viewBox="0 0 567.429 415.049" xmlns="http://www.w3.org/2000/svg" shape-rendering="crispEdges">
<title>
HPGe_Run09-133Ba-8mm_900s-activity_bgrm_res.svg
</title>
<desc>
Creator: ROOT Version 6.26/04
CreationDate: Mon Nov  4 12:25:27 2024</desc>
<defs>
</defs>
<rect x="0.5" y="0" width="566.929" height="414.549" fill="white"/>
<rect x="57.1929" y="41.4549" width="453.543" height="331.639" fill="white"/>
<rect x="57.1929" y="41.4549" width="453.543" height="331.639" fill="none" stroke="black"/>
<rect x="57.1929" y="41.4549" width="453.543" height="331.639" fill="white"/>
<rect x="57.1929" y="41.4549" width="453.543" height="331.639" fill="none" stroke="black"/>
<path d="M57.1929,58.153h 0.110728v 1.80394h 0.110728v 4.55309h 0.110728v 7.96942h 0.110728v 11.2832h 0.110728v 14.5615h 0.110728v 17.1667h 0.110728v 19.7609h 0.110728v 21.4286h 0.110728v 21.8015h 0.110728v 15.3548h 0.110728v 8.73127h 0.110728v
 3.29837h 0.110728v -0.173036h 0.110728v 1.14578h 0.110728v 2.95388h 0.110728v -0.400442h 0.110728v 1.58712h 0.110728v -0.314803h 0.110728v 3.15582h 0.110728v -1.87319h 0.110728v -1.07318h 0.110728v 2.24958h 0.110728v 1.05229h 0.110728v 0.481642h
 0.110728v 0.552676h 0.110728v -1.56576h 0.110728v 2.19387h 0.110728v -0.315945h 0.110728v -2.34141h 0.110728v 2.15367h 0.110728v -0.555286h 0.110728v 0.430865h 0.110728v -3.75139h 0.110728v 2.01086h 0.110728v -3.42355h 0.110728v 3.13483h 0.110728v
 -0.847479h 0.110728v -1.97996h 0.110728v 0.311055h 0.110728v 0.0522044h 0.110728v -0.517409h 0.110728v 1.85762h 0.110728v -2.26429h 0.110728v 1.61241h 0.110728v -0.425725h 0.110728v -3.2703h 0.110728v 3.0077h 0.110728v -3.28567h 0.110728v 0.371279h
 0.110728v 0.471643h 0.110728v 0.287127h 0.110728v -1.63209h 0.110728v -0.135263h 0.110728v -1.10077h 0.110728v -0.72288h 0.110728v -3.45223h 0.110728v -2.75289h 0.110728v -5.92281h 0.110728v -6.12922h 0.110728v -9.08472h 0.110728v -8.52073h
 0.110728v -8.06624h 0.110728v -6.30227h 0.110728v -2.87772h 0.110728v -0.240614h 0.110728v 3.3958h 0.110728v 6.45773h 0.110728v 8.88528h 0.110728v 11.5481h 0.110728v 11.2797h 0.110728v 10.3945h 0.110728v 5.2211h 0.110728v -0.481198h 0.110728v
 -5.75397h 0.110728v -3.03067h 0.110728v -5.48057h 0.110728v -3.96449h 0.110728v -0.165594h 0.110728v -0.444251h 0.110728v 3.89281h 0.110728v 2.77982h 0.110728v 4.49577h 0.110728v -0.388139h 0.110728v -0.278705h 0.110728v -5.5096h 0.110728v -5.13069h
 0.110728v -5.88105h 0.110728v -8.79671h 0.110728v -15.6947h 0.110728v -18.7625h 0.110728v -20.3702h 0.110728v -16.9743h 0.110728v -13.3916h 0.110728v -9.38361h 0.110728v -5.01862h 0.110728v -0.706128h 0.110728v 3.88158h 0.110728v 8.20621h 0.110728v
 12.7811h 0.110728v 16.7539h 0.110728v 20.0562h 0.110728v 18.4033h 0.110728v 4.97568h 0.110728v -10.1824h 0.110728v -13.8188h 0.110728v -10.346h 0.110728v -7.82619h 0.110728v -3.37954h 0.110728v 0.680013h 0.110728v 4.68668h 0.110728v 7.35638h
 0.110728v 10.0086h 0.110728v 12.1514h 0.110728v 13.9656h 0.110728v 16.4734h 0.110728v 13.3366h 0.110728v 7.69964h 0.110728v 5.85661h 0.110728v 1.57855h 0.110728v 0.0931492h 0.110728v 0.375953h 0.110728v -1.06661h 0.110728v 0.412199h 0.110728v
 0.512793h 0.110728v -0.512793h 0.110728v 1.5696h 0.110728v -3.13732h 0.110728v -0.173323h 0.110728v 0.878345h 0.110728v -0.442863h 0.110728v -0.607663h 0.110728v -0.0856667h 0.110728v 0.214696h 0.110728v 0.216474h 0.110728v -0.897381h 0.110728v
 4.23152h 0.110728v -4.73081h 0.110728v 2.87222h 0.110728v -1.12542h 0.110728v -0.0879742h 0.110728v -1.53489h 0.110728v 2.02246h 0.110728v 0.633994h 0.110728v -1.85762h 0.110728v 1.44829h 0.110728v -0.13503h 0.110728v 1.24116h 0.110728v -1.86223h
 0.110728v 0.846516h 0.110728v -0.846516h 0.110728v 0.531442h 0.110728v -1.64711h 0.110728v -1.70728h 0.110728v -2.65433h 0.110728v -1.14754h 0.110728v -5.19675h 0.110728v -4.35626h 0.110728v -5.94811h 0.110728v -3.70889h 0.110728v -2.62045h
 0.110728v -3.73308h 0.110728v -4.46794h 0.110728v -1.97171h 0.110728v -2.22177h 0.110728v 0.138075h 0.110728v 2.65974h 0.110728v 5.94044h 0.110728v 8.01303h 0.110728v 9.05423h 0.110728v 5.83037h 0.110728v -0.184219h 0.110728v -2.59023h 0.110728v
 -0.952204h 0.110728v 0.704018h 0.110728v 0.667142h 0.110728v 3.16914h 0.110728v 2.39511h 0.110728v 2.63702h 0.110728v 3.45594h 0.110728v -0.950225h 0.110728v -5.14274h 0.110728v -0.414744h 0.110728v -0.0684884h 0.110728v -3.98858h 0.110728v -6.9228h
 0.110728v -11.1733h 0.110728v -14.3243h 0.110728v -14.4832h 0.110728v -11.4543h 0.110728v -8.26856h 0.110728v -3.39594h 0.110728v 0.873993h 0.110728v 5.68352h 0.110728v 9.11792h 0.110728v 13.8806h 0.110728v 15.0084h 0.110728v 13.6778h 0.110728v
 6.70036h 0.110728v -3.37389h 0.110728v -10.5374h 0.110728v -9.9766h 0.110728v -9.77739h 0.110728v -6.19958h 0.110728v -3.13639h 0.110728v 1.02682h 0.110728v 2.45347h 0.110728v 7.01379h 0.110728v 8.69689h 0.110728v 10.9857h 0.110728v 10.5793h
 0.110728v 7.91897h 0.110728v 4.72774h 0.110728v 1.48075h 0.110728v -3.75421h 0.110728v -5.135h 0.110728v -3.25754h 0.110728v -3.10936h 0.110728v -0.105997h 0.110728v 0.127249h 0.110728v 2.2638h 0.110728v 4.27227h 0.110728v 0.94517h 0.110728v
 4.76942h 0.110728v 2.45634h 0.110728v 3.42504h 0.110728v -0.505725h 0.110728v -0.083344h 0.110728v -0.248449h 0.110728v 0.082554h 0.110728v -0.410186h 0.110728v 0.0815237h 0.110728v -0.684976h 0.110728v 1.59894h 0.110728v 0.903291h 0.110728v
 0.754821h 0.110728v 0.31726h 0.110728v -3.65373h 0.110728v 0.119217h 0.110728v -0.473638h 0.110728v 1.99053h 0.110728v -2.60898h 0.110728v -5.86091h 0.110728v -6.5053h 0.110728v -12.1043h 0.110728v -14.1055h 0.110728v -15.2062h 0.110728v -16.33h
 0.110728v -14.2667h 0.110728v -11.5739h 0.110728v -7.06668h 0.110728v -2.27457h 0.110728v 2.8551h 0.110728v 7.69221h 0.110728v 13.8791h 0.110728v 17.2936h 0.110728v 20.7173h 0.110728v 18.7178h 0.110728v 9.34316h 0.110728v 0.108642h 0.110728v
 -1.2333h 0.110728v -2.43737h 0.110728v 3.60543h 0.110728v 3.98068h 0.110728v 5.68533h 0.110728v 5.74404h 0.110728v 1.90921h 0.110728v -0.418062h 0.110728v 0.842922h 0.110728v -1.97911h 0.110728v 0.765572h 0.110728v -3.04565h 0.110728v -0.504562h
 0.110728v 0.834146h 0.110728v 0.446013h 0.110728v 0.915538h 0.110728v 0.948787h 0.110728v 0.610978h 0.110728v 1.65882h 0.110728v 0.938843h 0.110728v 1.45065h 0.110728v -0.334677h 0.110728v -2.91864h 0.110728v -2.89272h 0.110728v -2.74148h 0.110728v
 -3.18758h 0.110728v -2.48478h 0.110728v -1.07984h 0.110728v 1.72157h 0.110728v 0.949179h 0.110728v 6.22139h 0.110728v 2.49401h 0.110728v -0.284669h 0.110728v 1.71326h 0.110728v 0.435482h 0.110728v 0.847962h 0.110728v -3.6754h 0.110728v -1.11858h
 0.110728v -3.26142h 0.110728v -0.625661h 0.110728v -1.60889h 0.110728v 4.06342h 0.110728v -0.390247h 0.110728v 1.97427h 0.110728v 1.56504h 0.110728v 1.11201h 0.110728v -0.209531h 0.110728v 1.50328h 0.110728v -0.869575h 0.110728v -1.73701h 0.110728v
 -0.119763h 0.110728v -3.07747h 0.110728v -2.59309h 0.110728v -2.67905h 0.110728v -0.401982h 0.110728v -4.32316h 0.110728v -0.525931h 0.110728v 0.309496h 0.110728v 0.337455h 0.110728v 5.87893h 0.110728v 4.03276h 0.110728v 3.36264h 0.110728v 2.98691h
 0.110728v 0.0452438h 0.110728v -0.670567h 0.110728v -1.16529h 0.110728v -0.460238h 0.110728v -2.03389h 0.110728v -0.793546h 0.110728v 1.14116h 0.110728v 2.35843h 0.110728v -2.00613h 0.110728v 0.039439h 0.110728v 1.46097h 0.110728v 1.23935h 0.110728v
 -0.0437294h 0.110728v -1.56859h 0.110728v -3.74995h 0.110728v -2.60992h 0.110728v -4.22053h 0.110728v -7.36526h 0.110728v -8.6907h 0.110728v -11.7934h 0.110728v -10.6256h 0.110728v -11.0744h 0.110728v -8.63265h 0.110728v -4.69458h 0.110728v
 -0.741417h 0.110728v 4.54251h 0.110728v 9.97492h 0.110728v 13.4829h 0.110728v 15.2346h 0.110728v 15.9739h 0.110728v 5.35936h 0.110728v 0.1427h 0.110728v -2.4043h 0.110728v -8.02715h 0.110728v -6.02545h 0.110728v -5.30686h 0.110728v -6.48889h
 0.110728v -1.54517h 0.110728v 3.96374h 0.110728v 4.78932h 0.110728v 7.43578h 0.110728v 7.8761h 0.110728v 8.44447h 0.110728v 4.04358h 0.110728v 3.73898h 0.110728v 2.70068h 0.110728v -2.31295h 0.110728v 5.43195h 0.110728v -4.68348h 0.110728v 1.14116h
 0.110728v 0.80547h 0.110728v 0.781466h 0.110728v 0.856743h 0.110728v -1.2504h 0.110728v -0.387811h 0.110728v -0.476807h 0.110728v 0.0946679h 0.110728v 0.430302h 0.110728v 0.388532h 0.110728v -1.05486h 0.110728v -0.140601h 0.110728v 3.01911h
 0.110728v -1.97002h 0.110728v -2.45931h 0.110728v 1.59786h 0.110728v -0.280952h 0.110728v 1.7329h 0.110728v 0.199835h 0.110728v -1.55746h 0.110728v 0.380747h 0.110728v 2.40892h 0.110728v -1.67971h 0.110728v 0.800931h 0.110728v -3.20144h 0.110728v
 1.19622h 0.110728v 0.236457h 0.110728v 1.66729h 0.110728v -0.201764h 0.110728v -1.22691h 0.110728v -0.895377h 0.110728v -0.0924897h 0.110728v 0.325157h 0.110728v 0.66271h 0.110728v -1.12599h 0.110728v 1.80595h 0.110728v -0.871025h 0.110728v -1.209h
 0.110728v -2.01086h 0.110728v 0.168843h 0.110728v -1.52167h 0.110728v -0.238616h 0.110728v -1.90802h 0.110728v -3.24865h 0.110728v 0.327017h 0.110728v 0.36451h 0.110728v 3.11504h 0.110728v 0.91822h 0.110728v 2.10761h 0.110728v 0.254499h 0.110728v
 2.97644h 0.110728v 0.143694h 0.110728v -0.428733h 0.110728v -1.06472h 0.110728v 2.32299h 0.110728v -1.63355h 0.110728v 0.280952h 0.110728v -0.0470357h 0.110728v -1.68335h 0.110728v 0.669421h 0.110728v 2.71274h 0.110728v -1.93273h 0.110728v -2.86443h
 0.110728v 0.676499h 0.110728v -1.00829h 0.110728v -2.4753h 0.110728v -2.73789h 0.110728v -0.501519h 0.110728v -2.7926h 0.110728v -1.53145h 0.110728v 0.338967h 0.110728v 0.228446h 0.110728v 1.65762h 0.110728v 3.31924h 0.110728v 6.02191h 0.110728v
 -1.97686h 0.110728v 2.55113h 0.110728v -0.530542h 0.110728v -2.50223h 0.110728v 1.26288h 0.110728v -2.04639h 0.110728v 0.193687h 0.110728v -1.91131h 0.110728v 1.25855h 0.110728v -0.821243h 0.110728v 1.01155h 0.110728v 3.3366h 0.221457v 0.261722h
 0.110728v 1.72138h 0.110728v -1.18994h 0.110728v 1.66243h 0.110728v -0.0951852h 0.110728v -2.44707h 0.110728v 1.0594h 0.110728v 1.67427h 0.110728v -1.67427h 0.110728v -0.313454h 0.110728v -1.21751h 0.110728v 1.80267h 0.110728v -0.982719h 0.110728v
 0.937239h 0.110728v -1.50103h 0.110728v 1.45562h 0.110728v -1.19693h 0.110728v 0.83653h 0.110728v 0.360396h 0.110728v -0.627468h 0.110728v 1.73948h 0.110728v -1.8279h 0.110728v -0.825402h 0.110728v 0.958146h 0.221457v 1.3192h 0.110728v -1.2748h
 0.110728v -0.830929h 0.110728v 0.565664h 0.110728v 0.986091h 0.110728v -2.3153h 0.110728v 1.86246h 0.110728v 0.774567h 0.110728v -2.25804h 0.110728v -7.21804h 0.110728v -3.769h 0.110728v -8.82724h 0.110728v -4.12686h 0.110728v -2.49029h 0.110728v
 2.43944h 0.110728v 5.73318h 0.110728v 6.15396h 0.110728v 6.07168h 0.110728v 3.48895h 0.110728v 3.62674h 0.110728v -1.9994h 0.110728v 2.17684h 0.110728v -0.572336h 0.110728v -0.173611h 0.110728v 0.217194h 0.110728v -0.560993h 0.110728v 1.00087h
 0.110728v -1.92364h 0.110728v 1.52741h 0.110728v 2.56906h 0.110728v -1.95009h 0.110728v 1.0033h 0.110728v -0.277471h 0.110728v 1.36928h 0.110728v 0.0485206h 0.110728v -0.0485206h 0.110728v 0.0971314h 0.110728v -1.0023h 0.110728v 0.856743h 0.110728v
 -1.54984h 0.110728v 0.41365h 0.110728v -0.595412h 0.110728v 1.06284h 0.110728v -1.06284h 0.110728v -0.0452438h 0.110728v 0.272646h 0.110728v 1.79614h 0.110728v -4.0696h 0.110728v 2.31918h 0.110728v 0.789716h 0.110728v -0.187974h 0.110728v -0.418062h
 0.110728v -0.816576h 0.110728v 0.224279h 0.110728v 2.45428h 0.110728v -0.971425h 0.110728v 0.823389h 0.110728v -0.0491596h 0.110728v -1.47981h 0.110728v 1.18678h 0.110728v 0.0486108h 0.110728v -1.55825h 0.221457v 1.90108h 0.110728v -2.53507h
 0.110728v -0.267072h 0.110728v 1.69219h 0.110728v 0.52497h 0.110728v -0.096237h 0.110728v 0.978703h 0.110728v -2.06068h 0.110728v 0.0923263h 0.110728v 0.655584h 0.110728v -2.99832h 0.110728v 1.03492h 0.110728v 2.34554h 0.110728v -0.945069h 0.110728v
 -1.26817h 0.110728v -0.176246h 0.110728v -0.131408h 0.221457v 1.48317h 0.110728v 1.32804h 0.110728v -0.145562h 0.110728v -2.358h 0.110728v 0.266618h 0.110728v 2.18833h 0.110728v -1.18678h 0.110728v 0.421056h 0.110728v -2.60153h 0.110728v 0.387093h
 0.110728v -0.429752h 0.110728v 1.31106h 0.110728v -1.64984h 0.110728v 1.47119h 0.110728v 0.178656h 0.110728v -0.707409h 0.110728v 0.484279h 0.110728v -0.873938h 0.110728v 0.82954h 0.110728v 0.222749h 0.110728v -0.355493h 0.110728v -2.28082h
 0.110728v 1.24247h 0.110728v -0.793727h 0.110728v -0.489156h 0.110728v -3.89467h 0.110728v -1.32281h 0.110728v -3.14354h 0.110728v -0.262598h 0.110728v 3.40613h 0.110728v 0.332849h 0.110728v 1.58821h 0.110728v 3.17555h 0.110728v 1.31906h 0.110728v
 1.07894h 0.110728v -1.03663h 0.110728v -0.0845577h 0.110728v -1.79422h 0.110728v -0.196307h 0.110728v 0.996624h 0.110728v -0.162037h 0.110728v -2.01983h 0.110728v 2.42683h 0.110728v -0.0409856h 0.110728v 2.67111h 0.110728v 0.273597h 0.110728v
 -3.18928h 0.110728v -0.759714h 0.110728v 2.78356h 0.110728v -0.73484h 0.110728v -0.921286h 0.110728v -0.610027h 0.110728v 0.899655h 0.110728v 0.589069h 0.110728v -1.68894h 0.110728v 2.68649h 0.110728v -1.95841h 0.110728v -1.16323h 0.110728v 2.25207h
 0.110728v -1.29313h 0.110728v -1.07638h 0.110728v 0.393506h 0.110728v 1.84802h 0.110728v -1.9272h 0.110728v 1.21361h 0.110728v -0.32918h 0.110728v -0.963365h 0.110728v 0.0789376h 0.110728v -1.15973h 0.110728v 1.23891h 0.110728v 1.25895h 0.110728v
 -0.535351h 0.110728v 0.702305h 0.110728v -2.55113h 0.110728v 0.96711h 0.110728v 1.96361h 0.110728v 0.732416h 0.110728v 4.93911h 0.110728v -1.28737h 0.110728v 2.14587h 0.110728v 1.40057h 0.110728v 0.115357h 0.110728v 1.18248h 0.110728v -0.360396h
 0.110728v -0.472924h 0.110728v 1.26016h 0.110728v -1.49345h 0.110728v -0.0579985h 0.110728v 0.232771h 0.110728v 2.06704h 0.110728v -1.65463h 0.110728v 0.600677h 0.110728v 0.614812h 0.110728v -0.309214h 0.110728v 2.99308h 0.110728v -3.29867h
 0.110728v -1.87548h 0.110728v 1.21549h 0.221457v 1.08884h 0.110728v -0.790906h 0.110728v -0.592504h 0.110728v 1.19876h 0.110728v -1.25727h 0.110728v 0.117168h 0.110728v 2.07671h 0.110728v -1.24148h 0.110728v 1.36894h 0.110728v -2.43797h 0.110728v
 2.88903h 0.110728v -2.35998h 0.110728v 0.600677h 0.110728v -1.93198h 0.110728v 1.99281h 0.110728v 2.42338h 0.110728v -3.4973h 0.110728v 2.9681h 0.110728v -2.43666h 0.110728v 1.66243h 0.110728v -1.54285h 0.110728v 0.976873h 0.110728v -0.856743h
 0.110728v -3.27738h 0.110728v -1.79559h 0.110728v 1.58402h 0.110728v -4.22263h 0.110728v -2.31451h 0.110728v 1.26045h 0.110728v 3.29901h 0.110728v 4.57883h 0.110728v -1.63532h 0.110728v 4.33008h 0.110728v -0.887941h 0.110728v 1.0822h 0.110728v
 -1.39215h 0.110728v -1.08632h 0.110728v 0.840984h 0.110728v 1.31452h 0.110728v -1.06918h 0.110728v -0.184219h 0.221457v -0.42486h 0.110728v 0.609079h 0.110728v 1.58787h 0.110728v -1.89419h 0.110728v -2.10543h 0.110728v 1.50337h 0.110728v 0.179166h
 0.110728v 1.28979h 0.110728v 1.09286h 0.110728v 0.664879h 0.110728v 1.24116h 0.110728v -0.280952h 0.110728v -1.22819h 0.110728v 3.33704h 0.110728v -3.99522h 0.110728v 0.195719h 0.110728v 1.06934h 0.110728v -3.86149h 0.110728v 3.65763h 0.110728v
 -0.336276h 0.110728v -0.789833h 0.110728v 1.12611h 0.110728v -2.5149h 0.110728v 3.90503h 0.110728v -0.495003h 0.110728v -3.71562h 0.110728v 0.244192h 0.110728v -0.666111h 0.110728v 4.70403h 0.110728v -1.46162h 0.110728v 1.60518h 0.110728v -1.19585h
 0.110728v 1.70463h 0.110728v 1.66672h 0.110728v 0.553419h 0.110728v 3.40917h 0.110728v 2.0838h 0.110728v -0.681224h 0.110728v -3.83487h 0.110728v 0.250034h 0.110728v 1.28737h 0.110728v 1.3541h 0.110728v -0.459209h 0.110728v 1.11597h 0.110728v
 0.673696h 0.110728v 1.29919h 0.110728v 0.205736h 0.110728v -0.409864h 0.110728v 0.721538h 0.110728v -1.91391h 0.110728v 2.01863h 0.110728v -1.12949h 0.110728v -0.694152h 0.110728v 2.78553h 0.110728v -3.36619h 0.110728v 3.04161h 0.110728v 0.543228h
 0.110728v -0.757396h 0.110728v 4.0277h 0.110728v -3.2703h 0.110728v 1.58402h 0.110728v -2.55384h 0.110728v 0.212427h 0.110728v -0.42314h 0.110728v -1.02881h 0.110728v 3.3309h 0.110728v 1.53393h 0.110728v 0.990766h 0.110728v -1.2327h 0.110728v
 -4.6229h 0.110728v 0.819779h 0.110728v 4.65987h 0.110728v -1.68628h 0.110728v -2.0195h 0.110728v 4.08174h 0.110728v -1.47241h 0.110728v -1.28049h 0.110728v -5.04623h 0.110728v -1.01036h 0.110728v -4.23283h 0.110728v -1.27116h 0.110728v 0.740228h
 0.110728v 3.44608h 0.110728v 2.42185h 0.110728v 3.8404h 0.110728v 1.57041h 0.110728v -0.458403h 0.110728v 3.00657h 0.110728v -2.31591h 0.110728v 0.352297h 0.110728v -0.699907h 0.110728v 3.04871h 0.110728v -2.5842h 0.110728v -2.02821h 0.110728v
 0.658732h 0.110728v 0.448566h 0.110728v 0.456401h 0.110728v -0.11485h 0.110728v 2.39878h 0.110728v 3.63291h 0.110728v -3.25331h 0.110728v -1.84512h 0.110728v 0.967826h 0.110728v 2.72552h 0.110728v -1.07208h 0.110728v 0.664879h 0.110728v 2.84284h
 0.110728v -1.74253h 0.110728v 1.44392h 0.110728v -0.295238h 0.110728v -1.28878h 0.110728v 1.88263h 0.110728v 0.454417h 0.110728v -1.19465h 0.221457v -0.719834h 0.110728v 1.76213h 0.110728v -1.33261h 0.110728v -0.287127h 0.110728v 1.61974h 0.110728v
 0.92773h 0.110728v -0.92773h 0.110728v -0.451798h 0.110728v 1.2226h 0.110728v -1.2226h 0.221457v 2.50523h 0.110728v -4.23813h 0.110728v 1.58402h 0.110728v 0.75303h 0.110728v -1.91448h 0.110728v 6.22382h 0.110728v -1.0594h 0.110728v -1.83725h
 0.110728v 4.57093h 0.110728v -3.91768h 0.110728v 2.78967h 0.110728v -2.28879h 0.110728v -2.25941h 0.110728v 4.00194h 0.110728v -0.711018h 0.110728v -0.174772h 0.110728v -2.17165h 0.110728v -1.09865h 0.110728v -7.32382h 0.110728v -13.486h 0.110728v
 -15.0636h 0.110728v -15.0576h 0.110728v -13.1493h 0.110728v -7.95612h 0.110728v -2.80942h 0.110728v 2.5763h 0.110728v 7.57473h 0.110728v 11.865h 0.110728v 16.9954h 0.110728v 17.2666h 0.110728v 14.7164h 0.110728v 5.59929h 0.110728v 1.17639h 0.110728v
 -3.97854h 0.110728v 1.20846h 0.110728v 8.08978h 0.110728v -7.30508h 0.110728v 1.98538h 0.110728v 1.05229h 0.110728v -2.06383h 0.110728v 2.06383h 0.110728v -2.87787h 0.110728v 0.16079h 0.110728v 4.95802h 0.110728v -2.06137h 0.110728v -0.179577h
 0.110728v 2.63386h 0.110728v -4.69769h 0.110728v -0.653242h 0.110728v -0.637308h 0.221457v -3.66543h 0.110728v 1.84178h 0.110728v 3.28009h 0.110728v -0.979927h 0.110728v 0.979927h 0.110728v 3.94462h 0.110728v -1.8671h 0.110728v 1.10418h 0.110728v
 -0.923358h 0.110728v 1.30204h 0.110728v 4.12323h 0.110728v -0.878345h 0.110728v 2.49029h 0.110728v -2.49029h 0.221457v 1.78725h 0.110728v 4.53355h 0.110728v -2.11253h 0.110728v 1.30018h 0.110728v 2.51697h 0.110728v 0.895916h 0.110728v 3.5759h
 0.110728v -4.76376h 0.110728v -2.22503h 0.110728v 3.41289h 0.110728v -3.1449h 0.110728v 1.38277h 0.110728v 3.65174h 0.110728v -1.2748h 0.110728v -2.09138h 0.110728v -2.20158h 0.110728v 4.29296h 0.110728v 0.950225h 0.110728v -7.99608h 0.110728v
 0.967826h 0.110728v -4.3079h 0.110728v -6.77462h 0.110728v -0.16079h 0.110728v 1.31491h 0.110728v 2.28879h 0.110728v 2.91696h 0.110728v 1.04947h 0.110728v 8.24047h 0.110728v 0.295238h 0.110728v 3.48895h 0.110728v -2.58268h 0.110728v -6.01415h
 0.110728v 5.40649h 0.110728v -6.83202h 0.110728v -23.9873h 0.110728v -21.9664h 0.110728v -24.1474h 0.110728v -17.1775h 0.110728v -13.0173h 0.110728v -7.26913h 0.110728v -2.71405h 0.110728v 2.38454h 0.110728v 8.19769h 0.110728v 13.2928h 0.110728v
 17.2855h 0.110728v 23.2048h 0.110728v 18.9622h 0.110728v 17.7019h 0.110728v -2.47554h 0.110728v -14.8109h 0.110728v -13.597h 0.110728v -13.5848h 0.110728v -9.63988h 0.110728v -6.21626h 0.110728v -0.336524h 0.110728v 4.83071h 0.110728v 8.24176h
 0.110728v 13.0857h 0.110728v 15.436h 0.110728v 18.4256h 0.110728v 11.5619h 0.110728v 6.39095h 0.110728v -14.2139h 0.110728v -6.30116h 0.110728v -12.7076h 0.110728v -4.00247h 0.110728v -6.41451h 0.110728v 3.48049h 0.110728v 3.78067h 0.110728v
 4.70125h 0.110728v 6.93016h 0.110728v 10.5331h 0.110728v 5.46747h 0.110728v 6.34214h 0.110728v 5.40319h 0.110728v -3.31181h 0.110728v 5.13971h 0.110728v -0.375953h 0.110728v 3.17095h 0.110728v -7.30508h 0.110728v -1.54651h 0.110728v 6.43803h
 0.110728v -2.20934h 0.110728v 4.6229h 0.110728v -2.41356h 0.110728v 3.70944h 0.110728v -0.439142h 0.110728v -1.68628h 0.110728v -3.79336h 0.110728v 3.38826h 0.110728v -0.791828h 0.110728v -1.51511h 0.110728v 6.20099h 0.110728v 0.470793h 0.110728v
 0.479432h 0.110728v -4.84427h 0.110728v -4.42661h 0.110728v 9.27089h 0.110728v -6.78059h 0.110728v -5.97925h 0.110728v 4.17658h 0.110728v -15.7421h 0.110728v -6.69326h 0.110728v -1.57533h 0.110728v -7.96447h 0.110728v -1.49345h 0.110728v 4.76376h
 0.110728v 5.68561h 0.110728v 7.6614h 0.110728v 12.0876h 0.110728v 8.24393h 0.110728v 3.60964h 0.110728v 0.986091h 0.110728v 1.02477h 0.110728v -4.76376h 0.110728v -3.2703h 0.110728v -9.54885h 0.110728v -3.7212h 0.110728v 0.703046h 0.110728v 7.99608h
 0.110728v -1.8671h 0.110728v 1.22979h 0.110728v -2.97233h 0.110728v 13.7243h 0.110728v -0.933253h 0.110728v -7.17057h 0.110728v -0.687627h 0.110728v -8.59683h 0.110728v 2.56365h 0.110728v -12.0776h 0.110728v -16.8953h 0.110728v -21.8705h 0.110728v
 -17.1705h 0.110728v -14.2603h 0.110728v -9.50471h 0.110728v -5.88012h 0.110728v -1.01885h 0.110728v 4.41817h 0.110728v 10.1128h 0.110728v 12.1966h 0.110728v 20.5736h 0.110728v 18.8371h 0.110728v 19.3004h 0.110728v -1.26708h 0.110728v -9.27289h
 0.110728v -16.3738h 0.110728v -12.4032h 0.110728v -9.72696h 0.110728v -3.02222h 0.110728v 0.401296h 0.110728v 4.42004h 0.110728v 5.38845h 0.110728v 10.3824h 0.110728v 12.9606h 0.110728v 18.3516h 0.110728v 12.345h 0.110728v 12.3322h 0.110728v
 2.61501h 0.110728v -10.1317h 0.110728v -0.309214h 0.110728v -14.6657h 0.110728v 2.38529h 0.110728v -0.943363h 0.110728v -0.910486h 0.110728v 3.23453h 0.110728v 5.6286h 0.110728v 17.1247h 0.110728v 2.53873h 0.110728v 1.08884h 0.110728v 1.13619h
 0.110728v 3.07747h 0.221457v -9.25391h 0.110728v 2.90614h 0.110728v -1.00506h 0.110728v -5.33267h 0.110728v 9.60803h 0.110728v -0.574272h 0.110728v 0.574272h 0.110728v 3.73898h 0.110728v 1.37549h 0.110728v -6.25067h 0.110728v 15.4693h 0.110728v
 -8.50274h 0.110728v 4.76376h 0.110728v -4.0277h 0.110728v 4.0277h 0.110728v 8.10383h 0.110728v -12.8676h 0.110728v -4.0277h 0.110728v 7.93471h 0.110728v -10.3116h 0.110728v 4.31326h 0.110728v 5.16885h 0.110728v -3.79336h 0.110728v -8.38478h
 0.110728v -6.73664h 0.110728v -14.0501h 0.110728v -25.6852h 0.110728v -28.1806h 0.110728v -25.1261h 0.110728v -23.4988h 0.110728v -16.9769h 0.110728v -12.9425h 0.110728v -7.93194h 0.110728v -2.34135h 0.110728v 2.57455h 0.110728v 7.31428h 0.110728v
 12.0243h 0.110728v 16.4251h 0.110728v 21.2982h 0.110728v 22.0872h 0.110728v 23.1133h 0.110728v 22.0301h 0.110728v 10.5941h 0.110728v 9.75571h 0.110728v 4.81882h 0.110728v 4.30478h 0.110728v 3.769h 0.110728v 9.06315h 0.110728v -4.65733h 0.110728v
 -4.40583h 0.221457v 7.21804h 0.110728v -10.5941h 0.110728v -0.780008h 0.110728v -12.567h 0.110728v -12.5756h 0.110728v -15.6498h 0.110728v -9.21427h 0.110728v -7.82653h 0.110728v -3.53092h 0.110728v 0.258151h 0.110728v 7.90245h 0.110728v 7.63393h
 0.110728v 11.9732h 0.110728v 12.9256h 0.110728v 16.4245h 0.110728v 6.24184h 0.110728v -8.13146h 0.110728v -10.9961h 0.110728v -8.59124h 0.110728v -13.5757h 0.110728v 1.31326h 0.110728v -5.41404h 0.110728v 1.57946h 0.110728v 3.38946h 0.110728v
 7.28231h 0.110728v 11.9098h 0.110728v 6.9104h 0.110728v 9.42225h 0.110728v 8.4499h 0.110728v -5.54376h 0.110728v 5.07297h 0.110728v -5.07297h 0.110728v -3.91768h 0.110728v -5.89643h 0.110728v 2.49029h 0.110728v 0.29194h 0.110728v -2.78223h 0.110728v
 0.804012h 0.110728v 3.80187h 0.110728v -5.6408h 0.110728v -1.95443h 0.110728v -1.15121h 0.110728v -12.8926h 0.110728v -11.7596h 0.110728v -6.21333h 0.110728v -6.51261h 0.110728v -4.35655h 0.110728v -0.763909h 0.110728v 6.5601h 0.110728v 6.42045h
 0.110728v 14.64h 0.110728v 9.77852h 0.110728v 19.0541h 0.110728v 7.00929h 0.110728v 3.77766h 0.110728v -7.51665h 0.110728v -0.431883h 0.110728v -4.69227h 0.110728v -5.17803h 0.110728v -8.8752h 0.110728v -1.62088h 0.110728v -5.94797h 0.110728v
 -15.4793h 0.110728v -18.2402h 0.110728v -20.4559h 0.110728v -17.2609h 0.110728v -10.5975h 0.110728v -7.72077h 0.110728v -2.33263h 0.110728v 2.13176h 0.110728v 6.04637h 0.110728v 9.63466h 0.110728v 8.41313h 0.110728v -1.71614h 0.110728v -13.6375h
 0.110728v -12.3118h 0.110728v -9.36727h 0.110728v -5.0744h 0.110728v -1.10605h 0.110728v 3.86536h 0.110728v 8.78978h 0.110728v 12.5229h 0.110728v 16.2015h 0.110728v 20.0074h 0.110728v 19.1396h 0.110728v 7.48169h 0.110728v -13.1225h 0.110728v
 -11.399h 0.110728v -10.956h 0.110728v -7.88246h 0.110728v -4.14515h 0.110728v 1.04111h 0.110728v 4.27274h 0.110728v 6.62406h 0.110728v 10.7468h 0.110728v 11.9528h 0.110728v 15.1283h 0.110728v 18.3403h 0.110728v 13.0921h 0.110728v 26.0537h 0.110728v
 2.90614h 0.110728v -7.89809h 0.110728v 9.48211h 0.110728v -12.1781h 0.110728v -1.00506h 0.110728v 1.52247h 0.110728v 7.17057h 0.110728v 5.3197h 0.110728v 6.68711h 0.221457v 12.2804h 0.110728v -11.1684h 0.110728v 6.40464h 0.110728v -1.41269h
 0.110728v -18.7895h 0.110728v 13.7975h 0.221457v -18.6727h 0.110728v 2.32405h 0.110728v 8.54952h 0.110728v 11.4509h 0.110728v -10.5941h 0.110728v 11.9343h 0.110728v 4.49016h 0.110728v -8.32066h 0.110728v 3.8305h 0.110728v 4.49016h 0.110728v
 -13.6716h 0.110728v -10.9147h 0.110728v -10.8057h 0.110728v -2.41356h 0.110728v -8.46001h 0.110728v -6.81234h 0.110728v 3.42783h 0.110728v 0.493002h 0.110728v 1.2748h 0.110728v 4.55556h 0.110728v 2.27346h 0.110728v 2.11967h 0.110728v -2.45682h
 0.110728v -9.91543h 0.110728v 0.696796h 0.110728v -4.3286h 0.110728v 1.43486h 0.110728v 2.42716h 0.110728v 7.7489h 0.110728v 4.76376h 0.110728v 10.4082h 0.110728v 5.55387h 0.110728v 2.14874h 0.110728v 5.83037h 0.110728v -2.65941h 0.110728v -3.17095h
 0.110728v -6.56642h 0.110728v -7.51665h 0.110728v -12.8192h 0.110728v 6.98879h 0.110728v -10.0069h 0.110728v -16.0095h 0.110728v -13.1662h 0.110728v -16.2163h 0.110728v -15.8867h 0.110728v -8.27925h 0.110728v -4.55291h 0.110728v -0.345892h 0.110728v
 4.06667h 0.110728v 6.34938h 0.110728v 12.5935h 0.110728v 11.5738h 0.110728v 2.26407h 0.110728v -5.42175h 0.110728v -7.22908h 0.110728v -9.27764h 0.110728v -1.16568h 0.110728v -2.67367h 0.110728v 0.380824h 0.110728v 4.22379h 0.110728v 6.3171h
 0.110728v 8.12994h 0.110728v 9.56935h 0.110728v 9.15831h 0.110728v 6.09927h 0.110728v -1.9524h 0.110728v -2.96109h 0.110728v -6.49374h 0.110728v -5.37518h 0.110728v -2.05033h 0.110728v 0.948197h 0.110728v 4.51502h 0.110728v 10.493h 0.110728v
 6.36543h 0.110728v 15.5387h 0.110728v 8.46687h 0.110728v 13.1328h 0.110728v 13.7049h 0.110728v 17.225h 0.110728v -19.7971h 0.110728v -13.6716h 0.110728v -7.15121h 0.110728v -1.08133h 0.110728v -0.350721h 0.110728v -5.33803h 0.110728v 5.33803h
 0.110728v 2.56006h 0.110728v 6.51159h 0.110728v 14.0127h 0.110728v 0.856743h 0.110728v 10.5941h 0.221457v -1.2748h 0.221457v -8.43353h 0.110728v 25.3288h 0.110728v -19.2722h 0.110728v 19.2722h 0.110728v -26.2146h 0.110728v 14.8405h 0.110728v
 1.58402h 0.221457v -3.07747h 0.110728v -4.0277h 0.110728v -3.48895h 0.110728v -2.09138h 0.110728v -3.73898h 0.110728v 5.83037h 0.110728v -19.6948h 0.110728v -17.3308h 0.110728v -22.698h 0.110728v -25.1526h 0.110728v -18.3632h 0.110728v -15.8601h
 0.110728v -11.7327h 0.110728v -7.07047h 0.110728v -2.45846h 0.110728v 2.82209h 0.110728v 6.15204h 0.110728v 12.1964h 0.110728v 14.9853h 0.110728v 19.5414h 0.110728v 26.5382h 0.110728v 25.706h 0.110728v 20.4129h 0.110728v 32.391h 0.110728v -4.36484h
 0.110728v 20.2022h 0.110728v 10.5941h 0.110728v -14.6218h 0.221457v -3.48895h 0.221457v 18.1108h 0.110728v -5.83037h 0.110728v -20.6011h 0.110728v -2.27346h 0.110728v -5.83037h 0.110728v -26.2726h 0.110728v -6.20996h 0.110728v -7.00929h 0.110728v
 -14.4013h 0.110728v -2.32876h 0.110728v -1.76213h 0.110728v 3.43491h 0.110728v 12.848h 0.110728v 9.72599h 0.110728v 14.7502h 0.110728v 27.8191h 0.110728v -4.76376h 0.110728v 14.0831h 0.110728v -36.2215h 0.110728v -1.80267h 0.110728v -4.0277h
 0.110728v -9.83673h 0.110728v -5.10309h 0.110728v -3.54158h 0.110728v 6.67178h 0.110728v 8.98217h 0.110728v 9.60803h 0.110728v 5.35093h 0.110728v 18.1108h 0.110728v 11.8096h 0.221457v 4.0277h 0.110728v -15.8373h 0.110728v 5.24319h 0.110728v
 -2.75289h 0.110728v 2.75289h 0.110728v -9.60803h 0.110728v 20.2022h 0.110728v -13.347h 0.110728v -4.76376h 0.110728v 4.76376h 0.110728v 23.9411h 0.110728v -37.8056h 0.110728v -5.52115h 0.110728v -4.55556h 0.110728v -12.9256h 0.110728v 0.645176h
 0.110728v -8.32066h 0.110728v -4.36484h 0.110728v 7.383h 0.110728v 4.65733h 0.110728v 16.2656h 0.110728v 6.73664h 0.110728v 5.07297h 0.110728v 8.79145h 0.110728v 13.347h 0.110728v -15.8373h 0.110728v 11.8096h 0.110728v -9.31932h 0.110728v -4.76376h
 0.110728v -7.51665h 0.110728v -8.32066h 0.110728v 2.49029h 0.110728v 11.2556h 0.110728v 2.09138h 0.110728v 2.27346h 0.110728v -8.10383h 0.110728v 10.5941h 0.110728v -6.85514h 0.110728v 9.60803h 0.110728v -19.5235h 0.110728v -3.8305h 0.110728v
 -24.4119h 0.110728v -15.4097h 0.110728v -18.496h 0.110728v -16.871h 0.110728v -11.6206h 0.110728v -10.4222h 0.110728v -4.01538h 0.110728v -1.08632h 0.110728v 3.35082h 0.110728v 8.61464h 0.110728v 12.0942h 0.110728v 14.9806h 0.110728v 19.629h
 0.110728v 19.7227h 0.110728v 4.66892h 0.110728v -5.13971h 0.110728v -15.6671h 0.110728v -7.70807h 0.110728v -9.88529h 0.110728v -6.24511h 0.110728v 3.28402h 0.110728v 3.6226h 0.110728v 10.5941h 0.110728v 11.4107h 0.110728v 4.39313h 0.110728v 15.654h
 0.110728v 26.7686h 0.110728v 22.1385h 0.110728v 28.7049h 0.221457v 18.1108h 290.33" fill="none" stroke="#0000ff"/>
<path d="M57.1929,373.094h 453.543" fill="none" stroke="black"/>
<path d="M57.2441,363.145v 9.94918" fill="none" stroke="black"/>
<path d="M74.4093,368.12v 4.97459" fill="none" stroke="black"/>
<path d="M91.5746,368.12v 4.97459" fill="none" stroke="black"/>
<path d="M108.74,368.12v 4.97459" fill="none" stroke="black"/>
<path d="M125.905,363.145v 9.94918" fill="none" stroke="black"/>
<path d="M143.07,368.12v 4.97459" fill="none" stroke="black"/>
<path d="M160.236,368.12v 4.97459" fill="none" stroke="black"/>
<path d="M177.401,368.12v 4.97459" fill="none" stroke="black"/>
<path d="M194.566,363.145v 9.94918" fill="none" stroke="black"/>
<path d="M211.731,368.12v 4.97459" fill="none" stroke="black"/>
<path d="M228.897,368.12v 4.97459" fill="none" stroke="black"/>
<path d="M246.062,368.12v 4.97459" fill="none" stroke="black"/>
<path d="M263.227,363.145v 9.94918" fill="none" stroke="black"/>
<path d="M280.392,368.12v 4.97459" fill="none" stroke="black"/>
<path d="M297.558,368.12v 4.97459" fill="none" stroke="black"/>
<path d="M314.723,368.12v 4.97459" fill="none" stroke="black"/>
<path d="M331.888,363.145v 9.94918" fill="none" stroke="black"/>
<path d="M349.053,368.12v 4.97459" fill="none" stroke="black"/>
<path d="M366.219,368.12v 4.97459" fill="none" stroke="black"/>
<path d="M383.384,368.12v 4.97459" fill="none" stroke="black"/>
<path d="M400.549,363.145v 9.94918" fill="none" stroke="black"/>
<path d="M417.714,368.12v 4.97459" fill="none" stroke="black"/>
<path d="M434.88,368.12v 4.97459" fill="none" stroke="black"/>
<path d="M452.045,368.12v 4.97459" fill="none" stroke="black"/>
<path d="M469.21,363.145v 9.94918" fill="none" stroke="black"/>
<path d="M57.2441,363.145v 9.94918" fill="none" stroke="black"/>
<path d="M469.21,363.145v 9.94918" fill="none" stroke="black"/>
<path d="M486.375,368.12v 4.97459" fill="none" stroke="black"/>
<path d="M503.541,368.12v 4.97459" fill="none" stroke="black"/>
<text xml:space="preserve" x="53.0285" y="386.629" fill="black" font-size="13.8112" font-family="Helvetica">0</text>
<text xml:space="preserve" x="115.968" y="386.629" fill="black" font-size="13.8112" font-family="Helvetica">0.2</text>
<text xml:space="preserve" x="185.06" y="386.629" fill="black" font-size="13.8112" font-family="Helvetica">0.4</text>
<text xml:space="preserve" x="253.678" y="386.629" fill="black" font-size="13.8112" font-family="Helvetica">0.6</text>
<text xml:space="preserve" x="322.296" y="386.629" fill="black" font-size="13.8112" font-family="Helvetica">0.8</text>
<text xml:space="preserve" x="397.54" y="386.629" fill="black" font-size="13.8112" font-family="Helvetica">1</text>
<text xml:space="preserve" x="459.533" y="386.629" fill="black" font-size="13.8112" font-family="Helvetica">1.2</text>
<text xml:space="preserve" x="426.88" y="399.879" fill="black" font-size="13.8112" font-family="Helvetica">Energy (MeV)</text>
<path d="M57.1929,373.094v -331.639" fill="none" stroke="black"/>
<path d="M70.7992,373.094h -13.6063" fill="none" stroke="black"/>
<text xml:space="preserve" x="47.3497" y="378.111" fill="black" font-size="13.8112" font-family="Helvetica">1</text>
<path d="M63.9961,354.983h -6.80315" fill="none" stroke="black"/>
<path d="M63.9961,344.389h -6.80315" fill="none" stroke="black"/>
<path d="M63.9961,336.873h -6.80315" fill="none" stroke="black"/>
<path d="M63.9961,331.042h -6.80315" fill="none" stroke="black"/>
<path d="M63.9961,326.279h -6.80315" fill="none" stroke="black"/>
<path d="M63.9961,322.251h -6.80315" fill="none" stroke="black"/>
<path d="M63.9961,318.762h -6.80315" fill="none" stroke="black"/>
<path d="M63.9961,315.684h -6.80315" fill="none" stroke="black"/>
<path d="M70.7992,312.932h -13.6063" fill="none" stroke="black"/>
<text xml:space="preserve" x="37.8851" y="318.01" fill="black" font-size="13.8112" font-family="Helvetica">10</text>
<path d="M63.9961,294.821h -6.80315" fill="none" stroke="black"/>
<path d="M63.9961,284.227h -6.80315" fill="none" stroke="black"/>
<path d="M63.9961,276.71h -6.80315" fill="none" stroke="black"/>
<path d="M63.9961,270.88h -6.80315" fill="none" stroke="black"/>
<path d="M63.9961,266.116h -6.80315" fill="none" stroke="black"/>
<path d="M63.9961,262.088h -6.80315" fill="none" stroke="black"/>
<path d="M63.9961,258.599h -6.80315" fill="none" stroke="black"/>
<path d="M63.9961,255.522h -6.80315" fill="none" stroke="black"/>
<path d="M70.7992,252.769h -13.6063" fill="none" stroke="black"/>
<text xml:space="preserve" x="47.823" y="253.178" fill="black" font-size="9.37414" font-family="Helvetica">2</text>
<text xml:space="preserve" x="33.1528" y="258.857" fill="black" font-size="13.8112" font-family="Helvetica">10</text>
<path d="M63.9961,234.658h -6.80315" fill="none" stroke="black"/>
<path d="M63.9961,224.064h -6.80315" fill="none" stroke="black"/>
<path d="M63.9961,216.547h -6.80315" fill="none" stroke="black"/>
<path d="M63.9961,210.717h -6.80315" fill="none" stroke="black"/>
<path d="M63.9961,205.953h -6.80315" fill="none" stroke="black"/>
<path d="M63.9961,201.926h -6.80315" fill="none" stroke="black"/>
<path d="M63.9961,198.437h -6.80315" fill="none" stroke="black"/>
<path d="M63.9961,195.359h -6.80315" fill="none" stroke="black"/>
<path d="M70.7992,192.606h -13.6063" fill="none" stroke="black"/>
<text xml:space="preserve" x="47.823" y="192.604" fill="black" font-size="9.37414" font-family="Helvetica">3</text>
<text xml:space="preserve" x="33.1528" y="198.756" fill="black" font-size="13.8112" font-family="Helvetica">10</text>
<path d="M63.9961,174.495h -6.80315" fill="none" stroke="black"/>
<path d="M63.9961,163.901h -6.80315" fill="none" stroke="black"/>
<path d="M63.9961,156.385h -6.80315" fill="none" stroke="black"/>
<path d="M63.9961,150.554h -6.80315" fill="none" stroke="black"/>
<path d="M63.9961,145.791h -6.80315" fill="none" stroke="black"/>
<path d="M63.9961,141.763h -6.80315" fill="none" stroke="black"/>
<path d="M63.9961,138.274h -6.80315" fill="none" stroke="black"/>
<path d="M63.9961,135.196h -6.80315" fill="none" stroke="black"/>
<path d="M70.7992,132.444h -13.6063" fill="none" stroke="black"/>
<text xml:space="preserve" x="47.823" y="132.504" fill="black" font-size="9.37414" font-family="Helvetica">4</text>
<text xml:space="preserve" x="33.1528" y="138.183" fill="black" font-size="13.8112" font-family="Helvetica">10</text>
<path d="M63.9961,114.333h -6.80315" fill="none" stroke="black"/>
<path d="M63.9961,103.739h -6.80315" fill="none" stroke="black"/>
<path d="M63.9961,96.222h -6.80315" fill="none" stroke="black"/>
<path d="M63.9961,90.3917h -6.80315" fill="none" stroke="black"/>
<path d="M63.9961,85.6279h -6.80315" fill="none" stroke="black"/>
<path d="M63.9961,81.6002h -6.80315" fill="none" stroke="black"/>
<path d="M63.9961,78.1113h -6.80315" fill="none" stroke="black"/>
<path d="M63.9961,75.0338h -6.80315" fill="none" stroke="black"/>
<path d="M70.7992,72.2809h -13.6063" fill="none" stroke="black"/>
<text xml:space="preserve" x="47.823" y="71.9309" fill="black" font-size="9.37414" font-family="Helvetica">5</text>
<text xml:space="preserve" x="33.1528" y="78.0829" fill="black" font-size="13.8112" font-family="Helvetica">10</text>
<path d="M63.9961,54.1701h -6.80315" fill="none" stroke="black"/>
<path d="M63.9961,43.576h -6.80315" fill="none" stroke="black"/>
<g transform="rotate(-90,22.7418,70.9845)">
<text xml:space="preserve" x="22.7418" y="70.9845" fill="black" font-size="13.8112" font-family="Helvetica">Yield</text>
</g>
<path d="M57.2441,373.094h 3.65362v -118.147h 0.110716v -22.7797h 0.110716v -9.87163h 0.110716v 1.76781h 0.110716v -2.33146h 0.110716v -1.54651h 0.110716v 1.22979h 0.110716v -1.37953h 0.110716v 1.45835h 0.110716v -0.623989h 0.110716v -2.2863h
 0.110716v -0.558916h 0.110716v 0.986091h 0.110716v -1.05512h 0.110716v 0.346995h 0.110716v -2.33742h 0.110716v 3.11743h 0.110716v -0.988757h 0.110716v 0.278705h 0.110716v -2.78789h 0.110716v -1.9992h 0.110716v -0.0582571h 0.110716v -0.689138h
 0.110716v 1.39695h 0.110716v -3.62313h 0.110716v -0.155681h 0.110716v -1.89563h 0.110716v -6.71038h 0.110716v -10.1941h 0.110716v -5.82533h 0.110716v -8.65574h 0.110716v -10.3176h 0.110716v -9.55621h 0.110716v -1.10609h 0.110716v 9.93139h 0.110716v
 21.2405h 0.110716v 19.3364h 0.110716v 9.90853h 0.110716v 2.76017h 0.110716v 0.813111h 0.110716v -5.16115h 0.110716v -4.4642h 0.110716v -2.47612h 0.110716v -4.85808h 0.110716v -11.7703h 0.110716v -9.28679h 0.110716v -0.278891h 0.110716v 8.77759h
 0.110716v 4.7492h 0.110716v 7.41984h 0.110716v -1.02328h 0.110716v -5.17552h 0.110716v -6.35555h 0.110716v -7.05846h 0.110716v -7.83852h 0.110716v -4.94784h 0.110716v -4.01491h 0.110716v -1.55466h 0.110716v -3.06642h 0.110716v -8.44239h 0.110716v
 -24.463h 0.110716v -27.1647h 0.110716v -21.1557h 0.110716v -8.46351h 0.110716v 1.92067h 0.110716v 16.0008h 0.110716v 27.345h 0.110716v 34.6533h 0.110716v 22.8845h 0.110716v 5.92014h 0.110716v 1.95297h 0.110716v 1.5336h 0.110716v -3.26918h 0.110716v
 -17.1792h 0.110716v -25.8968h 0.110716v -19.1103h 0.110716v -8.67107h 0.110716v 4.90734h 0.110716v 11.4962h 0.110716v 14.0086h 0.110716v 13.7828h 0.110716v 22.496h 0.110716v 20.4611h 0.110716v 12.7993h 0.110716v 2.52099h 0.110716v 0.454417h
 0.110716v 3.29323h 0.110716v -1.81999h 0.110716v 2.74616h 0.110716v -1.44102h 0.110716v -1.36569h 0.110716v 3.62756h 0.110716v -0.685822h 0.110716v 0.203863h 0.110716v -0.540139h 0.110716v -1.23978h 0.110716v -0.691765h 0.110716v 4.2354h 0.110716v
 -2.37059h 0.110716v -0.593102h 0.110716v 2.03172h 0.110716v -2.29106h 0.110716v -1.5042h 0.110716v -0.362899h 0.110716v 1.9317h 0.110716v 1.46304h 0.110716v 0.344252h 0.110716v -0.616424h 0.110716v -2.01838h 0.110716v -0.496515h 0.110716v -0.667659h
 0.110716v 2.18644h 0.110716v 0.327838h 0.110716v -1.28737h 0.110716v 0.894455h 0.110716v 0.52521h 0.110716v 0.3337h 0.110716v 0.0672544h 0.110716v -2.00837h 0.110716v -3.38742h 0.110716v 0.721976h 0.110716v 3.23279h 0.110716v -1.48637h 0.110716v
 -2.46839h 0.110716v -2.8513h 0.110716v -2.79215h 0.110716v -3.23393h 0.110716v -2.31243h 0.110716v -5.51435h 0.110716v 2.58005h 0.110716v -7.8967h 0.110716v -13.1101h 0.110716v -11.3724h 0.110716v 0.978985h 0.110716v 11.6961h 0.110716v 17.8272h
 0.110716v 13.199h 0.110716v 3.24407h 0.221432v -1.09111h 0.110716v -5.21403h 0.110716v -2.30262h 0.110716v 0.772722h 0.110716v 2.23971h 0.110716v 1.29055h 0.110716v 3.05386h 0.110716v -0.0530524h 0.110716v -3.14217h 0.110716v -0.649761h 0.110716v
 -1.42716h 0.110716v -4.49473h 0.110716v -1.59477h 0.110716v -1.503h 0.110716v 1.29754h 0.110716v -3.80258h 0.110716v -5.00349h 0.110716v -13.3275h 0.110716v -17.2109h 0.110716v -10.9225h 0.110716v -5.7815h 0.110716v 3.84269h 0.110716v 14.5007h
 0.110716v 19.0541h 0.110716v 12.5356h 0.110716v 5.44188h 0.110716v 1.01679h 0.110716v -0.445477h 0.110716v -2.49338h 0.110716v -1.47114h 0.110716v -7.74916h 0.110716v -11.8923h 0.110716v -10.0188h 0.110716v -4.15471h 0.110716v 4.76216h 0.110716v
 9.82767h 0.110716v 7.87342h 0.110716v 9.38422h 0.110716v 9.14583h 0.110716v 5.78238h 0.110716v -0.0478979h 0.110716v -2.24553h 0.110716v 0.984402h 0.110716v -0.31726h 0.110716v -3.21725h 0.110716v -1.73354h 0.110716v -5.09708h 0.110716v 4.65359h
 0.110716v 0.406244h 0.110716v -0.406244h 0.110716v 2.09749h 0.110716v 3.56849h 0.110716v 5.33439h 0.110716v 0.564348h 0.110716v -0.170588h 0.110716v -0.781675h 0.110716v -0.651884h 0.110716v 2.95036h 0.110716v -0.769406h 0.110716v -0.519696h
 0.110716v 2.45601h 0.110716v -2.34141h 0.110716v -1.93632h 0.110716v 3.78003h 0.110716v -0.367149h 0.110716v -3.41289h 0.110716v 1.0333h 0.110716v 3.18169h 0.110716v -0.680302h 0.110716v 0.183787h 0.110716v -0.547528h 0.221432v -10.271h 0.110716v
 -10.8502h 0.110716v -17.814h 0.110716v -13.6867h 0.110716v -5.28479h 0.110716v -14.1726h 0.110716v -25.0673h 0.110716v -17.9899h 0.110716v -4.12413h 0.110716v 9.33267h 0.110716v 24.0935h 0.110716v 32.9806h 0.110716v 31.0705h 0.110716v 9.78298h
 0.110716v 3.32106h 0.110716v -1.67278h 0.110716v -3.05496h 0.110716v -2.11078h 0.110716v 1.36471h 0.110716v 6.08554h 0.110716v 11.5394h 0.110716v 0.485799h 0.110716v -0.895129h 0.110716v 1.31884h 0.110716v -1.85482h 0.110716v 0.266618h 0.110716v
 -0.856743h 0.110716v 1.74253h 0.110716v -0.9527h 0.110716v -5.24926h 0.110716v 2.34312h 0.110716v 0.119855h 0.110716v 1.04159h 0.110716v 1.41269h 0.110716v 3.15181h 0.110716v -1.65835h 0.110716v 3.11243h 0.110716v -0.312918h 0.110716v -3.82697h
 0.110716v 2.24295h 0.110716v -3.10186h 0.110716v -1.26861h 0.110716v -1.15068h 0.110716v -1.15887h 0.110716v 0.4574h 0.110716v -0.229701h 0.110716v 1.53047h 0.110716v 0.366291h 0.110716v 2.17862h 0.110716v 1.37188h 0.110716v -0.626275h 0.110716v
 -0.678696h 0.110716v -1.37034h 0.110716v 2.11788h 0.110716v -0.410401h 0.110716v -4.47944h 0.110716v -0.56557h 0.110716v 0.451472h 0.110716v 2.19595h 0.110716v 0.500079h 0.110716v 2.30791h 0.110716v -2.24472h 0.110716v 1.90227h 0.110716v 0.480692h
 0.110716v -2.06471h 0.110716v 0.128395h 0.110716v 2.85319h 0.110716v -1.26113h 0.110716v -3.21391h 0.110716v -0.950225h 0.110716v -0.973128h 0.110716v -2.76974h 0.110716v -0.747286h 0.110716v -3.31649h 0.110716v 3.76229h 0.110716v 6.23312h 0.110716v
 3.52521h 0.110716v -1.82201h 0.110716v 3.08594h 0.110716v -3.55552h 0.110716v 2.80465h 0.110716v -2.87105h 0.221432v 0.808157h 0.110716v -1.78442h 0.110716v -0.254292h 0.110716v 0.190487h 0.221432v -0.815596h 0.110716v 2.86983h 0.110716v -1.92647h
 0.110716v 2.62513h 0.110716v -4.05803h 0.110716v -2.92209h 0.221432v -2.08304h 0.110716v -0.0999172h 0.110716v -6.14756h 0.110716v -8.44575h 0.110716v -4.61596h 0.110716v -5.57573h 0.110716v -10.7673h 0.110716v -15.6518h 0.110716v -8.79848h
 0.110716v 2.25158h 0.110716v 10.1012h 0.110716v 20.5914h 0.110716v 21.1882h 0.110716v 11.7131h 0.110716v -0.919027h 0.110716v 0.363741h 0.110716v -3.05033h 0.110716v -0.643851h 0.110716v -3.92909h 0.110716v -7.48243h 0.110716v -10.6055h 0.110716v
 -4.95323h 0.110716v 1.05953h 0.110716v 8.471h 0.110716v 8.46721h 0.110716v 7.78115h 0.110716v 8.06243h 0.110716v 1.19908h 0.110716v 2.33916h 0.110716v 2.05194h 0.110716v -1.41269h 0.110716v 3.54679h 0.110716v -3.86838h 0.110716v 3.77589h 0.110716v
 -3.45431h 0.110716v -2.17215h 0.110716v 1.69125h 0.110716v 2.58577h 0.110716v -2.10487h 0.110716v 1.32744h 0.110716v -2.04551h 0.110716v 1.96054h 0.110716v -0.587178h 0.110716v -0.816576h 0.110716v 1.57397h 0.110716v -2.44368h 0.110716v -0.690656h
 0.110716v 4.44759h 0.110716v -2.72594h 0.110716v -0.161286h 0.110716v -2.30694h 0.110716v 1.28217h 0.110716v 1.51165h 0.110716v -1.51165h 0.110716v 2.09138h 0.110716v -1.30669h 0.110716v -0.158835h 0.110716v -0.236457h 0.110716v -0.773084h 0.110716v
 -0.151909h 0.110716v -0.301194h 0.110716v 0.529391h 0.110716v 1.73726h 0.110716v -1.11881h 0.110716v -2.53293h 0.110716v 5.5128h 0.110716v -0.520847h 0.110716v -2.30209h 0.110716v 1.208h 0.110716v -1.90686h 0.110716v -0.455738h 0.110716v 1.07602h
 0.110716v 0.958945h 0.110716v -0.643191h 0.110716v -3.76544h 0.110716v 0.626275h 0.110716v -2.29106h 0.110716v -2.86876h 0.110716v -2.63702h 0.110716v 6.76124h 0.110716v 1.46162h 0.110716v 0.725833h 0.110716v -1.91528h 0.110716v 2.96656h 0.110716v
 0.308302h 0.110716v -1.13784h 0.110716v 2.81896h 0.110716v -0.410186h 0.110716v -2.48289h 0.110716v 1.4456h 0.110716v -2.88554h 0.110716v 2.3436h 0.110716v -0.977576h 0.110716v -1.08432h 0.110716v -1.04111h 0.110716v 2.19934h 0.110716v -1.92574h
 0.110716v 0.346075h 0.110716v -1.35762h 0.110716v 2.06383h 0.110716v -5.17803h 0.110716v 4.19459h 0.110716v -3.66073h 0.110716v -1.3432h 0.110716v 1.94946h 0.110716v -2.40093h 0.110716v 1.91481h 0.110716v 1.67826h 0.110716v 4.54639h 0.110716v
 -2.26709h 0.110716v 3.04247h 0.110716v -2.18806h 0.110716v -2.68041h 0.110716v 3.4144h 0.110716v -1.09339h 0.110716v -0.70431h 0.110716v -2.38902h 0.110716v 2.18138h 0.110716v -1.73364h 0.110716v 1.12043h 0.110716v -1.24914h 0.110716v 1.58803h
 0.110716v -1.52376h 0.110716v 0.717677h 0.110716v -1.16433h 0.110716v 0.0633414h 0.110716v 2.59833h 0.110716v -1.49734h 0.110716v -2.09647h 0.110716v 3.45409h 0.110716v -3.45409h 0.110716v 0.183787h 0.221432v 1.78072h 0.110716v 0.397901h 0.110716v
 0.745606h 0.110716v -0.205466h 0.221432v -0.406148h 0.110716v -1.75336h 0.110716v -1.52484h 0.110716v 2.1606h 0.110716v -2.97717h 0.110716v 3.04161h 0.110716v -0.950225h 0.110716v -0.675505h 0.110716v 1.24148h 0.110716v -0.126837h 0.110716v
 -0.0631882h 0.110716v 0.253675h 0.110716v 0.710579h 0.110716v 0.197196h 0.110716v -2.69344h 0.110716v 2.69344h 0.110716v 1.2847h 0.110716v 0.138981h 0.110716v -4.82175h 0.110716v -6.97519h 0.110716v -9.76792h 0.110716v -6.97695h 0.110716v -0.39431h
 0.110716v 6.17798h 0.110716v 9.91767h 0.110716v 6.94052h 0.110716v 4.94226h 0.110716v -2.73946h 0.221432v 0.0605523h 0.110716v 0.925539h 0.110716v -0.804012h 0.110716v 2.62463h 0.110716v 1.17063h 0.110716v -3.42725h 0.110716v 3.21682h 0.110716v
 -3.64567h 0.110716v 3.71562h 0.110716v -1.23141h 0.110716v -1.30343h 0.110716v 3.02984h 0.110716v -2.71002h 0.110716v 0.651613h 0.110716v 1.98712h 0.110716v -2.76713h 0.110716v 2.69603h 0.110716v -1.17997h 0.110716v 0.618044h 0.110716v -1.3541h
 0.110716v 1.42368h 0.110716v 0.492338h 0.110716v -1.51711h 0.110716v 2.60444h 0.110716v -1.01623h 0.110716v -0.0710975h 0.110716v 2.76868h 0.110716v -2.69758h 0.110716v -1.31884h 0.110716v 2.18745h 0.110716v -3.44291h 0.110716v 3.29612h 0.110716v
 -1.97289h 0.110716v 0.967826h 0.110716v 1.59723h 0.110716v -0.883295h 0.110716v -2.0189h 0.110716v 4.52368h 0.110716v -4.98849h 0.110716v 0.531892h 0.110716v 0.542946h 0.110716v -0.542946h 0.110716v 0.0672544h 0.110716v 2.99343h 0.110716v -0.744447h
 0.110716v -1.21883h 0.110716v 0.495003h 0.110716v -0.634727h 0.110716v -2.20369h 0.110716v 4.84072h 0.110716v -0.759598h 0.110716v -1.80766h 0.110716v 0.780008h 0.110716v -1.26452h 0.110716v 4.07346h 0.110716v -3.86691h 0.110716v 0.914409h 0.110716v
 -2.52281h 0.110716v 0.993592h 0.110716v 0.339775h 0.110716v -0.874388h 0.110716v 0.0662315h 0.110716v -0.263925h 0.110716v 1.69504h 0.110716v -0.962731h 0.110716v 1.17373h 0.110716v 0.861451h 0.110716v -0.0728824h 0.110716v -2.76017h 0.110716v
 1.2748h 0.110716v 0.980803h 0.110716v -0.42486h 0.110716v -0.555943h 0.110716v -1.07761h 0.110716v 0.066064h 0.110716v 1.49734h 0.110716v -0.347919h 0.110716v -0.137881h 0.110716v 1.41269h 0.110716v -0.360396h 0.110716v -3.41727h 0.110716v 2.99125h
 0.110716v -2.3555h 0.110716v -0.128395h 0.110716v 2.20369h 0.110716v -2.33146h 0.110716v -1.00025h 0.110716v -2.23254h 0.110716v -0.280049h 0.110716v 0.223799h 0.110716v 1.32542h 0.110716v 0.0591808h 0.110716v 4.37562h 0.110716v -0.827351h 0.110716v
 -1.25864h 0.110716v -0.764786h 0.110716v 0.700192h 0.110716v 1.18786h 0.110716v 0.684026h 0.110716v -2.94623h 0.110716v -0.852748h 0.110716v 1.41602h 0.110716v -0.563267h 0.110716v 1.86022h 0.110716v 1.01679h 0.110716v -0.479432h 0.110716v 2.71522h
 0.110716v -3.84419h 0.110716v 0.392914h 0.110716v -0.131629h 0.110716v -0.903291h 0.110716v 2.88004h 0.110716v -1.97675h 0.110716v 1.20924h 0.110716v -0.945314h 0.110716v 1.50126h 0.110716v 0.496347h 0.110716v 2.08542h 0.110716v -2.86121h 0.110716v
 -0.207643h 0.110716v 1.41652h 0.110716v -1.41652h 0.110716v 1.05512h 0.110716v -1.26113h 0.110716v -2.1019h 0.110716v 2.795h 0.110716v 0.784265h 0.110716v -2.21912h 0.110716v 1.29476h 0.221432v -1.29476h 0.110716v 0.810245h 0.110716v 0.907082h
 0.110716v -1.31535h 0.110716v 2.32876h 0.110716v -1.15503h 0.110716v 0.861451h 0.110716v 1.65711h 0.110716v 0.950225h 0.110716v 1.92391h 0.110716v -2.0847h 0.110716v 2.61079h 0.110716v -1.54752h 0.110716v 0.0836107h 0.221432v 1.37549h 0.110716v
 0.266165h 0.110716v -1.38921h 0.221432v 1.21146h 0.110716v 0.356706h 0.110716v -0.533249h 0.110716v 2.3937h 0.110716v -1.68026h 0.110716v 0.548167h 0.110716v 1.22868h 0.110716v -0.19283h 0.110716v 0.387093h 0.110716v -1.69847h 0.110716v -0.0911984h
 0.110716v 1.11597h 0.110716v 3.99605h 0.110716v -2.32876h 0.221432v 1.56504h 0.110716v -2.55863h 0.110716v -0.957188h 0.110716v 1.95078h 0.110716v 1.24444h 0.110716v -4.47898h 0.110716v 5.01551h 0.110716v -5.28258h 0.110716v 2.70373h 0.110716v
 2.57885h 0.110716v -4.28968h 0.110716v 6.0846h 0.110716v -2.33146h 0.110716v -2.72101h 0.110716v 1.47657h 0.110716v -0.600677h 0.110716v 1.52841h 0.110716v 0.316711h 0.110716v 3.03767h 0.110716v -3.24924h 0.110716v -6.90372h 0.110716v -3.40793h
 0.110716v -5.13971h 0.110716v 0.889813h 0.110716v 3.82733h 0.110716v 2.56726h 0.110716v 8.48496h 0.110716v -0.42314h 0.110716v 1.96054h 0.110716v 0.341551h 0.110716v -1.34021h 0.110716v 1.80267h 0.110716v -3.28402h 0.110716v 0.942607h 0.110716v
 -1.45195h 0.110716v 1.77386h 0.110716v 3.45812h 0.110716v -3.02264h 0.110716v 2.89968h 0.110716v -2.89968h 0.110716v 2.53424h 0.110716v -1.29784h 0.110716v 5.62971h 0.110716v -9.17615h 0.110716v 4.12839h 0.110716v 0.475073h 0.110716v 3.72977h
 0.110716v -0.950225h 0.110716v -0.787848h 0.110716v -0.890102h 0.110716v 0.251236h 0.110716v -2.86625h 0.110716v 8.63358h 0.110716v -7.00003h 0.110716v -1.8588h 0.110716v 2.10073h 0.110716v 1.37221h 0.110716v -0.632678h 0.110716v 1.15009h 0.110716v
 0.130969h 0.110716v -1.28106h 0.110716v -0.372381h 0.110716v 1.26248h 0.110716v -0.638866h 0.110716v 1.56036h 0.110716v -2.42932h 0.110716v -1.99729h 0.110716v 5.94372h 0.110716v -2.04765h 0.110716v 1.90603h 0.110716v -4.64579h 0.110716v 3.2703h
 0.110716v 1.09454h 0.110716v -0.415844h 0.110716v 3.06029h 0.110716v 0.467982h 0.110716v -1.22979h 0.110716v -1.60168h 0.110716v 0.427175h 0.110716v 2.72101h 0.110716v 1.13973h 0.110716v -6.45524h 0.110716v 6.28934h 0.110716v 1.18401h 0.110716v
 -1.51267h 0.110716v 0.163814h 0.110716v -4.37748h 0.110716v 1.72337h 0.110716v 1.21549h 0.110716v 5.52115h 0.110716v -1.67427h 0.110716v 1.10418h 0.110716v 1.15291h 0.110716v -4.3346h 0.110716v -1.92443h 0.110716v 3.82237h 0.110716v -1.56296h
 0.110716v 1.92335h 0.110716v 0.365437h 0.110716v -1.77812h 0.110716v -1.01155h 0.110716v 3.34759h 0.110716v -3.51244h 0.110716v 2.22868h 0.110716v 1.47241h 0.110716v -0.929931h 0.110716v 2.69206h 0.110716v -3.05496h 0.110716v 1.10418h 0.110716v
 0.957188h 0.110716v 0.59161h 0.110716v -5.06123h 0.110716v 2.05033h 0.110716v 4.44576h 0.110716v -3.35692h 0.110716v 1.92207h 0.110716v -5.54963h 0.110716v -0.16079h 0.110716v -7.71625h 0.110716v 5.12415h 0.221432v 4.24635h 0.110716v 5.28116h
 0.110716v 2.63702h 0.110716v -3.2567h 0.110716v 0.82954h 0.110716v -0.209867h 0.110716v 0.849776h 0.110716v 2.0195h 0.110716v -5.64306h 0.110716v -2.6776h 0.110716v 0.514016h 0.110716v 3.31649h 0.110716v -1.15291h 0.221432v 1.15291h 0.110716v
 1.41269h 0.110716v -2.56559h 0.110716v 3.19522h 0.110716v 1.75719h 0.110716v -4.57373h 0.110716v 5.26439h 0.110716v -2.65941h 0.110716v 8.08468h 0.110716v -0.568029h 0.110716v -8.9515h 0.110716v 2.95311h 0.110716v 1.61195h 0.110716v 2.75289h
 0.110716v -7.31795h 0.110716v 1.85972h 0.110716v 2.70534h 0.110716v 3.01816h 0.110716v -2.53873h 0.110716v -0.715889h 0.110716v -2.89375h 0.110716v 9.56125h 0.110716v -9.56125h 0.110716v 2.42716h 0.110716v 2.93336h 0.110716v -1.50782h 0.110716v
 -0.958945h 0.110716v 1.70198h 0.110716v -0.743035h 0.110716v 2.83442h 0.110716v -4.49016h 0.110716v 2.65123h 0.110716v 0.512336h 0.110716v 2.72416h 0.110716v -0.568029h 0.110716v -5.08949h 0.110716v 4.53355h 0.110716v -3.35107h 0.110716v 1.75088h
 0.110716v 2.15614h 0.110716v 3.93422h 0.110716v -5.83037h 0.110716v -0.259985h 0.110716v -1.75088h 0.110716v 4.76376h 0.221432v 2.11559h 0.110716v -6.87934h 0.110716v -16.7451h 0.110716v -17.8546h 0.110716v -24.1463h 0.110716v -15.1098h 0.110716v
 -10.9074h 0.110716v 0.795167h 0.110716v 10.5019h 0.110716v 21.5064h 0.110716v 22.0723h 0.110716v 19.7816h 0.110716v 7.35283h 0.110716v 5.02635h 0.110716v 1.91602h 0.110716v -3.70109h 0.110716v 1.26248h 0.110716v 0.522584h 0.110716v 3.67815h
 0.110716v -4.20073h 0.110716v -0.257424h 0.110716v 1.31326h 0.110716v -3.98919h 0.110716v 3.7212h 0.110716v -2.05033h 0.110716v 2.58908h 0.110716v 5.09242h 0.110716v -5.63117h 0.110716v 1.08884h 0.221432v 7.332h 0.110716v -6.1958h 0.110716v
 -4.27536h 0.110716v -2.57978h 0.110716v 8.04299h 0.110716v -3.41289h 0.110716v 2.22503h 0.110716v 2.4323h 0.110716v 0.320597h 0.110716v -0.637308h 0.110716v 1.96054h 0.110716v -3.19034h 0.110716v 3.19034h 0.110716v -0.669994h 0.110716v -2.52034h
 0.110716v -3.11082h 0.110716v 9.16741h 0.110716v -7.79912h 0.110716v 11.4509h 0.110716v -14.3718h 0.110716v 5.58033h 0.110716v 1.60347h 0.110716v -5.09242h 0.110716v 4.43918h 0.110716v 3.44291h 0.110716v -5.31001h 0.110716v 8.43353h 0.110716v
 -3.48895h 0.110716v -1.41269h 0.110716v -4.70639h 0.110716v -1.12397h 0.110716v 6.88265h 0.110716v -0.706214h 0.110716v 4.55556h 0.110716v -8.73214h 0.110716v -0.587178h 0.110716v 9.73738h 0.110716v -12.2277h 0.110716v 7.60477h 0.110716v 1.8279h
 0.110716v -8.62866h 0.110716v 2.87414h 0.110716v -3.94075h 0.110716v 4.86848h 0.110716v 0.637308h 0.110716v 3.44291h 0.110716v -3.11833h 0.110716v -2.19168h 0.110716v 3.19034h 0.110716v 0.341551h 0.110716v -3.8305h 0.110716v 2.81896h 0.110716v
 -5.63117h 0.110716v -13.2936h 0.110716v -20.6302h 0.110716v -25.9439h 0.110716v -23.73h 0.110716v -17.3327h 0.110716v -8.82344h 0.110716v 0.594081h 0.110716v 10.5716h 0.110716v 20.4886h 0.110716v 26.8031h 0.110716v 23.6804h 0.110716v 14.8078h
 0.110716v 0.661512h 0.110716v 4.16765h 0.110716v 2.04231h 0.110716v -11.0851h 0.110716v -4.57779h 0.110716v -17.9352h 0.110716v -10.2593h 0.110716v -3.72576h 0.110716v 3.21535h 0.110716v 12.4677h 0.110716v 14.0026h 0.110716v 14.515h 0.110716v
 9.31932h 0.110716v 4.65733h 0.110716v -1.84512h 0.110716v 5.60862h 0.110716v -6.48452h 0.110716v -6.11592h 0.110716v -5.32568h 0.110716v -11.023h 0.110716v -0.719173h 0.110716v 5.65362h 0.110716v 5.90386h 0.110716v 8.1373h 0.110716v -1.46552h
 0.110716v 4.66892h 0.110716v 8.6781h 0.110716v 2.49029h 0.110716v -2.09138h 0.110716v 2.53052h 0.110716v -1.71395h 0.110716v -5.91318h 0.110716v 7.62713h 0.110716v -2.53052h 0.110716v -2.67237h 0.110716v 5.64955h 0.110716v 0.916877h 0.110716v
 -4.68588h 0.110716v 3.32235h 0.110716v -3.32235h 0.110716v -2.24094h 0.110716v 11.5046h 0.110716v -8.87075h 0.110716v 8.32066h 0.110716v -9.85806h 0.110716v 6.78059h 0.110716v -5.6361h 0.110716v 1.6084h 0.221432v 3.07747h 0.110716v 2.44368h
 0.110716v -3.8072h 0.110716v -5.56329h 0.110716v 1.47241h 0.110716v -0.375953h 0.110716v -0.370621h 0.110716v -3.11833h 0.110716v -9.93261h 0.110716v 4.63011h 0.110716v -5.7235h 0.110716v 5.7235h 0.110716v 6.64271h 0.110716v 3.29323h 0.110716v
 0.791828h 0.221432v -1.17892h 0.110716v 3.70944h 0.110716v -2.12542h 0.110716v 2.12542h 0.110716v -4.09089h 0.221432v -0.375953h 0.110716v -5.97925h 0.110716v 1.84512h 0.110716v 3.39807h 0.110716v 5.2029h 0.110716v -10.7413h 0.110716v -0.866211h
 0.110716v 7.89809h 0.110716v -3.24769h 0.110716v -4.07613h 0.110716v -1.68628h 0.110716v -1.58402h 0.110716v -1.97289h 0.110716v -8.4499h 0.110716v -10.8223h 0.110716v -18.6727h 0.110716v -16.2684h 0.110716v -11.7417h 0.110716v -5.84178h 0.110716v
 3.35668h 0.110716v 11.0567h 0.110716v 16.054h 0.110716v 23.4573h 0.110716v 18.1108h 0.110716v 8.41071h 0.110716v -3.1142h 0.110716v 2.78553h 0.110716v -9.25391h 0.110716v -10.1317h 0.110716v -12.781h 0.110716v -8.19901h 0.110716v -5.50788h 0.110716v
 2.42266h 0.110716v 7.4754h 0.110716v 13.2373h 0.110716v 7.38021h 0.110716v 10.3234h 0.110716v 1.95705h 0.110716v 12.8676h 0.110716v 1.97289h 0.110716v -2.44368h 0.110716v -7.63303h 0.110716v 2.56006h 0.110716v -2.20934h 0.110716v 2.59644h 0.110716v
 -4.63344h 0.110716v 2.037h 0.110716v 2.20934h 0.110716v 1.58402h 0.110716v 1.68628h 0.110716v 15.6205h 0.110716v -11.3741h 0.110716v 2.13411h 0.110716v 0.561921h 0.110716v -5.60217h 0.110716v 2.90614h 0.110716v -2.90614h 0.110716v -1.34021h
 0.110716v 6.94238h 0.110716v 0.574272h 0.110716v -10.3999h 0.110716v 7.64696h 0.110716v -6.03856h 0.110716v 3.07747h 0.110716v 7.51665h 0.110716v -5.58033h 0.110716v -1.46552h 0.110716v -1.38767h 0.110716v 6.05659h 0.110716v -3.70109h 0.110716v
 1.00506h 0.110716v 5.7026h 0.110716v -4.11858h 0.221432v 2.27346h 0.110716v 5.24319h 0.110716v -8.0554h 0.110716v -2.53873h 0.110716v -1.8671h 0.110716v -4.91349h 0.110716v -11.0871h 0.110716v -11.3166h 0.110716v -29.0197h 0.110716v -25.4705h
 0.110716v -26.0204h 0.110716v -21.5101h 0.110716v -16.0554h 0.110716v -6.73978h 0.110716v 1.03779h 0.110716v 10.5193h 0.110716v 18.294h 0.110716v 24.7627h 0.110716v 24.519h 0.110716v 21.0851h 0.110716v 10.2261h 0.110716v 11.2416h 0.110716v 4.09803h
 0.110716v 8.23862h 0.110716v 1.15121h 0.110716v 2.98935h 0.110716v 1.3541h 0.110716v -1.3541h 0.110716v 4.60588h 0.110716v 6.79225h 0.110716v -0.405098h 0.110716v -7.31488h 0.110716v -5.46322h 0.110716v 4.86254h 0.110716v 3.48895h 0.110716v
 -1.64383h 0.110716v -3.84498h 0.110716v -4.76376h 0.110716v -6.81985h 0.110716v -2.1998h 0.110716v -5.27268h 0.110716v 4.16067h 0.110716v 6.70007h 0.110716v 13.6842h 0.110716v 1.39384h 0.110716v 5.12415h 0.110716v -5.12415h 0.110716v -1.39384h
 0.221432v -3.19034h 0.110716v 0.916877h 0.110716v -8.2073h 0.110716v -1.75719h 0.110716v 1.30669h 0.110716v -1.09339h 0.110716v 5.99149h 0.110716v 1.38277h 0.110716v 4.31326h 0.110716v 0.678696h 0.110716v 9.41773h 0.110716v 1.00506h 0.110716v
 5.07297h 0.110716v -16.1745h 0.110716v 0.337144h 0.110716v 2.49029h 0.110716v -1.09645h 0.110716v 6.46436h 0.110716v -6.81985h 0.110716v 3.79336h 0.110716v -0.405098h 0.110716v -5.74985h 0.110716v -0.320597h 0.110716v 0.320597h 0.110716v -0.637308h
 0.110716v 4.08022h 0.110716v -13.7125h 0.110716v -4.21367h 0.110716v -3.78835h 0.110716v -3.58894h 0.110716v 3.2703h 0.110716v 2.49029h 0.110716v 5.83037h 0.110716v 11.9343h 0.110716v 8.92933h 0.110716v 0.986091h 0.110716v -2.39878h 0.110716v
 -4.61051h 0.110716v 5.54376h 0.110716v -7.03722h 0.110716v -1.06661h 0.110716v 1.43205h 0.110716v -6.77007h 0.110716v -6.05659h 0.110716v 2.3555h 0.110716v -3.45812h 0.110716v -14.405h 0.110716v -23.0811h 0.110716v -22.1972h 0.110716v -16.2774h
 0.110716v -10.1939h 0.110716v -2.88512h 0.110716v 6.96477h 0.110716v 14.5147h 0.110716v 18.7031h 0.110716v 13.7382h 0.110716v -8.44323h 0.110716v -13.3144h 0.110716v -16.8953h 0.110716v -11.6376h 0.110716v -3.59452h 0.110716v 2.2026h 0.110716v
 10.431h 0.110716v 18.4615h 0.110716v 23.073h 0.110716v 18.1678h 0.110716v 13.6146h 0.110716v 1.38069h 0.110716v 3.69228h 0.110716v -10.5941h 0.110716v -13.4402h 0.110716v -13.2725h 0.110716v -12.8955h 0.110716v -3.95441h 0.110716v 4.12574h 0.110716v
 6.97229h 0.110716v 11.2073h 0.110716v 15.5516h 0.110716v 11.8096h 0.110716v 13.6103h 0.110716v 7.62713h 0.110716v 5.39122h 0.110716v 0.55009h 0.110716v 2.93886h 0.110716v 1.2748h 0.110716v -1.88962h 0.110716v 2.55113h 0.110716v 5.99839h 0.110716v
 -7.93471h 0.110716v 25.2159h 0.110716v -15.5387h 0.110716v -2.57207h 0.110716v 0.82954h 0.110716v 7.79912h 0.110716v -5.13971h 0.110716v -10.5941h 0.110716v 3.31181h 0.110716v 8.23254h 0.110716v -0.950225h 0.110716v -9.96449h 0.110716v 6.47554h
 0.110716v -3.07747h 0.110716v 3.07747h 0.110716v 7.51665h 0.110716v -6.68711h 0.110716v -3.17095h 0.110716v -1.45195h 0.110716v 6.36543h 0.110716v 0.916877h 0.110716v 7.51665h 0.110716v -12.5896h 0.110716v 2.41356h 0.110716v -5.99839h 0.110716v
 -1.30669h 0.110716v -1.24444h 0.110716v -2.87414h 0.110716v -2.09138h 0.110716v 5.58033h 0.110716v 5.52115h 0.110716v 3.2703h 0.110716v -11.1684h 0.110716v 8.6781h 0.110716v 7.25405h 0.110716v -5.6205h 0.110716v -7.30508h 0.110716v -7.19605h
 0.110716v 5.35093h 0.110716v 6.73664h 0.110716v -0.757396h 0.110716v -2.14874h 0.110716v 5.3197h 0.110716v -5.99839h 0.110716v 8.6578h 0.110716v 6.30116h 0.110716v -13.5835h 0.110716v 5.47964h 0.110716v -8.16182h 0.110716v -5.7026h 0.221432v
 -0.507362h 0.110716v -1.93632h 0.110716v -5.45441h 0.110716v -9.95525h 0.110716v -14.0615h 0.110716v -16.1512h 0.110716v -9.62681h 0.110716v -5.33007h 0.110716v 0.887374h 0.110716v 8.98217h 0.110716v 12.4687h 0.110716v 15.8373h 0.110716v 15.1214h
 0.110716v 1.08133h 0.110716v -15.6021h 0.110716v -6.74585h 0.110716v -7.32034h 0.110716v 0.118496h 0.110716v 0.119036h 0.110716v 0.119581h 0.110716v 2.77954h 0.110716v 4.0277h 0.110716v 4.95106h 0.110716v 11.649h 0.110716v 5.53843h 0.110716v
 3.90701h 0.110716v 0.42486h 0.110716v 2.23455h 0.110716v -6.20099h 0.110716v -5.90386h 0.110716v -2.78223h 0.110716v -1.78507h 0.110716v 7.35283h 0.110716v 6.24184h 0.110716v 13.2091h 0.110716v 9.91543h 0.110716v -3.73898h 0.110716v 6.94238h
 0.110716v -7.79912h 0.110716v 8.96057h 0.110716v -11.3741h 0.110716v -2.90614h 0.110716v -0.678696h 0.110716v 2.09138h 0.110716v -2.75289h 0.110716v 8.40244h 0.110716v -1.74253h 0.110716v -3.90701h 0.110716v 15.3579h 0.110716v -4.76376h 0.110716v
 -1.06661h 0.110716v 11.6607h 0.110716v -18.9148h 0.110716v 10.5941h 0.221432v -9.79011h 0.110716v 0.82954h 0.110716v 2.65941h 0.110716v 0.950225h 0.110716v 5.35093h 0.110716v -8.10383h 0.110716v 6.94238h 0.110716v 1.16145h 0.221432v 3.8305h
 0.110716v -7.17057h 0.110716v -6.45004h 0.110716v 8.62866h 0.110716v -3.20339h 0.110716v -7.00929h 0.110716v -4.24635h 0.110716v -13.8644h 0.110716v -23.6319h 0.110716v -16.0906h 0.110716v -23.6879h 0.110716v -13.9441h 0.110716v -9.30936h 0.110716v
 1.4615h 0.110716v 8.63571h 0.110716v 15.7213h 0.110716v 24.3372h 0.110716v 26.4314h 0.110716v 25.9781h 0.110716v 14.799h 0.110716v -3.48895h 0.110716v 6.10396h 0.110716v 12.0068h 0.110716v -12.0068h 0.110716v -3.8305h 0.110716v 6.73664h 0.110716v
 13.8644h 0.110716v -6.85514h 0.110716v 9.60803h 0.110716v -16.6173h 0.110716v -4.24635h 0.110716v 2.75289h 0.110716v 6.56642h 0.221432v 14.6218h 0.110716v -5.83037h 0.110716v -24.9659h 0.110716v 1.02477h 0.110716v 2.17862h 0.110716v -10.2127h
 0.110716v 10.2127h 0.110716v 6.40464h 0.110716v -9.60803h 0.110716v 22.4756h 0.110716v -6.30116h 0.110716v 6.30116h 0.110716v -4.36484h 0.110716v -11.2556h 0.110716v -5.83037h 0.110716v 15.1497h 0.110716v -10.5941h 0.110716v 8.79145h 0.110716v
 8.10383h 0.110716v -27.0713h 0.110716v 15.6972h 0.110716v 5.07297h 0.110716v -1.80267h 0.110716v 19.9134h 0.110716v -9.31932h 0.110716v -25.952h 0.110716v 28.7049h 0.110716v -16.6173h 0.110716v 19.6948h 0.110716v -23.9411h 0.110716v 23.9411h
 0.110716v -8.32066h 0.221432v 2.49029h 0.110716v -10.5941h 0.110716v 10.5941h 0.110716v -6.85514h 0.110716v 2.09138h 0.110716v 4.76376h 0.110716v -10.5941h 0.110716v 10.5941h 0.110716v -13.8644h 0.110716v 5.07297h 0.110716v -11.8096h 0.110716v
 8.32066h 0.110716v 18.1108h 0.110716v -21.1882h 0.110716v 12.8676h 0.110716v 2.49029h 0.110716v 13.347h 0.110716v -25.6274h 0.110716v 18.1108h 0.110716v -8.32066h 0.110716v 15.8373h 0.110716v -20.2022h 0.110716v 2.09138h 0.110716v -15.8373h
 0.110716v 23.354h 0.110716v -19.5235h 0.110716v -4.99195h 0.110716v 11.1684h 0.110716v 13.347h 0.110716v -5.24319h 0.110716v -19.2722h 0.110716v 1.16145h 0.110716v 5.24319h 0.110716v -1.41269h 0.110716v 7.97911h 0.110716v -6.56642h 0.110716v
 -14.2038h 0.110716v -8.54952h 0.110716v -12.7322h 0.110716v -12.0461h 0.110716v -15.1214h 0.110716v -0.651613h 0.110716v -0.761073h 0.110716v 16.5341h 0.110716v 16.9596h 0.110716v 23.0553h 0.110716v 12.2804h 0.110716v 10.5941h 0.110716v 5.83037h
 0.110716v 12.2804h 0.110716v -22.8745h 0.110716v -10.5941h 0.110716v -11.5443h 0.110716v -12.3968h 0.110716v -1.68628h 0.110716v 2.87414h 0.110716v 12.1592h 0.110716v 0.986091h 0.110716v 18.1108h 0.110716v 2.09138h 0.110716v 22.8745h 0.110716v
 42.0519h 0.110716v -50.8434h 0.110716v 8.79145h 0.110716v -4.76376h 0.110716v 18.1108h 0.110716v 28.7049h 0.110716v -28.7049h 0.110716v 10.5941h 0.110716v 18.1108h 0.110716v -36.2215h 0.110716v 18.1108h 0.110716v -42.0519h 0.110716v 18.1108h
 0.221432v 5.83037h 0.110716v -18.1108h 0.110716v 54.3323h 0.110716v -54.3323h 0.110716v 18.1108h 0.110716v 18.1108h 0.110716v -18.1108h 0.110716v 7.51665h 0.110716v -7.51665h 0.221432v -14.6218h 0.110716v 32.7326h 0.221432v -23.9411h 0.110716v
 -4.76376h 0.221432v 46.8157h 0.110716v -18.1108h 0.110716v -23.9411h 0.110716v 42.0519h 0.110716v -54.3323h 0.110716v 12.2804h 0.110716v -8.79145h 0.110716v 22.1385h 0.110716v 28.7049h 0.110716v -28.7049h 0.110716v -18.1108h 0.221432v 10.5941h
 0.110716v -14.6218h 0.110716v 14.6218h 0.110716v 7.51665h 0.221432v -18.1108h 0.110716v 4.76376h 0.110716v 42.0519h 0.110716v -28.7049h 0.110716v 28.7049h 0.221432v -18.1108h 0.110716v -32.7326h 0.110716v 14.6218h 0.110716v 36.2215h 0.110716v
 -54.3323h 0.110716v 7.51665h 0.110716v -7.51665h 0.110716v 18.1108h 0.110716v 36.2215h 0.110716v -54.3323h 0.110716v -10.5941h 0.110716v 64.9264h 0.110716v -18.1108h 0.110716v -23.9411h 0.110716v -4.76376h 0.110716v 28.7049h 0.110716v -36.2215h
 0.110716v 18.1108h 0.221432v -21.1882h 0.110716v 57.4098h 0.110716v -18.1108h 0.110716v -18.1108h 0.110716v 7.51665h 0.110716v -7.51665h 0.110716v 36.2215h 0.110716v -46.8157h 0.110716v 46.8157h 0.110716v -57.4098h 0.110716v 21.1882h 0.110716v
 7.51665h 0.332148v -22.1385h 0.110716v 4.0277h 0.110716v 28.7049h 0.110716v 18.1108h 0.110716v -18.1108h 0.110716v -10.5941h 0.110716v -33.9481h 0.110716v 62.653h 0.110716v -36.2215h 0.110716v -5.83037h 0.110716v 5.83037h 0.110716v -10.5941h
 0.110716v 46.8157h 0.221432v -18.1108h 0.110716v 18.1108h 0.221432v -60.1627h 0.110716v 13.347h 0.110716v 28.7049h 0.110716v 18.1108h 0.221432v -42.0519h 0.110716v 13.347h 0.110716v 28.7049h 0.110716v -42.0519h 0.110716v 42.0519h 0.332148v -46.8157h
 0.110716v 46.8157h 0.332148v -28.7049h 0.221432v 28.7049h 0.110716v -18.1108h 0.110716v -10.5941h 0.110716v -22.1385h 0.110716v 50.8434h 0.110716v -18.1108h 0.442863v -28.7049h 0.110716v 4.76376h 0.110716v 42.0519h 0.110716v -18.1108h 0.110716v
 18.1108h 0.110716v -28.7049h 0.110716v 10.5941h 0.110716v -18.1108h 0.221432v 36.2215h 0.110716v -28.7049h 0.110716v 28.7049h 0.110716v -46.8157h 0.110716v 46.8157h 0.221432v -46.8157h 0.110716v 28.7049h 0.110716v -18.1108h 0.110716v 7.51665h
 0.110716v -13.347h 0.110716v -12.2804h 0.110716v 12.2804h 0.110716v 23.9411h 0.110716v 18.1108h 0.110716v -57.4098h 0.110716v 6.56642h 0.110716v 4.0277h 0.110716v 28.7049h 0.110716v -10.5941h 0.110716v 28.7049h 0.221432v -18.1108h 0.110716v 18.1108h
 0.110716v -50.8434h 0.110716v 22.1385h 0.110716v 28.7049h 0.110716v -36.2215h 0.110716v 7.51665h 0.110716v 10.5941h 0.110716v -23.9411h 0.110716v 42.0519h 0.332148v -36.2215h 0.110716v 36.2215h 0.110716v -18.1108h 0.110716v 18.1108h 0.110716v
 -36.2215h 0.110716v 18.1108h 0.110716v 18.1108h 0.221432v -18.1108h 0.110716v 18.1108h 0.221432v -36.2215h 0.110716v 36.2215h 0.110716v -28.7049h 0.110716v 28.7049h 0.553579v -57.4098h 0.110716v 57.4098h 0.221432v -46.8157h 0.110716v -7.51665h
 0.110716v 12.2804h 0.110716v 23.9411h 0.110716v 18.1108h 0.110716v -42.0519h 0.110716v 42.0519h 0.332148v -28.7049h 0.110716v -13.347h 0.110716v 23.9411h 0.110716v 18.1108h 0.110716v -42.0519h 0.110716v 42.0519h 0.110716v -36.2215h 0.110716v
 -10.5941h 0.110716v 46.8157h 0.110716v -36.2215h 0.110716v 7.51665h 0.110716v -18.1108h 0.110716v 46.8157h 0.110716v -54.3323h 0.110716v 18.1108h 0.110716v 36.2215h 0.110716v -42.0519h 0.110716v 42.0519h 0.442863v -18.1108h 0.221432v 18.1108h
 0.221432v -36.2215h 0.110716v 36.2215h 0.110716v -28.7049h 0.110716v 28.7049h 0.221432v -28.7049h 0.110716v -13.347h 0.110716v 13.347h 0.110716v 28.7049h 0.110716v -46.8157h 0.110716v 28.7049h 0.110716v -32.7326h 0.110716v 32.7326h 0.110716v
 18.1108h 0.221432v -18.1108h 0.110716v 18.1108h 0.110716v -18.1108h 0.110716v 18.1108h 0.221432v -18.1108h 0.110716v 18.1108h 0.110716v -28.7049h 0.110716v 10.5941h 0.110716v 18.1108h 0.110716v -46.8157h 0.110716v 46.8157h 0.110716v -18.1108h
 0.221432v -18.1108h 0.110716v 7.51665h 0.110716v -18.1108h 0.110716v 46.8157h 0.221432v -42.0519h 0.110716v 5.83037h 0.110716v 7.51665h 0.110716v -7.51665h 0.110716v -5.83037h 0.110716v 42.0519h 0.332148v -46.8157h 0.110716v 10.5941h 0.221432v
 18.1108h 0.110716v -18.1108h 0.110716v 36.2215h 0.221432v -18.1108h 0.110716v 18.1108h 0.110716v -18.1108h 0.110716v 18.1108h 0.110716v -42.0519h 0.110716v 13.347h 0.110716v 28.7049h 0.110716v -28.7049h 0.110716v 28.7049h 0.110716v -46.8157h
 0.110716v 4.76376h 0.110716v 42.0519h 0.221432v -42.0519h 0.110716v 5.83037h 0.110716v 36.2215h 0.110716v -18.1108h 0.110716v -23.9411h 0.110716v 13.347h 0.110716v 10.5941h 0.110716v 18.1108h 0.221432v -28.7049h 0.110716v 28.7049h 0.442863v
 -28.7049h 0.110716v 10.5941h 0.110716v -10.5941h 0.110716v 28.7049h 0.110716v -54.3323h 0.110716v 25.6274h 0.110716v -22.1385h 0.110716v 50.8434h 0.221432v -18.1108h 0.110716v 18.1108h 0.332148v -28.7049h 0.110716v 28.7049h 0.110716v -42.0519h
 0.110716v 13.347h 0.110716v 28.7049h 0.442863v -42.0519h 0.110716v 42.0519h 0.332148v -18.1108h 0.110716v -23.9411h 0.110716v 42.0519h 0.221432v -28.7049h 0.110716v -31.4578h 0.110716v 60.1627h 0.221432v -28.7049h 0.110716v 28.7049h 0.332148v
 -28.7049h 0.110716v 28.7049h 0.221432v -18.1108h 0.110716v 18.1108h 0.110716v -28.7049h 0.110716v 28.7049h 0.110716v -28.7049h 0.110716v 28.7049h 0.221432v -28.7049h 0.221432v -13.347h 0.110716v 42.0519h 0.110716v -18.1108h 0.110716v -18.1108h
 0.110716v 36.2215h 0.442863v -18.1108h 0.110716v 18.1108h 0.442863v -28.7049h 0.110716v 10.5941h 0.110716v 18.1108h 0.221432v -18.1108h 0.110716v -28.7049h 0.110716v 4.76376h 0.110716v 23.9411h 0.110716v -23.9411h 0.110716v 42.0519h 0.110716v
 -36.2215h 0.110716v 18.1108h 0.110716v -18.1108h 0.110716v 36.2215h 0.110716v -28.7049h 0.110716v -7.51665h 0.110716v 36.2215h 0.221432v -18.1108h 0.110716v 18.1108h 0.221432v -36.2215h 0.110716v 36.2215h 0.221432v -28.7049h 0.110716v 28.7049h
 0.110716v -57.4098h 0.110716v 57.4098h 0.110716v -50.8434h 0.110716v 50.8434h 0.221432v -18.1108h 0.110716v 18.1108h 0.221432v -28.7049h 0.110716v 28.7049h 0.332148v -18.1108h 0.110716v 18.1108h 0.221432v -28.7049h 0.110716v 28.7049h 0.221432v
 -28.7049h 0.110716v 10.5941h 0.110716v -32.7326h 0.110716v 22.1385h 0.110716v -18.1108h 0.110716v 46.8157h 0.442863v -60.1627h 0.110716v 60.1627h 0.332148v -18.1108h 0.110716v -18.1108h 0.110716v 36.2215h 0.221432v -28.7049h 0.110716v 28.7049h
 0.221432v -42.0519h 0.221432v 42.0519h 0.442863v -36.2215h 0.110716v 36.2215h 0.775011v -18.1108h 0.110716v -36.2215h 0.110716v 54.3323h 0.442863v -42.0519h 0.110716v 42.0519h 0.775011v -18.1108h 0.110716v -23.9411h 0.110716v 42.0519h 0.775011v
 -28.7049h 0.110716v 10.5941h 0.110716v -18.1108h 0.110716v 7.51665h 0.110716v 10.5941h 0.110716v 18.1108h 0.221432v -18.1108h 0.110716v 18.1108h 0.110716v -28.7049h 0.110716v 28.7049h 0.110716v -28.7049h 0.110716v -13.347h 0.110716v 23.9411h
 0.110716v -18.1108h 0.110716v 36.2215h 0.110716v -36.2215h 0.110716v 7.51665h 0.110716v 28.7049h 0.221432v -28.7049h 0.110716v 10.5941h 0.110716v -10.5941h 0.110716v 10.5941h 0.110716v 18.1108h 0.221432v -18.1108h 0.110716v 18.1108h 0.110716v
 -18.1108h 0.221432v 18.1108h 0.664295v -28.7049h 0.221432v 28.7049h 0.332148v -18.1108h 0.110716v 18.1108h 0.221432v -18.1108h 0.110716v -10.5941h 0.110716v 28.7049h 1.10716v -28.7049h 0.221432v 28.7049h 0.110716v -42.0519h 0.110716v 23.9411h
 0.110716v -10.5941h 0.110716v 28.7049h 0.442863v -50.8434h 0.110716v 50.8434h 0.221432v -18.1108h 0.110716v 18.1108h 0.110716v -28.7049h 0.110716v 28.7049h 0.221432v -18.1108h 0.110716v 18.1108h 0.110716v -28.7049h 0.110716v 10.5941h 0.110716v
 18.1108h 0.332148v -46.8157h 0.110716v 46.8157h 0.221432v -18.1108h 0.110716v 18.1108h 0.110716v -36.2215h 0.110716v 36.2215h 0.110716v -18.1108h 0.110716v 18.1108h 0.110716v -18.1108h 0.110716v 18.1108h 0.442863v -28.7049h 0.110716v 28.7049h
 0.221432v -36.2215h 0.110716v 36.2215h 0.110716v -42.0519h 0.110716v -8.79145h 0.110716v 50.8434h 0.221432v -18.1108h 0.110716v -10.5941h 0.110716v 28.7049h 0.110716v -42.0519h 0.110716v 42.0519h 0.221432v -36.2215h 0.110716v -10.5941h 0.110716v
 46.8157h 0.221432v -28.7049h 0.110716v 10.5941h 0.110716v -10.5941h 0.110716v 28.7049h 0.442863v -18.1108h 0.110716v 18.1108h 0.885727v -18.1108h 0.110716v 18.1108h 0.221432v -42.0519h 0.110716v 42.0519h 0.664295v -28.7049h 0.110716v 28.7049h
 0.221432v -18.1108h 0.110716v 18.1108h 0.664295v -36.2215h 0.110716v 36.2215h 0.442863v -28.7049h 0.110716v 28.7049h 0.442863v -18.1108h 0.221432v -18.1108h 0.110716v 36.2215h 0.110716v -28.7049h 0.110716v 10.5941h 0.110716v 18.1108h 0.110716v
 -42.0519h 0.110716v 23.9411h 0.110716v 18.1108h 0.885727v -36.2215h 0.110716v 18.1108h 0.221432v -23.9411h 0.110716v 42.0519h 0.110716v -18.1108h 0.110716v 18.1108h 0.442863v -28.7049h 0.110716v 28.7049h 0.221432v -28.7049h 0.110716v 28.7049h
 0.110716v -36.2215h 0.110716v 36.2215h 0.110716v -28.7049h 0.110716v 28.7049h 0.221432v -18.1108h 0.110716v 18.1108h 0.110716v -50.8434h 0.110716v 50.8434h 0.553579v -28.7049h 0.110716v 28.7049h 0.221432v -36.2215h 0.110716v 36.2215h 0.221432v
 -36.2215h 0.110716v 36.2215h 0.110716v -18.1108h 0.110716v -10.5941h 0.110716v 28.7049h 0.110716v -28.7049h 0.110716v 28.7049h 0.110716v -28.7049h 0.110716v -7.51665h 0.110716v 36.2215h 0.442863v -18.1108h 0.221432v 18.1108h 0.110716v -18.1108h
 0.110716v -10.5941h 0.110716v 28.7049h 0.110716v -18.1108h 0.110716v 18.1108h 0.221432v -18.1108h 0.110716v 18.1108h 0.110716v -36.2215h 0.110716v 36.2215h 0.442863v -18.1108h 0.110716v 18.1108h 0.110716v -18.1108h 0.110716v -10.5941h 0.221432v
 28.7049h 0.221432v -18.1108h 0.110716v 18.1108h 0.110716v -18.1108h 0.110716v 18.1108h 0.664295v -36.2215h 0.110716v 18.1108h 0.110716v 18.1108h 0.221432v -18.1108h 0.110716v 18.1108h 0.221432v -28.7049h 0.110716v 10.5941h 0.110716v -10.5941h
 0.110716v 10.5941h 0.110716v 18.1108h 0.110716v -18.1108h 0.110716v -10.5941h 0.110716v -7.51665h 0.110716v 36.2215h 0.110716v -42.0519h 0.110716v 23.9411h 0.110716v 18.1108h 0.221432v -18.1108h 0.110716v 18.1108h 1.88217v -18.1108h 0.110716v
 18.1108h 0.664295v -28.7049h 0.110716v 10.5941h 0.110716v 18.1108h 0.332148v -18.1108h 0.110716v 18.1108h 0.110716v -18.1108h 0.110716v 18.1108h 1.10716v -18.1108h 0.110716v 18.1108h 0.110716v -18.1108h 0.110716v -10.5941h 0.110716v 10.5941h
 0.110716v 18.1108h 0.442863v -18.1108h 0.110716v 18.1108h 0.442863v -18.1108h 0.332148v 18.1108h 0.221432v -18.1108h 0.110716v 18.1108h 0.442863v -28.7049h 0.110716v -7.51665h 0.110716v 7.51665h 0.110716v -7.51665h 0.110716v 36.2215h 0.221432v
 -42.0519h 0.110716v 42.0519h 0.442863v -36.2215h 0.110716v 36.2215h 0.110716v -28.7049h 0.110716v 28.7049h 0.221432v -18.1108h 0.110716v 18.1108h 0.221432v -18.1108h 0.110716v 18.1108h 0.221432v -28.7049h 0.110716v 28.7049h 0.553579v -28.7049h
 0.110716v 28.7049h 1.66074v -18.1108h 0.110716v 18.1108h 0.110716v -18.1108h 0.110716v 18.1108h 0.221432v -18.1108h 0.110716v 18.1108h 0.110716v -18.1108h 0.221432v 18.1108h 0.221432v -18.1108h 0.110716v 18.1108h 0.110716v -28.7049h 0.110716v
 28.7049h 0.110716v -18.1108h 0.110716v 18.1108h 0.996443v -28.7049h 0.110716v 28.7049h 1.43931v -28.7049h 0.110716v 28.7049h 0.221432v -46.8157h 0.110716v 46.8157h 1.32859v -28.7049h 0.221432v 28.7049h 0.442863v -18.1108h 0.110716v 18.1108h
 0.110716v -18.1108h 0.110716v 18.1108h 2.1036v -18.1108h 0.110716v 18.1108h 1.66074v -18.1108h 0.110716v 18.1108h 0.553579v -18.1108h 0.110716v 18.1108h 0.332148v -18.1108h 0.221432v 18.1108h 0.775011v -18.1108h 0.110716v 18.1108h 0.110716v
 -18.1108h 0.221432v 18.1108h 1.21787v -18.1108h 0.110716v 18.1108h 0.442863v -18.1108h 0.110716v 18.1108h 0.775011v -18.1108h 0.110716v 18.1108h 1.43931v -18.1108h 0.110716v 18.1108h 0.442863v -18.1108h 0.110716v 18.1108h 6.75367v -18.1108h
 0.110716v 18.1108h 1.10716v -18.1108h 0.110716v 18.1108h 0.775011v -18.1108h 0.110716v 18.1108h 2.1036v -28.7049h 0.110716v 28.7049h 0.885727v -18.1108h 0.110716v 18.1108h 1.21787v -18.1108h 0.110716v 18.1108h 0.110716v -18.1108h 0.110716v 18.1108h
 2.21432v -18.1108h 0.110716v 18.1108h 0.442863v -18.1108h 0.110716v 18.1108h 0.553579v -18.1108h 0.110716v 18.1108h 0.996443v -18.1108h 0.110716v 18.1108h 0.553579v -18.1108h 0.110716v 18.1108h 1.55002v -28.7049h 0.110716v 28.7049h 0.442863v
 -18.1108h 0.110716v 18.1108h 0.553579v -28.7049h 0.110716v 28.7049h 0.221432v -18.1108h 0.110716v 18.1108h 0.110716v -18.1108h 0.221432v 18.1108h 0.442863v -18.1108h 0.110716v 18.1108h 0.442863v -18.1108h 0.110716v 18.1108h 1.43931v -36.2215h
 0.110716v 36.2215h 1.77145v -18.1108h 0.110716v 18.1108h 0.664295v -28.7049h 0.110716v 10.5941h 0.110716v 18.1108h 0.221432v -18.1108h 0.110716v 18.1108h 1.21787v -18.1108h 0.110716v 18.1108h 0.775011v -18.1108h 0.110716v 18.1108h 0.110716v
 -28.7049h 0.110716v 28.7049h 0.110716v -18.1108h 0.110716v 18.1108h 0.221432v -18.1108h 0.110716v 18.1108h 0.221432v -18.1108h 0.110716v 18.1108h 1.66074v -18.1108h 0.110716v 18.1108h 3.43219v -28.7049h 0.110716v 28.7049h 1.21787v -28.7049h
 0.110716v 28.7049h 1.55002v -18.1108h 0.110716v 18.1108h 3.32148v -18.1108h 0.110716v -10.5941h 0.110716v 28.7049h 0.664295v -28.7049h 0.110716v 28.7049h 0.996443v -18.1108h 0.110716v 18.1108h 1.10716v -18.1108h 0.110716v 18.1108h 1.10716v -28.7049h
 0.110716v 28.7049h 0.221432v -36.2215h 0.110716v 36.2215h 0.221432v -18.1108h 0.110716v 18.1108h 0.110716v -18.1108h 0.110716v 18.1108h 0.110716v -18.1108h 0.221432v 18.1108h 1.10716v -28.7049h 0.110716v 28.7049h 1.55002v -18.1108h 0.110716v
 18.1108h 3.98577v -18.1108h 0.110716v 18.1108h 0.221432v -18.1108h 0.221432v 18.1108h 1.10716v -18.1108h 0.110716v 18.1108h 2.65718v -18.1108h 0.110716v 18.1108h 0.442863v -18.1108h 0.110716v 18.1108h 0.442863v -28.7049h 0.110716v 28.7049h 0.664295v
 -18.1108h 0.110716v 18.1108h 2.32503v -18.1108h 0.110716v -10.5941h 0.110716v 28.7049h 1.88217v -18.1108h 0.110716v 18.1108h 0.885727v -28.7049h 0.110716v 28.7049h 0.110716v -18.1108h 0.110716v 18.1108h 0.442863v -18.1108h 0.110716v 18.1108h
 1.10716v -18.1108h 0.110716v 18.1108h 0.332148v -28.7049h 0.110716v 28.7049h 0.885727v -18.1108h 0.110716v 18.1108h 0.775011v -18.1108h 0.110716v 18.1108h 0.332148v -18.1108h 0.110716v -10.5941h 0.110716v 28.7049h 0.332148v -18.1108h 0.110716v
 18.1108h 0.110716v -18.1108h 0.110716v 18.1108h 0.664295v -18.1108h 0.110716v 18.1108h 2.54646v -42.0519h 0.110716v 42.0519h 0.664295v -18.1108h 0.110716v 18.1108h 0.553579v -18.1108h 0.221432v 18.1108h 0.664295v -18.1108h 0.110716v 18.1108h
 0.664295v -54.3323h 0.110716v 36.2215h 0.110716v 18.1108h 3.76434v -18.1108h 0.110716v 18.1108h 1.66074v -18.1108h 0.110716v 18.1108h 2.21432v -28.7049h 0.110716v 28.7049h 0.221432v -28.7049h 0.110716v 28.7049h 1.21787v -18.1108h 0.110716v 18.1108h
 0.442863v -28.7049h 0.110716v 28.7049h 0.885727v -28.7049h 0.110716v 28.7049h 1.66074v -18.1108h 0.110716v 18.1108h 0.664295v -18.1108h 0.110716v 18.1108h 0.332148v -18.1108h 0.110716v 18.1108h 0.332148v -28.7049h 0.110716v 28.7049h 0.442863v
 -18.1108h 0.110716v 18.1108h 0.442863v -18.1108h 0.110716v 18.1108h 0.775011v -28.7049h 0.110716v 28.7049h 2.54646v -18.1108h 0.110716v 18.1108h 1.66074v -18.1108h 0.110716v 18.1108h 1.66074v -18.1108h 0.110716v 18.1108h 0.221432v -18.1108h
 0.110716v 18.1108h 0.332148v -18.1108h 0.110716v 18.1108h 0.332148v -18.1108h 0.221432v 18.1108h 3.76434v -18.1108h 0.110716v 18.1108h 0.110716v -18.1108h 0.110716v 18.1108h 0.221432v -36.2215h 0.110716v -18.1108h 0.110716v 25.6274h 0.110716v
 28.7049h 0.110716v -28.7049h 0.110716v 10.5941h 0.110716v 18.1108h 0.553579v -18.1108h 0.110716v 18.1108h 0.442863v -18.1108h 0.110716v 18.1108h 0.442863v -18.1108h 0.110716v 18.1108h 0.221432v -18.1108h 0.110716v 18.1108h 0.110716v -18.1108h
 0.110716v 18.1108h 0.221432v -18.1108h 0.110716v 18.1108h 1.21787v -18.1108h 0.110716v 18.1108h 1.99289v -18.1108h 0.110716v 18.1108h 0.442863v -18.1108h 0.110716v 18.1108h 3.10004v -18.1108h 0.110716v 18.1108h 0.664295v -28.7049h 0.110716v 28.7049h
 1.32859v -28.7049h 0.110716v 28.7049h 4.98221v -18.1108h 0.110716v 18.1108h 0.664295v -18.1108h 0.110716v 18.1108h 3.21076v -18.1108h 0.110716v 18.1108h 2.1036v -18.1108h 0.110716v 18.1108h 0.110716v -18.1108h 0.110716v 18.1108h 1.10716v -18.1108h
 0.110716v 18.1108h 3.32148v -18.1108h 0.110716v 18.1108h 1.55002v -28.7049h 0.110716v 28.7049h 1.21787v -18.1108h 0.110716v 18.1108h 0.775011v -18.1108h 0.110716v 18.1108h 0.332148v -18.1108h 0.110716v 18.1108h 0.110716v -18.1108h 0.110716v 18.1108h
 0.664295v -28.7049h 0.110716v 28.7049h 0.442863v -18.1108h 0.110716v 18.1108h 0.110716v -28.7049h 0.221432v 28.7049h 2.1036v -18.1108h 0.110716v 18.1108h 0.221432v -18.1108h 0.110716v 18.1108h 0.553579v -18.1108h 0.110716v 18.1108h 1.66074v
 -18.1108h 0.221432v 18.1108h 0.110716v -28.7049h 0.110716v 28.7049h 9.30013v -18.1108h 0.110716v 18.1108h 5.42508v -36.2215h 0.110716v 36.2215h 0.775011v -28.7049h 0.110716v 28.7049h 1.55002v -18.1108h 0.110716v 18.1108h 1.66074v -18.1108h 0.110716v
 18.1108h 3.43219v -18.1108h 0.221432v 18.1108h 0.664295v -18.1108h 0.110716v 18.1108h 1.99289v -18.1108h 0.110716v 18.1108h 0.442863v -18.1108h 0.110716v 18.1108h 2.21432" fill="none" stroke="#ff0000"/>
<rect x="340.657" y="41.4549" width="170.079" height="82.9098" fill="white"/>
<path d="M340.657,124.365h 170.079" fill="none" stroke="black"/>
<path d="M510.736,124.365v -82.9098" fill="none" stroke="black"/>
<path d="M510.736,41.4549h -170.079" fill="none" stroke="black"/>
<path d="M340.657,41.4549v 82.9098" fill="none" stroke="black"/>
<text xml:space="preserve" x="382.87" y="65.3057" fill="black" font-size="8.61415" font-family="Helvetica">Simulated Resolution corrected</text>
<path d="M347.035,76.6916h 29.7638v -29.0184h -29.7638z" fill="white"/>
<path d="M347.035,62.1824h 29.7638" fill="none" stroke="#0000ff"/>
<g stroke="black" stroke-width="1" fill="none">
<line x1="360.917" y1="62.1824" x2="361.917" y2="62.1824"/>
</g>
<text xml:space="preserve" x="382.87" y="106.003" fill="black" font-size="8.61415" font-family="Helvetica">Experimental Bg removed</text>
<path d="M347.035,118.147h 29.7638v -29.0184h -29.7638z" fill="white"/>
<path d="M347.035,103.637h 29.7638" fill="none" stroke="#ff0000"/>
<g stroke="black" stroke-width="1" fill="none">
<line x1="360.917" y1="103.637" x2="361.917" y2="103.637"/>
</g>
<text xml:space="preserve" x="205.882" y="19.8756" fill="black" font-size="18.28" font-family="Helvetica">Run09-133Ba-8mm</text></svg>
